<svg xmlns="http://www.w3.org/2000/svg" viewBox="0 0 60 60"><title>12- Research</title><g id="_12-_Research" data-name="12- Research"><rect x="1" y="10" width="58" height="38" rx="2" ry="2" style="fill:#4092f2"/><path d="M1,46a2.151,2.151,0,0,0,2,2H57a2.151,2.151,0,0,0,2-2V40H1Z" style="fill:#9b9a9e"/><polygon points="22 55 23 48 37 48 38 55 22 55" style="fill:#9b9a9e"/><rect x="23" y="48" width="14" height="3" style="fill:#4d4c50"/><path d="M40,56a.979.979,0,0,0-1-1H21a.979.979,0,0,0-1,1v2H40Z" style="fill:#9b9a9e"/><rect x="5" y="14" width="50" height="26" style="fill:#80b6f7"/><path d="M15,33a2.8,2.8,0,0,0,3,3,2.8,2.8,0,0,0,3-3V14H15Z" style="fill:#006dee"/><rect x="15" y="10" width="6" height="4" style="fill:#004dda"/><path d="M13,31a2.8,2.8,0,0,0,3,3,2.8,2.8,0,0,0,3-3V6h2V2H11V6h2Z" style="fill:#e2ecf5"/><path d="M13,31a2.8,2.8,0,0,0,3,3,4.38,4.38,0,0,1-1-3V6H13Z" style="fill:#c5d9ec"/><path d="M13,31a2.8,2.8,0,0,0,3,3,2.8,2.8,0,0,0,3-3V14H13Z" style="fill:#f5bd74"/><path d="M13,31a2.8,2.8,0,0,0,3,3,4.38,4.38,0,0,1-1-3V14H13Z" style="fill:#ec8500"/><circle cx="40" cy="27" r="3" style="fill:#ec8500"/><circle cx="34" cy="20" r="2" style="fill:#dedddf"/><circle cx="49" cy="22" r="2" style="fill:#0ea8b2"/><circle cx="49" cy="32" r="2" style="fill:#b89558"/><circle cx="33" cy="34" r="2" style="fill:#87d3d8"/><path d="M57,49H3a3.16,3.16,0,0,1-3-3V12A2.916,2.916,0,0,1,3,9h7v2H3a.919.919,0,0,0-1,1.012V46a1.17,1.17,0,0,0,1,1H57a1.17,1.17,0,0,0,1-1V12a.915.915,0,0,0-1-1H22V9H57a2.916,2.916,0,0,1,3,3V46A3.16,3.16,0,0,1,57,49Z"/><rect x="1" y="39" width="58" height="2"/><rect x="18.964" y="50.5" width="7.071" height="2" transform="translate(-31.667 66.479) rotate(-81.858)"/><rect x="36.5" y="47.964" width="2" height="7.071" transform="translate(-6.906 5.821) rotate(-8.13)"/><path d="M41,59H19V56a1.959,1.959,0,0,1,2-2H39a1.959,1.959,0,0,1,2,2ZM21,57H39v-.972L21,56Z"/><path d="M16,35a4,4,0,0,1-4-4V7H11a1,1,0,0,1-1-1V2a1,1,0,0,1,1-1H21a1,1,0,0,1,1,1V6a1,1,0,0,1-1,1H20V31A4,4,0,0,1,16,35ZM12,5h1a1,1,0,0,1,1,1V31a2,2,0,0,0,4,0V6a1,1,0,0,1,1-1h1V3H12Z"/><path d="M34,23a3,3,0,1,1,3-3A3,3,0,0,1,34,23Zm0-4a1,1,0,1,0,1,1A1,1,0,0,0,34,19Z"/><path d="M49,35a3,3,0,1,1,3-3A3,3,0,0,1,49,35Zm0-4a1,1,0,1,0,1,1A1,1,0,0,0,49,31Z"/><path d="M33,37a3,3,0,1,1,3-3A3,3,0,0,1,33,37Zm0-4a1,1,0,1,0,1,1A1,1,0,0,0,33,33Z"/><path d="M49,25a3,3,0,1,1,3-3A3,3,0,0,1,49,25Zm0-4a1,1,0,1,0,1,1A1,1,0,0,0,49,21Z"/><path d="M40,31a4,4,0,1,1,4-4A4,4,0,0,1,40,31Zm0-6a2,2,0,1,0,2,2A2,2,0,0,0,40,25Z"/><rect x="35.5" y="21.379" width="2" height="4.243" transform="translate(-5.926 32.692) rotate(-45)"/><rect x="33.172" y="30" width="5.657" height="2" transform="translate(-11.376 34.536) rotate(-45)"/><rect x="43.5" y="27.307" width="2.001" height="5.385" transform="translate(0.119 60.175) rotate(-68.199)"/><rect x="41.585" y="23.5" width="5.831" height="2" transform="translate(-6.263 26.395) rotate(-30.973)"/><path d="M6,34H4V14a1,1,0,0,1,1-1h5v2H6Z"/><path d="M56,34H54V15H22V13H55a1,1,0,0,1,1,1Z"/><rect x="8" y="17" width="2" height="2"/><rect x="8" y="21" width="2" height="2"/><rect x="8" y="25" width="2" height="2"/></g></svg>