<svg xmlns="http://www.w3.org/2000/svg" viewBox="0 0 60 60"><title>16-Flask</title><g id="_16-Flask" data-name="16-Flask"><polygon points="13 34 9 26 47 26 47 34 47 59 13 59 13 34" style="fill:#e2ecf5"/><polygon points="17 34 13 26 13 26 9 26 13 34 13 59 17 59 17 34" style="fill:#c5d9ec"/><rect x="13" y="39" width="34" height="20" style="fill:#87d3d8"/><rect x="13" y="39" width="4" height="20" style="fill:#0ea8b2"/><path d="M34,8c0-2.209-4-7-4-7s-4,4.791-4,7a4,4,0,0,0,8,0Z" style="fill:#f5bd74"/><path d="M28,8c0-2.209,2-7,2-7s-4,4.791-4,7a4,4,0,0,0,4,4A6.237,6.237,0,0,1,28,8Z" style="fill:#ec8500"/><path d="M47,32v3H40V48a2,2,0,0,1-4,0V35c-4,0-5-3-5-3Z" style="fill:#9b9a9e"/><path d="M40,39v9a2,2,0,0,1-4,0V39Z" style="fill:#0ea8b2"/><path d="M15,23a2,2,0,0,1,4,0h0a7,7,0,0,1,14,0h0a2,2,0,0,1,4,0h0a5,5,0,0,1,10,0h0a4,4,0,0,1,0,8v3H38V47a2,2,0,0,1-4,0V34a4,4,0,0,1,0-8H15Z" style="fill:#bcbbbe"/><path d="M19,23h2a6.459,6.459,0,0,1,3-5c3-2,4-1,4-1s-4-2-7,1A7.809,7.809,0,0,0,19,23Z" style="fill:#9b9a9e"/><path d="M37,23h2s1-4,5-4c0,0-1.775-1.612-5,0C37,20,37,23,37,23Z" style="fill:#9b9a9e"/><path d="M36,50a3.16,3.16,0,0,1-3-3V34.9A5,5,0,0,1,34,25v2a3,3,0,0,0,0,6,1,1,0,0,1,1,1V47a1,1,0,0,0,2,0V34h2V47A3.16,3.16,0,0,1,36,50Z"/><path d="M46,60H14a1.959,1.959,0,0,1-2-2V34.236L8.105,26.447A1,1,0,0,1,9,25H33v2H10.618L13.9,33.553A1,1,0,0,1,14,34V58H46V31a1,1,0,0,1,1-1,3,3,0,0,0,0-6,1,1,0,0,1-1-1,4,4,0,0,0-8,0,1,1,0,0,1-2,0,1,1,0,0,0-2,0,1,1,0,0,1-2,0,6,6,0,0,0-12,0,1,1,0,0,1-2,0,1,1,0,0,0-2,0H14a3,3,0,0,1,4.444-2.629,8,8,0,0,1,15.112,0,3.12,3.12,0,0,1,3.015.074,6,6,0,0,1,11.36,1.642A5,5,0,0,1,48,31.9V58A1.959,1.959,0,0,1,46,60Z"/><rect x="17" y="36" width="4" height="2"/><rect x="17" y="41" width="4" height="2"/><rect x="17" y="46" width="4" height="2"/><rect x="17" y="51" width="4" height="2"/><path d="M30,13a5.006,5.006,0,0,1-5-5c0-2.447,3.525-6.794,4.232-7.641a1.035,1.035,0,0,1,1.536,0C31.475,1.206,35,5.553,35,8A5.006,5.006,0,0,1,30,13ZM30,2.6C28.57,4.471,27,6.927,27,8a3,3,0,0,0,6,0C33,6.925,31.431,4.47,30,2.6Z"/></g></svg>