<svg xmlns="http://www.w3.org/2000/svg" viewBox="0 0 60 60"><title>17-Flask</title><g id="_17-Flask" data-name="17-Flask"><path d="M23,35v3h3v2L20,58a.979.979,0,0,0,1,1H39a.979.979,0,0,0,1-1L34,40V38h3V35Z" style="fill:#e2ecf5"/><path d="M29,38v2L23,58a.979.979,0,0,0,1,1H21a.979.979,0,0,1-1-1l6-18V38Z" style="fill:#c5d9ec"/><path d="M24,46,20,58a.979.979,0,0,0,1,1H39a.979.979,0,0,0,1-1L36,46Z" style="fill:#4092f2"/><path d="M27,46,23,58a.979.979,0,0,0,1,1H21a.979.979,0,0,1-1-1l4-12Z" style="fill:#006dee"/><circle cx="28" cy="52" r="2" style="fill:#bfdbfb"/><polygon points="31 26 34 26 34 31 40 26 59 26 59 10 31 10 31 26" style="fill:#87d3d8"/><path d="M59,10H31V24h4a.979.979,0,0,0,1-1V12H59Z" style="fill:#0ea8b2"/><polygon points="1 21 20 21 26 28 26 21 33 21 33 5 1 5 1 21" style="fill:#f5bd74"/><polygon points="3 21 1 21 1 5 33 5 33 7 3 7 3 21" style="fill:#ec8500"/><path d="M39,60H21a1.959,1.959,0,0,1-2-2,1,1,0,0,1,.051-.316L25,39.838V39H23a1,1,0,0,1-1-1V35a1,1,0,0,1,1-1H37a1,1,0,0,1,1,1v3a1,1,0,0,1-1,1H35v.838l5.949,17.846A1,1,0,0,1,41,58,1.959,1.959,0,0,1,39,60ZM21.054,58H38.946L33.051,40.316A1,1,0,0,1,33,40V38a1,1,0,0,1,1-1h2V36H24v1h2a1,1,0,0,1,1,1v2a1,1,0,0,1-.051.316Z"/><rect x="30" y="37" width="4" height="2"/><path d="M28,55a3,3,0,1,1,3-3A3,3,0,0,1,28,55Zm0-4a1,1,0,1,0,1,1A1,1,0,0,0,28,51Z"/><rect x="30" y="46" width="2" height="2"/><rect x="33" y="54" width="2" height="2"/><path d="M34,32a.989.989,0,0,1-.424-.095A1,1,0,0,1,33,31V27H31a1,1,0,0,1-1-1V24h2v1h2a1,1,0,0,1,1,1v2.865l4.36-3.634A1,1,0,0,1,40,25H58V11H36V9H59a1,1,0,0,1,1,1V26a1,1,0,0,1-1,1H40.362L34.64,31.769A1,1,0,0,1,34,32Z"/><path d="M26,29a1,1,0,0,1-.759-.35L19.54,22H1a1,1,0,0,1-1-1V5A1,1,0,0,1,1,4H33a1,1,0,0,1,1,1V21a1,1,0,0,1-1,1H27v6a1,1,0,0,1-.653.938A1.021,1.021,0,0,1,26,29ZM2,20H20a1,1,0,0,1,.759.35L25,25.3V21a1,1,0,0,1,1-1h6V6H2Z"/><rect x="12" y="12" width="2" height="2"/><rect x="16" y="12" width="2" height="2"/><rect x="20" y="12" width="2" height="2"/><rect x="45" y="17" width="2" height="2"/><rect x="49" y="17" width="2" height="2"/><rect x="41" y="17" width="2" height="2"/></g></svg>