<svg xmlns="http://www.w3.org/2000/svg" viewBox="0 0 60 60"><title>18-Brain</title><g id="_18-Brain" data-name="18-Brain"><path d="M32,38V49a10,10,0,0,1-20,0h0A11,11,0,0,1,1,38c0-6,3-8,5-8-2,0-5-2-5-8A11,11,0,0,1,12,11h0A10,10,0,0,1,22,1c5.523,0,10,4.477,10,9V22" style="fill:#f5bd74"/><path d="M19,59c-6-1-7-9-7-9S1,48,1,40c0-9,4-10,4-10s-4-1-4-7c0-7,4-12,11-12C12,0,25,1,25,1V2A10,10,0,0,0,15,12h0A11,11,0,0,0,4,23c0,6,3,8,5,8-2,0-5,2-5,8A11,11,0,0,0,15,50h0c0,6,5,9,6,9Z" style="fill:#ec8500"/><polygon points="45 1 41 1 39 5 41 9 45 9 47 5 45 1" style="fill:#80b6f7"/><polygon points="57 26 53 26 51 30 53 34 57 34 59 30 57 26" style="fill:#80b6f7"/><polygon points="45 51 41 51 39 55 41 59 45 59 47 55 45 51" style="fill:#80b6f7"/><polygon points="39 5 41 1 45 1 46 3 42 3 40 7 39 5" style="fill:#4092f2"/><polygon points="51 30 53 26 57 26 58 28 54 28 52 32 51 30" style="fill:#4092f2"/><polygon points="39 55 41 51 45 51 46 53 42 53 40 57 39 55" style="fill:#4092f2"/><circle cx="42" cy="15" r="2" style="fill:#87d3d8"/><circle cx="46" cy="23" r="2" style="fill:#87d3d8"/><circle cx="42" cy="45" r="2" style="fill:#87d3d8"/><circle cx="46" cy="37" r="2" style="fill:#87d3d8"/><path d="M28,15h2c0,7-5,10-10,10-4,0-7-3-7-6a7.943,7.943,0,0,0,7,4A7.887,7.887,0,0,0,28,15Z" style="fill:#ec8500"/><path d="M12,44a8.613,8.613,0,0,1,8-5c6,0,6,7,6,7h3c0-2-1-9-7-9S13,39,12,44Z" style="fill:#ec8500"/><path d="M22,60A11.016,11.016,0,0,1,11.042,49.962,12.017,12.017,0,0,1,0,38c0-4.412,1.508-6.812,3.148-8C1.508,28.812,0,26.412,0,22A12.017,12.017,0,0,1,11.042,10.038,11.016,11.016,0,0,1,22,0c5.86,0,11,4.673,11,10V22H31V10c0-3.776-3.849-8-9-8a9.01,9.01,0,0,0-9,9,1,1,0,0,1-1,1A10.011,10.011,0,0,0,2,22c0,5.537,2.617,7,4,7a1,1,0,0,1,0,2c-1.383,0-4,1.463-4,7A10.011,10.011,0,0,0,12,48a1,1,0,0,1,1,1,9,9,0,0,0,18,0V38h2V49A11.013,11.013,0,0,1,22,60Z"/><path d="M45,10H41a1,1,0,0,1-.9-.553l-2-4a1,1,0,0,1,0-.894l2-4A1,1,0,0,1,41,0h4a1,1,0,0,1,.9.553l2,4a1,1,0,0,1,0,.894l-2,4A1,1,0,0,1,45,10ZM41.618,8h2.764l1.5-3-1.5-3H41.618l-1.5,3Z"/><path d="M57,35H53a1,1,0,0,1-.9-.553l-2-4a1,1,0,0,1,0-.894l2-4A1,1,0,0,1,53,25h4a1,1,0,0,1,.9.553l2,4a1,1,0,0,1,0,.894l-2,4A1,1,0,0,1,57,35Zm-3.382-2h2.764l1.5-3-1.5-3H53.618l-1.5,3Z"/><path d="M45,60H41a1,1,0,0,1-.9-.553l-2-4a1,1,0,0,1,0-.894l2-4A1,1,0,0,1,41,50h4a1,1,0,0,1,.9.553l2,4a1,1,0,0,1,0,.894l-2,4A1,1,0,0,1,45,60Zm-3.382-2h2.764l1.5-3-1.5-3H41.618l-1.5,3Z"/><rect x="34" y="4" width="2" height="2"/><rect x="35" y="10" width="2" height="2"/><rect x="35" y="14" width="2" height="2"/><rect x="35" y="29" width="2" height="2"/><rect x="31" y="29" width="2" height="2"/><rect x="31" y="24" width="2" height="2"/><rect x="31" y="34" width="2" height="2"/><rect x="40" y="29" width="2" height="2"/><rect x="45" y="29" width="2" height="2"/><rect x="17" y="29" width="2" height="2"/><rect x="12" y="29" width="2" height="2"/><rect x="12" y="25" width="2" height="2"/><rect x="12" y="33" width="2" height="2"/><rect x="22" y="29" width="2" height="2"/><rect x="27" y="29" width="2" height="2"/><rect x="50" y="10.292" width="2" height="13.416" transform="translate(-2.218 24.603) rotate(-26.565)"/><rect x="43.841" y="42.5" width="14.318" height="2" transform="translate(-9.862 71.589) rotate(-65.237)"/><rect x="34" y="54" width="2" height="2"/><path d="M39,20H35V18h3.465l1.7-2.555,1.664,1.11-2,3A1,1,0,0,1,39,20Z"/><path d="M41,26H35V24h5.586l1.707-1.707A1,1,0,0,1,43,22h1v2h-.586l-1.707,1.707A1,1,0,0,1,41,26Z"/><path d="M42,18a3,3,0,1,1,3-3A3,3,0,0,1,42,18Zm0-4a1,1,0,1,0,1,1A1,1,0,0,0,42,14Z"/><path d="M46,26a3,3,0,1,1,3-3A3,3,0,0,1,46,26Zm0-4a1,1,0,1,0,1,1A1,1,0,0,0,46,22Z"/><rect x="35" y="48" width="2" height="2"/><rect x="35" y="44" width="2" height="2"/><path d="M40.168,44.555,38.465,42H35V40h4a1,1,0,0,1,.832.445l2,3Z"/><path d="M44,38H43a1,1,0,0,1-.707-.293L40.586,36H35V34h6a1,1,0,0,1,.707.293L43.414,36H44Z"/><path d="M42,48a3,3,0,1,1,3-3A3,3,0,0,1,42,48Zm0-4a1,1,0,1,0,1,1A1,1,0,0,0,42,44Z"/><path d="M46,40a3,3,0,1,1,3-3A3,3,0,0,1,46,40Zm0-4a1,1,0,1,0,1,1A1,1,0,0,0,46,36Z"/><path d="M20,24a9.01,9.01,0,0,1-9-9h2a7,7,0,0,0,14,0h2A9.01,9.01,0,0,1,20,24Z"/><path d="M29,45H27a7,7,0,0,0-14,0H11a9,9,0,0,1,18,0Z"/></g></svg>