<svg xmlns="http://www.w3.org/2000/svg" viewBox="0 0 60 60"><title>2-Flask</title><g id="_2-Flask" data-name="2-Flask"><path d="M44,49a3,3,0,0,0,6,0V13h2V9H42v4h2Z" style="fill:#e2ecf5"/><path d="M44,49a3,3,0,0,0,6,0V24H44Z" style="fill:#f5bd74"/><path d="M44,49a2.8,2.8,0,0,0,3,3,4.38,4.38,0,0,1-1-3V13H44Z" style="fill:#c5d9ec"/><path d="M44,49a2.8,2.8,0,0,0,3,3,4.38,4.38,0,0,1-1-3V24H44Z" style="fill:#ec8500"/><path d="M29,49a3,3,0,0,0,6,0V13h2V9H27v4h2Z" style="fill:#e2ecf5"/><path d="M29,49a3,3,0,0,0,6,0V24H29Z" style="fill:#87d3d8"/><path d="M29,49a2.8,2.8,0,0,0,3,3,4.38,4.38,0,0,1-1-3V13H29Z" style="fill:#c5d9ec"/><path d="M29,49a2.8,2.8,0,0,0,3,3,4.38,4.38,0,0,1-1-3V24H29Z" style="fill:#0ea8b2"/><polygon points="14 22 20 22 20 13 22 13 22 9 12 9 12 13 14 13 14 22" style="fill:#e2ecf5"/><rect x="14" y="13" width="2" height="9" style="fill:#c5d9ec"/><path d="M9,19v6h3v3L3,58a.979.979,0,0,0,1,1H34a.979.979,0,0,0,1-1L26,28V25h3V19Z" style="fill:#e2ecf5"/><path d="M12,25h4v3L7,58a.979.979,0,0,0,1,1H4a.979.979,0,0,1-1-1l9-30Z" style="fill:#c5d9ec"/><path d="M8,41,3,58a.979.979,0,0,0,1,1H34a.979.979,0,0,0,1-1L30,41Z" style="fill:#4092f2"/><path d="M12,41,7,58a.979.979,0,0,0,1,1H4a.979.979,0,0,1-1-1L8,41Z" style="fill:#006dee"/><path d="M34,60H4a1.959,1.959,0,0,1-2-2,1,1,0,0,1,.042-.287L11,27.853V26H9a1,1,0,0,1-1-1V19a1,1,0,0,1,1-1H29a1,1,0,0,1,1,1v6a1,1,0,0,1-1,1H27v1.853l8.958,29.86A1,1,0,0,1,36,58,1.959,1.959,0,0,1,34,60ZM4.044,58H33.956L25.042,28.287A1,1,0,0,1,25,28V25a1,1,0,0,1,1-1h2V20H10v4h2a1,1,0,0,1,1,1v3a1,1,0,0,1-.042.287Z"/><path d="M47,53a4,4,0,0,1-4-4V14H42a1,1,0,0,1-1-1V9a1,1,0,0,1,1-1H52a1,1,0,0,1,1,1v4a1,1,0,0,1-1,1H51V49A4,4,0,0,1,47,53ZM43,12h1a1,1,0,0,1,1,1V49a2,2,0,0,0,4,0V13a1,1,0,0,1,1-1h1V10H43Z"/><path d="M36,48H34V13a1,1,0,0,1,1-1h1V10H28v2h1a1,1,0,0,1,1,1v3H28V14H27a1,1,0,0,1-1-1V9a1,1,0,0,1,1-1H37a1,1,0,0,1,1,1v4a1,1,0,0,1-1,1H36Z"/><path d="M21,16H19V13a1,1,0,0,1,1-1h1V10H13v2h1a1,1,0,0,1,1,1v3H13V14H12a1,1,0,0,1-1-1V9a1,1,0,0,1,1-1H22a1,1,0,0,1,1,1v4a1,1,0,0,1-1,1H21Z"/><rect x="18" y="24" width="8" height="2"/><rect x="19" y="36" width="6" height="2"/><rect x="19" y="43" width="6" height="2"/><rect x="19" y="50" width="6" height="2"/><path d="M2,60H0V38a5.267,5.267,0,0,1,5-5h5v2H5a3.3,3.3,0,0,0-3,3Z"/><path d="M60,60H58V38a3.3,3.3,0,0,0-3-3H50V33h5a5.267,5.267,0,0,1,5,5Z"/><rect x="35" y="33" width="9" height="2"/></g></svg>