<svg xmlns="http://www.w3.org/2000/svg" viewBox="0 0 60 60"><title>20-Space</title><g id="_20-Space" data-name="20-Space"><path d="M59,20a18,18,0,1,0-36,0,15.316,15.316,0,0,0,1,6H57.976A15.344,15.344,0,0,0,59,20Z" style="fill:#4092f2"/><path d="M23,20c0-9.941,7-18,22-18C37.933,2,33.816,6.073,30.871,12A17.92,17.92,0,0,0,29,20a15.316,15.316,0,0,0,1,6H24C24,24,23,22.1,23,20Z" style="fill:#006dee"/><circle cx="53" cy="35" r="4" style="fill:#ec8500"/><path d="M57,35a4,4,0,0,0-4-4,6.237,6.237,0,0,0-2,4,6.237,6.237,0,0,0,2,4A4,4,0,0,0,57,35Z" style="fill:#f5bd74"/><circle cx="35" cy="35" r="4" style="fill:#87d3d8"/><path d="M39,35a4,4,0,0,0-4-4,6.237,6.237,0,0,0-2,4,6.237,6.237,0,0,0,2,4A4,4,0,0,0,39,35Z" style="fill:#0ea8b2"/><circle cx="44" cy="48" r="5" style="fill:#4d4c50"/><path d="M49,48a5,5,0,0,0-5-5s-3,2.239-3,5,3,5,3,5A5,5,0,0,0,49,48Z" style="fill:#9b9a9e"/><path d="M9,13c0-6,3.582-9,8-9s8,3,8,9V53H9Z" style="fill:#bcbbbe"/><path d="M12,13c0-6,3.582-9,8-9C14,3,9,7,9,13V53h3Z" style="fill:#9b9a9e"/><path d="M14,29c0-3,1.343-4,3-4s3,1,3,4V50H14Z" style="fill:#c5d9ec"/><path d="M16,29c0-3,1.343-4,3-4-3,0-5,1-5,4V50h2Z" style="fill:#80b6f7"/><path d="M14,34S3,43,2,44s-1,3-1,5H14Z" style="fill:#c5d9ec"/><path d="M20,33s11,9,12,10,1,3,1,5H20Z" style="fill:#c5d9ec"/><path d="M14,34v3.462C10.662,40.2,5.659,44.341,5,45c-1,1-1,4-1,4H1V45C1,44,9,38,14,34Z" style="fill:#80b6f7"/><polygon points="20 34 23 37 23 49 20 49 20 34" style="fill:#80b6f7"/><polygon points="23 57 22 58 12 58 11 57 11 53 23 53 23 57" style="fill:#80b6f7"/><rect x="11" y="53" width="2" height="5" style="fill:#4092f2"/><rect x="15" y="53" width="2" height="5" style="fill:#4092f2"/><rect x="19" y="53" width="2" height="5" style="fill:#4092f2"/><path d="M26,34H24V14c0-2.111-.5-9-7-9s-7,6.889-7,9V34H8V14C8,8.683,10.364,3,17,3s9,5.683,9,11Z"/><path d="M22,59H12a1,1,0,0,1-.707-.293l-1-1A1,1,0,0,1,10,57V53a1,1,0,0,1,1-1H23a1,1,0,0,1,1,1v4a1,1,0,0,1-.293.707l-1,1A1,1,0,0,1,22,59Zm-9.586-2h9.172L22,56.586V54H12v2.586Z"/><path d="M20,51H14a1,1,0,0,1-1-1V29c0-2.484,1.374-5,4-5s4,2.516,4,5V50A1,1,0,0,1,20,51Zm-5-2h4V29c0-1.038-.418-3-2-3s-2,1.962-2,3Z"/><path d="M14,50H1a1,1,0,0,1-1-1V47a5.787,5.787,0,0,1,1.293-3.707C2.3,42.287,12.237,34.15,13.367,33.226l1.266,1.548C11.584,37.269,3.5,43.916,2.707,44.707A3.927,3.927,0,0,0,2,47v1H14Z"/><path d="M33,50H20V48H32V47a3.924,3.924,0,0,0-.707-2.293c-.791-.791-8.877-7.438-11.926-9.933l1.266-1.548c1.13.924,11.068,9.061,12.074,10.067A5.787,5.787,0,0,1,34,47v2A1,1,0,0,1,33,50Z"/><rect x="14" y="53" width="2" height="5"/><rect x="18" y="53" width="2" height="5"/><rect x="8" y="52" width="18" height="2"/><rect x="12" y="17" width="2" height="2"/><rect x="16" y="17" width="2" height="2"/><rect x="20" y="17" width="2" height="2"/><path d="M35,40a5,5,0,1,1,5-5A5.006,5.006,0,0,1,35,40Zm0-8a3,3,0,1,0,3,3A3,3,0,0,0,35,32Z"/><rect x="34" y="29" width="2" height="2"/><rect x="34" y="38" width="2" height="3"/><rect x="39" y="34" width="2" height="2"/><rect x="29" y="34" width="2" height="2"/><rect x="37.793" y="30.5" width="1.414" height="2" transform="translate(-10.997 36.45) rotate(-45)"/><rect x="30.793" y="37.5" width="1.414" height="2" transform="translate(-17.997 33.55) rotate(-45)"/><rect x="37.5" y="37.793" width="2" height="1.414" transform="translate(-15.947 38.5) rotate(-45)"/><rect x="30.5" y="30.793" width="2" height="1.414" transform="translate(-13.048 31.5) rotate(-45)"/><path d="M44,54a6,6,0,1,1,6-6A6.006,6.006,0,0,1,44,54Zm0-10a4,4,0,1,0,4,4A4,4,0,0,0,44,44Z"/><rect x="43" y="40" width="2" height="3"/><rect x="43" y="53" width="2" height="3"/><rect x="36" y="47" width="3" height="2"/><rect x="37.586" y="51" width="2.828" height="2" transform="translate(-25.347 42.808) rotate(-45)"/><rect x="38" y="41.586" width="2" height="2.828" transform="translate(-18.983 40.172) rotate(-45)"/><rect x="49" y="47" width="3" height="2"/><rect x="48" y="50.586" width="2" height="2.828" transform="translate(-22.418 49.879) rotate(-45)"/><rect x="47.586" y="42" width="2.828" height="2" transform="translate(-16.054 47.243) rotate(-45)"/><path d="M53,40a5,5,0,1,1,5-5A5.006,5.006,0,0,1,53,40Zm0-8a3,3,0,1,0,3,3A3,3,0,0,0,53,32Z"/><rect x="52" y="29" width="2" height="3"/><rect x="52" y="39" width="2" height="2"/><rect x="57" y="34" width="2" height="2"/><rect x="47" y="34" width="2" height="2"/><rect x="55.793" y="30.5" width="1.414" height="2" transform="translate(-5.725 49.178) rotate(-45)"/><rect x="48.793" y="37.5" width="1.414" height="2" transform="translate(-12.725 46.278) rotate(-45)"/><rect x="55.5" y="37.793" width="2" height="1.414" transform="translate(-10.675 51.228) rotate(-45)"/><rect x="48.5" y="30.793" width="2" height="1.414" transform="translate(-7.776 44.228) rotate(-45)"/><path d="M57.976,27H29V25H57.253A17.014,17.014,0,0,0,41,3c-4.432,0-8.452,1.867-12.293,5.707L27.293,7.293C31.527,3.059,36.011,1,41,1A19.013,19.013,0,0,1,58.919,26.333,1,1,0,0,1,57.976,27Z"/><rect x="40" y="2" width="2" height="25"/><rect x="29" y="14" width="29" height="2"/><path d="M33.1,26.447A15.461,15.461,0,0,1,32,20C32,9.346,35.953,1,41,1s9,8.346,9,19a20.248,20.248,0,0,1-1.062,6.345l-1.877-.689A18.565,18.565,0,0,0,48,20C48,9.831,44.381,3,41,3s-7,6.831-7,17a13.983,13.983,0,0,0,.9,5.559Z"/></g></svg>