<svg xmlns="http://www.w3.org/2000/svg" viewBox="0 0 60 60"><title>21-Biology</title><g id="_21-Biology" data-name="21-Biology"><path d="M18,21v4h4v6L7,58a.979.979,0,0,0,1,1H52a.979.979,0,0,0,1-1L38,31V25h4V21Z" style="fill:#e2ecf5"/><path d="M22,25h4v6L11,58a.979.979,0,0,0,1,1H8a.979.979,0,0,1-1-1L22,31Z" style="fill:#c5d9ec"/><path d="M28,21a2,2,0,0,0,4,0V8H28Z" style="fill:#dedddf"/><path d="M30,23a1.959,1.959,0,0,1-2-2V8h4v2H30Z" style="fill:#bcbbbe"/><path d="M34,4a5.288,5.288,0,0,0,2-4H24a5.288,5.288,0,0,0,2,4V5H25V8H35V5H34Z" style="fill:#f5bd74"/><path d="M25,5V8h3V6a.979.979,0,0,0,1-1V3a3.552,3.552,0,0,1-2-3H24.129A4.5,4.5,0,0,0,25,3l2,2Z" style="fill:#ec8500"/><path d="M33.273,33.727C33.273,31.92,30,28,30,28s-3.273,3.92-3.273,5.727a3.273,3.273,0,0,0,6.546,0Z" style="fill:#4092f2"/><path d="M29,34a35.36,35.36,0,0,1,1-6s-3,4-3,6a2.733,2.733,0,0,0,3,3A4.38,4.38,0,0,1,29,34Z" style="fill:#006dee"/><path d="M15,59H45V58s-2-5-15-5-15,5-15,5Z" style="fill:#8b7140"/><path d="M45,59s-1-5-9-5c-12,0-17,5-17,5Z" style="fill:#b89558"/><path d="M30,46s2-4,5-4a7.651,7.651,0,0,1,5,2s-4,3-6,3A10.343,10.343,0,0,1,30,46Z" style="fill:#00ad85"/><path d="M30,46s-2-4-5-4a7.651,7.651,0,0,0-5,2s4,3,6,3A10.343,10.343,0,0,0,30,46Z" style="fill:#00ad85"/><path d="M52,60H8a1.959,1.959,0,0,1-2-2,.991.991,0,0,1,.126-.485L21,30.741V26H18a1,1,0,0,1-1-1V21a1,1,0,0,1,1-1h5v2H19v2h3a1,1,0,0,1,1,1v6a.991.991,0,0,1-.126.485L8.144,58H51.856L37.126,31.485A.991.991,0,0,1,37,31V25a1,1,0,0,1,1-1h3V22H37V20h5a1,1,0,0,1,1,1v4a1,1,0,0,1-1,1H39v4.741L53.874,57.515A.991.991,0,0,1,54,58,1.959,1.959,0,0,1,52,60Z"/><path d="M30,38a4,4,0,0,1-4-4c0-1.874,2.646-5.8,3.177-6.568a1.038,1.038,0,0,1,1.646,0C31.354,28.2,34,32.126,34,34A4,4,0,0,1,30,38Zm0-8.179c-1.067,1.7-2,3.517-2,4.179a2,2,0,0,0,4,0C32,33.337,31.067,31.524,30,29.821Z"/><path d="M46,59H44c0-2.365-5.75-5-14-5s-14,2.635-14,5H14c0-3.99,6.878-7,16-7S46,55.01,46,59Z"/><rect x="29" y="46" width="2" height="7"/><path d="M26,48c-2.221,0-5.888-2.666-6.6-3.2a1,1,0,0,1,.031-1.622c.174-.12,4.3-2.93,8.016-1.073A8.48,8.48,0,0,1,30.9,45.553a1,1,0,0,1-.448,1.342A11.347,11.347,0,0,1,26,48Zm-4.088-3.889C23.386,45.068,25.135,46,26,46a8.054,8.054,0,0,0,2.493-.469,5.926,5.926,0,0,0-1.94-1.636A5.626,5.626,0,0,0,21.912,44.111Z"/><path d="M34,48a11.347,11.347,0,0,1-4.447-1.1,1,1,0,0,1-.448-1.342,8.48,8.48,0,0,1,3.448-3.448c3.711-1.854,7.842.952,8.016,1.073A1,1,0,0,1,40.6,44.8C39.888,45.334,36.221,48,34,48Zm-2.492-2.469A8.041,8.041,0,0,0,34,46c.867,0,2.616-.932,4.089-1.888a5.628,5.628,0,0,0-4.642-.217A5.93,5.93,0,0,0,31.508,45.531Z"/><path d="M30,24a3,3,0,0,1-3-3V8a1,1,0,0,1,1-1h4a1,1,0,0,1,1,1V21A3,3,0,0,1,30,24ZM29,9V21a1,1,0,0,0,2,0V9Z"/><path d="M35,9H25a1,1,0,0,1-1-1V5a1,1,0,0,1,.987-1A4.932,4.932,0,0,1,23,0h2a3.438,3.438,0,0,0,2.322,3.053A1.008,1.008,0,0,1,28,4V5a1,1,0,0,1-1,1H26V7h8V6H33a1,1,0,0,1-1-1V4a1,1,0,0,1,.684-.948A3.44,3.44,0,0,0,35,0h2a4.932,4.932,0,0,1-1.987,4A1,1,0,0,1,36,5V8A1,1,0,0,1,35,9Z"/></g></svg>