<svg xmlns="http://www.w3.org/2000/svg" viewBox="0 0 60 60"><title>22-Biology</title><g id="_22-Biology" data-name="22-Biology"><path d="M8,51a8,8,0,0,0,16,0V7h4V1H4V7H8Z" style="fill:#e2ecf5"/><path d="M12,51c0,4.418,2,7,4,8a7.652,7.652,0,0,1-8-8V7h4Z" style="fill:#c5d9ec"/><rect x="4" y="1" width="4" height="6" style="fill:#c5d9ec"/><path d="M8,51a8,8,0,0,0,16,0V24H8Z" style="fill:#80b6f7"/><path d="M12,51c0,4.418,2,7,4,8a7.652,7.652,0,0,1-8-8V24h4Z" style="fill:#4092f2"/><circle cx="27" cy="30" r="15" style="fill:#dedddf"/><path d="M27,17c9,0,13,5,14,8A14.122,14.122,0,0,0,27,15,15,15,0,0,0,12,30c0,5.552,3.253,10.928,8,13-3-4-5-6-5-13S20.571,17,27,17Z" style="fill:#bcbbbe"/><rect x="43.257" y="40.308" width="8.485" height="18.385" transform="translate(-21.089 48.086) rotate(-45)" style="fill:#b89558"/><polygon points="46 42 42 46 53 57 51 59 38 46 44 40 46 42" style="fill:#8b7140"/><polygon points="25 24 19 24 16 29 19 34 25 34 28 29 25 24" style="fill:#f5bd74"/><polygon points="26 26 20 26 17 31 16 29 19 24 25 24 26 26" style="fill:#ec8500"/><polygon points="34 29 28 29 25 34 28 39 34 39 37 34 34 29" style="fill:#87d3d8"/><polygon points="28 19 25 24 28 29 34 29 37 24 28 19" style="fill:#80b6f7"/><polygon points="35 31 29 31 26 36 25 34 28 29 34 29 35 31" style="fill:#0ea8b2"/><path d="M51,60a1,1,0,0,1-.707-.293l-13-13a1,1,0,0,1,0-1.414l6-6a1,1,0,0,1,1.414,0l13,13a1,1,0,0,1,0,1.414l-6,6A1,1,0,0,1,51,60ZM39.414,46,51,57.586,55.586,53,44,41.414Z"/><rect x="39.5" y="38.379" width="2" height="4.243" transform="translate(-16.776 40.5) rotate(-45)"/><rect x="37.5" y="40.379" width="2" height="4.243" transform="translate(-18.776 39.672) rotate(-45)"/><path d="M27,46A16,16,0,1,1,43,30,16.019,16.019,0,0,1,27,46Zm0-30A14,14,0,1,0,41,30,14.015,14.015,0,0,0,27,16Z"/><path d="M16,60a9.01,9.01,0,0,1-9-9V8H4A1,1,0,0,1,3,7V1A1,1,0,0,1,4,0H28a1,1,0,0,1,1,1V7a1,1,0,0,1-1,1H25v4H23V7a1,1,0,0,1,1-1h3V2H5V6H8A1,1,0,0,1,9,7V51a7,7,0,0,0,14,0V48h2v3A9.01,9.01,0,0,1,16,60Z"/><rect x="13" y="6" width="11" height="2"/><path d="M25,35H19a1,1,0,0,1-.857-.485l-3-5a1,1,0,0,1,0-1.03l3-5A1,1,0,0,1,19,23h6a1,1,0,0,1,.857.485l3,5a1,1,0,0,1,0,1.03l-3,5A1,1,0,0,1,25,35Zm-5.434-2h4.868l2.4-4-2.4-4H19.566l-2.4,4Z"/><path d="M34,40H28a1,1,0,0,1-.857-.485l-3-5a1,1,0,0,1,0-1.03l3-5A1,1,0,0,1,28,28h6a1,1,0,0,1,.857.485l3,5a1,1,0,0,1,0,1.03l-3,5A1,1,0,0,1,34,40Zm-5.434-2h4.868l2.4-4-2.4-4H28.566l-2.4,4Z"/><rect x="23.585" y="20.5" width="5.831" height="2" transform="matrix(0.515, -0.857, 0.857, 0.515, -5.572, 33.157)"/><rect x="32.585" y="25.5" width="5.831" height="2" transform="matrix(0.515, -0.857, 0.857, 0.515, -5.491, 43.3)"/><rect x="30" y="23" width="2" height="2"/><rect x="30" y="33" width="2" height="2"/><rect x="21" y="28" width="2" height="2"/><rect x="21" y="38" width="2" height="2"/></g></svg>