<svg xmlns="http://www.w3.org/2000/svg" viewBox="0 0 60 60"><title>23-Dna</title><g id="_23-Dna" data-name="23-Dna"><rect x="20" y="6" width="34" height="53" style="fill:#4a87c0"/><path d="M29,56H51a.979.979,0,0,0,1-1V12a.979.979,0,0,0-1-1H29Z" style="fill:#2170a8"/><rect x="20" y="9" width="30" height="45" style="fill:#dedddf"/><path d="M47,12a.979.979,0,0,1-1,1H29a.979.979,0,0,1-1-1V9H47Z" style="fill:#bcbbbe"/><rect x="28" y="6" width="19" height="3" style="fill:#2170a8"/><rect x="28" y="3" width="17" height="7" style="fill:#bfdbfb"/><path d="M31,9c0,2-2,4-4,5a7.74,7.74,0,0,1-3,1s3,1,4,2,3,3,3,5V38c0,2-2,5-4,6l-2,1s3,1,4,2a5.2,5.2,0,0,1,2,4v3H28V51c0-2-5-5-11-6a26.015,26.015,0,0,0,7-3c3-2,4-3,4-4V22c0-2-4-5-11-7a33.853,33.853,0,0,0,8-3q3-1.5,3-3Z" style="fill:#bcbbbe"/><rect x="28" y="3" width="3" height="7" style="fill:#80b6f7"/><path d="M6,38c0,4,11,7,11,7s11-3,11-7V22c0-4-11-7-11-7S6,18,6,22Z" style="fill:#f5bd74"/><path d="M9,38c0,4,9,7,9,7S6,42,6,38V22c0-4,12-7,12-7s-9,3-9,7Z" style="fill:#ec8500"/><path d="M28,60H6V51c0-3,11-6,11-6s11,3,11,6Z" style="fill:#d0fff9"/><path d="M28,0H6V9c0,3,11,6,11,6s11-3,11-6Z" style="fill:#d0fff9"/><path d="M6,0H9V9c0,3,8,6,8,6S6,12,6,9Z" style="fill:#87d3d8"/><path d="M6,60H9V51c0-3,8-6,8-6S6,48,6,51Z" style="fill:#87d3d8"/><rect x="29" y="54" width="2" height="5" style="fill:#2170a8"/><polygon points="37 19 41 19 43 23 41 27 37 27 35 23 37 19" style="fill:#80b6f7"/><polygon points="37 19 41 19 42 21 38 21 36 25 35 23 37 19" style="fill:#4092f2"/><polygon points="37 27 41 27 43 31 41 35 37 35 35 31 37 27" style="fill:#80b6f7"/><polygon points="37 27 41 27 42 29 38 29 36 33 35 31 37 27" style="fill:#4092f2"/><path d="M7,60H5V51c0-3.1,5.064-4.823,10.927-6.816C20.86,42.507,27,40.42,27,38V22c0-2.42-6.14-4.507-11.073-6.184C10.064,13.823,5,12.1,5,9V0H7V9c0,1.67,5.532,3.55,9.571,4.923C22.962,16.1,29,18.147,29,22V38c0,3.853-6.038,5.905-12.429,8.077C12.532,47.45,7,49.33,7,51Z"/><path d="M29,60H27V51c0-1.67-5.532-3.55-9.571-4.923C11.038,43.905,5,41.853,5,38V22c0-3.853,6.038-5.905,12.429-8.077C21.468,12.55,27,10.67,27,9V0h2V9c0,3.1-5.064,4.823-10.927,6.816C13.14,17.493,7,19.58,7,22V38c0,2.42,6.14,4.507,11.073,6.184C23.936,46.177,29,47.9,29,51Z"/><rect x="9" y="4" width="9" height="2"/><rect x="20" y="4" width="5" height="2"/><rect x="9" width="16" height="2"/><rect x="13" y="8" width="8" height="2"/><rect x="13" y="19" width="8" height="2"/><rect x="13" y="39" width="8" height="2"/><rect x="10" y="24" width="8" height="2"/><rect x="20" y="24" width="4" height="2"/><rect x="10" y="34" width="6" height="2"/><rect x="18" y="34" width="6" height="2"/><rect x="16" y="29" width="9" height="2"/><rect x="9" y="29" width="5" height="2"/><rect x="9" y="54" width="9" height="2"/><rect x="20" y="54" width="5" height="2"/><rect x="12" y="50" width="10" height="2"/><rect x="9" y="58" width="6" height="2"/><rect x="17" y="58" width="8" height="2"/><path d="M54,60H31V58H53V7H46V5h8a1,1,0,0,1,1,1V59A1,1,0,0,1,54,60Z"/><path d="M50,55H31V53H49V10H48V8h2a1,1,0,0,1,1,1V54A1,1,0,0,1,50,55Z"/><path d="M45,11H31V9H44V4H31V2H45a1,1,0,0,1,1,1v7A1,1,0,0,1,45,11Z"/><rect x="33" y="47" width="12" height="2"/><rect x="39" y="39" width="6" height="2"/><rect x="33" y="43" width="4" height="2"/><rect x="33" y="39" width="4" height="2"/><rect x="39" y="43" width="6" height="2"/><path d="M41,36H37a1,1,0,0,1-.9-.553l-2-4a1,1,0,0,1,0-.894l2-4A1,1,0,0,1,37,26h4a1,1,0,0,1,.9.553l2,4a1,1,0,0,1,0,.894l-2,4A1,1,0,0,1,41,36Zm-3.382-2h2.764l1.5-3-1.5-3H37.618l-1.5,3Z"/><path d="M41,28H37a1,1,0,0,1-.9-.553l-2-4a1,1,0,0,1,0-.894l2-4A1,1,0,0,1,37,18h4a1,1,0,0,1,.9.553l2,4a1,1,0,0,1,0,.894l-2,4A1,1,0,0,1,41,28Zm-3.382-2h2.764l1.5-3-1.5-3H37.618l-1.5,3Z"/></g></svg>