<svg xmlns="http://www.w3.org/2000/svg" viewBox="0 0 60 60"><title>3-Research</title><g id="_3-Research" data-name="3-Research"><rect x="3" y="4" width="41" height="55" style="fill:#fff2e2"/><rect x="3" y="4" width="3" height="55" style="fill:#debb7e"/><rect x="14" y="31" width="30" height="28" style="fill:#debb7e"/><rect x="11" y="27" width="42" height="28" style="fill:#dedddf"/><rect x="11" y="27" width="3" height="28" style="fill:#bcbbbe"/><circle cx="14" cy="11" r="8" style="fill:#debb7e"/><path d="M9,17v8h2l3-2,3,2h2V17s-1,2-5,2S9,17,9,17Z" style="fill:#debb7e"/><circle cx="12" cy="9" r="8" style="fill:#87d3d8"/><circle cx="12" cy="9" r="4" style="fill:#4092f2"/><path d="M7,15v8H9l3-2,3,2h2V15s-1,2-5,2S7,15,7,15Z" style="fill:#4092f2"/><rect x="16" y="32" width="12" height="15" style="fill:#87d3d8"/><path d="M16,46c0-2.761,2.686-5,6-5s6,2.239,6,5v1H16Z" style="fill:#80b6f7"/><circle cx="22" cy="38" r="3" style="fill:#f8d5a8"/><path d="M42,35v3h1v2L37,58a.979.979,0,0,0,1,1H56a.979.979,0,0,0,1-1L51,40V38h1V35Z" style="fill:#e2ecf5"/><path d="M46,38v2L40,58a.979.979,0,0,0,1,1H38a.979.979,0,0,1-1-1l6-18V38Z" style="fill:#c5d9ec"/><path d="M41,46,37,58a.979.979,0,0,0,1,1H56a.979.979,0,0,0,1-1L53,46Z" style="fill:#4092f2"/><path d="M44,46,40,58a.979.979,0,0,0,1,1H38a.979.979,0,0,1-1-1l4-12Z" style="fill:#006dee"/><path d="M35,60H3a1,1,0,0,1-1-1V15H4V58H35Z"/><path d="M45,24H43V5H22V3H44a1,1,0,0,1,1,1Z"/><rect x="28" y="14" width="10" height="2"/><rect x="23" y="18" width="15" height="2"/><rect x="31" y="22" width="7" height="2"/><rect x="21" y="22" width="8" height="2"/><path d="M12,18a9,9,0,1,1,9-9A9.011,9.011,0,0,1,12,18ZM12,2a7,7,0,1,0,7,7A7.008,7.008,0,0,0,12,2Z"/><path d="M12,14a5,5,0,1,1,5-5A5.006,5.006,0,0,1,12,14Zm0-8a3,3,0,1,0,3,3A3,3,0,0,0,12,6Z"/><path d="M17,24H15a1.006,1.006,0,0,1-.555-.168L12,22.2l-2.445,1.63A1.006,1.006,0,0,1,9,24H7a1,1,0,0,1-1-1V15H8v7h.7l2.748-1.832a1,1,0,0,1,1.11,0L15.3,22H16V15h2v8A1,1,0,0,1,17,24Z"/><path d="M35,56H12a1.959,1.959,0,0,1-2-2V28a1.959,1.959,0,0,1,2-2H52a1.959,1.959,0,0,1,2,2v4H52V28H12V54H35Z"/><path d="M28,48H16a1,1,0,0,1-1-1V32a1,1,0,0,1,1-1H28a1,1,0,0,1,1,1V47A1,1,0,0,1,28,48ZM17,46H27V33H17Z"/><path d="M28,48H16a1,1,0,0,1-1-1V46c0-3.309,3.14-6,7-6s7,2.691,7,6v1A1,1,0,0,1,28,48ZM17,46H27c0-2.206-2.243-4-5-4S17,43.794,17,46Z"/><path d="M22,42a4,4,0,1,1,4-4A4,4,0,0,1,22,42Zm0-6a2,2,0,1,0,2,2A2,2,0,0,0,22,36Z"/><rect x="32" y="34" width="6" height="2"/><rect x="32" y="42" width="6" height="2"/><rect x="32" y="38" width="2" height="2"/><rect x="36" y="38" width="2" height="2"/><path d="M56,60H38a1.959,1.959,0,0,1-2-2,1,1,0,0,1,.052-.316L42,39.838V39a1,1,0,0,1-1-1V35a1,1,0,0,1,1-1H52a1,1,0,0,1,1,1v3a1,1,0,0,1-1,1v.838l5.948,17.846A1,1,0,0,1,58,58,1.959,1.959,0,0,1,56,60ZM38.054,58H55.946L50.052,40.316A1,1,0,0,1,50,40V38a1,1,0,0,1,1-1V36H43v1a1,1,0,0,1,1,1v2a1,1,0,0,1-.052.316Z"/><rect x="47" y="48" width="3" height="2"/><rect x="47" y="52" width="3" height="2"/></g></svg>