<svg xmlns="http://www.w3.org/2000/svg" viewBox="0 0 60 60"><title>5-Report</title><g id="_5-Report" data-name="5-Report"><rect x="11" y="3" width="38" height="56" style="fill:#4a87c0"/><path d="M17,56a.979.979,0,0,0,1,1H46a.979.979,0,0,0,1-1V9a.979.979,0,0,0-1-1L17,7Z" style="fill:#2170a8"/><rect x="15" y="7" width="30" height="48" style="fill:#fff2e2"/><path d="M42,9a.979.979,0,0,1-1,1H22a.979.979,0,0,1-1-1V7H42Z" style="fill:#debb7e"/><rect x="21" y="3" width="21" height="4" style="fill:#2170a8"/><rect x="20" y="1" width="20" height="7" style="fill:#bfdbfb"/><rect x="20" y="1" width="2" height="7" style="fill:#80b6f7"/><circle cx="23" cy="25" r="2" style="fill:#bfdbfb"/><circle cx="22" cy="39" r="2" style="fill:#80b6f7"/><circle cx="38" cy="37" r="2" style="fill:#ec8500"/><circle cx="38" cy="27" r="2" style="fill:#87d3d8"/><circle cx="29" cy="32" r="3" style="fill:#4092f2"/><path d="M49,60H11a1,1,0,0,1-1-1V3a1,1,0,0,1,1-1h8V4H12V58H48V4H41V2h8a1,1,0,0,1,1,1V59A1,1,0,0,1,49,60Z"/><path d="M45,56H15a1,1,0,0,1-1-1V7a1,1,0,0,1,1-1h2V8H16V54H44V8H43V6h2a1,1,0,0,1,1,1V55A1,1,0,0,1,45,56Z"/><path d="M40,9H20a1,1,0,0,1-1-1V1a1,1,0,0,1,1-1H40a1,1,0,0,1,1,1V8A1,1,0,0,1,40,9ZM21,7H39V2H21Z"/><rect x="36" y="14" width="5" height="2"/><rect x="28" y="14" width="6" height="2"/><rect x="37" y="18" width="4" height="2"/><rect x="28" y="18" width="7" height="2"/><rect x="20" y="49" width="7" height="2"/><rect x="20" y="45" width="7" height="2"/><path d="M23,28a3,3,0,1,1,3-3A3,3,0,0,1,23,28Zm0-4a1,1,0,1,0,1,1A1,1,0,0,0,23,24Z"/><path d="M38,40a3,3,0,1,1,3-3A3,3,0,0,1,38,40Zm0-4a1,1,0,1,0,1,1A1,1,0,0,0,38,36Z"/><path d="M22,42a3,3,0,1,1,3-3A3,3,0,0,1,22,42Zm0-4a1,1,0,1,0,1,1A1,1,0,0,0,22,38Z"/><path d="M38,30a3,3,0,1,1,3-3A3,3,0,0,1,38,30Zm0-4a1,1,0,1,0,1,1A1,1,0,0,0,38,26Z"/><path d="M29,36a4,4,0,1,1,4-4A4,4,0,0,1,29,36Zm0-6a2,2,0,1,0,2,2A2,2,0,0,0,29,30Z"/><rect x="24.5" y="26.379" width="2" height="4.243" transform="translate(-12.684 26.379) rotate(-45)"/><rect x="22.172" y="35" width="5.657" height="2" transform="translate(-18.134 28.222) rotate(-45)"/><rect x="32.5" y="32.307" width="2" height="5.385" transform="translate(-11.438 53.105) rotate(-68.199)"/><rect x="30.585" y="28.5" width="5.831" height="2" transform="translate(-10.405 21.447) rotate(-30.973)"/><path d="M40,51H29V49H39V42h2v8A1,1,0,0,1,40,51Z"/><path d="M22,20H20V15a1,1,0,0,1,1-1h4v2H22Z"/></g></svg>