<svg xmlns="http://www.w3.org/2000/svg" viewBox="0 0 60 60"><title>7-Tube</title><g id="_7-Tube" data-name="7-Tube"><path d="M22,51a8,8,0,0,0,16,0V7h4V1H18V7h4Z" style="fill:#e2ecf5"/><path d="M26,51c0,4.418,2,7,4,8a7.652,7.652,0,0,1-8-8V7h4Z" style="fill:#c5d9ec"/><rect x="18" y="1" width="4" height="6" style="fill:#c5d9ec"/><path d="M22,51a8,8,0,0,0,16,0V24H22Z" style="fill:#f5bd74"/><path d="M26,51c0,4.418,2,7,4,8a7.652,7.652,0,0,1-8-8V24h4Z" style="fill:#ec8500"/><circle cx="31" cy="48" r="2" style="fill:#e2ecf5"/><circle cx="28" cy="14" r="3" style="fill:#f5bd74"/><path d="M42,8H18a1,1,0,0,1-1-1V1a1,1,0,0,1,1-1H42a1,1,0,0,1,1,1V7A1,1,0,0,1,42,8ZM19,6H41V2H19Z"/><path d="M30,60a9.011,9.011,0,0,1-9-9V7a1,1,0,0,1,1-1H38a1,1,0,0,1,1,1V51A9.011,9.011,0,0,1,30,60ZM23,8V51a7,7,0,0,0,14,0V8Z"/><rect x="31" y="20" width="4" height="2"/><rect x="31" y="26" width="4" height="2"/><rect x="31" y="32" width="4" height="2"/><rect x="31" y="38" width="4" height="2"/><path d="M28,18a4,4,0,1,1,4-4A4,4,0,0,1,28,18Zm0-6a2,2,0,1,0,2,2A2,2,0,0,0,28,12Z"/><path d="M31,51a3,3,0,1,1,3-3A3,3,0,0,1,31,51Zm0-4a1,1,0,1,0,1,1A1,1,0,0,0,31,47Z"/></g></svg>