<svg xmlns="http://www.w3.org/2000/svg" viewBox="0 0 60 60"><title>9-Avatar</title><g id="_9-Avatar" data-name="9-Avatar"><path d="M8,60V45a10.166,10.166,0,0,1,7-10c1.9-.632,9-2,9-2V30s3,3,6,3,6-3,6-3v3s7.1,1.368,9,2a10.166,10.166,0,0,1,7,10V60Z" style="fill:#e2ecf5"/><path d="M12,60H8V45a10.166,10.166,0,0,1,7-10c1.9-.632,9-2,9-2v4s-6,1-8,2c-4,2-4,4-4,6Z" style="fill:#c5d9ec"/><path d="M27,32c-2.431-1.216-5.134-3.267-6-5-1.264-2.528-2-8.679-2-15A10.722,10.722,0,0,1,30,1,10.915,10.915,0,0,1,41,12c0,6.321-.736,12.472-2,15-.836,1.672-3.624,3.76-6,4.976A6.308,6.308,0,0,1,27,32Z" style="fill:#ffdaaa"/><path d="M24,27c-1.264-2.528-2-8.679-2-15S26,1,30,1A10.722,10.722,0,0,0,19,12c0,6.321.736,12.471,2,15,.866,1.733,3.569,3.784,6,5a6.389,6.389,0,0,0,3.808.686C29.007,32.833,26,31,24,27Z" style="fill:#ffb680"/><path d="M24,30v3l1,4a12.133,12.133,0,0,0,5,1,12.133,12.133,0,0,0,5-1l1-4V30s-3,3-6,3S24,30,24,30Z" style="fill:#ffdaaa"/><path d="M36,33c-2,1-4,2-6,2a10.343,10.343,0,0,1-4-1l1,3H25l-1-4V30s3,3,6,3,6-3,6-3Z" style="fill:#ffb680"/><polygon points="42 34 39 33 31 58 42 52 40 48 44 44 42 34" style="fill:#c5d9ec"/><polygon points="20 34 24 33 30 58 21 51 23 47 19 43 20 34" style="fill:#e2ecf5"/><polygon points="40 34 36 33 30 58 39 51 37 47 41 43 40 34" style="fill:#e2ecf5"/><path d="M25,37a12.133,12.133,0,0,0,5,1,12.133,12.133,0,0,0,5-1L30,58Z" style="fill:#00ad85"/><polygon points="25 37 27 38 31 54 30 58 25 37" style="fill:#038e6e"/><path d="M25,2a12.133,12.133,0,0,0-5-1c-2,0-4,2-4,2s-5,1-6,6a9.134,9.134,0,0,0,2,8s-2,4,0,7,6,4,9,4a35.949,35.949,0,0,1-2-11C19,13,18,6,25,2Z" style="fill:#9b9a9e"/><path d="M35,2a12.133,12.133,0,0,1,5-1,3.7,3.7,0,0,1,3,2s5,1,6,6a9.134,9.134,0,0,1-2,8s2,4,0,7a9.1,9.1,0,0,1-8,4,35.949,35.949,0,0,0,2-11C41,13,42,6,35,2Z" style="fill:#9b9a9e"/><path d="M39,28a35.949,35.949,0,0,0,2-11c0-4,1-11-6-15,0,0,2.464-.536,6,3,3,3,4,9,3,14A16.9,16.9,0,0,1,39,28Z" style="fill:#79787d"/><path d="M22,4a4.829,4.829,0,0,0-4,0c-6,2-6,9-3,13-1,1-4,7,2,10,0,0-6,1-6-8a3.491,3.491,0,0,1,1-2s-2-2-2-7,6-7,6-7a4.333,4.333,0,0,1,4-2,4.333,4.333,0,0,1,4,2Z" style="fill:#79787d"/><path d="M29.982,33.75a7.628,7.628,0,0,1-3.429-.855c-2.472-1.236-5.424-3.4-6.448-5.448C18.826,24.89,18,18.827,18,12A11.737,11.737,0,0,1,30,0,11.872,11.872,0,0,1,42,12c0,6.827-.826,12.89-2.1,15.447-.981,1.962-4.026,4.184-6.44,5.419A7.554,7.554,0,0,1,29.982,33.75ZM30,2A9.672,9.672,0,0,0,20,12c0,6.439.762,12.288,1.895,14.553.685,1.372,3.021,3.287,5.552,4.552a5.317,5.317,0,0,0,5.1-.019c2.524-1.292,4.915-3.24,5.561-4.533C39.238,24.288,40,18.439,40,12A9.894,9.894,0,0,0,30,2Z"/><rect x="43" y="46" width="2" height="14"/><rect x="15" y="46" width="2" height="14"/><path d="M53,60H51V45a9.2,9.2,0,0,0-6.316-9.051c-1.814-.6-8.8-1.953-8.873-1.967A1,1,0,0,1,35,33V30h2v2.176c1.937.382,6.749,1.353,8.316,1.875A11.15,11.15,0,0,1,53,45Z"/><path d="M9,60H7V45a11.15,11.15,0,0,1,7.684-10.949c1.567-.522,6.378-1.493,8.316-1.875V30h2v3a1,1,0,0,1-.811.982c-.07.014-7.059,1.362-8.873,1.967A9.2,9.2,0,0,0,9,45Z"/><path d="M30,59a1,1,0,0,1-.973-1.233l6-25,1.946.466L31.639,55.459l6.1-4.745L36.1,47.447a1,1,0,0,1,.188-1.154l3.66-3.66-.947-8.523,1.988-.22,1,9a1,1,0,0,1-.287.817l-3.49,3.49L39.9,50.553a1,1,0,0,1-.281,1.237l-9,7A1,1,0,0,1,30,59Z"/><path d="M30,59a1,1,0,0,1-.614-.21l-9-7a1,1,0,0,1-.281-1.237L21.783,47.2l-3.49-3.49a1,1,0,0,1-.287-.817l1-9,1.988.22-.947,8.523,3.66,3.66a1,1,0,0,1,.188,1.154l-1.634,3.267,6.1,4.745L23.027,33.233l1.946-.466,6,25A1,1,0,0,1,30,59Z"/><path d="M30,39a13.134,13.134,0,0,1-5.447-1.1l.891-1.791A11.325,11.325,0,0,0,30,37a11.113,11.113,0,0,0,4.553-.9l.894,1.79A13.134,13.134,0,0,1,30,39Z"/><path d="M38,29V27c.063,0,6.409-.052,8.106-3.447a6.2,6.2,0,0,0,.059-6,1.009,1.009,0,0,1,.115-1.242A8.306,8.306,0,0,0,48.02,9.2,6.986,6.986,0,0,0,42.8,3.98a1,1,0,0,1-.51-.272A5.865,5.865,0,0,0,39,2a9.383,9.383,0,0,0-3.554.9l-.893-1.79A11.347,11.347,0,0,1,39,0,7.455,7.455,0,0,1,43.5,2.091,8.845,8.845,0,0,1,49.98,8.8a10.439,10.439,0,0,1-1.788,8.316,8.369,8.369,0,0,1-.3,7.327C45.644,28.948,38.312,29,38,29Z"/><path d="M21.2,29c-.311,0-7.643-.052-9.894-4.553a8.366,8.366,0,0,1-.3-7.327A10.443,10.443,0,0,1,9.218,8.8,8.845,8.845,0,0,1,15.7,2.091,7.455,7.455,0,0,1,20.2,0a11.354,11.354,0,0,1,4.448,1.105L23.752,2.9A9.377,9.377,0,0,0,20.2,2,5.865,5.865,0,0,0,16.9,3.708a1,1,0,0,1-.509.272A6.925,6.925,0,0,0,11.179,9.2a8.359,8.359,0,0,0,1.74,7.111,1,1,0,0,1,.111,1.248,6.2,6.2,0,0,0,.063,6C14.79,26.948,21.136,27,21.2,27Z"/><path d="M25,22a4,4,0,1,1,4-4A4,4,0,0,1,25,22Zm0-6a2,2,0,1,0,2,2A2,2,0,0,0,25,16Z"/><path d="M35,22a4,4,0,1,1,4-4A4,4,0,0,1,35,22Zm0-6a2,2,0,1,0,2,2A2,2,0,0,0,35,16Z"/><rect x="28" y="17" width="4" height="2"/><rect x="28" y="24" width="4" height="2"/></g></svg>