<svg id="_1-Flask" data-name="1-Flask" xmlns="http://www.w3.org/2000/svg" viewBox="0 0 60 60"><title>1-Flask</title><path d="M24,53a6,6,0,0,0,12,0V21h3V18H21v3h3Z" style="fill:#e2ecf5"/><path d="M24,53a6,6,0,0,0,12,0V32H24Z" style="fill:#4092f2"/><path d="M27,53c0,3.314,1,5,4,6-6,0-7-4-7-6V21h3Z" style="fill:#c5d9ec"/><path d="M27,53c0,3.314,1,5,4,6-6,0-7-4-7-6V32h3Z" style="fill:#006dee"/><path d="M5,28v3H8v3L1,58a.979.979,0,0,0,1,1H24a.979.979,0,0,0,1-1L18,34V31h3V28Z" style="fill:#e2ecf5"/><path d="M5,44,1,58a.979.979,0,0,0,1,1H24a.979.979,0,0,0,1-1L21,44Z" style="fill:#f5bd74"/><path d="M11,31v3L4,58a.979.979,0,0,0,1,1H2a.979.979,0,0,1-1-1L8,34V31Z" style="fill:#c5d9ec"/><path d="M8,44,4,58a.979.979,0,0,0,1,1H2a.979.979,0,0,1-1-1L5,44Z" style="fill:#ec8500"/><path d="M59,35H37v4l2,3V58a.979.979,0,0,0,1,1H58a.979.979,0,0,0,1-1Z" style="fill:#e2ecf5"/><path d="M59,44H39V58a.979.979,0,0,0,1,1H58a.979.979,0,0,0,1-1Z" style="fill:#87d3d8"/><path d="M37,35h3v4l2,3V58a.979.979,0,0,0,1,1H40a.979.979,0,0,1-1-1V42l-2-3Z" style="fill:#c5d9ec"/><path d="M42,44V58a.979.979,0,0,0,1,1H40a.979.979,0,0,1-1-1V44Z" style="fill:#0ea8b2"/><path d="M5,28v3H8v3L1,58a.979.979,0,0,0,1,1H24a.979.979,0,0,0,1-1L18,34V31h3V28Z" style="fill:none;stroke:#000;stroke-linejoin:round;stroke-width:2px"/><polyline points="36 32 36 21 39 21 39 18 21 18 21 21 24 21 24 44" style="fill:none;stroke:#000;stroke-linejoin:round;stroke-width:2px"/><path d="M59,35H37v4l2,3V58a.979.979,0,0,0,1,1H58a.979.979,0,0,0,1-1Z" style="fill:none;stroke:#000;stroke-linejoin:round;stroke-width:2px"/><path d="M36,43V53a6,6,0,0,1-6,6H28" style="fill:none;stroke:#000;stroke-linejoin:round;stroke-width:2px"/><path d="M16,25V16a2.151,2.151,0,0,1,2-2h7" style="fill:none;stroke:#000;stroke-linejoin:round;stroke-width:2px"/><path d="M28,15V4a3.193,3.193,0,0,0-3-3H15a4.3,4.3,0,0,0-4,4V25" style="fill:none;stroke:#000;stroke-linejoin:round;stroke-width:2px"/><circle cx="15" cy="5" r="4" style="fill:none;stroke:#000;stroke-linejoin:round;stroke-width:2px"/><path d="M32,15V7a2.151,2.151,0,0,1,2-2H48a2.151,2.151,0,0,1,2,2v4" style="fill:none;stroke:#000;stroke-linejoin:round;stroke-width:2px"/><path d="M35,14H50c2,0,5,1,5,5V33" style="fill:none;stroke:#000;stroke-linejoin:round;stroke-width:2px"/><line x1="50" y1="27" x2="50" y2="33" style="fill:none;stroke:#000;stroke-linejoin:round;stroke-width:2px"/><circle cx="50" cy="19" r="5" style="fill:none;stroke:#000;stroke-linejoin:round;stroke-width:2px"/><line x1="13" y1="42" x2="17" y2="42" style="fill:none;stroke:#000;stroke-linejoin:round;stroke-width:2px"/><line x1="13" y1="47" x2="17" y2="47" style="fill:none;stroke:#000;stroke-linejoin:round;stroke-width:2px"/><line x1="13" y1="52" x2="17" y2="52" style="fill:none;stroke:#000;stroke-linejoin:round;stroke-width:2px"/><line x1="42" y1="42" x2="46" y2="42" style="fill:none;stroke:#000;stroke-linejoin:round;stroke-width:2px"/><line x1="42" y1="47" x2="46" y2="47" style="fill:none;stroke:#000;stroke-linejoin:round;stroke-width:2px"/><line x1="42" y1="52" x2="46" y2="52" style="fill:none;stroke:#000;stroke-linejoin:round;stroke-width:2px"/><line x1="28" y1="29" x2="32" y2="29" style="fill:none;stroke:#000;stroke-linejoin:round;stroke-width:2px"/><line x1="28" y1="34" x2="32" y2="34" style="fill:none;stroke:#000;stroke-linejoin:round;stroke-width:2px"/><line x1="28" y1="39" x2="32" y2="39" style="fill:none;stroke:#000;stroke-linejoin:round;stroke-width:2px"/></svg>