<svg xmlns="http://www.w3.org/2000/svg" viewBox="0 0 60 60"><title>10-Research</title><g id="_10-Research" data-name="10-Research"><path d="M49,35s-8-5-18.964,2C30.024,36.99,30,54,30,54c1-1,7-6,14-7s14,2,14,2Z" style="fill:#dedddf"/><path d="M36,50.094C32.839,51.984,30.58,54,30,54c0,0,.024-17.01.036-17A33.366,33.366,0,0,1,34,35Z" style="fill:#9b9a9e"/><path d="M30,37c-9-8-19-2-19-2L2,49s7.04-2.994,14-2c7,1,14,7,14,7Z" style="fill:#dedddf"/><path d="M15,33a11.246,11.246,0,0,0-5,3L2,49a16.308,16.308,0,0,1,7-2A146.722,146.722,0,0,1,15,33Z" style="fill:#9b9a9e"/><path d="M41,32a11,11,0,0,1-22,0c0-6,5-10,7-10V18H23V14H37v4H34v4A10.23,10.23,0,0,1,41,32Z" style="fill:#e2ecf5"/><polygon points="42 9 33 9 30 14 27 9 18 9 18 1 42 1 42 9" style="fill:#87d3d8"/><polygon points="18 9 20 9 20 3 42 3 42 1 18 1 18 9" style="fill:#0ea8b2"/><path d="M26,18h2v5a.979.979,0,0,1-1,1c-1,0-6,2-6,8s6,11,9,11c-3,0-11-2-11-11s7-10,7-10Z" style="fill:#c5d9ec"/><path d="M19,32H41c0,5-3,11-11,11S19,37,19,32Z" style="fill:#f5bd74"/><path d="M21,32c0,6,6,11,9,11-3,0-11-2-11-11Z" style="fill:#ec8500"/><circle cx="27" cy="36" r="2" style="fill:#ec8500"/><circle cx="32" cy="27" r="2" style="fill:#ec8500"/><path d="M1,53s3-2,11-2c10,0,18,8,18,8s7-8,18-8c8,0,11,2,11,2" style="fill:none;stroke:#000;stroke-linejoin:round;stroke-width:2px"/><path d="M44,33c3,0,6,3,6,3l8,13a38.112,38.112,0,0,0-13-2c-8,0-15,7-15,7s-7-7-15-7A38.112,38.112,0,0,0,2,49l8-13s3-3,6-3" style="fill:none;stroke:#000;stroke-linejoin:round;stroke-width:2px"/><line x1="30" y1="46" x2="30" y2="54" style="fill:none;stroke:#000;stroke-linejoin:round;stroke-width:2px"/><polyline points="34 14 37 14 37 18 23 18 23 14 26 14" style="fill:none;stroke:#000;stroke-linejoin:round;stroke-width:2px"/><path d="M26,18v4c-4,1-7,5-7,10a11,11,0,0,0,22,0c0-4.662-3-9-7-10V18" style="fill:none;stroke:#000;stroke-linejoin:round;stroke-width:2px"/><circle cx="27" cy="36" r="2" style="fill:none;stroke:#000;stroke-linejoin:round;stroke-width:2px"/><circle cx="32" cy="27" r="2" style="fill:none;stroke:#000;stroke-linejoin:round;stroke-width:2px"/><polygon points="42 9 33 9 30 14 27 9 18 9 18 1 42 1 42 9" style="fill:none;stroke:#000;stroke-linejoin:round;stroke-width:2px"/><line x1="25" y1="5" x2="27" y2="5" style="fill:none;stroke:#000;stroke-linejoin:round;stroke-width:2px"/><line x1="29" y1="5" x2="31" y2="5" style="fill:none;stroke:#000;stroke-linejoin:round;stroke-width:2px"/><line x1="33" y1="5" x2="35" y2="5" style="fill:none;stroke:#000;stroke-linejoin:round;stroke-width:2px"/></g></svg>