<svg xmlns="http://www.w3.org/2000/svg" viewBox="0 0 60 60"><title>12- Research</title><g id="_12-_Research" data-name="12- Research"><rect x="1" y="10" width="58" height="38" rx="2" ry="2" style="fill:#4092f2"/><path d="M1,46a2.151,2.151,0,0,0,2,2H57a2.151,2.151,0,0,0,2-2V40H1Z" style="fill:#9b9a9e"/><polygon points="22 55 23 48 37 48 38 55 22 55" style="fill:#9b9a9e"/><rect x="23" y="48" width="14" height="3" style="fill:#4d4c50"/><path d="M40,56a.979.979,0,0,0-1-1H21a.979.979,0,0,0-1,1v2H40Z" style="fill:#9b9a9e"/><rect x="5" y="14" width="50" height="26" style="fill:#80b6f7"/><path d="M15,33a2.8,2.8,0,0,0,3,3,2.8,2.8,0,0,0,3-3V14H15Z" style="fill:#006dee"/><rect x="15" y="10" width="6" height="4" style="fill:#004dda"/><path d="M13,31a2.8,2.8,0,0,0,3,3,2.8,2.8,0,0,0,3-3V6h2V2H11V6h2Z" style="fill:#e2ecf5"/><path d="M13,31a2.8,2.8,0,0,0,3,3,4.38,4.38,0,0,1-1-3V6H13Z" style="fill:#c5d9ec"/><path d="M13,31a2.8,2.8,0,0,0,3,3,2.8,2.8,0,0,0,3-3V14H13Z" style="fill:#f5bd74"/><path d="M13,31a2.8,2.8,0,0,0,3,3,4.38,4.38,0,0,1-1-3V14H13Z" style="fill:#ec8500"/><circle cx="40" cy="27" r="3" style="fill:#ec8500"/><circle cx="34" cy="20" r="2" style="fill:#dedddf"/><circle cx="49" cy="22" r="2" style="fill:#0ea8b2"/><circle cx="49" cy="32" r="2" style="fill:#b89558"/><circle cx="33" cy="34" r="2" style="fill:#87d3d8"/><path d="M10,10H3a1.959,1.959,0,0,0-2,2V46a2.151,2.151,0,0,0,2,2H57a2.151,2.151,0,0,0,2-2V12a1.959,1.959,0,0,0-2-2H22" style="fill:none;stroke:#000;stroke-miterlimit:10;stroke-width:2px"/><line x1="1" y1="40" x2="59" y2="40" style="fill:none;stroke:#000;stroke-linejoin:round;stroke-width:2px"/><line x1="23" y1="48" x2="22" y2="55" style="fill:none;stroke:#000;stroke-miterlimit:10;stroke-width:2px"/><line x1="37" y1="48" x2="38" y2="55" style="fill:none;stroke:#000;stroke-miterlimit:10;stroke-width:2px"/><path d="M40,56a.979.979,0,0,0-1-1H21a.979.979,0,0,0-1,1v2H40Z" style="fill:none;stroke:#000;stroke-linecap:round;stroke-miterlimit:10;stroke-width:2px"/><path d="M13,31a3,3,0,0,0,6,0V6h2V2H11V6h2Z" style="fill:none;stroke:#000;stroke-linejoin:round;stroke-width:2px"/><circle cx="34" cy="20" r="2" style="fill:none;stroke:#000;stroke-linejoin:round;stroke-width:2px"/><circle cx="49" cy="32" r="2" style="fill:none;stroke:#000;stroke-linejoin:round;stroke-width:2px"/><circle cx="33" cy="34" r="2" style="fill:none;stroke:#000;stroke-linejoin:round;stroke-width:2px"/><circle cx="49" cy="22" r="2" style="fill:none;stroke:#000;stroke-linejoin:round;stroke-width:2px"/><circle cx="40" cy="27" r="3" style="fill:none;stroke:#000;stroke-linejoin:round;stroke-width:2px"/><line x1="35" y1="22" x2="38" y2="25" style="fill:none;stroke:#000;stroke-linejoin:round;stroke-width:2px"/><line x1="34" y1="33" x2="38" y2="29" style="fill:none;stroke:#000;stroke-linejoin:round;stroke-width:2px"/><line x1="42" y1="29" x2="47" y2="31" style="fill:none;stroke:#000;stroke-linejoin:round;stroke-width:2px"/><line x1="42" y1="26" x2="47" y2="23" style="fill:none;stroke:#000;stroke-linejoin:round;stroke-width:2px"/><polyline points="5 34 5 14 10 14" style="fill:none;stroke:#000;stroke-linejoin:round;stroke-width:2px"/><polyline points="22 14 55 14 55 34" style="fill:none;stroke:#000;stroke-linejoin:round;stroke-width:2px"/><line x1="8" y1="18" x2="10" y2="18" style="fill:none;stroke:#000;stroke-linejoin:round;stroke-width:2px"/><line x1="8" y1="22" x2="10" y2="22" style="fill:none;stroke:#000;stroke-linejoin:round;stroke-width:2px"/><line x1="8" y1="26" x2="10" y2="26" style="fill:none;stroke:#000;stroke-linejoin:round;stroke-width:2px"/></g></svg>