<svg xmlns="http://www.w3.org/2000/svg" viewBox="0 0 60 60"><title>16-Flask</title><g id="_16-Flask" data-name="16-Flask"><polygon points="13 34 9 26 47 26 47 34 47 59 13 59 13 34" style="fill:#e2ecf5"/><polygon points="17 34 13 26 13 26 9 26 13 34 13 59 17 59 17 34" style="fill:#c5d9ec"/><rect x="13" y="39" width="34" height="20" style="fill:#87d3d8"/><rect x="13" y="39" width="4" height="20" style="fill:#0ea8b2"/><path d="M34,8c0-2.209-4-7-4-7s-4,4.791-4,7a4,4,0,0,0,8,0Z" style="fill:#f5bd74"/><path d="M28,8c0-2.209,2-7,2-7s-4,4.791-4,7a4,4,0,0,0,4,4A6.237,6.237,0,0,1,28,8Z" style="fill:#ec8500"/><path d="M47,32v3H40V48a2,2,0,0,1-4,0V35c-4,0-5-3-5-3Z" style="fill:#9b9a9e"/><path d="M40,39v9a2,2,0,0,1-4,0V39Z" style="fill:#0ea8b2"/><path d="M15,23a2,2,0,0,1,4,0h0a7,7,0,0,1,14,0h0a2,2,0,0,1,4,0h0a5,5,0,0,1,10,0h0a4,4,0,0,1,0,8v3H38V47a2,2,0,0,1-4,0V34a4,4,0,0,1,0-8H15Z" style="fill:#bcbbbe"/><path d="M19,23h2a6.459,6.459,0,0,1,3-5c3-2,4-1,4-1s-4-2-7,1A7.809,7.809,0,0,0,19,23Z" style="fill:#9b9a9e"/><path d="M37,23h2s1-4,5-4c0,0-1.775-1.612-5,0C37,20,37,23,37,23Z" style="fill:#9b9a9e"/><path d="M34,26a4,4,0,0,0,0,8V47a2,2,0,0,0,4,0V34" style="fill:none;stroke:#000;stroke-linejoin:round;stroke-width:2px"/><path d="M33,26H9l4,8V58a.979.979,0,0,0,1,1H46a.979.979,0,0,0,1-1V31a4,4,0,0,0,0-8h0a5,5,0,0,0-10,0h0a2,2,0,0,0-4,0h0a7,7,0,0,0-14,0h0a2,2,0,0,0-4,0" style="fill:none;stroke:#000;stroke-linejoin:round;stroke-width:2px"/><line x1="17" y1="37" x2="21" y2="37" style="fill:none;stroke:#000;stroke-linejoin:round;stroke-width:2px"/><line x1="17" y1="42" x2="21" y2="42" style="fill:none;stroke:#000;stroke-linejoin:round;stroke-width:2px"/><line x1="17" y1="47" x2="21" y2="47" style="fill:none;stroke:#000;stroke-linejoin:round;stroke-width:2px"/><line x1="17" y1="52" x2="21" y2="52" style="fill:none;stroke:#000;stroke-linejoin:round;stroke-width:2px"/><path d="M34,8c0-2.209-4-7-4-7s-4,4.791-4,7a4,4,0,0,0,8,0Z" style="fill:none;stroke:#000;stroke-linejoin:round;stroke-width:2px"/></g></svg>