<svg xmlns="http://www.w3.org/2000/svg" viewBox="0 0 60 60"><title>17-Flask</title><g id="_17-Flask" data-name="17-Flask"><path d="M23,35v3h3v2L20,58a.979.979,0,0,0,1,1H39a.979.979,0,0,0,1-1L34,40V38h3V35Z" style="fill:#e2ecf5"/><path d="M29,38v2L23,58a.979.979,0,0,0,1,1H21a.979.979,0,0,1-1-1l6-18V38Z" style="fill:#c5d9ec"/><path d="M24,46,20,58a.979.979,0,0,0,1,1H39a.979.979,0,0,0,1-1L36,46Z" style="fill:#4092f2"/><path d="M27,46,23,58a.979.979,0,0,0,1,1H21a.979.979,0,0,1-1-1l4-12Z" style="fill:#006dee"/><circle cx="28" cy="52" r="2" style="fill:#bfdbfb"/><polygon points="31 26 34 26 34 31 40 26 59 26 59 10 31 10 31 26" style="fill:#87d3d8"/><path d="M59,10H31V24h4a.979.979,0,0,0,1-1V12H59Z" style="fill:#0ea8b2"/><polygon points="1 21 20 21 26 28 26 21 33 21 33 5 1 5 1 21" style="fill:#f5bd74"/><polygon points="3 21 1 21 1 5 33 5 33 7 3 7 3 21" style="fill:#ec8500"/><path d="M23,35v3h3v2L20,58a.979.979,0,0,0,1,1H39a.979.979,0,0,0,1-1L34,40V38h3V35Z" style="fill:none;stroke:#000;stroke-linejoin:round;stroke-width:2px"/><line x1="30" y1="38" x2="34" y2="38" style="fill:none;stroke:#000;stroke-linejoin:round;stroke-width:2px"/><circle cx="28" cy="52" r="2" style="fill:none;stroke:#000;stroke-linejoin:round;stroke-width:2px"/><line x1="30" y1="47" x2="32" y2="47" style="fill:none;stroke:#000;stroke-linejoin:round;stroke-width:2px"/><line x1="33" y1="55" x2="35" y2="55" style="fill:none;stroke:#000;stroke-linejoin:round;stroke-width:2px"/><polyline points="31 24 31 26 34 26 34 31 40 26 59 26 59 10 36 10" style="fill:none;stroke:#000;stroke-linejoin:round;stroke-width:2px"/><polygon points="1 21 20 21 26 28 26 21 33 21 33 5 1 5 1 21" style="fill:none;stroke:#000;stroke-linejoin:round;stroke-width:2px"/><line x1="12" y1="13" x2="14" y2="13" style="fill:none;stroke:#000;stroke-linejoin:round;stroke-width:2px"/><line x1="16" y1="13" x2="18" y2="13" style="fill:none;stroke:#000;stroke-linejoin:round;stroke-width:2px"/><line x1="20" y1="13" x2="22" y2="13" style="fill:none;stroke:#000;stroke-linejoin:round;stroke-width:2px"/><line x1="47" y1="18" x2="45" y2="18" style="fill:none;stroke:#000;stroke-linejoin:round;stroke-width:2px"/><line x1="51" y1="18" x2="49" y2="18" style="fill:none;stroke:#000;stroke-linejoin:round;stroke-width:2px"/><line x1="43" y1="18" x2="41" y2="18" style="fill:none;stroke:#000;stroke-linejoin:round;stroke-width:2px"/></g></svg>