<svg xmlns="http://www.w3.org/2000/svg" viewBox="0 0 60 60"><title>19-Dna</title><g id="_19-Dna" data-name="19-Dna"><path d="M5,38c0,4,11,7,11,7s11-3,11-7V22c0-4-11-7-11-7S5,18,5,22Z" style="fill:#80b6f7"/><path d="M8,38c0,4,9,7,9,7S5,42,5,38V22c0-4,12-7,12-7s-9,3-9,7Z" style="fill:#4092f2"/><path d="M27,60H5V51c0-3,11-6,11-6s11,3,11,6Z" style="fill:#d0fff9"/><path d="M27,0H5V9c0,3,11,6,11,6s11-3,11-6Z" style="fill:#d0fff9"/><path d="M5,0H8V9c0,3,8,6,8,6S5,12,5,9Z" style="fill:#87d3d8"/><path d="M5,60H8V51c0-3,8-6,8-6S5,48,5,51Z" style="fill:#87d3d8"/><path d="M33,38c0,4,11,7,11,7s11-3,11-7V22c0-4-11-7-11-7s-11,3-11,7Z" style="fill:#87d3d8"/><path d="M55,60H33V51c0-3,11-6,11-6s11,3,11,6Z" style="fill:#bfdbfb"/><path d="M55,0H33V9c0,3,11,6,11,6s11-3,11-6Z" style="fill:#bfdbfb"/><path d="M36,38c0,4,9,7,9,7s-12-3-12-7V22c0-4,12-7,12-7s-9,3-9,7Z" style="fill:#0ea8b2"/><path d="M33,0h3V9c0,3,8,6,8,6S33,12,33,9Z" style="fill:#80b6f7"/><path d="M33,60h3V51c0-3,8-6,8-6s-11,3-11,6Z" style="fill:#80b6f7"/><path d="M5,0V9c0,5,22,7,22,13V38c0,6-22,8-22,13v9" style="fill:none;stroke:#000;stroke-linejoin:round;stroke-width:2px"/><path d="M27,0V9c0,5-22,7-22,13V38c0,6,22,8,22,13v9" style="fill:none;stroke:#000;stroke-linejoin:round;stroke-width:2px"/><line x1="8" y1="5" x2="17" y2="5" style="fill:none;stroke:#000;stroke-linejoin:round;stroke-width:2px"/><line x1="19" y1="5" x2="24" y2="5" style="fill:none;stroke:#000;stroke-linejoin:round;stroke-width:2px"/><line x1="8" y1="1" x2="24" y2="1" style="fill:none;stroke:#000;stroke-linejoin:round;stroke-width:2px"/><line x1="12" y1="9" x2="20" y2="9" style="fill:none;stroke:#000;stroke-linejoin:round;stroke-width:2px"/><line x1="12" y1="20" x2="20" y2="20" style="fill:none;stroke:#000;stroke-linejoin:round;stroke-width:2px"/><line x1="12" y1="40" x2="20" y2="40" style="fill:none;stroke:#000;stroke-linejoin:round;stroke-width:2px"/><line x1="9" y1="25" x2="17" y2="25" style="fill:none;stroke:#000;stroke-linejoin:round;stroke-width:2px"/><line x1="19" y1="25" x2="23" y2="25" style="fill:none;stroke:#000;stroke-linejoin:round;stroke-width:2px"/><line x1="9" y1="35" x2="15" y2="35" style="fill:none;stroke:#000;stroke-linejoin:round;stroke-width:2px"/><line x1="17" y1="35" x2="23" y2="35" style="fill:none;stroke:#000;stroke-linejoin:round;stroke-width:2px"/><line x1="15" y1="30" x2="24" y2="30" style="fill:none;stroke:#000;stroke-linejoin:round;stroke-width:2px"/><line x1="8" y1="30" x2="13" y2="30" style="fill:none;stroke:#000;stroke-linejoin:round;stroke-width:2px"/><line x1="8" y1="55" x2="17" y2="55" style="fill:none;stroke:#000;stroke-linejoin:round;stroke-width:2px"/><line x1="19" y1="55" x2="24" y2="55" style="fill:none;stroke:#000;stroke-linejoin:round;stroke-width:2px"/><line x1="11" y1="51" x2="21" y2="51" style="fill:none;stroke:#000;stroke-linejoin:round;stroke-width:2px"/><line x1="8" y1="59" x2="14" y2="59" style="fill:none;stroke:#000;stroke-linejoin:round;stroke-width:2px"/><line x1="16" y1="59" x2="24" y2="59" style="fill:none;stroke:#000;stroke-linejoin:round;stroke-width:2px"/><path d="M33,0V9c0,5,22,7,22,13V38c0,6-22,8-22,13v9" style="fill:none;stroke:#000;stroke-linejoin:round;stroke-width:2px"/><path d="M55,0V9c0,5-22,7-22,13V38c0,6,22,8,22,13v9" style="fill:none;stroke:#000;stroke-linejoin:round;stroke-width:2px"/><line x1="36" y1="5" x2="42" y2="5" style="fill:none;stroke:#000;stroke-linejoin:round;stroke-width:2px"/><line x1="44" y1="5" x2="52" y2="5" style="fill:none;stroke:#000;stroke-linejoin:round;stroke-width:2px"/><line x1="36" y1="1" x2="52" y2="1" style="fill:none;stroke:#000;stroke-linejoin:round;stroke-width:2px"/><line x1="40" y1="9" x2="48" y2="9" style="fill:none;stroke:#000;stroke-linejoin:round;stroke-width:2px"/><line x1="40" y1="20" x2="48" y2="20" style="fill:none;stroke:#000;stroke-linejoin:round;stroke-width:2px"/><line x1="40" y1="40" x2="48" y2="40" style="fill:none;stroke:#000;stroke-linejoin:round;stroke-width:2px"/><line x1="37" y1="25" x2="41" y2="25" style="fill:none;stroke:#000;stroke-linejoin:round;stroke-width:2px"/><line x1="43" y1="25" x2="46" y2="25" style="fill:none;stroke:#000;stroke-linejoin:round;stroke-width:2px"/><line x1="48" y1="25" x2="51" y2="25" style="fill:none;stroke:#000;stroke-linejoin:round;stroke-width:2px"/><line x1="37" y1="35" x2="45" y2="35" style="fill:none;stroke:#000;stroke-linejoin:round;stroke-width:2px"/><line x1="47" y1="35" x2="51" y2="35" style="fill:none;stroke:#000;stroke-linejoin:round;stroke-width:2px"/><line x1="41" y1="30" x2="52" y2="30" style="fill:none;stroke:#000;stroke-linejoin:round;stroke-width:2px"/><line x1="36" y1="30" x2="39" y2="30" style="fill:none;stroke:#000;stroke-linejoin:round;stroke-width:2px"/><line x1="36" y1="55" x2="42" y2="55" style="fill:none;stroke:#000;stroke-linejoin:round;stroke-width:2px"/><line x1="44" y1="55" x2="52" y2="55" style="fill:none;stroke:#000;stroke-linejoin:round;stroke-width:2px"/><line x1="39" y1="51" x2="49" y2="51" style="fill:none;stroke:#000;stroke-linejoin:round;stroke-width:2px"/><line x1="36" y1="59" x2="45" y2="59" style="fill:none;stroke:#000;stroke-linejoin:round;stroke-width:2px"/><line x1="47" y1="59" x2="52" y2="59" style="fill:none;stroke:#000;stroke-linejoin:round;stroke-width:2px"/></g></svg>