<svg xmlns="http://www.w3.org/2000/svg" viewBox="0 0 60 60"><title>2-Flask</title><g id="_2-Flask" data-name="2-Flask"><path d="M44,49a3,3,0,0,0,6,0V13h2V9H42v4h2Z" style="fill:#e2ecf5"/><path d="M44,49a3,3,0,0,0,6,0V24H44Z" style="fill:#f5bd74"/><path d="M44,49a2.8,2.8,0,0,0,3,3,4.38,4.38,0,0,1-1-3V13H44Z" style="fill:#c5d9ec"/><path d="M44,49a2.8,2.8,0,0,0,3,3,4.38,4.38,0,0,1-1-3V24H44Z" style="fill:#ec8500"/><path d="M29,49a3,3,0,0,0,6,0V13h2V9H27v4h2Z" style="fill:#e2ecf5"/><path d="M29,49a3,3,0,0,0,6,0V24H29Z" style="fill:#87d3d8"/><path d="M29,49a2.8,2.8,0,0,0,3,3,4.38,4.38,0,0,1-1-3V13H29Z" style="fill:#c5d9ec"/><path d="M29,49a2.8,2.8,0,0,0,3,3,4.38,4.38,0,0,1-1-3V24H29Z" style="fill:#0ea8b2"/><polygon points="14 22 20 22 20 13 22 13 22 9 12 9 12 13 14 13 14 22" style="fill:#e2ecf5"/><rect x="14" y="13" width="2" height="9" style="fill:#c5d9ec"/><path d="M9,19v6h3v3L3,58a.979.979,0,0,0,1,1H34a.979.979,0,0,0,1-1L26,28V25h3V19Z" style="fill:#e2ecf5"/><path d="M12,25h4v3L7,58a.979.979,0,0,0,1,1H4a.979.979,0,0,1-1-1l9-30Z" style="fill:#c5d9ec"/><path d="M8,41,3,58a.979.979,0,0,0,1,1H34a.979.979,0,0,0,1-1L30,41Z" style="fill:#4092f2"/><path d="M12,41,7,58a.979.979,0,0,0,1,1H4a.979.979,0,0,1-1-1L8,41Z" style="fill:#006dee"/><path d="M9,19v6h3v3L3,58a.979.979,0,0,0,1,1H34a.979.979,0,0,0,1-1L26,28V25h3V19Z" style="fill:none;stroke:#000;stroke-linejoin:round;stroke-width:2px"/><path d="M44,49a3,3,0,0,0,6,0V13h2V9H42v4h2Z" style="fill:none;stroke:#000;stroke-linejoin:round;stroke-width:2px"/><polyline points="35 48 35 13 37 13 37 9 27 9 27 13 29 13 29 16" style="fill:none;stroke:#000;stroke-linejoin:round;stroke-width:2px"/><polyline points="20 16 20 13 22 13 22 9 12 9 12 13 14 13 14 16" style="fill:none;stroke:#000;stroke-linejoin:round;stroke-width:2px"/><line x1="18" y1="25" x2="26" y2="25" style="fill:none;stroke:#000;stroke-linejoin:round;stroke-width:2px"/><line x1="19" y1="37" x2="25" y2="37" style="fill:none;stroke:#000;stroke-linejoin:round;stroke-width:2px"/><line x1="19" y1="44" x2="25" y2="44" style="fill:none;stroke:#000;stroke-linejoin:round;stroke-width:2px"/><line x1="19" y1="51" x2="25" y2="51" style="fill:none;stroke:#000;stroke-linejoin:round;stroke-width:2px"/><path d="M1,60V38a4.3,4.3,0,0,1,4-4h5" style="fill:none;stroke:#000;stroke-linejoin:round;stroke-width:2px"/><path d="M59,60V38a4.3,4.3,0,0,0-4-4H50" style="fill:none;stroke:#000;stroke-linejoin:round;stroke-width:2px"/><line x1="44" y1="34" x2="35" y2="34" style="fill:none;stroke:#000;stroke-linejoin:round;stroke-width:2px"/></g></svg>