<svg xmlns="http://www.w3.org/2000/svg" viewBox="0 0 60 60"><title>20-Space</title><g id="_20-Space" data-name="20-Space"><path d="M59,20a18,18,0,1,0-36,0,15.316,15.316,0,0,0,1,6H57.976A15.344,15.344,0,0,0,59,20Z" style="fill:#4092f2"/><path d="M23,20c0-9.941,7-18,22-18C37.933,2,33.816,6.073,30.871,12A17.92,17.92,0,0,0,29,20a15.316,15.316,0,0,0,1,6H24C24,24,23,22.1,23,20Z" style="fill:#006dee"/><circle cx="53" cy="35" r="4" style="fill:#ec8500"/><path d="M57,35a4,4,0,0,0-4-4,6.237,6.237,0,0,0-2,4,6.237,6.237,0,0,0,2,4A4,4,0,0,0,57,35Z" style="fill:#f5bd74"/><circle cx="35" cy="35" r="4" style="fill:#87d3d8"/><path d="M39,35a4,4,0,0,0-4-4,6.237,6.237,0,0,0-2,4,6.237,6.237,0,0,0,2,4A4,4,0,0,0,39,35Z" style="fill:#0ea8b2"/><circle cx="44" cy="48" r="5" style="fill:#4d4c50"/><path d="M49,48a5,5,0,0,0-5-5s-3,2.239-3,5,3,5,3,5A5,5,0,0,0,49,48Z" style="fill:#9b9a9e"/><path d="M9,13c0-6,3.582-9,8-9s8,3,8,9V53H9Z" style="fill:#bcbbbe"/><path d="M12,13c0-6,3.582-9,8-9C14,3,9,7,9,13V53h3Z" style="fill:#9b9a9e"/><path d="M14,29c0-3,1.343-4,3-4s3,1,3,4V50H14Z" style="fill:#c5d9ec"/><path d="M16,29c0-3,1.343-4,3-4-3,0-5,1-5,4V50h2Z" style="fill:#80b6f7"/><path d="M14,34S3,43,2,44s-1,3-1,5H14Z" style="fill:#c5d9ec"/><path d="M20,33s11,9,12,10,1,3,1,5H20Z" style="fill:#c5d9ec"/><path d="M14,34v3.462C10.662,40.2,5.659,44.341,5,45c-1,1-1,4-1,4H1V45C1,44,9,38,14,34Z" style="fill:#80b6f7"/><polygon points="20 34 23 37 23 49 20 49 20 34" style="fill:#80b6f7"/><polygon points="23 57 22 58 12 58 11 57 11 53 23 53 23 57" style="fill:#80b6f7"/><rect x="11" y="53" width="2" height="5" style="fill:#4092f2"/><rect x="15" y="53" width="2" height="5" style="fill:#4092f2"/><rect x="19" y="53" width="2" height="5" style="fill:#4092f2"/><path d="M9,34V14c0-3,1-10,8-10s8,7,8,10V34" style="fill:none;stroke:#000;stroke-linejoin:round;stroke-width:2px"/><polygon points="11 53 23 53 23 57 22 58 12 58 11 57 11 53" style="fill:none;stroke:#000;stroke-linejoin:round;stroke-width:2px"/><path d="M14,29c0-2,1-4,3-4s3,2,3,4V50H14Z" style="fill:none;stroke:#000;stroke-linejoin:round;stroke-width:2px"/><path d="M14,34S3,43,2,44a4.938,4.938,0,0,0-1,3v2H14" style="fill:none;stroke:#000;stroke-linejoin:round;stroke-width:2px"/><path d="M20,34s11,9,12,10a4.938,4.938,0,0,1,1,3v2H20" style="fill:none;stroke:#000;stroke-linejoin:round;stroke-width:2px"/><line x1="15" y1="53" x2="15" y2="58" style="fill:none;stroke:#000;stroke-linejoin:round;stroke-width:2px"/><line x1="19" y1="53" x2="19" y2="58" style="fill:none;stroke:#000;stroke-linejoin:round;stroke-width:2px"/><line x1="8" y1="53" x2="26" y2="53" style="fill:none;stroke:#000;stroke-linejoin:round;stroke-width:2px"/><line x1="12" y1="18" x2="14" y2="18" style="fill:none;stroke:#000;stroke-linejoin:round;stroke-width:2px"/><line x1="16" y1="18" x2="18" y2="18" style="fill:none;stroke:#000;stroke-linejoin:round;stroke-width:2px"/><line x1="20" y1="18" x2="22" y2="18" style="fill:none;stroke:#000;stroke-linejoin:round;stroke-width:2px"/><circle cx="35" cy="35" r="4" style="fill:none;stroke:#000;stroke-linejoin:round;stroke-width:2px"/><line x1="35" y1="29" x2="35" y2="31" style="fill:none;stroke:#000;stroke-linejoin:round;stroke-width:2px"/><line x1="35" y1="38" x2="35" y2="41" style="fill:none;stroke:#000;stroke-linejoin:round;stroke-width:2px"/><line x1="41" y1="35" x2="39" y2="35" style="fill:none;stroke:#000;stroke-linejoin:round;stroke-width:2px"/><line x1="31" y1="35" x2="29" y2="35" style="fill:none;stroke:#000;stroke-linejoin:round;stroke-width:2px"/><line x1="39" y1="31" x2="38" y2="32" style="fill:none;stroke:#000;stroke-linejoin:round;stroke-width:2px"/><line x1="32" y1="38" x2="31" y2="39" style="fill:none;stroke:#000;stroke-linejoin:round;stroke-width:2px"/><line x1="39" y1="39" x2="38" y2="38" style="fill:none;stroke:#000;stroke-linejoin:round;stroke-width:2px"/><line x1="32" y1="32" x2="31" y2="31" style="fill:none;stroke:#000;stroke-linejoin:round;stroke-width:2px"/><circle cx="44" cy="48" r="5" style="fill:none;stroke:#000;stroke-linejoin:round;stroke-width:2px"/><line x1="44" y1="40" x2="44" y2="43" style="fill:none;stroke:#000;stroke-linejoin:round;stroke-width:2px"/><line x1="44" y1="53" x2="44" y2="56" style="fill:none;stroke:#000;stroke-linejoin:round;stroke-width:2px"/><line x1="39" y1="48" x2="36" y2="48" style="fill:none;stroke:#000;stroke-linejoin:round;stroke-width:2px"/><line x1="40" y1="51" x2="38" y2="53" style="fill:none;stroke:#000;stroke-linejoin:round;stroke-width:2px"/><line x1="40" y1="44" x2="38" y2="42" style="fill:none;stroke:#000;stroke-linejoin:round;stroke-width:2px"/><line x1="49" y1="48" x2="52" y2="48" style="fill:none;stroke:#000;stroke-linejoin:round;stroke-width:2px"/><line x1="48" y1="51" x2="50" y2="53" style="fill:none;stroke:#000;stroke-linejoin:round;stroke-width:2px"/><line x1="48" y1="44" x2="50" y2="42" style="fill:none;stroke:#000;stroke-linejoin:round;stroke-width:2px"/><circle cx="53" cy="35" r="4" style="fill:none;stroke:#000;stroke-linejoin:round;stroke-width:2px"/><line x1="53" y1="29" x2="53" y2="32" style="fill:none;stroke:#000;stroke-linejoin:round;stroke-width:2px"/><line x1="53" y1="39" x2="53" y2="41" style="fill:none;stroke:#000;stroke-linejoin:round;stroke-width:2px"/><line x1="59" y1="35" x2="57" y2="35" style="fill:none;stroke:#000;stroke-linejoin:round;stroke-width:2px"/><line x1="49" y1="35" x2="47" y2="35" style="fill:none;stroke:#000;stroke-linejoin:round;stroke-width:2px"/><line x1="57" y1="31" x2="56" y2="32" style="fill:none;stroke:#000;stroke-linejoin:round;stroke-width:2px"/><line x1="50" y1="38" x2="49" y2="39" style="fill:none;stroke:#000;stroke-linejoin:round;stroke-width:2px"/><line x1="57" y1="39" x2="56" y2="38" style="fill:none;stroke:#000;stroke-linejoin:round;stroke-width:2px"/><line x1="50" y1="32" x2="49" y2="31" style="fill:none;stroke:#000;stroke-linejoin:round;stroke-width:2px"/><path d="M28,8c3-3,7.2-6,13-6A18.013,18.013,0,0,1,57.976,26H29" style="fill:none;stroke:#000;stroke-linejoin:round;stroke-width:2px"/><line x1="41" y1="2" x2="41" y2="27" style="fill:none;stroke:#000;stroke-linejoin:round;stroke-width:2px"/><line x1="58" y1="15" x2="29" y2="15" style="fill:none;stroke:#000;stroke-linejoin:round;stroke-width:2px"/><path d="M34,26a14.515,14.515,0,0,1-1-6c0-9.941,3.582-18,8-18s8,8.059,8,18a19.38,19.38,0,0,1-1,6" style="fill:none;stroke:#000;stroke-linejoin:round;stroke-width:2px"/></g></svg>