<svg xmlns="http://www.w3.org/2000/svg" viewBox="0 0 60 60"><title>21-Biology</title><g id="_21-Biology" data-name="21-Biology"><path d="M18,21v4h4v6L7,58a.979.979,0,0,0,1,1H52a.979.979,0,0,0,1-1L38,31V25h4V21Z" style="fill:#e2ecf5"/><path d="M22,25h4v6L11,58a.979.979,0,0,0,1,1H8a.979.979,0,0,1-1-1L22,31Z" style="fill:#c5d9ec"/><path d="M28,21a2,2,0,0,0,4,0V8H28Z" style="fill:#dedddf"/><path d="M30,23a1.959,1.959,0,0,1-2-2V8h4v2H30Z" style="fill:#bcbbbe"/><path d="M34,4a5.288,5.288,0,0,0,2-4H24a5.288,5.288,0,0,0,2,4V5H25V8H35V5H34Z" style="fill:#f5bd74"/><path d="M25,5V8h3V6a.979.979,0,0,0,1-1V3a3.552,3.552,0,0,1-2-3H24.129A4.5,4.5,0,0,0,25,3l2,2Z" style="fill:#ec8500"/><path d="M33.273,33.727C33.273,31.92,30,28,30,28s-3.273,3.92-3.273,5.727a3.273,3.273,0,0,0,6.546,0Z" style="fill:#4092f2"/><path d="M29,34a35.36,35.36,0,0,1,1-6s-3,4-3,6a2.733,2.733,0,0,0,3,3A4.38,4.38,0,0,1,29,34Z" style="fill:#006dee"/><path d="M15,59H45V58s-2-5-15-5-15,5-15,5Z" style="fill:#8b7140"/><path d="M45,59s-1-5-9-5c-12,0-17,5-17,5Z" style="fill:#b89558"/><path d="M30,46s2-4,5-4a7.651,7.651,0,0,1,5,2s-4,3-6,3A10.343,10.343,0,0,1,30,46Z" style="fill:#00ad85"/><path d="M30,46s-2-4-5-4a7.651,7.651,0,0,0-5,2s4,3,6,3A10.343,10.343,0,0,0,30,46Z" style="fill:#00ad85"/><path d="M23,21H18v4h4v6L7,58a.979.979,0,0,0,1,1H52a.979.979,0,0,0,1-1L38,31V25h4V21H37" style="fill:none;stroke:#000;stroke-linejoin:round;stroke-width:2px"/><path d="M33,34c0-1.657-3-6-3-6s-3,4.343-3,6a3,3,0,0,0,6,0Z" style="fill:none;stroke:#000;stroke-linejoin:round;stroke-width:2px"/><path d="M45,59c0-3.314-6.716-6-15-6s-15,2.686-15,6" style="fill:none;stroke:#000;stroke-linejoin:round;stroke-width:2px"/><line x1="30" y1="46" x2="30" y2="53" style="fill:none;stroke:#000;stroke-linejoin:round;stroke-width:2px"/><path d="M30,46a7.467,7.467,0,0,0-3-3c-3.225-1.612-7,1-7,1s4,3,6,3A10.343,10.343,0,0,0,30,46Z" style="fill:none;stroke:#000;stroke-linejoin:round;stroke-width:2px"/><path d="M30,46a7.467,7.467,0,0,1,3-3c3.225-1.612,7,1,7,1s-4,3-6,3A10.343,10.343,0,0,1,30,46Z" style="fill:none;stroke:#000;stroke-linejoin:round;stroke-width:2px"/><path d="M28,21a2,2,0,0,0,4,0V8H28Z" style="fill:none;stroke:#000;stroke-linejoin:round;stroke-width:2px"/><path d="M24,0c0,3,3,4,3,4V5H25V8H35V5H33V4s3-1,3-4" style="fill:none;stroke:#000;stroke-linejoin:round;stroke-width:2px"/></g></svg>