<svg xmlns="http://www.w3.org/2000/svg" viewBox="0 0 60 60"><title>22-Biology</title><g id="_22-Biology" data-name="22-Biology"><path d="M8,51a8,8,0,0,0,16,0V7h4V1H4V7H8Z" style="fill:#e2ecf5"/><path d="M12,51c0,4.418,2,7,4,8a7.652,7.652,0,0,1-8-8V7h4Z" style="fill:#c5d9ec"/><rect x="4" y="1" width="4" height="6" style="fill:#c5d9ec"/><path d="M8,51a8,8,0,0,0,16,0V24H8Z" style="fill:#80b6f7"/><path d="M12,51c0,4.418,2,7,4,8a7.652,7.652,0,0,1-8-8V24h4Z" style="fill:#4092f2"/><circle cx="27" cy="30" r="15" style="fill:#dedddf"/><path d="M27,17c9,0,13,5,14,8A14.122,14.122,0,0,0,27,15,15,15,0,0,0,12,30c0,5.552,3.253,10.928,8,13-3-4-5-6-5-13S20.571,17,27,17Z" style="fill:#bcbbbe"/><rect x="43.257" y="40.308" width="8.485" height="18.385" transform="translate(-21.089 48.086) rotate(-45)" style="fill:#b89558"/><polygon points="46 42 42 46 53 57 51 59 38 46 44 40 46 42" style="fill:#8b7140"/><polygon points="25 24 19 24 16 29 19 34 25 34 28 29 25 24" style="fill:#f5bd74"/><polygon points="26 26 20 26 17 31 16 29 19 24 25 24 26 26" style="fill:#ec8500"/><polygon points="34 29 28 29 25 34 28 39 34 39 37 34 34 29" style="fill:#87d3d8"/><polygon points="28 19 25 24 28 29 34 29 37 24 28 19" style="fill:#80b6f7"/><polygon points="35 31 29 31 26 36 25 34 28 29 34 29 35 31" style="fill:#0ea8b2"/><rect x="43.257" y="40.308" width="8.485" height="18.385" transform="translate(-21.089 48.086) rotate(-45)" style="fill:none;stroke:#000;stroke-linejoin:round;stroke-width:2px"/><line x1="39" y1="39" x2="42" y2="42" style="fill:none;stroke:#000;stroke-linejoin:round;stroke-width:2px"/><line x1="37" y1="41" x2="40" y2="44" style="fill:none;stroke:#000;stroke-linejoin:round;stroke-width:2px"/><circle cx="27" cy="30" r="15" style="fill:none;stroke:#000;stroke-linejoin:round;stroke-width:2px"/><path d="M24,48v3A8,8,0,0,1,8,51V7H4V1H28V7H24v5" style="fill:none;stroke:#000;stroke-linejoin:round;stroke-width:2px"/><line x1="24" y1="7" x2="13" y2="7" style="fill:none;stroke:#000;stroke-linejoin:round;stroke-width:2px"/><polygon points="25 24 19 24 16 29 19 34 25 34 28 29 25 24" style="fill:none;stroke:#000;stroke-linejoin:round;stroke-width:2px"/><polygon points="34 29 28 29 25 34 28 39 34 39 37 34 34 29" style="fill:none;stroke:#000;stroke-linejoin:round;stroke-width:2px"/><line x1="25" y1="24" x2="28" y2="19" style="fill:none;stroke:#000;stroke-linejoin:round;stroke-width:2px"/><line x1="34" y1="29" x2="37" y2="24" style="fill:none;stroke:#000;stroke-linejoin:round;stroke-width:2px"/><line x1="30" y1="24" x2="32" y2="24" style="fill:none;stroke:#000;stroke-linejoin:round;stroke-width:2px"/><line x1="30" y1="34" x2="32" y2="34" style="fill:none;stroke:#000;stroke-linejoin:round;stroke-width:2px"/><line x1="21" y1="29" x2="23" y2="29" style="fill:none;stroke:#000;stroke-linejoin:round;stroke-width:2px"/><line x1="21" y1="39" x2="23" y2="39" style="fill:none;stroke:#000;stroke-linejoin:round;stroke-width:2px"/></g></svg>