<svg xmlns="http://www.w3.org/2000/svg" viewBox="0 0 60 60"><title>23-Dna</title><g id="_23-Dna" data-name="23-Dna"><rect x="20" y="6" width="34" height="53" style="fill:#4a87c0"/><path d="M29,56H51a.979.979,0,0,0,1-1V12a.979.979,0,0,0-1-1H29Z" style="fill:#2170a8"/><rect x="20" y="9" width="30" height="45" style="fill:#dedddf"/><path d="M47,12a.979.979,0,0,1-1,1H29a.979.979,0,0,1-1-1V9H47Z" style="fill:#bcbbbe"/><rect x="28" y="6" width="19" height="3" style="fill:#2170a8"/><rect x="28" y="3" width="17" height="7" style="fill:#bfdbfb"/><path d="M31,9c0,2-2,4-4,5a7.74,7.74,0,0,1-3,1s3,1,4,2,3,3,3,5V38c0,2-2,5-4,6l-2,1s3,1,4,2a5.2,5.2,0,0,1,2,4v3H28V51c0-2-5-5-11-6a26.015,26.015,0,0,0,7-3c3-2,4-3,4-4V22c0-2-4-5-11-7a33.853,33.853,0,0,0,8-3q3-1.5,3-3Z" style="fill:#bcbbbe"/><rect x="28" y="3" width="3" height="7" style="fill:#80b6f7"/><path d="M6,38c0,4,11,7,11,7s11-3,11-7V22c0-4-11-7-11-7S6,18,6,22Z" style="fill:#f5bd74"/><path d="M9,38c0,4,9,7,9,7S6,42,6,38V22c0-4,12-7,12-7s-9,3-9,7Z" style="fill:#ec8500"/><path d="M28,60H6V51c0-3,11-6,11-6s11,3,11,6Z" style="fill:#d0fff9"/><path d="M28,0H6V9c0,3,11,6,11,6s11-3,11-6Z" style="fill:#d0fff9"/><path d="M6,0H9V9c0,3,8,6,8,6S6,12,6,9Z" style="fill:#87d3d8"/><path d="M6,60H9V51c0-3,8-6,8-6S6,48,6,51Z" style="fill:#87d3d8"/><rect x="29" y="54" width="2" height="5" style="fill:#2170a8"/><polygon points="37 19 41 19 43 23 41 27 37 27 35 23 37 19" style="fill:#80b6f7"/><polygon points="37 19 41 19 42 21 38 21 36 25 35 23 37 19" style="fill:#4092f2"/><polygon points="37 27 41 27 43 31 41 35 37 35 35 31 37 27" style="fill:#80b6f7"/><polygon points="37 27 41 27 42 29 38 29 36 33 35 31 37 27" style="fill:#4092f2"/><path d="M6,0V9c0,5,22,7,22,13V38c0,6-22,8-22,13v9" style="fill:none;stroke:#000;stroke-linejoin:round;stroke-width:2px"/><path d="M28,0V9c0,5-22,7-22,13V38c0,6,22,8,22,13v9" style="fill:none;stroke:#000;stroke-linejoin:round;stroke-width:2px"/><line x1="9" y1="5" x2="18" y2="5" style="fill:none;stroke:#000;stroke-linejoin:round;stroke-width:2px"/><line x1="20" y1="5" x2="25" y2="5" style="fill:none;stroke:#000;stroke-linejoin:round;stroke-width:2px"/><line x1="9" y1="1" x2="25" y2="1" style="fill:none;stroke:#000;stroke-linejoin:round;stroke-width:2px"/><line x1="13" y1="9" x2="21" y2="9" style="fill:none;stroke:#000;stroke-linejoin:round;stroke-width:2px"/><line x1="13" y1="20" x2="21" y2="20" style="fill:none;stroke:#000;stroke-linejoin:round;stroke-width:2px"/><line x1="13" y1="40" x2="21" y2="40" style="fill:none;stroke:#000;stroke-linejoin:round;stroke-width:2px"/><line x1="10" y1="25" x2="18" y2="25" style="fill:none;stroke:#000;stroke-linejoin:round;stroke-width:2px"/><line x1="20" y1="25" x2="24" y2="25" style="fill:none;stroke:#000;stroke-linejoin:round;stroke-width:2px"/><line x1="10" y1="35" x2="16" y2="35" style="fill:none;stroke:#000;stroke-linejoin:round;stroke-width:2px"/><line x1="18" y1="35" x2="24" y2="35" style="fill:none;stroke:#000;stroke-linejoin:round;stroke-width:2px"/><line x1="16" y1="30" x2="25" y2="30" style="fill:none;stroke:#000;stroke-linejoin:round;stroke-width:2px"/><line x1="9" y1="30" x2="14" y2="30" style="fill:none;stroke:#000;stroke-linejoin:round;stroke-width:2px"/><line x1="9" y1="55" x2="18" y2="55" style="fill:none;stroke:#000;stroke-linejoin:round;stroke-width:2px"/><line x1="20" y1="55" x2="25" y2="55" style="fill:none;stroke:#000;stroke-linejoin:round;stroke-width:2px"/><line x1="12" y1="51" x2="22" y2="51" style="fill:none;stroke:#000;stroke-linejoin:round;stroke-width:2px"/><line x1="9" y1="59" x2="15" y2="59" style="fill:none;stroke:#000;stroke-linejoin:round;stroke-width:2px"/><line x1="17" y1="59" x2="25" y2="59" style="fill:none;stroke:#000;stroke-linejoin:round;stroke-width:2px"/><polyline points="31 59 54 59 54 6 46 6" style="fill:none;stroke:#000;stroke-linejoin:round;stroke-width:2px"/><polyline points="31 54 50 54 50 9 48 9" style="fill:none;stroke:#000;stroke-linejoin:round;stroke-width:2px"/><polyline points="31 3 45 3 45 10 31 10" style="fill:none;stroke:#000;stroke-linejoin:round;stroke-width:2px"/><line x1="45" y1="48" x2="33" y2="48" style="fill:none;stroke:#000;stroke-linejoin:round;stroke-width:2px"/><line x1="45" y1="40" x2="39" y2="40" style="fill:none;stroke:#000;stroke-linejoin:round;stroke-width:2px"/><line x1="37" y1="44" x2="33" y2="44" style="fill:none;stroke:#000;stroke-linejoin:round;stroke-width:2px"/><line x1="37" y1="40" x2="33" y2="40" style="fill:none;stroke:#000;stroke-linejoin:round;stroke-width:2px"/><line x1="45" y1="44" x2="39" y2="44" style="fill:none;stroke:#000;stroke-linejoin:round;stroke-width:2px"/><polygon points="41 27 37 27 35 31 37 35 41 35 43 31 41 27" style="fill:none;stroke:#000;stroke-linejoin:round;stroke-width:2px"/><polygon points="41 19 37 19 35 23 37 27 41 27 43 23 41 19" style="fill:none;stroke:#000;stroke-linejoin:round;stroke-width:2px"/></g></svg>