<svg xmlns="http://www.w3.org/2000/svg" viewBox="0 0 60 60"><title>25-Chemistry</title><g id="_25-Chemistry" data-name="25-Chemistry"><path d="M9,22v6h3v3L3,58a.979.979,0,0,0,1,1H32a.979.979,0,0,0,1-1L24,31V28h3V22Z" style="fill:#e2ecf5"/><path d="M12,28h4v3L8,58a.979.979,0,0,0,1,1H4a.979.979,0,0,1-1-1l9-27Z" style="fill:#c5d9ec"/><path d="M8,41,3,58a.979.979,0,0,0,1,1H32a.979.979,0,0,0,1-1L28,41Z" style="fill:#87d3d8"/><path d="M13,41,8,58a.979.979,0,0,0,1,1H4a.979.979,0,0,1-1-1L8,41Z" style="fill:#0ea8b2"/><polygon points="25 36 28 36 28 42 34 36 57 36 57 1 25 1 25 36" style="fill:#f5bd74"/><path d="M27,36H25V1H57V3H28a.979.979,0,0,0-1,1Z" style="fill:#ec8500"/><circle cx="37" cy="17" r="2" style="fill:#ec8500"/><circle cx="45" cy="17" r="2" style="fill:#ec8500"/><path d="M36,31v1a.979.979,0,0,0,1,1H48a.979.979,0,0,0,1-1V27a11.078,11.078,0,0,0,5-9c0-7-4-12-12-12,0,0,10,1,10,12,0,4-5,8-5,8v5Z" style="fill:#ec8500"/><path d="M22,22H9v6h3v3L3,58a.979.979,0,0,0,1,1H32a.979.979,0,0,0,1-1L29,45" style="fill:none;stroke:#000;stroke-linejoin:round;stroke-width:2px"/><line x1="12" y1="28" x2="22" y2="28" style="fill:none;stroke:#000;stroke-linejoin:round;stroke-width:2px"/><line x1="18" y1="45" x2="23" y2="45" style="fill:none;stroke:#000;stroke-linejoin:round;stroke-width:2px"/><line x1="18" y1="40" x2="23" y2="40" style="fill:none;stroke:#000;stroke-linejoin:round;stroke-width:2px"/><line x1="18" y1="50" x2="23" y2="50" style="fill:none;stroke:#000;stroke-linejoin:round;stroke-width:2px"/><polygon points="25 36 28 36 28 42 34 36 57 36 57 1 25 1 25 36" style="fill:none;stroke:#000;stroke-linejoin:round;stroke-width:2px"/><circle cx="37" cy="17" r="2" style="fill:none;stroke:#000;stroke-linejoin:round;stroke-width:2px"/><circle cx="45" cy="17" r="2" style="fill:none;stroke:#000;stroke-linejoin:round;stroke-width:2px"/><line x1="38" y1="26" x2="44" y2="26" style="fill:none;stroke:#000;stroke-linejoin:round;stroke-width:2px"/><path d="M52,17a11,11,0,0,0-22,0,10.615,10.615,0,0,0,5,9v5H47V26A10.615,10.615,0,0,0,52,17Z" style="fill:none;stroke:#000;stroke-linejoin:round;stroke-width:2px"/></g></svg>