<svg xmlns="http://www.w3.org/2000/svg" viewBox="0 0 60 60"><title>3-Research</title><g id="_3-Research" data-name="3-Research"><rect x="3" y="4" width="41" height="55" style="fill:#fff2e2"/><rect x="3" y="4" width="3" height="55" style="fill:#debb7e"/><rect x="14" y="31" width="30" height="28" style="fill:#debb7e"/><rect x="11" y="27" width="42" height="28" style="fill:#dedddf"/><rect x="11" y="27" width="3" height="28" style="fill:#bcbbbe"/><circle cx="14" cy="11" r="8" style="fill:#debb7e"/><path d="M9,17v8h2l3-2,3,2h2V17s-1,2-5,2S9,17,9,17Z" style="fill:#debb7e"/><circle cx="12" cy="9" r="8" style="fill:#87d3d8"/><circle cx="12" cy="9" r="4" style="fill:#4092f2"/><path d="M7,15v8H9l3-2,3,2h2V15s-1,2-5,2S7,15,7,15Z" style="fill:#4092f2"/><rect x="16" y="32" width="12" height="15" style="fill:#87d3d8"/><path d="M16,46c0-2.761,2.686-5,6-5s6,2.239,6,5v1H16Z" style="fill:#80b6f7"/><circle cx="22" cy="38" r="3" style="fill:#f8d5a8"/><path d="M42,35v3h1v2L37,58a.979.979,0,0,0,1,1H56a.979.979,0,0,0,1-1L51,40V38h1V35Z" style="fill:#e2ecf5"/><path d="M46,38v2L40,58a.979.979,0,0,0,1,1H38a.979.979,0,0,1-1-1l6-18V38Z" style="fill:#c5d9ec"/><path d="M41,46,37,58a.979.979,0,0,0,1,1H56a.979.979,0,0,0,1-1L53,46Z" style="fill:#4092f2"/><path d="M44,46,40,58a.979.979,0,0,0,1,1H38a.979.979,0,0,1-1-1l4-12Z" style="fill:#006dee"/><polyline points="3 15 3 59 35 59" style="fill:none;stroke:#000;stroke-linejoin:round;stroke-width:2px"/><polyline points="22 4 44 4 44 24" style="fill:none;stroke:#000;stroke-linejoin:round;stroke-width:2px"/><line x1="38" y1="15" x2="28" y2="15" style="fill:none;stroke:#000;stroke-linejoin:round;stroke-width:2px"/><line x1="38" y1="19" x2="23" y2="19" style="fill:none;stroke:#000;stroke-linejoin:round;stroke-width:2px"/><line x1="38" y1="23" x2="31" y2="23" style="fill:none;stroke:#000;stroke-linejoin:round;stroke-width:2px"/><line x1="29" y1="23" x2="21" y2="23" style="fill:none;stroke:#000;stroke-linejoin:round;stroke-width:2px"/><circle cx="12" cy="9" r="8" style="fill:none;stroke:#000;stroke-linejoin:round;stroke-width:2px"/><circle cx="12" cy="9" r="4" style="fill:none;stroke:#000;stroke-linejoin:round;stroke-width:2px"/><polyline points="7 15 7 23 9 23 12 21 15 23 17 23 17 15" style="fill:none;stroke:#000;stroke-linejoin:round;stroke-width:2px"/><path d="M35,55H12a.979.979,0,0,1-1-1V28a.979.979,0,0,1,1-1H52a.979.979,0,0,1,1,1v4" style="fill:none;stroke:#000;stroke-linejoin:round;stroke-width:2px"/><rect x="16" y="32" width="12" height="15" style="fill:none;stroke:#000;stroke-linejoin:round;stroke-width:2px"/><path d="M16,46c0-2.761,2.686-5,6-5s6,2.239,6,5v1H16Z" style="fill:none;stroke:#000;stroke-linejoin:round;stroke-width:2px"/><circle cx="22" cy="38" r="3" style="fill:none;stroke:#000;stroke-linejoin:round;stroke-width:2px"/><line x1="32" y1="35" x2="38" y2="35" style="fill:none;stroke:#000;stroke-linejoin:round;stroke-width:2px"/><line x1="32" y1="43" x2="38" y2="43" style="fill:none;stroke:#000;stroke-linejoin:round;stroke-width:2px"/><line x1="32" y1="39" x2="34" y2="39" style="fill:none;stroke:#000;stroke-linejoin:round;stroke-width:2px"/><line x1="36" y1="39" x2="38" y2="39" style="fill:none;stroke:#000;stroke-linejoin:round;stroke-width:2px"/><path d="M42,35v3h1v2L37,58a.979.979,0,0,0,1,1H56a.979.979,0,0,0,1-1L51,40V38h1V35Z" style="fill:none;stroke:#000;stroke-linejoin:round;stroke-width:2px"/><line x1="47" y1="49" x2="50" y2="49" style="fill:none;stroke:#000;stroke-linejoin:round;stroke-width:2px"/><line x1="47" y1="53" x2="50" y2="53" style="fill:none;stroke:#000;stroke-linejoin:round;stroke-width:2px"/></g></svg>