<svg xmlns="http://www.w3.org/2000/svg" viewBox="0 0 60 60"><title>4-Research</title><g id="_4-Research" data-name="4-Research"><rect x="18" y="1" width="41" height="58" style="fill:#dedddf"/><polygon points="20 33 18 33 18 38 20 35 20 33" style="fill:#79787d"/><polygon points="41 14 32 14 28 21 32 28 40 28 44 21 41 14" style="fill:#79787d"/><polygon points="28 21 20 21 16 28 20 35 28 35 32 28 28 21" style="fill:#79787d"/><polygon points="40 28 32 28 28 35 32 42 40 42 44 35 40 28" style="fill:#79787d"/><polygon points="13 12 5 12 1 19 5 26 13 26 17 19 13 12" style="fill:#80b6f7"/><polygon points="13 26 5 26 1 33 5 40 13 40 17 33 13 26" style="fill:#80b6f7"/><polygon points="38 12 29 12 25 19 29 26 37 26 41 19 38 12" style="fill:#80b6f7"/><polygon points="25 19 17 19 13 26 17 33 25 33 29 26 25 19" style="fill:#80b6f7"/><polygon points="37 26 29 26 25 33 29 40 37 40 41 33 37 26" style="fill:#80b6f7"/><polygon points="14 14 7 14 3 21 1 19 5 12 13 12 14 14" style="fill:#4092f2"/><polygon points="14 28 7 28 3 35 1 33 5 26 13 26 14 28" style="fill:#4092f2"/><polygon points="26 21 19 21 15 28 13 26 17 19 25 19 26 21" style="fill:#4092f2"/><polygon points="38 14 31 14 27 21 25 19 29 12 37 12 38 14" style="fill:#4092f2"/><polygon points="38 28 31 28 27 35 25 33 29 26 37 26 38 28" style="fill:#4092f2"/><path d="M55,44c0,1-1,3-2,3s-2-2-2-3V10a1,1,0,0,1,1-1h2a.979.979,0,0,1,1,1Z" style="fill:#79787d"/><path d="M53,43c0,1-1,3-2,3s-2-2-2-3V9a1,1,0,0,1,1-1h2a.979.979,0,0,1,1,1Z" style="fill:#ffc177"/><polyline points="18 39 18 59 59 59 59 1 18 1 18 13" style="fill:none;stroke:#000;stroke-linejoin:round;stroke-width:2px"/><line x1="25" y1="50" x2="40" y2="50" style="fill:none;stroke:#000;stroke-linejoin:round;stroke-width:2px"/><line x1="44" y1="50" x2="55" y2="50" style="fill:none;stroke:#000;stroke-linejoin:round;stroke-width:2px"/><line x1="37" y1="54" x2="55" y2="54" style="fill:none;stroke:#000;stroke-linejoin:round;stroke-width:2px"/><line x1="21" y1="54" x2="35" y2="54" style="fill:none;stroke:#000;stroke-linejoin:round;stroke-width:2px"/><path d="M53,43c0,1-1,3-2,3s-2-2-2-3V9a1,1,0,0,1,1-1h2a.979.979,0,0,1,1,1Z" style="fill:none;stroke:#000;stroke-miterlimit:10;stroke-width:2px"/><line x1="49" y1="13" x2="53" y2="13" style="fill:none;stroke:#000;stroke-miterlimit:10;stroke-width:2px"/><line x1="49" y1="42" x2="53" y2="42" style="fill:none;stroke:#000;stroke-miterlimit:10;stroke-width:2px"/><polygon points="13 12 5 12 1 19 5 26 13 26 17 19 13 12" style="fill:none;stroke:#000;stroke-linejoin:round;stroke-width:2px"/><polygon points="13 26 5 26 1 33 5 40 13 40 17 33 13 26" style="fill:none;stroke:#000;stroke-linejoin:round;stroke-width:2px"/><polygon points="38 12 29 12 25 19 29 26 37 26 41 19 38 12" style="fill:none;stroke:#000;stroke-linejoin:round;stroke-width:2px"/><polygon points="25 19 17 19 13 26 17 33 25 33 29 26 25 19" style="fill:none;stroke:#000;stroke-linejoin:round;stroke-width:2px"/><polygon points="37 26 29 26 25 33 29 40 37 40 41 33 37 26" style="fill:none;stroke:#000;stroke-linejoin:round;stroke-width:2px"/></g></svg>