<svg xmlns="http://www.w3.org/2000/svg" viewBox="0 0 60 60"><title>5-Report</title><g id="_5-Report" data-name="5-Report"><rect x="11" y="3" width="38" height="56" style="fill:#4a87c0"/><path d="M17,56a.979.979,0,0,0,1,1H46a.979.979,0,0,0,1-1V9a.979.979,0,0,0-1-1L17,7Z" style="fill:#2170a8"/><rect x="15" y="7" width="30" height="48" style="fill:#fff2e2"/><path d="M42,9a.979.979,0,0,1-1,1H22a.979.979,0,0,1-1-1V7H42Z" style="fill:#debb7e"/><rect x="21" y="3" width="21" height="4" style="fill:#2170a8"/><rect x="20" y="1" width="20" height="7" style="fill:#bfdbfb"/><rect x="20" y="1" width="2" height="7" style="fill:#80b6f7"/><circle cx="23" cy="25" r="2" style="fill:#bfdbfb"/><circle cx="22" cy="39" r="2" style="fill:#80b6f7"/><circle cx="38" cy="37" r="2" style="fill:#ec8500"/><circle cx="38" cy="27" r="2" style="fill:#87d3d8"/><circle cx="29" cy="32" r="3" style="fill:#4092f2"/><polyline points="19 3 11 3 11 59 49 59 49 3 41 3" style="fill:none;stroke:#000;stroke-linejoin:round;stroke-width:2px"/><polyline points="17 7 15 7 15 55 45 55 45 7 43 7" style="fill:none;stroke:#000;stroke-linejoin:round;stroke-width:2px"/><rect x="20" y="1" width="20" height="7" style="fill:none;stroke:#000;stroke-linejoin:round;stroke-width:2px"/><line x1="41" y1="15" x2="36" y2="15" style="fill:none;stroke:#000;stroke-linejoin:round;stroke-width:2px"/><line x1="34" y1="15" x2="28" y2="15" style="fill:none;stroke:#000;stroke-linejoin:round;stroke-width:2px"/><line x1="41" y1="19" x2="37" y2="19" style="fill:none;stroke:#000;stroke-linejoin:round;stroke-width:2px"/><line x1="35" y1="19" x2="28" y2="19" style="fill:none;stroke:#000;stroke-linejoin:round;stroke-width:2px"/><line x1="27" y1="50" x2="20" y2="50" style="fill:none;stroke:#000;stroke-linejoin:round;stroke-width:2px"/><line x1="27" y1="46" x2="20" y2="46" style="fill:none;stroke:#000;stroke-linejoin:round;stroke-width:2px"/><circle cx="23" cy="25" r="2" style="fill:none;stroke:#000;stroke-linejoin:round;stroke-width:2px"/><circle cx="38" cy="37" r="2" style="fill:none;stroke:#000;stroke-linejoin:round;stroke-width:2px"/><circle cx="22" cy="39" r="2" style="fill:none;stroke:#000;stroke-linejoin:round;stroke-width:2px"/><circle cx="38" cy="27" r="2" style="fill:none;stroke:#000;stroke-linejoin:round;stroke-width:2px"/><circle cx="29" cy="32" r="3" style="fill:none;stroke:#000;stroke-linejoin:round;stroke-width:2px"/><line x1="24" y1="27" x2="27" y2="30" style="fill:none;stroke:#000;stroke-linejoin:round;stroke-width:2px"/><line x1="23" y1="38" x2="27" y2="34" style="fill:none;stroke:#000;stroke-linejoin:round;stroke-width:2px"/><line x1="31" y1="34" x2="36" y2="36" style="fill:none;stroke:#000;stroke-linejoin:round;stroke-width:2px"/><line x1="31" y1="31" x2="36" y2="28" style="fill:none;stroke:#000;stroke-linejoin:round;stroke-width:2px"/><polyline points="29 50 40 50 40 42" style="fill:none;stroke:#000;stroke-linejoin:round;stroke-width:2px"/><polyline points="25 15 21 15 21 20" style="fill:none;stroke:#000;stroke-linejoin:round;stroke-width:2px"/></g></svg>