<svg xmlns="http://www.w3.org/2000/svg" viewBox="0 0 60 60"><title>6-Tube</title><g id="_6-Tube" data-name="6-Tube"><rect x="28" y="1" width="4" height="53" style="fill:#bcbbbe"/><polygon points="30 54 28 54 28 1 30 1 30 25 32 25 32 28 30 28 30 54" style="fill:#9b9a9e"/><rect x="18" y="54" width="24" height="5" style="fill:#bcbbbe"/><rect x="18" y="54" width="3" height="5" style="fill:#9b9a9e"/><rect x="26" y="18" width="8" height="7" style="fill:#79787d"/><rect x="26" y="18" width="3" height="7" style="fill:#626169"/><path d="M43,46a3,3,0,0,0,6,0V10h2V6H41v4h2Z" style="fill:#e2ecf5"/><path d="M43,46a3,3,0,0,0,6,0V21H43Z" style="fill:#f5bd74"/><path d="M43,46a2.8,2.8,0,0,0,3,3,4.38,4.38,0,0,1-1-3V10H43Z" style="fill:#c5d9ec"/><path d="M43,46a2.8,2.8,0,0,0,3,3,4.38,4.38,0,0,1-1-3V21H43Z" style="fill:#ec8500"/><path d="M12,39a3,3,0,0,0,6,0V13h2V9H10v4h2Z" style="fill:#e2ecf5"/><path d="M12,39a3,3,0,0,0,6,0V27H12Z" style="fill:#87d3d8"/><path d="M12,39a2.8,2.8,0,0,0,3,3,4.38,4.38,0,0,1-1-3V13H12Z" style="fill:#c5d9ec"/><path d="M12,39a2.8,2.8,0,0,0,3,3,4.38,4.38,0,0,1-1-3V27H12Z" style="fill:#0ea8b2"/><polyline points="28 15 28 1 32 1 32 15" style="fill:none;stroke:#000;stroke-linejoin:round;stroke-width:2px"/><polyline points="32 28 32 54 28 54 28 28" style="fill:none;stroke:#000;stroke-linejoin:round;stroke-width:2px"/><rect x="18" y="54" width="24" height="5" style="fill:none;stroke:#000;stroke-linejoin:round;stroke-width:2px"/><rect x="26" y="18" width="8" height="7" style="fill:none;stroke:#000;stroke-linejoin:round;stroke-width:2px"/><line x1="34" y1="21" x2="54" y2="21" style="fill:none;stroke:#000;stroke-linejoin:round;stroke-width:2px"/><line x1="7" y1="21" x2="26" y2="21" style="fill:none;stroke:#000;stroke-linejoin:round;stroke-width:2px"/><polyline points="49 18 49 10 51 10 51 6 41 6 41 10 43 10 43 18" style="fill:none;stroke:#000;stroke-linejoin:round;stroke-width:2px"/><path d="M43,24V46a3,3,0,0,0,6,0V24" style="fill:none;stroke:#000;stroke-linejoin:round;stroke-width:2px"/><polyline points="18 18 18 13 20 13 20 9 10 9 10 13 12 13 12 18" style="fill:none;stroke:#000;stroke-linejoin:round;stroke-width:2px"/><path d="M12,24V39a3,3,0,0,0,6,0V24" style="fill:none;stroke:#000;stroke-linejoin:round;stroke-width:2px"/></g></svg>