<svg xmlns="http://www.w3.org/2000/svg" viewBox="0 0 60 60"><title>7-Tube</title><g id="_7-Tube" data-name="7-Tube"><path d="M22,51a8,8,0,0,0,16,0V7h4V1H18V7h4Z" style="fill:#e2ecf5"/><path d="M26,51c0,4.418,2,7,4,8a7.652,7.652,0,0,1-8-8V7h4Z" style="fill:#c5d9ec"/><rect x="18" y="1" width="4" height="6" style="fill:#c5d9ec"/><path d="M22,51a8,8,0,0,0,16,0V24H22Z" style="fill:#f5bd74"/><path d="M26,51c0,4.418,2,7,4,8a7.652,7.652,0,0,1-8-8V24h4Z" style="fill:#ec8500"/><circle cx="31" cy="48" r="2" style="fill:#e2ecf5"/><circle cx="28" cy="14" r="3" style="fill:#f5bd74"/><rect x="18" y="1" width="24" height="6" style="fill:none;stroke:#000;stroke-linejoin:round;stroke-width:2px"/><path d="M22,51a8,8,0,0,0,16,0V7H22Z" style="fill:none;stroke:#000;stroke-linejoin:round;stroke-width:2px"/><line x1="31" y1="21" x2="35" y2="21" style="fill:none;stroke:#000;stroke-linejoin:round;stroke-width:2px"/><line x1="31" y1="27" x2="35" y2="27" style="fill:none;stroke:#000;stroke-linejoin:round;stroke-width:2px"/><line x1="31" y1="33" x2="35" y2="33" style="fill:none;stroke:#000;stroke-linejoin:round;stroke-width:2px"/><line x1="31" y1="39" x2="35" y2="39" style="fill:none;stroke:#000;stroke-linejoin:round;stroke-width:2px"/><circle cx="28" cy="14" r="3" style="fill:none;stroke:#000;stroke-linejoin:round;stroke-width:2px"/><circle cx="31" cy="48" r="2" style="fill:none;stroke:#000;stroke-linejoin:round;stroke-width:2px"/></g></svg>