<svg xmlns="http://www.w3.org/2000/svg" viewBox="0 0 60 60"><title>9-Avatar</title><g id="_9-Avatar" data-name="9-Avatar"><path d="M8,60V45a10.166,10.166,0,0,1,7-10c1.9-.632,9-2,9-2V30s3,3,6,3,6-3,6-3v3s7.1,1.368,9,2a10.166,10.166,0,0,1,7,10V60Z" style="fill:#e2ecf5"/><path d="M12,60H8V45a10.166,10.166,0,0,1,7-10c1.9-.632,9-2,9-2v4s-6,1-8,2c-4,2-4,4-4,6Z" style="fill:#c5d9ec"/><path d="M27,32c-2.431-1.216-5.134-3.267-6-5-1.264-2.528-2-8.679-2-15A10.722,10.722,0,0,1,30,1,10.915,10.915,0,0,1,41,12c0,6.321-.736,12.472-2,15-.836,1.672-3.624,3.76-6,4.976A6.308,6.308,0,0,1,27,32Z" style="fill:#ffdaaa"/><path d="M24,27c-1.264-2.528-2-8.679-2-15S26,1,30,1A10.722,10.722,0,0,0,19,12c0,6.321.736,12.471,2,15,.866,1.733,3.569,3.784,6,5a6.389,6.389,0,0,0,3.808.686C29.007,32.833,26,31,24,27Z" style="fill:#ffb680"/><path d="M24,30v3l1,4a12.133,12.133,0,0,0,5,1,12.133,12.133,0,0,0,5-1l1-4V30s-3,3-6,3S24,30,24,30Z" style="fill:#ffdaaa"/><path d="M36,33c-2,1-4,2-6,2a10.343,10.343,0,0,1-4-1l1,3H25l-1-4V30s3,3,6,3,6-3,6-3Z" style="fill:#ffb680"/><polygon points="42 34 39 33 31 58 42 52 40 48 44 44 42 34" style="fill:#c5d9ec"/><polygon points="20 34 24 33 30 58 21 51 23 47 19 43 20 34" style="fill:#e2ecf5"/><polygon points="40 34 36 33 30 58 39 51 37 47 41 43 40 34" style="fill:#e2ecf5"/><path d="M25,37a12.133,12.133,0,0,0,5,1,12.133,12.133,0,0,0,5-1L30,58Z" style="fill:#00ad85"/><polygon points="25 37 27 38 31 54 30 58 25 37" style="fill:#038e6e"/><path d="M25,2a12.133,12.133,0,0,0-5-1c-2,0-4,2-4,2s-5,1-6,6a9.134,9.134,0,0,0,2,8s-2,4,0,7,6,4,9,4a35.949,35.949,0,0,1-2-11C19,13,18,6,25,2Z" style="fill:#9b9a9e"/><path d="M35,2a12.133,12.133,0,0,1,5-1,3.7,3.7,0,0,1,3,2s5,1,6,6a9.134,9.134,0,0,1-2,8s2,4,0,7a9.1,9.1,0,0,1-8,4,35.949,35.949,0,0,0,2-11C41,13,42,6,35,2Z" style="fill:#9b9a9e"/><path d="M39,28a35.949,35.949,0,0,0,2-11c0-4,1-11-6-15,0,0,2.464-.536,6,3,3,3,4,9,3,14A16.9,16.9,0,0,1,39,28Z" style="fill:#79787d"/><path d="M22,4a4.829,4.829,0,0,0-4,0c-6,2-6,9-3,13-1,1-4,7,2,10,0,0-6,1-6-8a3.491,3.491,0,0,1,1-2s-2-2-2-7,6-7,6-7a4.333,4.333,0,0,1,4-2,4.333,4.333,0,0,1,4,2Z" style="fill:#79787d"/><path d="M27,32c-2.431-1.216-5.134-3.267-6-5-1.264-2.528-2-8.679-2-15A10.722,10.722,0,0,1,30,1,10.915,10.915,0,0,1,41,12c0,6.321-.736,12.472-2,15-.836,1.672-3.624,3.76-6,4.976A6.308,6.308,0,0,1,27,32Z" style="fill:none;stroke:#000;stroke-miterlimit:10;stroke-width:2px"/><line x1="44" y1="46" x2="44" y2="60" style="fill:none;stroke:#000;stroke-miterlimit:10;stroke-width:2px"/><line x1="16" y1="46" x2="16" y2="60" style="fill:none;stroke:#000;stroke-miterlimit:10;stroke-width:2px"/><path d="M52,60V45a10.166,10.166,0,0,0-7-10c-1.9-.632-9-2-9-2V30" style="fill:none;stroke:#000;stroke-linejoin:round;stroke-width:2px"/><path d="M24,30v3s-7.1,1.368-9,2A10.166,10.166,0,0,0,8,45V60" style="fill:none;stroke:#000;stroke-linejoin:round;stroke-width:2px"/><polyline points="36 33 30 58 39 51 37 47 41 43 40 34" style="fill:none;stroke:#000;stroke-linejoin:round;stroke-width:2px"/><polyline points="24 33 30 58 21 51 23 47 19 43 20 34" style="fill:none;stroke:#000;stroke-linejoin:round;stroke-width:2px"/><path d="M25,37a12.133,12.133,0,0,0,5,1,12.133,12.133,0,0,0,5-1" style="fill:none;stroke:#000;stroke-linejoin:round;stroke-width:2px"/><path d="M35,2a10.343,10.343,0,0,1,4-1c2,0,4,2,4,2s5,1,6,6a9.356,9.356,0,0,1-2,8,7.2,7.2,0,0,1,0,7c-2,4-9,4-9,4" style="fill:none;stroke:#000;stroke-linejoin:round;stroke-width:2px"/><path d="M24.2,2a10.343,10.343,0,0,0-4-1c-2,0-4,2-4,2s-5,1-6,6a9.356,9.356,0,0,0,2,8,7.2,7.2,0,0,0,0,7c2,4,9,4,9,4" style="fill:none;stroke:#000;stroke-linejoin:round;stroke-width:2px"/><circle cx="25" cy="18" r="3" style="fill:none;stroke:#000;stroke-linejoin:round;stroke-width:2px"/><circle cx="35" cy="18" r="3" style="fill:none;stroke:#000;stroke-linejoin:round;stroke-width:2px"/><line x1="28" y1="18" x2="32" y2="18" style="fill:none;stroke:#000;stroke-linejoin:round;stroke-width:2px"/><line x1="28" y1="25" x2="32" y2="25" style="fill:none;stroke:#000;stroke-linejoin:round;stroke-width:2px"/></g></svg>