<?xml version="1.0" encoding="UTF-8" standalone="no"?>
<svg width="64px" height="64px" viewBox="0 0 64 64" version="1.1" xmlns="http://www.w3.org/2000/svg" xmlns:xlink="http://www.w3.org/1999/xlink">
    <!-- Generator: Sketch 3.6.1 (26313) - http://www.bohemiancoding.com/sketch -->
    <title>Cash Register</title>
    <desc>Created with Sketch.</desc>
    <defs></defs>
    <g id="Page-1" stroke="none" stroke-width="1" fill="none" fill-rule="evenodd">
        <g id="Finance" transform="translate(-524.000000, -268.000000)" fill="#4573E3">
            <g id="Cash-Register" transform="translate(524.000000, 268.000000)">
                <path d="M53,7 C54.103,7 55,7.897 55,9 L55,15 L9,15 L9,9 C9,7.897 9.897,7 11,7 L13,7 L13,6 L11,6 C9.343,6 8,7.343 8,9 L8,16 L56,16 L56,9 C56,7.343 54.657,6 53,6 L19,6 L19,7 L53,7 L53,7 Z" id="Fill-1"></path>
                <path d="M20.5,14 L11.5,14 C11.225,14 11,13.775 11,13.5 C11,13.225 11.225,13 11.5,13 L20.5,13 C20.775,13 21,13.225 21,13.5 C21,13.775 20.775,14 20.5,14" id="Fill-3"></path>
                <path d="M37,14 L54,14 L54,8 L37,8 L37,14 Z M38,13 L53,13 L53,9 L38,9 L38,13 Z" id="Fill-5"></path>
                <path d="M49,13.143 L50,13.143 L50,8.857 L49,8.857 L49,13.143 Z" id="Fill-7" fill-opacity="0.5"></path>
                <path d="M45,13.143 L46,13.143 L46,8.857 L45,8.857 L45,13.143 Z" id="Fill-8" fill-opacity="0.5"></path>
                <path d="M41,13.143 L42,13.143 L42,8.857 L41,8.857 L41,13.143 Z" id="Fill-9" fill-opacity="0.5"></path>
                <path d="M4,33 L60,33 L60,32 L4,32 L4,33 Z" id="Fill-10"></path>
                <path d="M1,54 L63,54 L63,53 L1,53 L1,54 Z" id="Fill-11"></path>
                <path d="M1,53.5 L8,48.5 L55,48.5 L63,53.5 L1,53.5 Z" id="Fill-12" fill-opacity="0.5"></path>
                <path d="M56,47 L8,47 L0,52 L0,64 L64,64 L64,52 L56,47 Z M55.426,49 L62,53.108 L62,62 L2,62 L2,53.108 L8.574,49 L55.426,49 Z" id="Fill-13"></path>
                <path d="M32,56 C30.895,56 30,56.895 30,58 C30,59.105 30.895,60 32,60 C33.105,60 34,59.105 34,58 C34,56.895 33.105,56 32,56 M32,57 C32.551,57 33,57.449 33,58 C33,58.551 32.551,59 32,59 C31.449,59 31,58.551 31,58 C31,57.449 31.449,57 32,57" id="Fill-14"></path>
                <path d="M52.5585,17 L11.4415,17 C10.5805,17 9.8165,17.643 9.5445,18.595 L6.8775,27.929 C6.4455,29.44 7.4095,31 8.7745,31 L55.2255,31 C56.5905,31 57.5545,29.44 57.1225,27.929 L54.4555,18.595 C54.1835,17.643 53.4195,17 52.5585,17 M52.5585,18 C52.9695,18 53.3455,18.35 53.4945,18.87 L56.1615,28.204 C56.3005,28.693 56.2115,29.231 55.9265,29.608 C55.8165,29.755 55.5785,30 55.2255,30 L8.7745,30 C8.4215,30 8.1835,29.755 8.0735,29.608 C7.7885,29.231 7.6995,28.693 7.8395,28.204 L10.5055,18.87 C10.6545,18.35 11.0305,18 11.4415,18 L52.5585,18" id="Fill-15"></path>
                <path d="M46.7149,0 L17.2849,0 C16.6139,0 15.9549,0.197 15.3799,0.57 L8.3489,5.126 C7.5119,5.668 6.9999,6.645 6.9999,7.699 L6.9999,15 L1.9999,32 L1.9999,54 L61.9999,54 L61.9999,32 L56.9999,15 L56.9999,7.699 C56.9999,6.645 56.4879,5.668 55.6509,5.126 L48.6209,0.57 C48.0449,0.197 47.3859,0 46.7149,0 M46.7149,2 C46.9989,2 47.2819,2.086 47.5329,2.248 L54.5639,6.805 C54.8289,6.976 54.9999,7.327 54.9999,7.699 L54.9999,15 L54.9999,15.288 L55.0809,15.564 L59.9999,32.288 L59.9999,52 L3.9999,52 L3.9999,32.288 L8.9189,15.564 L8.9999,15.288 L8.9999,15 L8.9999,7.699 C8.9999,7.327 9.1709,6.976 9.4359,6.804 L12.4859,4.828 L12.5959,3.587 L14.6539,3.423 L16.4669,2.248 C16.7179,2.086 17.0009,2 17.2849,2 L46.7149,2" id="Fill-16"></path>
                <path d="M12,14 L20,14 L20,3 L12,3 L12,14 Z M13,13 L19,13 L19,4 L13,4 L13,13 Z" id="Fill-17"></path>
                <path d="M10.5,45 L10.5,45 C10.225,45 10,44.775 10,44.5 L10,35.5 C10,35.225 10.225,35 10.5,35 L10.5,35 C10.775,35 11,35.225 11,35.5 L11,44.5 C11,44.775 10.775,45 10.5,45" id="Fill-18"></path>
                <path d="M17.5,45 L17.5,45 C17.225,45 17,44.775 17,44.5 L17,35.5 C17,35.225 17.225,35 17.5,35 L17.5,35 C17.775,35 18,35.225 18,35.5 L18,44.5 C18,44.775 17.775,45 17.5,45" id="Fill-19"></path>
                <path d="M24.5,45 L24.5,45 C24.225,45 24,44.775 24,44.5 L24,35.5 C24,35.225 24.225,35 24.5,35 L24.5,35 C24.775,35 25,35.225 25,35.5 L25,44.5 C25,44.775 24.775,45 24.5,45" id="Fill-20"></path>
                <path d="M31.5,45 L31.5,45 C31.225,45 31,44.775 31,44.5 L31,35.5 C31,35.225 31.225,35 31.5,35 L31.5,35 C31.775,35 32,35.225 32,35.5 L32,44.5 C32,44.775 31.775,45 31.5,45" id="Fill-21"></path>
                <path d="M38.5,45 L38.5,45 C38.225,45 38,44.775 38,44.5 L38,35.5 C38,35.225 38.225,35 38.5,35 C38.775,35 39,35.225 39,35.5 L39,44.5 C39,44.775 38.775,45 38.5,45" id="Fill-22"></path>
                <path d="M45.5,45 L45.5,45 C45.225,45 45,44.775 45,44.5 L45,35.5 C45,35.225 45.225,35 45.5,35 C45.775,35 46,35.225 46,35.5 L46,44.5 C46,44.775 45.775,45 45.5,45" id="Fill-23"></path>
                <path d="M52.5,45 L52.5,45 C52.225,45 52,44.775 52,44.5 L52,35.5 C52,35.225 52.225,35 52.5,35 C52.775,35 53,35.225 53,35.5 L53,44.5 C53,44.775 52.775,45 52.5,45" id="Fill-24"></path>
                <path d="M12,38.5 C12,39.328 11.328,40 10.5,40 C9.672,40 9,39.328 9,38.5 C9,37.672 9.672,37 10.5,37 C11.328,37 12,37.672 12,38.5" id="Fill-25"></path>
                <path d="M19,41.5 C19,42.328 18.328,43 17.5,43 C16.672,43 16,42.328 16,41.5 C16,40.672 16.672,40 17.5,40 C18.328,40 19,40.672 19,41.5" id="Fill-26"></path>
                <path d="M26,38.5 C26,39.328 25.328,40 24.5,40 C23.672,40 23,39.328 23,38.5 C23,37.672 23.672,37 24.5,37 C25.328,37 26,37.672 26,38.5" id="Fill-27"></path>
                <path d="M33,38.5 C33,39.328 32.328,40 31.5,40 C30.672,40 30,39.328 30,38.5 C30,37.672 30.672,37 31.5,37 C32.328,37 33,37.672 33,38.5" id="Fill-28"></path>
                <path d="M40,40.5 C40,41.328 39.328,42 38.5,42 C37.672,42 37,41.328 37,40.5 C37,39.672 37.672,39 38.5,39 C39.328,39 40,39.672 40,40.5" id="Fill-29"></path>
                <path d="M47,41.5 C47,42.328 46.328,43 45.5,43 C44.672,43 44,42.328 44,41.5 C44,40.672 44.672,40 45.5,40 C46.328,40 47,40.672 47,41.5" id="Fill-30"></path>
                <path d="M54,38.5 C54,39.328 53.328,40 52.5,40 C51.672,40 51,39.328 51,38.5 C51,37.672 51.672,37 52.5,37 C53.328,37 54,37.672 54,38.5" id="Fill-31"></path>
                <path d="M47.6274,1 L16.2944,1 L8.0004,7 L13.0004,7 L13.0004,4 L19.0004,4 L19.0004,7 L55.0004,7 L55.0004,6 L47.6274,1 Z" id="Fill-32" fill-opacity="0.5"></path>
            </g>
        </g>
    </g>
</svg>