<?xml version="1.0" encoding="UTF-8" standalone="no"?>
<svg width="64px" height="30px" viewBox="0 0 64 30" version="1.1" xmlns="http://www.w3.org/2000/svg" xmlns:xlink="http://www.w3.org/1999/xlink">
    <!-- Generator: Sketch 3.6.1 (26313) - http://www.bohemiancoding.com/sketch -->
    <title>Dollar Bill</title>
    <desc>Created with Sketch.</desc>
    <defs></defs>
    <g id="Page-1" stroke="none" stroke-width="1" fill="none" fill-rule="evenodd">
        <g id="Finance" transform="translate(-420.000000, -181.000000)" fill="#4573E3">
            <g id="Dollar-Bill" transform="translate(420.000000, 181.000000)">
                <path d="M63,0 L9,0 L0,9 L0,30 L64,30 L64,1 C64,0.448 63.552,0 63,0 M62,2 L62,28 L2,28 L2,9.828 L9.828,2 L62,2" id="Page-1"></path>
                <path d="M32.5,20 C30.57,20 29,18.654 29,17 C29,16.724 29.224,16.5 29.5,16.5 C29.776,16.5 30,16.724 30,17 C30,18.103 31.122,19 32.5,19 C33.878,19 35,18.103 35,17 C35,15.897 33.878,15 32.5,15 C30.57,15 29,13.654 29,12 C29,10.346 30.57,9 32.5,9 C34.43,9 36,10.346 36,12 C36,12.276 35.776,12.5 35.5,12.5 C35.224,12.5 35,12.276 35,12 C35,10.897 33.878,10 32.5,10 C31.122,10 30,10.897 30,12 C30,13.103 31.122,14 32.5,14 C34.43,14 36,15.346 36,17 C36,18.654 34.43,20 32.5,20" id="Fill-3"></path>
                <path d="M32.5,21 C32.224,21 32,20.776 32,20.5 L32,8.5 C32,8.224 32.224,8 32.5,8 C32.776,8 33,8.224 33,8.5 L33,20.5 C33,20.776 32.776,21 32.5,21" id="Fill-5"></path>
                <path d="M54.0833,5 C54.5063,7.509 56.4913,9.494 59.0003,9.917 L59.0003,20.083 C56.4913,20.506 54.5063,22.491 54.0833,25 L9.9163,25 C9.4943,22.491 7.5083,20.506 5.0003,20.083 L5.0003,10 L4.0003,10 L4.0003,21 C6.7613,21 9.0003,23.239 9.0003,26 L55.0003,26 C55.0003,23.239 57.2383,21 60.0003,21 L60.0003,9 C57.2383,9 55.0003,6.761 55.0003,4 L10.0003,4 L10.0003,5 L54.0833,5" id="Fill-7"></path>
                <path d="M17,13 C15.895,13 15,13.895 15,15 C15,16.105 15.895,17 17,17 C18.105,17 19,16.105 19,15 C19,13.895 18.105,13 17,13 M17,14 C17.551,14 18,14.449 18,15 C18,15.551 17.551,16 17,16 C16.449,16 16,15.551 16,15 C16,14.449 16.449,14 17,14" id="Fill-9"></path>
                <path d="M47,13 C45.895,13 45,13.895 45,15 C45,16.105 45.895,17 47,17 C48.105,17 49,16.105 49,15 C49,13.895 48.105,13 47,13 M47,14 C47.551,14 48,14.449 48,15 C48,15.551 47.551,16 47,16 C46.449,16 46,15.551 46,15 C46,14.449 46.449,14 47,14" id="Fill-11"></path>
                <path d="M9,11 L11,11 L11,0 L9,0 L9,11 Z" id="Fill-13"></path>
                <path d="M0,11 L11,11 L11,9 L0,9 L0,11 Z" id="Fill-15"></path>
                <path d="M11,2 L11,4 L55,4 C55,6.761 57.239,9 60,9 L60,21 C57.239,21 55,23.239 55,26 L9,26 C9,23.239 6.761,21 4,21 L4,11 L2,11 L2,13 L2,28 L62,28 L62,2 L11,2 Z" id="Fill-16" fill-opacity="0.5"></path>
                <path d="M9,2 L9,9 L2,9 L9,2 Z" id="Fill-17" fill-opacity="0.5"></path>
            </g>
        </g>
    </g>
</svg>