<?xml version="1.0" encoding="UTF-8" standalone="no"?>
<svg width="64px" height="30px" viewBox="0 0 64 30" version="1.1" xmlns="http://www.w3.org/2000/svg" xmlns:xlink="http://www.w3.org/1999/xlink">
    <!-- Generator: Sketch 3.6.1 (26313) - http://www.bohemiancoding.com/sketch -->
    <title>Pound Bill</title>
    <desc>Created with Sketch.</desc>
    <defs></defs>
    <g id="Page-1" stroke="none" stroke-width="1" fill="none" fill-rule="evenodd">
        <g id="Finance" transform="translate(-524.000000, -181.000000)" fill="#4573E3">
            <g id="Pound-Bill" transform="translate(524.000000, 181.000000)">
                <path d="M63,0 L9,0 L0,9 L0,30 L64,30 L64,1 C64,0.448 63.552,0 63,0 M62,2 L62,28 L2,28 L2,9.828 L9.828,2 L62,2" id="Page-1"></path>
                <path d="M32.4380503,10.0023568 C32.1570503,9.99035678 31.8760503,10.0243568 31.6060503,10.1003568 C31.0670503,10.2513568 30.5720503,10.5723568 30.1970503,11.0383568 C29.4470503,11.9713568 29.3350503,13.3003568 29.9180503,14.3553568 C29.9320503,14.3813568 29.9480503,14.4073568 29.9660503,14.4313568 C29.9760503,14.4533568 29.9870503,14.4753568 29.9990503,14.4963568 C30.0880503,14.6403568 30.1590503,14.8473568 30.2260503,15.0003568 L29.5400503,15.0003568 C29.2460503,14.9953568 29.0040503,15.1843568 29.0000503,15.4913568 C28.9960503,15.7993568 29.2310503,15.9953568 29.5250503,16.0003568 L29.5400503,16.0003568 L30.5210503,16.0003568 C30.6390503,17.0633568 30.3260503,18.2173568 29.5980503,19.0113568 C29.3870503,19.2263568 29.3820503,19.5783568 29.5870503,19.7983568 C29.7610503,19.9843568 30.0340503,20.0203568 30.2470503,19.8853568 C30.2870503,19.8713568 30.3250503,19.8533568 30.3610503,19.8303568 C30.8190503,19.5423568 31.1710503,19.3493568 31.4770503,19.2853568 C31.7840503,19.2213568 32.0680503,19.2453568 32.5320503,19.4963568 L32.5020503,19.4763568 C33.0550503,19.8243568 33.6750503,19.9993568 34.2660503,20.0003568 C34.8560503,20.0003568 35.4420503,19.8323568 35.8520503,19.3853568 C36.0550503,19.1633568 36.0480503,18.8113568 35.8350503,18.5993568 C35.6230503,18.3863568 35.2860503,18.3943568 35.0830503,18.6163568 C34.9470503,18.7643568 34.6530503,18.8883568 34.2680503,18.8883568 C33.8820503,18.8873568 33.4310503,18.7643568 33.0510503,18.5253568 C33.0410503,18.5193568 33.0310503,18.5133568 33.0200503,18.5083568 C32.4140503,18.1803568 31.8340503,18.0893568 31.3090503,18.1883568 C31.5560503,17.5073568 31.6580503,16.7243568 31.5960503,16.0003568 L32.7690503,16.0003568 C33.0630503,16.0043568 33.3040503,15.8143568 33.3080503,15.5073568 C33.3130503,15.2003568 33.0780503,15.0043568 32.7840503,15.0003568 L32.7690503,15.0003568 L31.3630503,15.0003568 C31.2460503,14.6373568 31.0990503,14.2263568 30.8950503,13.8943568 C30.8870503,13.8823568 30.8790503,13.8693568 30.8700503,13.8573568 C30.8610503,13.8373568 30.8510503,13.8183568 30.8390503,13.7993568 C30.4780503,13.1453568 30.5470503,12.3313568 31.0120503,11.7533568 C31.4760503,11.1753568 32.2330503,10.9623568 32.9120503,11.2213568 C33.5910503,11.4793568 34.0000503,12.1493568 34.0000503,12.9043568 C33.9960503,13.2113568 34.2060503,13.4633568 34.5000503,13.4683568 C34.7940503,13.4723568 34.9960503,13.2273568 35.0000503,12.9203568 L35.0000503,12.9043568 C35.0000503,11.6853568 34.3720503,10.5923568 33.2760503,10.1763568 C33.0020503,10.0723568 32.7190503,10.0143568 32.4380503,10.0023568" id="Fill-1"></path>
                <path d="M54.0833,5 C54.5063,7.509 56.4913,9.494 59.0003,9.917 L59.0003,20.083 C56.4913,20.506 54.5063,22.491 54.0833,25 L9.9163,25 C9.4943,22.491 7.5083,20.506 5.0003,20.083 L5.0003,10 L4.0003,10 L4.0003,21 C6.7613,21 9.0003,23.239 9.0003,26 L55.0003,26 C55.0003,23.239 57.2383,21 60.0003,21 L60.0003,9 C57.2383,9 55.0003,6.761 55.0003,4 L10.0003,4 L10.0003,5 L54.0833,5" id="Fill-7"></path>
                <path d="M17,13 C15.895,13 15,13.895 15,15 C15,16.105 15.895,17 17,17 C18.105,17 19,16.105 19,15 C19,13.895 18.105,13 17,13 M17,14 C17.551,14 18,14.449 18,15 C18,15.551 17.551,16 17,16 C16.449,16 16,15.551 16,15 C16,14.449 16.449,14 17,14" id="Fill-9"></path>
                <path d="M47,13 C45.895,13 45,13.895 45,15 C45,16.105 45.895,17 47,17 C48.105,17 49,16.105 49,15 C49,13.895 48.105,13 47,13 M47,14 C47.551,14 48,14.449 48,15 C48,15.551 47.551,16 47,16 C46.449,16 46,15.551 46,15 C46,14.449 46.449,14 47,14" id="Fill-11"></path>
                <path d="M9,11 L11,11 L11,0 L9,0 L9,11 Z" id="Fill-13"></path>
                <path d="M0,11 L11,11 L11,9 L0,9 L0,11 Z" id="Fill-15"></path>
                <path d="M11,2 L11,4 L55,4 C55,6.761 57.239,9 60,9 L60,21 C57.239,21 55,23.239 55,26 L9,26 C9,23.239 6.761,21 4,21 L4,11 L2,11 L2,13 L2,28 L62,28 L62,2 L11,2 Z" id="Fill-16" fill-opacity="0.5"></path>
                <path d="M9,2 L9,9 L2,9 L9,2 Z" id="Fill-17" fill-opacity="0.5"></path>
            </g>
        </g>
    </g>
</svg>