<?xml version="1.0" encoding="UTF-8" standalone="no"?>
<svg width="58px" height="64px" viewBox="0 0 58 64" version="1.1" xmlns="http://www.w3.org/2000/svg" xmlns:xlink="http://www.w3.org/1999/xlink">
    <!-- Generator: Sketch 3.6.1 (26313) - http://www.bohemiancoding.com/sketch -->
    <title>Pound Coin</title>
    <desc>Created with Sketch.</desc>
    <defs></defs>
    <g id="Page-1" stroke="none" stroke-width="1" fill="none" fill-rule="evenodd">
        <g id="Finance" transform="translate(-319.000000, -164.000000)" fill="#4573E3">
            <g id="Pound-Coin" transform="translate(319.000000, 164.000000)">
                <path d="M28.8765,19.0046 C28.3135,18.9806 27.7525,19.0486 27.2135,19.1996 C26.1345,19.5016 25.1435,20.1436 24.3935,21.0766 C22.8935,22.9436 22.6695,25.5996 23.8365,27.7096 C23.8645,27.7636 23.8965,27.8146 23.9325,27.8616 C23.9515,27.9066 23.9735,27.9506 23.9985,27.9926 C24.1755,28.2806 24.3175,28.6946 24.4515,28.9996 L23.0795,28.9996 C22.4915,28.9916 22.0085,29.3696 22.0005,29.9836 C21.9915,30.5976 22.4615,30.9916 23.0495,30.9996 C23.0595,31.0006 23.0695,31.0006 23.0795,30.9996 L25.0425,30.9996 C25.2775,33.1256 24.6535,35.4356 23.1965,37.0236 C22.7745,37.4516 22.7655,38.1556 23.1755,38.5966 C23.5215,38.9686 24.0695,39.0406 24.4935,38.7696 C24.5735,38.7436 24.6505,38.7066 24.7225,38.6616 C25.6375,38.0856 26.3435,37.6986 26.9555,37.5706 C27.5675,37.4416 28.1375,37.4906 29.0635,37.9926 L29.0055,37.9536 C30.1105,38.6486 31.3505,38.9976 32.5315,38.9996 C33.7135,38.9996 34.8845,38.6646 35.7045,37.7706 C36.1115,37.3266 36.0965,36.6226 35.6715,36.1986 C35.2465,35.7736 34.5725,35.7886 34.1655,36.2326 C33.8945,36.5286 33.3065,36.7776 32.5355,36.7756 C31.7655,36.7746 30.8625,36.5286 30.1035,36.0506 C30.0825,36.0386 30.0625,36.0266 30.0405,36.0156 C28.8295,35.3606 27.6685,35.1776 26.6185,35.3776 C27.1125,34.0156 27.3165,32.4496 27.1925,30.9996 L29.5375,30.9996 C30.1255,31.0086 30.6085,30.6296 30.6175,30.0146 C30.6255,29.4006 30.1555,29.0086 29.5675,28.9996 L29.5375,28.9996 L26.7265,28.9996 C26.4915,28.2746 26.1995,27.4526 25.7905,26.7886 C25.7755,26.7636 25.7585,26.7386 25.7415,26.7156 C25.7225,26.6746 25.7015,26.6356 25.6785,26.5976 C24.9555,25.2906 25.0945,23.6616 26.0235,22.5056 C26.9525,21.3496 28.4665,20.9256 29.8245,21.4416 C31.1835,21.9576 31.9995,23.2996 31.9995,24.8086 C31.9915,25.4226 32.4125,25.9276 32.9995,25.9356 C33.5875,25.9446 33.9915,25.4536 33.9995,24.8396 C34.0005,24.8296 34.0005,24.8186 33.9995,24.8086 C33.9995,22.3716 32.7445,20.1856 30.5525,19.3526 C30.0045,19.1436 29.4395,19.0286 28.8765,19.0046" id="Fill-1"></path>
                <path d="M0,29 L0,35 C0,51.016 12.984,64 29,64 C45.016,64 58,51.016 58,35 L58,29 L56,29 L56,35 C56,49.888 43.888,62 29,62 C14.112,62 2,49.888 2,35 L2,29 L0,29 Z" id="Fill-3"></path>
                <path d="M29,0 C12.984,0 0,12.984 0,29 C0,45.016 12.984,58 29,58 C45.016,58 58,45.016 58,29 C58,12.984 45.016,0 29,0 M29,2 C43.888,2 56,14.112 56,29 C56,43.888 43.888,56 29,56 C14.112,56 2,43.888 2,29 C2,14.112 14.112,2 29,2" id="Fill-5"></path>
                <path d="M29,6 C16.297,6 6,16.297 6,29 C6,41.703 16.297,52 29,52 C41.703,52 52,41.703 52,29 C52,16.297 41.703,6 29,6 M29,8 C40.579,8 50,17.421 50,29 C50,40.579 40.579,50 29,50 C17.421,50 8,40.579 8,29 C8,17.421 17.421,8 29,8" id="Fill-7"></path>
                <path d="M29,63 L30,63 L30,57 L29,57 L29,63 Z" id="Fill-9" fill-opacity="0.5"></path>
                <path d="M34,62 L35,62 L35,56 L34,56 L34,62 Z" id="Fill-11" fill-opacity="0.5"></path>
                <path d="M39,61 L40,61 L40,55 L39,55 L39,61 Z" id="Fill-13" fill-opacity="0.5"></path>
                <path d="M44,59 L45,59 L45,53 L44,53 L44,59 Z" id="Fill-15" fill-opacity="0.5"></path>
                <path d="M49,54 L50,54 L50,48 L49,48 L49,54 Z" id="Fill-17" fill-opacity="0.5"></path>
                <path d="M53,49 L54,49 L54,43 L53,43 L53,49 Z" id="Fill-19" fill-opacity="0.5"></path>
                <path d="M24,63 L25,63 L25,57 L24,57 L24,63 Z" id="Fill-21" fill-opacity="0.5"></path>
                <path d="M19,61 L20,61 L20,55 L19,55 L19,61 Z" id="Fill-23" fill-opacity="0.5"></path>
                <path d="M14,59 L15,59 L15,53 L14,53 L14,59 Z" id="Fill-25" fill-opacity="0.5"></path>
                <path d="M9,56 L10,56 L10,50 L9,50 L9,56 Z" id="Fill-27" fill-opacity="0.5"></path>
                <path d="M5,50 L6,50 L6,44 L5,44 L5,50 Z" id="Fill-29" fill-opacity="0.5"></path>
                <path d="M28.9874,9.9556 C40.5664,9.9556 49.9874,19.1666 49.9874,30.4886 C49.9874,41.8106 40.5664,51.0226 28.9874,51.0226 C17.4084,51.0226 7.9874,41.8106 7.9874,30.4886 C7.9874,19.1666 17.4084,9.9556 28.9874,9.9556 M28.9874,51.9996 C41.5224,51.9996 51.7074,42.1936 51.9744,29.9996 C51.7074,17.8066 41.5224,7.9996 28.9874,7.9996 C16.4524,7.9996 6.2674,17.8066 6.0004,29.9996 C6.2674,42.1936 16.4524,51.9996 28.9874,51.9996" id="Fill-31" fill-opacity="0.5"></path>
            </g>
        </g>
    </g>
</svg>