<?xml version="1.0" encoding="UTF-8" standalone="no"?>
<svg width="58px" height="64px" viewBox="0 0 58 64" version="1.1" xmlns="http://www.w3.org/2000/svg" xmlns:xlink="http://www.w3.org/1999/xlink">
    <!-- Generator: Sketch 3.6.1 (26313) - http://www.bohemiancoding.com/sketch -->
    <title>Safe</title>
    <desc>Created with Sketch.</desc>
    <defs></defs>
    <g id="Page-1" stroke="none" stroke-width="1" fill="none" fill-rule="evenodd">
        <g id="Finance" transform="translate(-423.000000, -372.000000)" fill="#4573E3">
            <g id="Safe" transform="translate(423.000000, 372.000000)">
                <path d="M52,6 L6,6 C3.25,6 1,8.25 1,11 L1,59 C1,61.75 3.25,64 6,64 L52,64 C54.75,64 57,61.75 57,59 L57,11 C57,8.25 54.75,6 52,6 M52,7 C54.206,7 56,8.794 56,11 L56,59 C56,61.206 54.206,63 52,63 L6,63 C3.794,63 2,61.206 2,59 L2,11 C2,8.794 3.794,7 6,7 L52,7" id="Fill-1"></path>
                <path d="M46.5969,0 L11.4029,0 C10.4949,0 9.6139,0.309 8.9039,0.877 L2.2519,6.199 C0.8289,7.337 -0.0001,9.061 -0.0001,10.884 L-0.0001,59 C-0.0001,61.75 2.2499,64 4.9999,64 L52.9999,64 C55.7499,64 57.9999,61.75 57.9999,59 L57.9999,10.884 C57.9999,9.061 57.1719,7.337 55.7479,6.199 L49.0959,0.877 C48.3869,0.309 47.5049,0 46.5969,0 M46.5969,2 C47.0489,2 47.4929,2.156 47.8459,2.438 L54.4989,7.76 C55.4529,8.524 55.9999,9.662 55.9999,10.884 L55.9999,59 C55.9999,60.654 54.6539,62 52.9999,62 L4.9999,62 C3.3459,62 1.9999,60.654 1.9999,59 L1.9999,10.884 C1.9999,9.662 2.5469,8.524 3.5009,7.76 L10.1539,2.438 C10.5069,2.156 10.9509,2 11.4029,2 L46.5969,2" id="Fill-3"></path>
                <path d="M49,12 L9,12 C7.35,12 6,13.35 6,15 L6,55 C6,56.65 7.35,58 9,58 L49,58 C50.65,58 52,56.65 52,55 L52,15 C52,13.35 50.65,12 49,12 M49,13 C50.103,13 51,13.897 51,15 L51,55 C51,56.103 50.103,57 49,57 L9,57 C7.897,57 7,56.103 7,55 L7,15 C7,13.897 7.897,13 9,13 L49,13" id="Fill-6"></path>
                <path d="M27,25 C21.477,25 17,29.477 17,35 C17,40.523 21.477,45 27,45 C32.523,45 37,40.523 37,35 C37,29.477 32.523,25 27,25 M27,26 C31.963,26 36,30.037 36,35 C36,39.963 31.963,44 27,44 C22.037,44 18,39.963 18,35 C18,30.037 22.037,26 27,26" id="Fill-8"></path>
                <path d="M32,35 C32,37.761 29.761,40 27,40 C24.239,40 22,37.761 22,35 C22,32.239 24.239,30 27,30 C29.761,30 32,32.239 32,35" id="Fill-10"></path>
                <path d="M44,26 C42.343,26 41,27.343 41,29 C41,30.657 42.343,32 44,32 C45.657,32 47,30.657 47,29 C47,27.343 45.657,26 44,26 M44,27 C45.103,27 46,27.897 46,29 C46,30.103 45.103,31 44,31 C42.897,31 42,30.103 42,29 C42,27.897 42.897,27 44,27" id="Fill-12"></path>
                <path d="M44,44 L44,44 C43.45,44 43,43.55 43,43 L43,29 C43,28.45 43.45,28 44,28 L44,28 C44.55,28 45,28.45 45,29 L45,43 C45,43.55 44.55,44 44,44" id="Fill-14"></path>
                <path d="M3,6.5 L10,0.5 L47,0.5 L55,6.5 L3,6.5 Z" id="Fill-16" fill-opacity="0.5"></path>
                <path d="M6.5,31 L6.5,31 C5.675,31 5,30.325 5,29.5 L5,22.5 C5,21.675 5.675,21 6.5,21 L6.5,21 C7.325,21 8,21.675 8,22.5 L8,29.5 C8,30.325 7.325,31 6.5,31" id="Fill-18"></path>
                <path d="M6.5,50 L6.5,50 C5.675,50 5,49.325 5,48.5 L5,41.5 C5,40.675 5.675,40 6.5,40 L6.5,40 C7.325,40 8,40.675 8,41.5 L8,48.5 C8,49.325 7.325,50 6.5,50" id="Fill-20"></path>
            </g>
        </g>
    </g>
</svg>