<svg id="_1-Flask" data-name="1-Flask" xmlns="http://www.w3.org/2000/svg" viewBox="0 0 60 60"><title>1-Flask</title><path d="M24,60H2a1.959,1.959,0,0,1-2-2,1.019,1.019,0,0,1,.04-.28L7,33.857V32H5a1,1,0,0,1-1-1V28a1,1,0,0,1,1-1H21a1,1,0,0,1,1,1v3a1,1,0,0,1-1,1H19v1.857L25.96,57.72A1.019,1.019,0,0,1,26,58,1.959,1.959,0,0,1,24,60ZM2.042,58H23.958L17.04,34.28A1.019,1.019,0,0,1,17,34V31a1,1,0,0,1,1-1h2V29H6v1H8a1,1,0,0,1,1,1v3a1.019,1.019,0,0,1-.04.28Z"/><path d="M25,44H23V22H21a1,1,0,0,1-1-1V18a1,1,0,0,1,1-1H39a1,1,0,0,1,1,1v3a1,1,0,0,1-1,1H37V32H35V21a1,1,0,0,1,1-1h2V19H22v1h2a1,1,0,0,1,1,1Z"/><path d="M58,60H40a1.959,1.959,0,0,1-2-2V42.3l-1.832-2.748A1.006,1.006,0,0,1,36,39V35a1,1,0,0,1,1-1H59a1,1,0,0,1,1,1V58A1.959,1.959,0,0,1,58,60ZM38,38.7l1.832,2.748A1.006,1.006,0,0,1,40,42V58H58V36H38Z"/><path d="M30,60H28V58h2a5.006,5.006,0,0,0,5-5V43h2V53A7.008,7.008,0,0,1,30,60Z"/><path d="M17,25H15V16a3.16,3.16,0,0,1,3-3h7v2H18a1.169,1.169,0,0,0-1,1Z"/><path d="M12,25H10V5a5.267,5.267,0,0,1,5-5H25a4.188,4.188,0,0,1,4,4V15H27V4a2.209,2.209,0,0,0-2-2H15a3.3,3.3,0,0,0-3,3Z"/><path d="M15,10a5,5,0,1,1,5-5A5.006,5.006,0,0,1,15,10Zm0-8a3,3,0,1,0,3,3A3,3,0,0,0,15,2Z"/><path d="M33,15H31V7a3.16,3.16,0,0,1,3-3H48a3.16,3.16,0,0,1,3,3v4H49V7a1.169,1.169,0,0,0-1-1H34a1.169,1.169,0,0,0-1,1Z"/><path d="M56,33H54V19a3.669,3.669,0,0,0-4-4H35V13H50c2.768,0,6,1.571,6,6Z"/><rect x="49" y="27" width="2" height="6"/><path d="M50,25a6,6,0,1,1,6-6A6.006,6.006,0,0,1,50,25Zm0-10a4,4,0,1,0,4,4A4,4,0,0,0,50,15Z"/><rect x="13" y="41" width="4" height="2"/><rect x="13" y="46" width="4" height="2"/><rect x="13" y="51" width="4" height="2"/><rect x="42" y="41" width="4" height="2"/><rect x="42" y="46" width="4" height="2"/><rect x="42" y="51" width="4" height="2"/><rect x="28" y="28" width="4" height="2"/><rect x="28" y="33" width="4" height="2"/><rect x="28" y="38" width="4" height="2"/></svg>