<svg xmlns="http://www.w3.org/2000/svg" viewBox="0 0 60 60"><title>10-Research</title><g id="_10-Research" data-name="10-Research"><path d="M30,60a1,1,0,0,1-.707-.292C29.216,59.63,21.454,52,12,52,4.5,52,1.576,53.818,1.547,53.837l-1.1-1.669C.578,52.08,3.792,50,12,50c8.633,0,15.7,5.592,17.961,7.6C32.054,55.543,38.574,50,48,50c8.208,0,11.422,2.08,11.555,2.168l-1.11,1.664C58.424,53.818,55.5,52,48,52c-10.394,0-17.181,7.583-17.248,7.659a1,1,0,0,1-.719.34Z"/><path d="M30,55a1,1,0,0,1-.707-.292C29.227,54.641,22.48,48,15,48A37.655,37.655,0,0,0,2.37,49.929a1,1,0,0,1-1.222-1.453l8-13a.981.981,0,0,1,.145-.183C9.428,35.158,12.625,32,16,32v2c-2.3,0-4.75,2.2-5.215,2.633L4.24,47.269A44.043,44.043,0,0,1,15,46c6.912,0,12.976,4.829,15,6.633C32.024,50.829,38.088,46,45,46a44.043,44.043,0,0,1,10.76,1.269L49.215,36.633C48.75,36.2,46.3,34,44,34V32c3.375,0,6.572,3.158,6.707,3.293a.981.981,0,0,1,.145.183l8,13a1,1,0,0,1-1.222,1.453A37.655,37.655,0,0,0,45,48c-7.5,0-14.226,6.64-14.293,6.707A1,1,0,0,1,30,55Z"/><rect x="29" y="46" width="2" height="8"/><path d="M37,19H23a1,1,0,0,1-1-1V14a1,1,0,0,1,1-1h3v2H24v2H36V15H34V13h3a1,1,0,0,1,1,1v4A1,1,0,0,1,37,19Z"/><path d="M30,44A12.16,12.16,0,0,1,18,32c0-5.018,2.841-9.318,7-10.746V18h2v4a1,1,0,0,1-.758.97C22.567,23.889,20,27.6,20,32a10,10,0,0,0,20,0c0-4.258-2.684-8.14-6.242-9.03A1,1,0,0,1,33,22V18h2v3.258C39.041,22.684,42,27.15,42,32A12.16,12.16,0,0,1,30,44Z"/><path d="M27,39a3,3,0,1,1,3-3A3,3,0,0,1,27,39Zm0-4a1,1,0,1,0,1,1A1,1,0,0,0,27,35Z"/><path d="M32,30a3,3,0,1,1,3-3A3,3,0,0,1,32,30Zm0-4a1,1,0,1,0,1,1A1,1,0,0,0,32,26Z"/><path d="M30,15a1,1,0,0,1-.857-.485L26.434,10H18a1,1,0,0,1-1-1V1a1,1,0,0,1,1-1H42a1,1,0,0,1,1,1V9a1,1,0,0,1-1,1H33.566l-2.709,4.515A1,1,0,0,1,30,15ZM19,8h8a1,1,0,0,1,.857.485L30,12.056l2.143-3.571A1,1,0,0,1,33,8h8V2H19Z"/><rect x="25" y="4" width="2" height="2"/><rect x="29" y="4" width="2" height="2"/><rect x="33" y="4" width="2" height="2"/></g></svg>