<svg xmlns="http://www.w3.org/2000/svg" viewBox="0 0 60 60"><title>15-Bio</title><g id="_15-Bio" data-name="15-Bio"><path d="M53,59a1,1,0,0,1-.707-.293l-10-10a1,1,0,0,1,0-1.414l6-6a1,1,0,0,1,1.414,0l10,10a1,1,0,0,1,0,1.414l-6,6A1,1,0,0,1,53,59ZM44.414,48,53,56.586,57.586,52,49,43.414Z"/><rect x="44.5" y="40.379" width="2" height="4.243" transform="translate(-16.725 44.621) rotate(-45)"/><rect x="42.5" y="42.379" width="2" height="4.243" transform="translate(-18.725 43.793) rotate(-45)"/><path d="M33,48A15,15,0,1,1,48,33,15.017,15.017,0,0,1,33,48Zm0-28A13,13,0,1,0,46,33,13.015,13.015,0,0,0,33,20Z"/><path d="M26.5,53A26.219,26.219,0,0,1,0,26.5,26.53,26.53,0,0,1,26.5,0C40.617,0,53,12.383,53,26.5a25.3,25.3,0,0,1-3.1,12.947l-1.79-.894A23.272,23.272,0,0,0,51,26.5C51,13.449,39.552,2,26.5,2A24.528,24.528,0,0,0,2,26.5,24.24,24.24,0,0,0,26.5,51c5.527,0,9.27-1.064,12.918-3.676l1.164,1.627C36.562,51.827,32.483,53,26.5,53Z"/><path d="M34,40c-2.8,0-5-3.075-5-7s2.2-7,5-7,5,3.075,5,7S36.8,40,34,40Zm0-12c-1.626,0-3,2.29-3,5s1.374,5,3,5,3-2.29,3-5S35.626,28,34,28Z"/><rect x="36.697" y="27" width="3.606" height="2" transform="translate(-9.066 26.059) rotate(-33.69)"/><rect x="38" y="32" width="3" height="2"/><rect x="37.5" y="36.197" width="2" height="3.606" transform="translate(-14.474 48.955) rotate(-56.31)"/><rect x="28.5" y="26.197" width="2" height="3.606" transform="translate(-10.161 37.014) rotate(-56.31)"/><rect x="27" y="32" width="3" height="2"/><rect x="27.697" y="37" width="3.606" height="2" transform="translate(-16.124 22.746) rotate(-33.69)"/><path d="M17,21c-2.206,0-4-2.243-4-5s1.794-5,4-5,4,2.243,4,5S19.206,21,17,21Zm0-8c-1.084,0-2,1.374-2,3s.916,3,2,3,2-1.374,2-3S18.084,13,17,13Z"/><rect x="18.586" y="11" width="2.828" height="2" transform="translate(-2.627 17.657) rotate(-45)"/><rect x="19" y="18.586" width="2" height="2.828" transform="translate(-8.284 20) rotate(-45)"/><rect x="20" y="15" width="2" height="2"/><rect x="13" y="10.586" width="2" height="2.828" transform="translate(-4.385 13.414) rotate(-45)"/><rect x="12.586" y="19" width="2.828" height="2" transform="translate(-10.042 15.757) rotate(-45)"/><rect x="12" y="15" width="2" height="2"/><path d="M35,15c-2.243,0-4-1.318-4-3s1.757-3,4-3,4,1.318,4,3S37.243,15,35,15Zm0-4c-1.221,0-2,.592-2,1s.779,1,2,1,2-.592,2-1S36.221,11,35,11Z"/><rect x="37" y="12.586" width="2" height="2.828" transform="translate(1.23 30.971) rotate(-45)"/><rect x="30.586" y="13" width="2.828" height="2" transform="translate(-0.527 26.728) rotate(-45)"/><rect x="34" y="14" width="2" height="2"/><rect x="36.586" y="9" width="2.828" height="2" transform="translate(4.059 29.799) rotate(-45)"/><rect x="31" y="8.586" width="2" height="2.828" transform="translate(2.302 25.556) rotate(-45)"/><rect x="34" y="8" width="2" height="2"/><path d="M11,38c-1.683,0-3-1.757-3-4s1.317-4,3-4,3,1.757,3,4S12.683,38,11,38Zm0-6c-.408,0-1,.779-1,2s.592,2,1,2,1-.779,1-2S11.408,32,11,32Z"/><rect x="7.586" y="36" width="2.828" height="2" transform="translate(-23.527 17.201) rotate(-45)"/><rect x="8" y="29.586" width="2" height="2.828" transform="translate(-19.284 15.444) rotate(-45)"/><rect x="7" y="33" width="2" height="2"/><rect x="12" y="35.586" width="2" height="2.828" transform="translate(-22.355 20.029) rotate(-45)"/><rect x="11.586" y="30" width="2.828" height="2" transform="translate(-18.113 18.272) rotate(-45)"/><rect x="13" y="33" width="2" height="2"/><path d="M16,46a3,3,0,1,1,3-3A3,3,0,0,1,16,46Zm0-4a1,1,0,1,0,1,1A1,1,0,0,0,16,42Z"/><path d="M8,26a3,3,0,1,1,3-3A3,3,0,0,1,8,26Zm0-4a1,1,0,1,0,1,1A1,1,0,0,0,8,22Z"/><path d="M25,11a3,3,0,1,1,3-3A3,3,0,0,1,25,11Zm0-4a1,1,0,1,0,1,1A1,1,0,0,0,25,7Z"/><path d="M44,20a3,3,0,1,1,3-3A3,3,0,0,1,44,20Zm0-4a1,1,0,1,0,1,1A1,1,0,0,0,44,16Z"/></g></svg>