<svg xmlns="http://www.w3.org/2000/svg" viewBox="0 0 60 60"><title>16-Flask</title><g id="_16-Flask" data-name="16-Flask"><path d="M36,50a3.16,3.16,0,0,1-3-3V34.9A5,5,0,0,1,34,25v2a3,3,0,0,0,0,6,1,1,0,0,1,1,1V47a1,1,0,0,0,2,0V34h2V47A3.16,3.16,0,0,1,36,50Z"/><path d="M46,60H14a1.959,1.959,0,0,1-2-2V34.236L8.105,26.447A1,1,0,0,1,9,25H33v2H10.618L13.9,33.553A1,1,0,0,1,14,34V58H46V31a1,1,0,0,1,1-1,3,3,0,0,0,0-6,1,1,0,0,1-1-1,4,4,0,0,0-8,0,1,1,0,0,1-2,0,1,1,0,0,0-2,0,1,1,0,0,1-2,0,6,6,0,0,0-12,0,1,1,0,0,1-2,0,1,1,0,0,0-2,0H14a3,3,0,0,1,4.444-2.629,8,8,0,0,1,15.112,0,3.12,3.12,0,0,1,3.015.074,6,6,0,0,1,11.36,1.642A5,5,0,0,1,48,31.9V58A1.959,1.959,0,0,1,46,60Z"/><rect x="17" y="36" width="4" height="2"/><rect x="17" y="41" width="4" height="2"/><rect x="17" y="46" width="4" height="2"/><rect x="17" y="51" width="4" height="2"/><path d="M30,13a5.006,5.006,0,0,1-5-5c0-2.447,3.525-6.794,4.232-7.641a1.035,1.035,0,0,1,1.536,0C31.475,1.206,35,5.553,35,8A5.006,5.006,0,0,1,30,13ZM30,2.6C28.57,4.471,27,6.927,27,8a3,3,0,0,0,6,0C33,6.925,31.431,4.47,30,2.6Z"/></g></svg>