<svg xmlns="http://www.w3.org/2000/svg" viewBox="0 0 60 60"><title>17-Flask</title><g id="_17-Flask" data-name="17-Flask"><path d="M39,60H21a1.959,1.959,0,0,1-2-2,1,1,0,0,1,.051-.316L25,39.838V39H23a1,1,0,0,1-1-1V35a1,1,0,0,1,1-1H37a1,1,0,0,1,1,1v3a1,1,0,0,1-1,1H35v.838l5.949,17.846A1,1,0,0,1,41,58,1.959,1.959,0,0,1,39,60ZM21.054,58H38.946L33.051,40.316A1,1,0,0,1,33,40V38a1,1,0,0,1,1-1h2V36H24v1h2a1,1,0,0,1,1,1v2a1,1,0,0,1-.051.316Z"/><rect x="30" y="37" width="4" height="2"/><path d="M28,55a3,3,0,1,1,3-3A3,3,0,0,1,28,55Zm0-4a1,1,0,1,0,1,1A1,1,0,0,0,28,51Z"/><rect x="30" y="46" width="2" height="2"/><rect x="33" y="54" width="2" height="2"/><path d="M34,32a.989.989,0,0,1-.424-.095A1,1,0,0,1,33,31V27H31a1,1,0,0,1-1-1V24h2v1h2a1,1,0,0,1,1,1v2.865l4.36-3.634A1,1,0,0,1,40,25H58V11H36V9H59a1,1,0,0,1,1,1V26a1,1,0,0,1-1,1H40.362L34.64,31.769A1,1,0,0,1,34,32Z"/><path d="M26,29a1,1,0,0,1-.759-.35L19.54,22H1a1,1,0,0,1-1-1V5A1,1,0,0,1,1,4H33a1,1,0,0,1,1,1V21a1,1,0,0,1-1,1H27v6a1,1,0,0,1-.653.938A1.021,1.021,0,0,1,26,29ZM2,20H20a1,1,0,0,1,.759.35L25,25.3V21a1,1,0,0,1,1-1h6V6H2Z"/><rect x="12" y="12" width="2" height="2"/><rect x="16" y="12" width="2" height="2"/><rect x="20" y="12" width="2" height="2"/><rect x="45" y="17" width="2" height="2"/><rect x="49" y="17" width="2" height="2"/><rect x="41" y="17" width="2" height="2"/></g></svg>