<svg xmlns="http://www.w3.org/2000/svg" viewBox="0 0 60 60"><title>18-Brain</title><g id="_18-Brain" data-name="18-Brain"><path d="M22,60A11.016,11.016,0,0,1,11.042,49.962,12.017,12.017,0,0,1,0,38c0-4.412,1.508-6.812,3.148-8C1.508,28.812,0,26.412,0,22A12.017,12.017,0,0,1,11.042,10.038,11.016,11.016,0,0,1,22,0c5.86,0,11,4.673,11,10V22H31V10c0-3.776-3.849-8-9-8a9.01,9.01,0,0,0-9,9,1,1,0,0,1-1,1A10.011,10.011,0,0,0,2,22c0,5.537,2.617,7,4,7a1,1,0,0,1,0,2c-1.383,0-4,1.463-4,7A10.011,10.011,0,0,0,12,48a1,1,0,0,1,1,1,9,9,0,0,0,18,0V38h2V49A11.013,11.013,0,0,1,22,60Z"/><path d="M45,10H41a1,1,0,0,1-.9-.553l-2-4a1,1,0,0,1,0-.894l2-4A1,1,0,0,1,41,0h4a1,1,0,0,1,.9.553l2,4a1,1,0,0,1,0,.894l-2,4A1,1,0,0,1,45,10ZM41.618,8h2.764l1.5-3-1.5-3H41.618l-1.5,3Z"/><path d="M57,35H53a1,1,0,0,1-.9-.553l-2-4a1,1,0,0,1,0-.894l2-4A1,1,0,0,1,53,25h4a1,1,0,0,1,.9.553l2,4a1,1,0,0,1,0,.894l-2,4A1,1,0,0,1,57,35Zm-3.382-2h2.764l1.5-3-1.5-3H53.618l-1.5,3Z"/><path d="M45,60H41a1,1,0,0,1-.9-.553l-2-4a1,1,0,0,1,0-.894l2-4A1,1,0,0,1,41,50h4a1,1,0,0,1,.9.553l2,4a1,1,0,0,1,0,.894l-2,4A1,1,0,0,1,45,60Zm-3.382-2h2.764l1.5-3-1.5-3H41.618l-1.5,3Z"/><rect x="34" y="4" width="2" height="2"/><rect x="35" y="10" width="2" height="2"/><rect x="35" y="14" width="2" height="2"/><rect x="35" y="29" width="2" height="2"/><rect x="31" y="29" width="2" height="2"/><rect x="31" y="24" width="2" height="2"/><rect x="31" y="34" width="2" height="2"/><rect x="40" y="29" width="2" height="2"/><rect x="45" y="29" width="2" height="2"/><rect x="17" y="29" width="2" height="2"/><rect x="12" y="29" width="2" height="2"/><rect x="12" y="25" width="2" height="2"/><rect x="12" y="33" width="2" height="2"/><rect x="22" y="29" width="2" height="2"/><rect x="27" y="29" width="2" height="2"/><rect x="50" y="10.292" width="2" height="13.416" transform="translate(-2.218 24.603) rotate(-26.565)"/><rect x="43.841" y="42.5" width="14.318" height="2" transform="translate(-9.862 71.589) rotate(-65.237)"/><rect x="34" y="54" width="2" height="2"/><path d="M39,20H35V18h3.465l1.7-2.555,1.664,1.11-2,3A1,1,0,0,1,39,20Z"/><path d="M41,26H35V24h5.586l1.707-1.707A1,1,0,0,1,43,22h1v2h-.586l-1.707,1.707A1,1,0,0,1,41,26Z"/><path d="M42,18a3,3,0,1,1,3-3A3,3,0,0,1,42,18Zm0-4a1,1,0,1,0,1,1A1,1,0,0,0,42,14Z"/><path d="M46,26a3,3,0,1,1,3-3A3,3,0,0,1,46,26Zm0-4a1,1,0,1,0,1,1A1,1,0,0,0,46,22Z"/><rect x="35" y="48" width="2" height="2"/><rect x="35" y="44" width="2" height="2"/><path d="M40.168,44.555,38.465,42H35V40h4a1,1,0,0,1,.832.445l2,3Z"/><path d="M44,38H43a1,1,0,0,1-.707-.293L40.586,36H35V34h6a1,1,0,0,1,.707.293L43.414,36H44Z"/><path d="M42,48a3,3,0,1,1,3-3A3,3,0,0,1,42,48Zm0-4a1,1,0,1,0,1,1A1,1,0,0,0,42,44Z"/><path d="M46,40a3,3,0,1,1,3-3A3,3,0,0,1,46,40Zm0-4a1,1,0,1,0,1,1A1,1,0,0,0,46,36Z"/><path d="M20,24a9.01,9.01,0,0,1-9-9h2a7,7,0,0,0,14,0h2A9.01,9.01,0,0,1,20,24Z"/><path d="M29,45H27a7,7,0,0,0-14,0H11a9,9,0,0,1,18,0Z"/></g></svg>