<svg xmlns="http://www.w3.org/2000/svg" viewBox="0 0 60 60"><title>19-Dna</title><g id="_19-Dna" data-name="19-Dna"><path d="M6,60H4V51c0-3.1,5.063-4.823,10.927-6.816C19.86,42.507,26,40.42,26,38V22c0-2.42-6.14-4.507-11.073-6.184C9.063,13.823,4,12.1,4,9V0H6V9c0,1.67,5.531,3.55,9.57,4.923C21.963,16.1,28,18.147,28,22V38c0,3.853-6.037,5.905-12.43,8.077C11.531,47.45,6,49.33,6,51Z"/><path d="M28,60H26V51c0-1.67-5.531-3.55-9.57-4.923C10.037,43.905,4,41.853,4,38V22c0-3.853,6.037-5.905,12.43-8.077C20.469,12.55,26,10.67,26,9V0h2V9c0,3.1-5.063,4.823-10.927,6.816C12.14,17.493,6,19.58,6,22V38c0,2.42,6.14,4.507,11.073,6.184C22.937,46.177,28,47.9,28,51Z"/><rect x="8" y="4" width="9" height="2"/><rect x="19" y="4" width="5" height="2"/><rect x="8" width="16" height="2"/><rect x="12" y="8" width="8" height="2"/><rect x="12" y="19" width="8" height="2"/><rect x="12" y="39" width="8" height="2"/><rect x="9" y="24" width="8" height="2"/><rect x="19" y="24" width="4" height="2"/><rect x="9" y="34" width="6" height="2"/><rect x="17" y="34" width="6" height="2"/><rect x="15" y="29" width="9" height="2"/><rect x="8" y="29" width="5" height="2"/><rect x="8" y="54" width="9" height="2"/><rect x="19" y="54" width="5" height="2"/><rect x="11" y="50" width="10" height="2"/><rect x="8" y="58" width="6" height="2"/><rect x="16" y="58" width="8" height="2"/><path d="M34,60H32V51c0-3.1,5.063-4.823,10.927-6.816C47.86,42.507,54,40.42,54,38V22c0-2.42-6.14-4.507-11.073-6.184C37.063,13.823,32,12.1,32,9V0h2V9c0,1.67,5.531,3.55,9.57,4.923C49.963,16.1,56,18.147,56,22V38c0,3.853-6.037,5.905-12.43,8.077C39.531,47.45,34,49.33,34,51Z"/><path d="M56,60H54V51c0-1.67-5.531-3.55-9.57-4.923C38.037,43.905,32,41.853,32,38V22c0-3.853,6.037-5.905,12.43-8.077C48.469,12.55,54,10.67,54,9V0h2V9c0,3.1-5.063,4.823-10.927,6.816C40.14,17.493,34,19.58,34,22V38c0,2.42,6.14,4.507,11.073,6.184C50.937,46.177,56,47.9,56,51Z"/><rect x="36" y="4" width="6" height="2"/><rect x="44" y="4" width="8" height="2"/><rect x="36" width="16" height="2"/><rect x="40" y="8" width="8" height="2"/><rect x="40" y="19" width="8" height="2"/><rect x="40" y="39" width="8" height="2"/><rect x="37" y="24" width="4" height="2"/><rect x="43" y="24" width="3" height="2"/><rect x="48" y="24" width="3" height="2"/><rect x="37" y="34" width="8" height="2"/><rect x="47" y="34" width="4" height="2"/><rect x="41" y="29" width="11" height="2"/><rect x="36" y="29" width="3" height="2"/><rect x="36" y="54" width="6" height="2"/><rect x="44" y="54" width="8" height="2"/><rect x="39" y="50" width="10" height="2"/><rect x="36" y="58" width="9" height="2"/><rect x="47" y="58" width="5" height="2"/></g></svg>