<svg xmlns="http://www.w3.org/2000/svg" viewBox="0 0 60 60"><title>22-Biology</title><g id="_22-Biology" data-name="22-Biology"><path d="M51,60a1,1,0,0,1-.707-.293l-13-13a1,1,0,0,1,0-1.414l6-6a1,1,0,0,1,1.414,0l13,13a1,1,0,0,1,0,1.414l-6,6A1,1,0,0,1,51,60ZM39.414,46,51,57.586,55.586,53,44,41.414Z"/><rect x="39.5" y="38.379" width="2" height="4.243" transform="translate(-16.776 40.5) rotate(-45)"/><rect x="37.5" y="40.379" width="2" height="4.243" transform="translate(-18.776 39.672) rotate(-45)"/><path d="M27,46A16,16,0,1,1,43,30,16.019,16.019,0,0,1,27,46Zm0-30A14,14,0,1,0,41,30,14.015,14.015,0,0,0,27,16Z"/><path d="M16,60a9.01,9.01,0,0,1-9-9V8H4A1,1,0,0,1,3,7V1A1,1,0,0,1,4,0H28a1,1,0,0,1,1,1V7a1,1,0,0,1-1,1H25v4H23V7a1,1,0,0,1,1-1h3V2H5V6H8A1,1,0,0,1,9,7V51a7,7,0,0,0,14,0V48h2v3A9.01,9.01,0,0,1,16,60Z"/><rect x="13" y="6" width="11" height="2"/><path d="M25,35H19a1,1,0,0,1-.857-.485l-3-5a1,1,0,0,1,0-1.03l3-5A1,1,0,0,1,19,23h6a1,1,0,0,1,.857.485l3,5a1,1,0,0,1,0,1.03l-3,5A1,1,0,0,1,25,35Zm-5.434-2h4.868l2.4-4-2.4-4H19.566l-2.4,4Z"/><path d="M34,40H28a1,1,0,0,1-.857-.485l-3-5a1,1,0,0,1,0-1.03l3-5A1,1,0,0,1,28,28h6a1,1,0,0,1,.857.485l3,5a1,1,0,0,1,0,1.03l-3,5A1,1,0,0,1,34,40Zm-5.434-2h4.868l2.4-4-2.4-4H28.566l-2.4,4Z"/><rect x="23.585" y="20.5" width="5.831" height="2" transform="matrix(0.515, -0.857, 0.857, 0.515, -5.572, 33.157)"/><rect x="32.585" y="25.5" width="5.831" height="2" transform="matrix(0.515, -0.857, 0.857, 0.515, -5.491, 43.3)"/><rect x="30" y="23" width="2" height="2"/><rect x="30" y="33" width="2" height="2"/><rect x="21" y="28" width="2" height="2"/><rect x="21" y="38" width="2" height="2"/></g></svg>