<svg xmlns="http://www.w3.org/2000/svg" viewBox="0 0 60 60"><title>23-Dna</title><g id="_23-Dna" data-name="23-Dna"><path d="M7,60H5V51c0-3.1,5.064-4.823,10.927-6.816C20.86,42.507,27,40.42,27,38V22c0-2.42-6.14-4.507-11.073-6.184C10.064,13.823,5,12.1,5,9V0H7V9c0,1.67,5.532,3.55,9.571,4.923C22.962,16.1,29,18.147,29,22V38c0,3.853-6.038,5.905-12.429,8.077C12.532,47.45,7,49.33,7,51Z"/><path d="M29,60H27V51c0-1.67-5.532-3.55-9.571-4.923C11.038,43.905,5,41.853,5,38V22c0-3.853,6.038-5.905,12.429-8.077C21.468,12.55,27,10.67,27,9V0h2V9c0,3.1-5.064,4.823-10.927,6.816C13.14,17.493,7,19.58,7,22V38c0,2.42,6.14,4.507,11.073,6.184C23.936,46.177,29,47.9,29,51Z"/><rect x="9" y="4" width="9" height="2"/><rect x="20" y="4" width="5" height="2"/><rect x="9" width="16" height="2"/><rect x="13" y="8" width="8" height="2"/><rect x="13" y="19" width="8" height="2"/><rect x="13" y="39" width="8" height="2"/><rect x="10" y="24" width="8" height="2"/><rect x="20" y="24" width="4" height="2"/><rect x="10" y="34" width="6" height="2"/><rect x="18" y="34" width="6" height="2"/><rect x="16" y="29" width="9" height="2"/><rect x="9" y="29" width="5" height="2"/><rect x="9" y="54" width="9" height="2"/><rect x="20" y="54" width="5" height="2"/><rect x="12" y="50" width="10" height="2"/><rect x="9" y="58" width="6" height="2"/><rect x="17" y="58" width="8" height="2"/><path d="M54,60H31V58H53V7H46V5h8a1,1,0,0,1,1,1V59A1,1,0,0,1,54,60Z"/><path d="M50,55H31V53H49V10H48V8h2a1,1,0,0,1,1,1V54A1,1,0,0,1,50,55Z"/><path d="M45,11H31V9H44V4H31V2H45a1,1,0,0,1,1,1v7A1,1,0,0,1,45,11Z"/><rect x="33" y="47" width="12" height="2"/><rect x="39" y="39" width="6" height="2"/><rect x="33" y="43" width="4" height="2"/><rect x="33" y="39" width="4" height="2"/><rect x="39" y="43" width="6" height="2"/><path d="M41,36H37a1,1,0,0,1-.9-.553l-2-4a1,1,0,0,1,0-.894l2-4A1,1,0,0,1,37,26h4a1,1,0,0,1,.9.553l2,4a1,1,0,0,1,0,.894l-2,4A1,1,0,0,1,41,36Zm-3.382-2h2.764l1.5-3-1.5-3H37.618l-1.5,3Z"/><path d="M41,28H37a1,1,0,0,1-.9-.553l-2-4a1,1,0,0,1,0-.894l2-4A1,1,0,0,1,37,18h4a1,1,0,0,1,.9.553l2,4a1,1,0,0,1,0,.894l-2,4A1,1,0,0,1,41,28Zm-3.382-2h2.764l1.5-3-1.5-3H37.618l-1.5,3Z"/></g></svg>