<svg xmlns="http://www.w3.org/2000/svg" viewBox="0 0 60 60"><title>24-Flask</title><g id="_24-Flask" data-name="24-Flask"><path d="M30.989,22.758a5.963,5.963,0,0,1-4.821-2.411A1,1,0,0,1,26.021,20l-.94-4.5A10,10,0,0,1,22,8c0-4.785,4.653-8,9-8,4.424,0,9,2.992,9,8a10,10,0,0,1-3.081,7.491l-.94,4.5a1.02,1.02,0,0,1-.151.358A6.034,6.034,0,0,1,30.989,22.758Zm-3.056-3.392a3.978,3.978,0,0,0,3.056,1.392,4.039,4.039,0,0,0,3.079-1.4l.953-4.566a1,1,0,0,1,.272-.5A8.051,8.051,0,0,0,38,8c0-3.756-3.56-6-7-6-3.311,0-7,2.464-7,6a8.051,8.051,0,0,0,2.707,6.293,1,1,0,0,1,.272.5ZM35,19.792h0Z"/><path d="M30,17V15c3.024,0,5.235-.768,6.571-2.281a6.417,6.417,0,0,0,1.437-4.595l1.984-.248a8.446,8.446,0,0,1-1.921,6.167C36.339,16.005,33.623,17,30,17Z"/><rect x="42" y="7" width="2" height="2"/><rect x="46" y="7" width="2" height="2"/><rect x="50" y="7" width="2" height="2"/><rect x="44" y="11" width="2" height="2"/><rect x="44" y="3" width="2" height="2"/><rect x="48" y="13" width="2" height="2"/><rect x="48" y="1" width="2" height="2"/><rect x="18" y="7" width="2" height="2"/><rect x="14" y="7" width="2" height="2"/><rect x="10" y="7" width="2" height="2"/><rect x="16" y="11" width="2" height="2"/><rect x="16" y="3" width="2" height="2"/><rect x="12" y="13" width="2" height="2"/><rect x="12" y="1" width="2" height="2"/><path d="M58,60H41a1.959,1.959,0,0,1-2-2V42.3l-1.832-2.748A1.006,1.006,0,0,1,37,39V35a1,1,0,0,1,1-1H59a1,1,0,0,1,1,1V58A1.959,1.959,0,0,1,58,60ZM39,38.7l1.832,2.748A1.006,1.006,0,0,1,41,42V58H58V36H39Z"/><path d="M30,60H1a1,1,0,0,1-1-1V37a1,1,0,0,1,1-1H30a1,1,0,0,1,1,1V59A1,1,0,0,1,30,60ZM2,58H29V38H2Z"/><path d="M9,38H5a1,1,0,0,1-1-1V33a1,1,0,0,1,1-1H9a1,1,0,0,1,1,1v4A1,1,0,0,1,9,38ZM6,36H8V34H6Z"/><path d="M26,38H22a1,1,0,0,1-1-1V33a1,1,0,0,1,1-1h4a1,1,0,0,1,1,1v4A1,1,0,0,1,26,38Zm-3-2h2V34H23Z"/><path d="M26,56H5a1,1,0,0,1-1-1V50a1,1,0,0,1,1-1H26a1,1,0,0,1,1,1v5A1,1,0,0,1,26,56ZM6,54H25V51H6Z"/><rect x="5" y="41" width="4" height="2"/><rect x="22" y="41" width="4" height="2"/><rect x="23" y="40" width="2" height="4"/><path d="M8,30H6V28H3a1,1,0,0,1-1-1V24a1,1,0,0,1,.293-.707l4-4A1,1,0,0,1,7,19H24v2H7.414L4,24.414V26H7a1,1,0,0,1,1,1Z"/><path d="M55,32H53v-.586L50.586,29H25v1H23V28a1,1,0,0,1,1-1H51a1,1,0,0,1,.707.293l3,3A1,1,0,0,1,55,31Z"/><path d="M49,25H47V23.414L44.586,21H38V19h7a1,1,0,0,1,.707.293l3,3A1,1,0,0,1,49,23Z"/><rect x="47" y="31" width="2" height="1"/><rect x="43" y="45" width="3" height="2"/><rect x="43" y="49" width="3" height="2"/><rect x="43" y="53" width="3" height="2"/><path d="M35,12H33V9.414l-1.293,1.293a1,1,0,0,1-1.414,0L29,9.414V12H27V7a1,1,0,0,1,1.707-.707L31,8.586l2.293-2.293A1,1,0,0,1,35,7Z"/></g></svg>