<svg xmlns="http://www.w3.org/2000/svg" viewBox="0 0 60 60"><title>25-Chemistry</title><g id="_25-Chemistry" data-name="25-Chemistry"><path d="M32,60H4a1.959,1.959,0,0,1-2-2,1,1,0,0,1,.052-.316L11,30.838V29H9a1,1,0,0,1-1-1V22a1,1,0,0,1,1-1H22v2H10v4h2a1,1,0,0,1,1,1v3a1,1,0,0,1-.052.316L4.054,58h27.9l-3.91-12.706,1.912-.588,4,13A1.007,1.007,0,0,1,34,58,1.959,1.959,0,0,1,32,60Z"/><rect x="12" y="27" width="10" height="2"/><rect x="18" y="44" width="5" height="2"/><rect x="18" y="39" width="5" height="2"/><rect x="18" y="49" width="5" height="2"/><path d="M28,43a.987.987,0,0,1-.383-.076A1,1,0,0,1,27,42V37H25a1,1,0,0,1-1-1V1a1,1,0,0,1,1-1H57a1,1,0,0,1,1,1V36a1,1,0,0,1-1,1H34.414l-5.707,5.707A1,1,0,0,1,28,43Zm-2-8h2a1,1,0,0,1,1,1v3.586l4.293-4.293A1,1,0,0,1,34,35H56V2H26Z"/><path d="M37,20a3,3,0,1,1,3-3A3,3,0,0,1,37,20Zm0-4a1,1,0,1,0,1,1A1,1,0,0,0,37,16Z"/><path d="M45,20a3,3,0,1,1,3-3A3,3,0,0,1,45,20Zm0-4a1,1,0,1,0,1,1A1,1,0,0,0,45,16Z"/><rect x="38" y="25" width="6" height="2"/><path d="M47,32H35a1,1,0,0,1-1-1V26.528A11.575,11.575,0,0,1,29,17a12,12,0,0,1,24,0,11.575,11.575,0,0,1-5,9.528V31A1,1,0,0,1,47,32ZM36,30H46V26a1,1,0,0,1,.453-.838A9.654,9.654,0,0,0,51,17a10,10,0,0,0-20,0,9.654,9.654,0,0,0,4.547,8.162A1,1,0,0,1,36,26Z"/></g></svg>