<svg xmlns="http://www.w3.org/2000/svg" viewBox="0 0 60 60"><title>4-Research</title><g id="_4-Research" data-name="4-Research"><path d="M59,60H18a1,1,0,0,1-1-1V39h2V58H58V2H19V13H17V1a1,1,0,0,1,1-1H59a1,1,0,0,1,1,1V59A1,1,0,0,1,59,60Z"/><rect x="25" y="49" width="15" height="2"/><rect x="44" y="49" width="11" height="2"/><rect x="37" y="53" width="18" height="2"/><rect x="21" y="53" width="14" height="2"/><path d="M51,47c-1.733,0-3-2.631-3-4V9a1.98,1.98,0,0,1,1.978-2H52a1.959,1.959,0,0,1,2,2V43C54,44.369,52.733,47,51,47ZM50,9c.018,0-.031.015-.048.025L50,43a3.334,3.334,0,0,0,1,1.982A3.331,3.331,0,0,0,52,43V9Z"/><rect x="49" y="12" width="4" height="2"/><rect x="49" y="41" width="4" height="2"/><path d="M13,27H5a1,1,0,0,1-.868-.5l-4-7a1,1,0,0,1,0-.992l4-7A1,1,0,0,1,5,11h8a1,1,0,0,1,.868.5l4,7a1,1,0,0,1,0,.992l-4,7A1,1,0,0,1,13,27ZM5.58,25h6.84l3.429-6L12.42,13H5.58L2.151,19Z"/><path d="M13,41H5a1,1,0,0,1-.868-.5l-4-7a1,1,0,0,1,0-.992l4-7A1,1,0,0,1,5,25h8a1,1,0,0,1,.868.5l4,7a1,1,0,0,1,0,.992l-4,7A1,1,0,0,1,13,41ZM5.58,39h6.84l3.429-6L12.42,27H5.58L2.151,33Z"/><path d="M37,27H29a1,1,0,0,1-.868-.5l-4-7a1,1,0,0,1,0-.992l4-7A1,1,0,0,1,29,11h9a1,1,0,0,1,.919.606l3,7a1,1,0,0,1-.051.89l-4,7A1,1,0,0,1,37,27Zm-7.42-2h6.84l3.465-6.064L37.341,13H29.58l-3.429,6Z"/><path d="M25,34H17a1,1,0,0,1-.868-.5l-4-7a1,1,0,0,1,0-.992l4-7A1,1,0,0,1,17,18h8a1,1,0,0,1,.868.5l4,7a1,1,0,0,1,0,.992l-4,7A1,1,0,0,1,25,34Zm-7.42-2h6.84l3.429-6L24.42,20H17.58l-3.429,6Z"/><path d="M37,41H29a1,1,0,0,1-.868-.5l-4-7a1,1,0,0,1,0-.992l4-7A1,1,0,0,1,29,25h8a1,1,0,0,1,.868.5l4,7a1,1,0,0,1,0,.992l-4,7A1,1,0,0,1,37,41Zm-7.42-2h6.84l3.429-6L36.42,27H29.58l-3.429,6Z"/></g></svg>