<svg xmlns="http://www.w3.org/2000/svg" viewBox="0 0 60 60"><title>6-Tube</title><g id="_6-Tube" data-name="6-Tube"><path d="M33,15H31V2H29V15H27V1a1,1,0,0,1,1-1h4a1,1,0,0,1,1,1Z"/><path d="M32,55H28a1,1,0,0,1-1-1V28h2V53h2V28h2V54A1,1,0,0,1,32,55Z"/><path d="M42,60H18a1,1,0,0,1-1-1V54a1,1,0,0,1,1-1H42a1,1,0,0,1,1,1v5A1,1,0,0,1,42,60ZM19,58H41V55H19Z"/><path d="M34,26H26a1,1,0,0,1-1-1V18a1,1,0,0,1,1-1h8a1,1,0,0,1,1,1v7A1,1,0,0,1,34,26Zm-7-2h6V19H27Z"/><rect x="34" y="20" width="20" height="2"/><rect x="7" y="20" width="19" height="2"/><path d="M50,18H48V10a1,1,0,0,1,1-1h1V7H42V9h1a1,1,0,0,1,1,1v8H42V11H41a1,1,0,0,1-1-1V6a1,1,0,0,1,1-1H51a1,1,0,0,1,1,1v4a1,1,0,0,1-1,1H50Z"/><path d="M46,50a4,4,0,0,1-4-4V24h2V46a2,2,0,0,0,4,0V24h2V46A4,4,0,0,1,46,50Z"/><path d="M19,18H17V13a1,1,0,0,1,1-1h1V10H11v2h1a1,1,0,0,1,1,1v5H11V14H10a1,1,0,0,1-1-1V9a1,1,0,0,1,1-1H20a1,1,0,0,1,1,1v4a1,1,0,0,1-1,1H19Z"/><path d="M15,43a4,4,0,0,1-4-4V24h2V39a2,2,0,0,0,4,0V24h2V39A4,4,0,0,1,15,43Z"/></g></svg>