<svg xmlns="http://www.w3.org/2000/svg" viewBox="0 0 60 60"><title>9-Avatar</title><g id="_9-Avatar" data-name="9-Avatar"><path d="M29.982,33.75a7.628,7.628,0,0,1-3.429-.855c-2.472-1.236-5.424-3.4-6.448-5.448C18.826,24.89,18,18.827,18,12A11.737,11.737,0,0,1,30,0,11.872,11.872,0,0,1,42,12c0,6.827-.826,12.89-2.1,15.447-.981,1.962-4.026,4.184-6.44,5.419A7.554,7.554,0,0,1,29.982,33.75ZM30,2A9.672,9.672,0,0,0,20,12c0,6.439.762,12.288,1.895,14.553.685,1.372,3.021,3.287,5.552,4.552a5.317,5.317,0,0,0,5.1-.019c2.524-1.292,4.915-3.24,5.561-4.533C39.238,24.288,40,18.439,40,12A9.894,9.894,0,0,0,30,2Z"/><rect x="43" y="46" width="2" height="14"/><rect x="15" y="46" width="2" height="14"/><path d="M53,60H51V45a9.2,9.2,0,0,0-6.316-9.051c-1.814-.6-8.8-1.953-8.873-1.967A1,1,0,0,1,35,33V30h2v2.176c1.937.382,6.749,1.353,8.316,1.875A11.15,11.15,0,0,1,53,45Z"/><path d="M9,60H7V45a11.15,11.15,0,0,1,7.684-10.949c1.567-.522,6.378-1.493,8.316-1.875V30h2v3a1,1,0,0,1-.811.982c-.07.014-7.059,1.362-8.873,1.967A9.2,9.2,0,0,0,9,45Z"/><path d="M30,59a1,1,0,0,1-.973-1.233l6-25,1.946.466L31.639,55.459l6.1-4.745L36.1,47.447a1,1,0,0,1,.188-1.154l3.66-3.66-.947-8.523,1.988-.22,1,9a1,1,0,0,1-.287.817l-3.49,3.49L39.9,50.553a1,1,0,0,1-.281,1.237l-9,7A1,1,0,0,1,30,59Z"/><path d="M30,59a1,1,0,0,1-.614-.21l-9-7a1,1,0,0,1-.281-1.237L21.783,47.2l-3.49-3.49a1,1,0,0,1-.287-.817l1-9,1.988.22-.947,8.523,3.66,3.66a1,1,0,0,1,.188,1.154l-1.634,3.267,6.1,4.745L23.027,33.233l1.946-.466,6,25A1,1,0,0,1,30,59Z"/><path d="M30,39a13.134,13.134,0,0,1-5.447-1.1l.891-1.791A11.325,11.325,0,0,0,30,37a11.113,11.113,0,0,0,4.553-.9l.894,1.79A13.134,13.134,0,0,1,30,39Z"/><path d="M38,29V27c.063,0,6.409-.052,8.106-3.447a6.2,6.2,0,0,0,.059-6,1.009,1.009,0,0,1,.115-1.242A8.306,8.306,0,0,0,48.02,9.2,6.986,6.986,0,0,0,42.8,3.98a1,1,0,0,1-.51-.272A5.865,5.865,0,0,0,39,2a9.383,9.383,0,0,0-3.554.9l-.893-1.79A11.347,11.347,0,0,1,39,0,7.455,7.455,0,0,1,43.5,2.091,8.845,8.845,0,0,1,49.98,8.8a10.439,10.439,0,0,1-1.788,8.316,8.369,8.369,0,0,1-.3,7.327C45.644,28.948,38.312,29,38,29Z"/><path d="M21.2,29c-.311,0-7.643-.052-9.894-4.553a8.366,8.366,0,0,1-.3-7.327A10.443,10.443,0,0,1,9.218,8.8,8.845,8.845,0,0,1,15.7,2.091,7.455,7.455,0,0,1,20.2,0a11.354,11.354,0,0,1,4.448,1.105L23.752,2.9A9.377,9.377,0,0,0,20.2,2,5.865,5.865,0,0,0,16.9,3.708a1,1,0,0,1-.509.272A6.925,6.925,0,0,0,11.179,9.2a8.359,8.359,0,0,0,1.74,7.111,1,1,0,0,1,.111,1.248,6.2,6.2,0,0,0,.063,6C14.79,26.948,21.136,27,21.2,27Z"/><path d="M25,22a4,4,0,1,1,4-4A4,4,0,0,1,25,22Zm0-6a2,2,0,1,0,2,2A2,2,0,0,0,25,16Z"/><path d="M35,22a4,4,0,1,1,4-4A4,4,0,0,1,35,22Zm0-6a2,2,0,1,0,2,2A2,2,0,0,0,35,16Z"/><rect x="28" y="17" width="4" height="2"/><rect x="28" y="24" width="4" height="2"/></g></svg>