<svg id="icon" xmlns="http://www.w3.org/2000/svg" viewBox="0 0 512 512"><defs><style>.cls-1{fill:#f7899e;}.cls-2{fill:#79c7e2;}.cls-3{fill:#ffca5f;}.cls-4{fill:#376782;}</style></defs><title>flowchart</title><rect class="cls-1" x="159.13" y="37.58" width="193.73" height="65.06" rx="32.53"/><polygon class="cls-2" points="256 254.6 184.14 219.51 256 184.42 327.86 219.51 256 254.6"/><rect class="cls-3" x="37.58" y="413.67" width="121.55" height="60.75"/><rect class="cls-3" x="352.87" y="413.67" width="121.55" height="60.75"/><rect class="cls-3" x="352.87" y="285.79" width="121.55" height="60.75"/><path class="cls-4" d="M358.34,70.11a38,38,0,0,0-38-38H191.66a38,38,0,0,0,0,76h58.87v49a5.47,5.47,0,0,0,10.94,0v-49h58.87A38,38,0,0,0,358.34,70.11Zm-38,27.06H191.66a27.06,27.06,0,0,1,0-54.12H320.34a27.06,27.06,0,1,1,0,54.12Z"/><path class="cls-4" d="M333.33,219.51a5.46,5.46,0,0,0-3.07-4.91L258.4,179.51a5.47,5.47,0,0,0-4.8,0L181.74,214.6a5.47,5.47,0,0,0,0,9.83l71.86,35.09a5.51,5.51,0,0,0,4.8,0l71.86-35.09A5.48,5.48,0,0,0,333.33,219.51Zm-77.33,29-59.4-29,59.4-29,59.4,29Z"/><path class="cls-4" d="M37.58,479.89H159.13a5.47,5.47,0,0,0,5.47-5.47V413.67a5.47,5.47,0,0,0-5.47-5.47H37.58a5.47,5.47,0,0,0-5.47,5.47v60.75A5.47,5.47,0,0,0,37.58,479.89Zm5.47-60.75H153.66V469H43.05Z"/><path class="cls-4" d="M474.42,408.2H352.87a5.47,5.47,0,0,0-5.47,5.47v60.75a5.47,5.47,0,0,0,5.47,5.47H474.42a5.47,5.47,0,0,0,5.47-5.47V413.67A5.47,5.47,0,0,0,474.42,408.2ZM469,469H358.34V419.14H469Z"/><path class="cls-4" d="M474.42,280.33H352.87a5.46,5.46,0,0,0-5.47,5.46v60.75a5.47,5.47,0,0,0,5.47,5.47h55.3v34.31a5.47,5.47,0,0,0,10.94,0V352h55.31a5.47,5.47,0,0,0,5.47-5.47V285.79A5.46,5.46,0,0,0,474.42,280.33ZM469,341.07H358.34V291.26H469Z"/><path class="cls-4" d="M355.21,225h19.5a33.51,33.51,0,0,1,33.46,33.47,5.47,5.47,0,0,0,10.94,0A44.46,44.46,0,0,0,374.71,214h-19.5a5.47,5.47,0,1,0,0,10.94Z"/><path class="cls-4" d="M98.36,391.79a5.47,5.47,0,0,0,5.47-5.47V258.45A33.51,33.51,0,0,1,137.29,225h19.5a5.47,5.47,0,0,0,0-10.94h-19.5a44.46,44.46,0,0,0-44.4,44.41V386.32A5.47,5.47,0,0,0,98.36,391.79Z"/><path class="cls-4" d="M325.52,438.57h-139a5.47,5.47,0,1,0,0,10.94h139a5.47,5.47,0,0,0,0-10.94Z"/></svg>