<svg id="icon" xmlns="http://www.w3.org/2000/svg" viewBox="0 0 512 512"><defs><style>.cls-1{fill:#ffca5f;}.cls-2{fill:#f7899e;}.cls-3{fill:#79c7e2;}.cls-4{fill:#b39edd;}.cls-5{fill:#376782;}</style></defs><title>goal analytics</title><path class="cls-1" d="M370.44,37.58h61.93a0,0,0,0,1,0,0V75.5a30.65,30.65,0,0,1-30.65,30.65h-.62A30.65,30.65,0,0,1,370.44,75.5V37.58a0,0,0,0,1,0,0Z"/><polygon class="cls-2" points="318.4 162.82 267.59 176.46 286.18 195.05 304.76 213.64 318.4 162.82"/><rect class="cls-2" x="370.44" y="157.35" width="61.93" height="316.95"/><rect class="cls-3" x="204.01" y="319.09" width="61.93" height="155.21"/><rect class="cls-4" x="37.58" y="405.7" width="61.93" height="68.6"/><path class="cls-5" d="M432.36,479.89a5.47,5.47,0,0,0,5.47-5.47v-318a5.47,5.47,0,0,0-5.47-5.47H370.44A5.47,5.47,0,0,0,365,156.4v318a5.47,5.47,0,0,0,5.47,5.47Zm-56.45-318h51V469h-51Z"/><path class="cls-5" d="M265.94,479.89a5.47,5.47,0,0,0,5.47-5.47V318.14a5.47,5.47,0,0,0-5.47-5.47H204a5.47,5.47,0,0,0-5.47,5.47V474.42a5.47,5.47,0,0,0,5.47,5.47ZM209.48,323.61h51V469h-51Z"/><path class="cls-5" d="M37.58,479.89H99.51a5.47,5.47,0,0,0,5.47-5.47v-68.9a5.47,5.47,0,0,0-5.47-5.47H37.58a5.47,5.47,0,0,0-5.47,5.47v68.9A5.47,5.47,0,0,0,37.58,479.89ZM43.05,411H94v58h-51Z"/><path class="cls-5" d="M456.92,32.11h-111a22.62,22.62,0,1,0,0,45.23h2.94a5.47,5.47,0,1,0,0-10.94h-2.94a11.68,11.68,0,1,1,0-23.35H365V75.5a36.17,36.17,0,0,0,31,35.75v21.67a5.47,5.47,0,0,0,10.94,0V111.25a36.17,36.17,0,0,0,31-35.75V43.05h19.09a11.68,11.68,0,1,1,0,23.35H454a5.47,5.47,0,0,0,0,10.94h2.94a22.62,22.62,0,1,0,0-45.23Zm-30,43.39a25.21,25.21,0,0,1-25.18,25.19h-.62A25.21,25.21,0,0,1,375.91,75.5V43.05h51Z"/><path class="cls-5" d="M60.52,353.77a5.47,5.47,0,0,0,3.86-1.6L168.76,247.78a20.07,20.07,0,0,1,28.34,0,31,31,0,0,0,43.75.06L290,198.93h0a4.41,4.41,0,0,0,.35-.43,4.58,4.58,0,0,0,.35-.42,5.52,5.52,0,0,0,.28-.54c.07-.14.16-.27.22-.41a3.72,3.72,0,0,0,.19-.65,2.47,2.47,0,0,0,.11-.36,4.26,4.26,0,0,0,.07-.7c0-.12,0-.23,0-.35a5.2,5.2,0,0,0-.06-.68c0-.12,0-.24,0-.36a6.55,6.55,0,0,0-.19-.63c0-.13-.06-.26-.11-.39s-.19-.36-.28-.53-.14-.29-.22-.42a4.94,4.94,0,0,0-.36-.44,4.46,4.46,0,0,0-.34-.42h0l-11.89-11.89,32.51-8.73-8.76,32.65a5.47,5.47,0,0,0-6.83,8.47l5.83,5.83a5.45,5.45,0,0,0,3.86,1.6,5.28,5.28,0,0,0,1.42-.19,5.49,5.49,0,0,0,3.87-3.86l13.64-50.82a5.48,5.48,0,0,0-6.7-6.7l-50.82,13.64a5.47,5.47,0,0,0-2.45,9.15L278.43,195l-45.29,45.05a20.07,20.07,0,0,1-28.3,0,31,31,0,0,0-43.81,0L56.65,344.43a5.47,5.47,0,0,0,3.87,9.34Z"/></svg>