<svg id="icon" xmlns="http://www.w3.org/2000/svg" viewBox="0 0 512 512"><defs><style>.cls-1{fill:#f7899e;}.cls-2{fill:#79c7e2;}.cls-3{fill:#376782;}</style></defs><title>marketing analytics</title><path class="cls-1" d="M255.89,96.08A154.85,154.85,0,1,0,410.73,250.92,154.84,154.84,0,0,0,255.89,96.08Zm0,272.12A117.28,117.28,0,1,1,373.17,250.92,117.28,117.28,0,0,1,255.89,368.2Z"/><polygon class="cls-2" points="216.94 218.56 320.76 218.56 300.9 280.85 225.97 280.85 216.94 218.56"/><path class="cls-3" d="M230.7,275.38l-6.85-47.25a29.46,29.46,0,0,0-17.15-22.75l-14-6.28a5.47,5.47,0,1,0-4.48,10l14,6.28A18.58,18.58,0,0,1,213,229.7l7.52,51.93a5.48,5.48,0,0,0,5.42,4.69H300.9a5.47,5.47,0,0,0,5.21-3.81L326,220.22a5.47,5.47,0,0,0-5.21-7.13H241.25a5.47,5.47,0,0,0,0,10.94h72L296.9,275.38Z"/><path class="cls-3" d="M220.93,312.55A17.07,17.07,0,1,0,238,295.49,17.09,17.09,0,0,0,220.93,312.55Zm23.19,0a6.13,6.13,0,1,1-6.12-6.12A6.13,6.13,0,0,1,244.12,312.55Z"/><path class="cls-3" d="M303.91,312.55a17.07,17.07,0,1,0-17.07,17.07A17.09,17.09,0,0,0,303.91,312.55Zm-17.07,6.13a6.13,6.13,0,1,1,6.13-6.13A6.13,6.13,0,0,1,286.84,318.68Z"/><path class="cls-3" d="M165.62,172.62a5.46,5.46,0,0,0-7.68,1,124.19,124.19,0,0,0-3.47,147.56,5.47,5.47,0,1,0,8.94-6.3,113.26,113.26,0,0,1,3.17-134.55A5.47,5.47,0,0,0,165.62,172.62Z"/><path class="cls-3" d="M289.76,357.78l-1.58.48A5.47,5.47,0,0,0,289.73,369a5.6,5.6,0,0,0,1.56-.22l1.73-.53a5.47,5.47,0,1,0-3.26-10.44Z"/><path class="cls-3" d="M330,150a5.47,5.47,0,0,0-6.53,8.78,113.22,113.22,0,0,1-4.17,184.76,5.47,5.47,0,0,0,3.07,10,5.4,5.4,0,0,0,3.06-.94A124.16,124.16,0,0,0,330,150Z"/><path class="cls-3" d="M111,310.64a5.34,5.34,0,0,0,1.95-.36,5.46,5.46,0,0,0,3.16-7.06,149,149,0,0,1-9.85-53.52C106.27,167.14,173.44,100,256,100a150.63,150.63,0,0,1,36,4.35,5.47,5.47,0,0,0,2.62-10.62A161.11,161.11,0,0,0,256,89C167.41,89,95.33,161.11,95.33,249.7a160.08,160.08,0,0,0,10.57,57.43A5.47,5.47,0,0,0,111,310.64Z"/><path class="cls-3" d="M256,399.43a148.26,148.26,0,0,1-66.63-15.6,5.47,5.47,0,0,0-4.88,9.79A159.14,159.14,0,0,0,256,410.37c88.59,0,160.67-72.08,160.67-160.67a159.53,159.53,0,0,0-13.51-64.57,5.47,5.47,0,1,0-10,4.4,148.61,148.61,0,0,1,12.58,60.17C405.73,332.26,338.56,399.43,256,399.43Z"/><path class="cls-3" d="M64.93,431.76a5.47,5.47,0,0,0,0,10.94H84.14a5.47,5.47,0,0,0,0-10.94Z"/><path class="cls-3" d="M37.58,410.37h80a46.16,46.16,0,0,0,39.33-22.22l23.92-39.68a124.42,124.42,0,0,0,71.79,25.32h.15a5.47,5.47,0,0,0,.14-10.94,113.45,113.45,0,0,1-66.41-23.8L204,310a5.47,5.47,0,0,0-9.37-5.65L147.54,382.5a35.17,35.17,0,0,1-30,16.93h-80a5.47,5.47,0,0,0,0,10.94Z"/><path class="cls-3" d="M132.53,464.1H98.83a5.47,5.47,0,1,0,0,10.94h33.7a5.47,5.47,0,0,0,0-10.94Z"/><path class="cls-3" d="M132.53,431.76H105.15a5.47,5.47,0,0,0,0,10.94h27.38a5.47,5.47,0,0,0,0-10.94Z"/><path class="cls-3" d="M474.42,69.3h-45.1a5.47,5.47,0,1,0,0,10.94h45.1a5.47,5.47,0,0,0,0-10.94Z"/><path class="cls-3" d="M402.4,80.24a5.47,5.47,0,1,0,0-10.94H389.2a5.47,5.47,0,1,0,0,10.94Z"/><path class="cls-3" d="M474.42,37H381.74a46.18,46.18,0,0,0-39.33,22.22L298,132.89a124.27,124.27,0,0,0-101.28,7.72,5.47,5.47,0,1,0,5.24,9.61,113.49,113.49,0,0,1,90.28-7.78l-11.9,19.75a5.47,5.47,0,0,0,9.36,5.65l62.09-103a35.17,35.17,0,0,1,30-16.93h92.68a5.47,5.47,0,0,0,0-10.94Z"/><path class="cls-3" d="M474.42,101.63H445.65a5.47,5.47,0,1,0,0,10.94h28.77a5.47,5.47,0,0,0,0-10.94Z"/></svg>