<svg id="icon" xmlns="http://www.w3.org/2000/svg" viewBox="0 0 512 512"><defs><style>.cls-1{fill:#79c7e2;}.cls-2{fill:#376782;}</style></defs><title>money analytics</title><path class="cls-1" d="M256,96.08A154.85,154.85,0,1,0,410.85,250.92,154.84,154.84,0,0,0,256,96.08Zm0,272.12A117.28,117.28,0,1,1,373.28,250.92,117.28,117.28,0,0,1,256,368.2Z"/><path class="cls-2" d="M256,125.57a124.3,124.3,0,0,0-59.28,15,5.47,5.47,0,1,0,5.23,9.61,113.49,113.49,0,0,1,90.28-7.78l-11,18.31a5.47,5.47,0,0,0,9.37,5.65L351.78,64.83a35.17,35.17,0,0,1,30-16.93h92.68a5.47,5.47,0,0,0,0-10.94H381.74a46.18,46.18,0,0,0-39.33,22.22L298,132.89A123.56,123.56,0,0,0,256,125.57Z"/><path class="cls-2" d="M165.62,172.62a5.47,5.47,0,0,0-7.68,1,124.19,124.19,0,0,0-3.47,147.56,5.47,5.47,0,1,0,8.94-6.3,113.26,113.26,0,0,1,3.17-134.55A5.47,5.47,0,0,0,165.62,172.62Z"/><path class="cls-2" d="M284.49,365.05a5.47,5.47,0,0,0,5.24,3.92,5.6,5.6,0,0,0,1.56-.22l1.73-.53a5.47,5.47,0,1,0-3.26-10.44l-1.58.48A5.46,5.46,0,0,0,284.49,365.05Z"/><path class="cls-2" d="M319.3,343.56a5.47,5.47,0,0,0,3.06,10,5.4,5.4,0,0,0,3.06-.94A124.16,124.16,0,0,0,330,150a5.47,5.47,0,0,0-6.53,8.78,113.22,113.22,0,0,1-4.16,184.76Z"/><path class="cls-2" d="M111,310.64a5.46,5.46,0,0,0,5.11-7.42,149,149,0,0,1-9.85-53.52C106.27,167.14,173.44,100,256,100a150.63,150.63,0,0,1,36,4.35,5.47,5.47,0,0,0,2.62-10.62A161.11,161.11,0,0,0,256,89C167.41,89,95.33,161.11,95.33,249.7a160.08,160.08,0,0,0,10.57,57.43A5.47,5.47,0,0,0,111,310.64Z"/><path class="cls-2" d="M189.37,383.83a5.47,5.47,0,1,0-4.87,9.79A159.06,159.06,0,0,0,256,410.37c88.59,0,160.67-72.08,160.67-160.67a159.53,159.53,0,0,0-13.51-64.57,5.47,5.47,0,1,0-10,4.4,148.61,148.61,0,0,1,12.58,60.17c0,82.56-67.17,149.73-149.73,149.73A148.26,148.26,0,0,1,189.37,383.83Z"/><path class="cls-2" d="M64.93,431.76a5.47,5.47,0,0,0,0,10.94H84.14a5.47,5.47,0,0,0,0-10.94Z"/><path class="cls-2" d="M37.58,410.37h80a46.16,46.16,0,0,0,39.33-22.22l23.92-39.68a124.42,124.42,0,0,0,71.79,25.32h.15a5.47,5.47,0,0,0,.14-10.94,113.47,113.47,0,0,1-66.41-23.8L204,310a5.47,5.47,0,0,0-9.37-5.65L147.54,382.5a35.17,35.17,0,0,1-30,16.93h-80a5.47,5.47,0,0,0,0,10.94Z"/><path class="cls-2" d="M132.53,464.1H98.83a5.47,5.47,0,1,0,0,10.94h33.7a5.47,5.47,0,0,0,0-10.94Z"/><path class="cls-2" d="M132.53,431.76H105.15a5.47,5.47,0,0,0,0,10.94h27.38a5.47,5.47,0,0,0,0-10.94Z"/><path class="cls-2" d="M474.42,69.3h-45.1a5.47,5.47,0,1,0,0,10.94h45.1a5.47,5.47,0,0,0,0-10.94Z"/><path class="cls-2" d="M402.4,80.24a5.47,5.47,0,1,0,0-10.94H389.2a5.47,5.47,0,1,0,0,10.94Z"/><path class="cls-2" d="M474.42,101.63H445.65a5.47,5.47,0,1,0,0,10.94h28.77a5.47,5.47,0,0,0,0-10.94Z"/><path class="cls-2" d="M257.64,314.9a5.47,5.47,0,0,0,5.47-5.47v-8.62a27.51,27.51,0,0,0,0-55V229.92a5.47,5.47,0,0,0-10.94,0v15.79a16.6,16.6,0,0,1,1.31-33.15h22.2a5.47,5.47,0,0,0,0-10.94H263.11v-8.55a5.47,5.47,0,0,0-10.94,0v8.62a27.53,27.53,0,0,0,1.31,55h8.32a16.6,16.6,0,0,1,1.31,33.15V274.05a5.47,5.47,0,0,0-10.94,0v15.89H239.6a5.47,5.47,0,0,0,0,10.94h12.57v8.55A5.47,5.47,0,0,0,257.64,314.9Z"/></svg>