<svg id="icon" xmlns="http://www.w3.org/2000/svg" viewBox="0 0 512 512"><defs><style>.cls-1{fill:#79c7e2;}.cls-2{fill:#ffca5f;}.cls-3{fill:#376782;}</style></defs><title>people analytics</title><circle class="cls-1" cx="257.89" cy="205.89" r="24.04"/><path class="cls-1" d="M258.3,249.73h-.82c-20.9,0-37.85,21.17-37.85,47.3h76.53C296.16,270.9,279.21,249.73,258.3,249.73Z"/><path class="cls-2" d="M258.24,94.88A154.85,154.85,0,1,0,413.08,249.73,154.85,154.85,0,0,0,258.24,94.88Zm0,272.13A117.29,117.29,0,1,1,375.52,249.73,117.28,117.28,0,0,1,258.24,367Z"/><path class="cls-3" d="M165.62,172.62a5.46,5.46,0,0,0-7.68,1,124.19,124.19,0,0,0-3.47,147.56,5.47,5.47,0,1,0,8.94-6.3,113.26,113.26,0,0,1,3.17-134.55A5.47,5.47,0,0,0,165.62,172.62Z"/><path class="cls-3" d="M252.62,373.79h.15a5.47,5.47,0,0,0,.14-10.94,113.45,113.45,0,0,1-66.41-23.8L204,310a5.47,5.47,0,0,0-9.37-5.65l-47.11,78.17a35.18,35.18,0,0,1-30,16.92h-80a5.47,5.47,0,0,0,0,10.94h80a46.16,46.16,0,0,0,39.33-22.22l23.92-39.68A124.49,124.49,0,0,0,252.62,373.79Z"/><path class="cls-3" d="M289.76,357.78l-1.57.47A5.47,5.47,0,0,0,289.73,369a5.53,5.53,0,0,0,1.55-.22l1.73-.53a5.47,5.47,0,1,0-3.25-10.44Z"/><path class="cls-3" d="M319.29,343.56a5.47,5.47,0,0,0,3.07,10,5.4,5.4,0,0,0,3.06-.94A124.16,124.16,0,0,0,330,150a5.47,5.47,0,0,0-6.53,8.78,113.22,113.22,0,0,1-4.17,184.76Z"/><path class="cls-3" d="M292,104.32a5.47,5.47,0,0,0,2.62-10.62A161.17,161.17,0,0,0,256,89C167.41,89,95.33,161.11,95.33,249.7a160.08,160.08,0,0,0,10.57,57.43,5.47,5.47,0,0,0,5.11,3.51,5.34,5.34,0,0,0,1.95-.36,5.46,5.46,0,0,0,3.16-7.06,149,149,0,0,1-9.85-53.52C106.27,167.14,173.44,100,256,100A150.63,150.63,0,0,1,292,104.32Z"/><path class="cls-3" d="M396,182.32a5.47,5.47,0,0,0-2.8,7.21,148.61,148.61,0,0,1,12.58,60.17c0,82.56-67.17,149.73-149.73,149.73a148.26,148.26,0,0,1-66.63-15.6,5.47,5.47,0,1,0-4.87,9.79A159.06,159.06,0,0,0,256,410.37c88.59,0,160.67-72.08,160.67-160.67a159.62,159.62,0,0,0-13.51-64.58A5.47,5.47,0,0,0,396,182.32Z"/><path class="cls-3" d="M474.42,37H381.74a46.18,46.18,0,0,0-39.33,22.22L298,132.89a124.22,124.22,0,0,0-101.28,7.73,5.47,5.47,0,1,0,5.24,9.6,113.49,113.49,0,0,1,90.28-7.78l-11,18.31a5.47,5.47,0,0,0,9.37,5.65L351.78,64.83a35.17,35.17,0,0,1,30-16.93h92.68a5.47,5.47,0,0,0,0-10.94Z"/><path class="cls-3" d="M84.14,431.76H64.93a5.47,5.47,0,0,0,0,10.94H84.14a5.47,5.47,0,0,0,0-10.94Z"/><path class="cls-3" d="M132.53,464.1H98.83a5.47,5.47,0,1,0,0,10.94h33.7a5.47,5.47,0,0,0,0-10.94Z"/><path class="cls-3" d="M132.53,431.76H105.15a5.47,5.47,0,0,0,0,10.94h27.38a5.47,5.47,0,0,0,0-10.94Z"/><path class="cls-3" d="M474.42,69.3h-45.1a5.47,5.47,0,1,0,0,10.94h45.1a5.47,5.47,0,0,0,0-10.94Z"/><path class="cls-3" d="M402.4,80.24a5.47,5.47,0,1,0,0-10.94H389.2a5.47,5.47,0,1,0,0,10.94Z"/><path class="cls-3" d="M474.42,101.63H445.65a5.47,5.47,0,1,0,0,10.94h28.77a5.47,5.47,0,0,0,0-10.94Z"/><path class="cls-3" d="M257.89,235.4a29.51,29.51,0,1,0-29.51-29.51A29.54,29.54,0,0,0,257.89,235.4Zm0-48.08a18.57,18.57,0,1,1-18.57,18.57A18.6,18.6,0,0,1,257.89,187.32Z"/><path class="cls-3" d="M219.63,302.5h76.53a5.47,5.47,0,0,0,5.47-5.47c0-29.1-19.44-52.77-43.33-52.77h-.82c-23.89,0-43.32,23.67-43.32,52.77A5.47,5.47,0,0,0,219.63,302.5Zm37.85-47.31h.82c16.43,0,30,15.87,32.11,36.37h-65C227.45,271.06,241.06,255.19,257.48,255.19Z"/></svg>