<svg id="icon" xmlns="http://www.w3.org/2000/svg" viewBox="0 0 512 512"><defs><style>.cls-1{fill:#ffca5f;}.cls-2{fill:#f7899e;}.cls-3{fill:#79c7e2;}.cls-4{fill:#376782;}</style></defs><title>pie graph</title><path class="cls-1" d="M37.58,291.19a156,156,0,0,0,119,151.53l37-151.53v-156A156,156,0,0,0,37.58,291.19Z"/><path class="cls-2" d="M225.78,102.17v156h156A156,156,0,0,0,225.78,102.17Z"/><path class="cls-3" d="M193.55,447.16a156,156,0,0,0,156-156H220.31L184.8,446.9C187.7,447.06,190.61,447.16,193.55,447.16Z"/><path class="cls-4" d="M155.24,448a5.74,5.74,0,0,0,1.29.15,5.46,5.46,0,0,0,5.31-4.17l37-151.53a5.2,5.2,0,0,0,.16-1.3v-156a5.47,5.47,0,0,0-5.47-5.47c-89,0-161.44,72.42-161.44,161.44A159.71,159.71,0,0,0,67.18,391.65,162.3,162.3,0,0,0,155.24,448Zm32.84-307.25V290.53L152.54,436A150,150,0,0,1,43.05,291.19C43.05,210,107.62,143.67,188.08,140.79Z"/><path class="cls-4" d="M349.52,285.72H220.33a5.47,5.47,0,1,0,0,10.94H344a149.31,149.31,0,0,1-25.67,78.73l-27.2-16.32a5.47,5.47,0,1,0-5.63,9.37l66.34,39.82a67.65,67.65,0,0,0,34.82,9.64h85.86a5.47,5.47,0,1,0,0-10.93H386.61a56.73,56.73,0,0,1-29.19-8.09L327.67,381A160.35,160.35,0,0,0,355,291.19,5.47,5.47,0,0,0,349.52,285.72Z"/><path class="cls-4" d="M193.55,452.62a161,161,0,0,0,108.71-42.08,5.47,5.47,0,1,0-7.37-8.08,150.16,150.16,0,0,1-101.34,39.23c-3.84,0-7.72-.15-11.52-.44a5.47,5.47,0,0,0-.83,10.91C185.28,452.47,189.43,452.62,193.55,452.62Z"/><path class="cls-4" d="M474.42,65.85h-45.1a5.47,5.47,0,1,0,0,10.94h45.1a5.47,5.47,0,0,0,0-10.94Z"/><path class="cls-4" d="M407.87,71.32a5.47,5.47,0,0,0-5.47-5.47H389.2a5.47,5.47,0,1,0,0,10.94h13.2A5.47,5.47,0,0,0,407.87,71.32Z"/><path class="cls-4" d="M474.42,33.52H381.74a46.16,46.16,0,0,0-39.33,22.22L285.61,150a5.47,5.47,0,0,0,1.86,7.5,5.4,5.4,0,0,0,2.82.79,5.47,5.47,0,0,0,4.69-2.65l13.86-23a149.6,149.6,0,0,1,67.34,120H231.24V107.74a149.41,149.41,0,0,1,48.22,9.75,5.47,5.47,0,0,0,3.9-10.22A160.93,160.93,0,0,0,225.78,96.7a5.46,5.46,0,0,0-5.47,5.47v156a5.46,5.46,0,0,0,5.47,5.46h156a5.46,5.46,0,0,0,5.47-5.46,160.51,160.51,0,0,0-72.72-134.89l37.29-61.87a35.16,35.16,0,0,1,30-16.92h92.68a5.47,5.47,0,0,0,0-10.94Z"/><path class="cls-4" d="M474.42,98.19H445.65a5.47,5.47,0,1,0,0,10.94h28.77a5.47,5.47,0,0,0,0-10.94Z"/><path class="cls-4" d="M426.55,442.72a5.47,5.47,0,0,0-5.47-5.47H393.19a5.47,5.47,0,1,0,0,10.94h27.89A5.47,5.47,0,0,0,426.55,442.72Z"/><path class="cls-4" d="M474.42,437.25h-31a5.47,5.47,0,0,0,0,10.94h31a5.47,5.47,0,0,0,0-10.94Z"/><path class="cls-4" d="M474.42,467.54H424.06a5.47,5.47,0,0,0,0,10.94h50.36a5.47,5.47,0,0,0,0-10.94Z"/></svg>