<svg id="icon" xmlns="http://www.w3.org/2000/svg" viewBox="0 0 512 512"><defs><style>.cls-1{fill:#fff;}.cls-2{fill:#e6e6e6;}.cls-3{fill:#79c7e2;}.cls-4{fill:#ffca5f;}.cls-5{fill:#f7899e;}.cls-6{fill:#376782;}</style></defs><title>plan</title><path class="cls-1" d="M463.45,137.44,412.33,88.36a34.53,34.53,0,0,0-23.91-9.61H37.94v354.5H474.06V162.34A34.51,34.51,0,0,0,463.45,137.44Z"/><path class="cls-2" d="M412.33,88.36a34.53,34.53,0,0,0-21-9.47v65a22,22,0,0,0,22,22h43.1a18.68,18.68,0,0,1,17.58,10.35V162.34a34.51,34.51,0,0,0-10.61-24.9Z"/><polygon class="cls-3" points="353.07 214.21 294.43 175.2 294.43 214.21 294.43 253.22 353.07 214.21"/><circle class="cls-4" cx="108.89" cy="382.94" r="19.5"/><circle class="cls-5" cx="410.87" cy="214.21" r="22.16"/><path class="cls-6" d="M32.47,78.75v354.5a5.47,5.47,0,0,0,5.47,5.47H474.06a5.47,5.47,0,0,0,5.47-5.47V186.32a25.91,25.91,0,0,0-25.89-25.89H416.49a19.34,19.34,0,0,1-19.31-19.31V107.71a5.47,5.47,0,0,0-10.94,0v33.41a30.28,30.28,0,0,0,30.25,30.24h37.15a15,15,0,0,1,14.95,15V427.79H43.41V84.21h345a28.92,28.92,0,0,1,20.12,8.1l51.12,49.08a5.47,5.47,0,0,0,7.58-7.9L416.11,84.42a39.77,39.77,0,0,0-27.69-11.14H37.94A5.47,5.47,0,0,0,32.47,78.75Z"/><path class="cls-6" d="M294.43,231.22a5.47,5.47,0,0,0-5.47,5.47v16.53a5.46,5.46,0,0,0,2.89,4.82,5.34,5.34,0,0,0,2.58.65,5.54,5.54,0,0,0,3-.91l58.63-39a5.46,5.46,0,0,0,0-9.1l-58.63-39a5.47,5.47,0,0,0-8.5,4.55v33.54H226.75A123.47,123.47,0,0,0,103.42,332.07v26.52a25,25,0,1,0,30.44,24.35,5.47,5.47,0,0,0-10.94,0,14,14,0,1,1-14-14,5.46,5.46,0,0,0,5.47-5.47V332.07A112.52,112.52,0,0,1,226.75,219.68h67.68a5.47,5.47,0,0,0,5.47-5.47v-28.8l43.29,28.8L299.9,243v-6.32A5.47,5.47,0,0,0,294.43,231.22Z"/><path class="cls-6" d="M410.87,186.58a27.63,27.63,0,1,0,27.64,27.63A27.66,27.66,0,0,0,410.87,186.58Zm0,44.33a16.7,16.7,0,1,1,16.7-16.7A16.71,16.71,0,0,1,410.87,230.91Z"/><path class="cls-6" d="M83.17,191.84a5.48,5.48,0,0,0,7.74,0l43.69-43.7a5.47,5.47,0,1,0-7.73-7.73l-18,18-18-18a5.47,5.47,0,1,0-7.74,7.73l18,18-18,18A5.49,5.49,0,0,0,83.17,191.84Z"/><path class="cls-6" d="M127,176.53a5.47,5.47,0,1,0-7.73,7.73l7.58,7.58a5.47,5.47,0,1,0,7.73-7.74Z"/><path class="cls-6" d="M207.65,353.67a5.46,5.46,0,0,0,7.74,0L259.08,310a5.47,5.47,0,0,0-7.73-7.74l-18,18-18-18a5.47,5.47,0,1,0-7.74,7.74l18,18-18,18A5.47,5.47,0,0,0,207.65,353.67Z"/><path class="cls-6" d="M251.35,353.67a5.47,5.47,0,0,0,7.73-7.73l-7.57-7.58a5.47,5.47,0,0,0-7.74,7.73Z"/><path class="cls-6" d="M437.9,330.63H432a5.47,5.47,0,0,0,0,10.94h5.88a5.47,5.47,0,0,0,0-10.94Z"/><path class="cls-6" d="M437.9,360.88H393.24a5.47,5.47,0,0,0,0,10.94H437.9a5.47,5.47,0,0,0,0-10.94Z"/><path class="cls-6" d="M351.7,402.08h86.2a5.47,5.47,0,1,0,0-10.94H351.7a5.47,5.47,0,1,0,0,10.94Z"/><path class="cls-6" d="M409,336.1a5.47,5.47,0,0,0-5.47-5.47H351.7a5.47,5.47,0,0,0,0,10.94h51.8A5.47,5.47,0,0,0,409,336.1Z"/><path class="cls-6" d="M351.7,360.88a5.47,5.47,0,0,0,0,10.94h13.21a5.47,5.47,0,0,0,0-10.94Z"/></svg>