<svg id="icon" xmlns="http://www.w3.org/2000/svg" viewBox="0 0 512 512"><defs><style>.cls-1{fill:#f7899e;}.cls-2{fill:#b39edd;}.cls-3{fill:#79c7e2;}.cls-4{fill:#ffca5f;}.cls-5{fill:#376782;}</style></defs><title>profit analytics</title><rect class="cls-1" x="412.83" y="254.63" width="61.58" height="218.42"/><rect class="cls-2" x="287.75" y="363.84" width="61.58" height="109.21"/><rect class="cls-3" x="162.67" y="318.17" width="61.58" height="154.87"/><rect class="cls-4" x="37.58" y="416.76" width="61.58" height="56.28"/><circle class="cls-1" cx="68.37" cy="363.87" r="18.57"/><circle class="cls-1" cx="187.99" cy="265.28" r="18.57"/><circle class="cls-1" cx="318.54" cy="310.95" r="18.57"/><circle class="cls-1" cx="440.89" cy="194.9" r="18.57"/><path class="cls-5" d="M97.84,163.46v-9.59a29.06,29.06,0,0,0,0-58.08V78.39a5.47,5.47,0,1,0-10.93,0V95.68a18.14,18.14,0,0,1,1-36.26h23.76a5.47,5.47,0,0,0,0-10.94H97.84V39a5.47,5.47,0,1,0-10.93,0v9.58a29.08,29.08,0,0,0,1,58.14h8.91a18.14,18.14,0,0,1,1,36.26V125.6a5.47,5.47,0,1,0-10.93,0V143H73.08a5.47,5.47,0,1,0,0,10.93H86.91v9.54a5.47,5.47,0,0,0,10.93,0Z"/><path class="cls-5" d="M162.52,66.23A5.46,5.46,0,0,0,168,71.7H309.36a5.47,5.47,0,0,0,0-10.94H168A5.46,5.46,0,0,0,162.52,66.23Z"/><path class="cls-5" d="M309.36,106.67a5.47,5.47,0,0,0,0-10.94H290.09a5.47,5.47,0,1,0,0,10.94Z"/><path class="cls-5" d="M168,106.67h83.16a5.47,5.47,0,1,0,0-10.94H168a5.47,5.47,0,0,0,0,10.94Z"/><path class="cls-5" d="M233.2,136.17a5.47,5.47,0,0,0,5.47,5.47h70.69a5.47,5.47,0,0,0,0-10.94H238.67A5.47,5.47,0,0,0,233.2,136.17Z"/><path class="cls-5" d="M168,141.64H199.2a5.47,5.47,0,1,0,0-10.94H168a5.47,5.47,0,0,0,0,10.94Z"/><path class="cls-5" d="M474.42,249.16H412.83a5.46,5.46,0,0,0-5.46,5.47V473.05a5.46,5.46,0,0,0,5.46,5.47h61.59a5.47,5.47,0,0,0,5.47-5.47V254.63A5.47,5.47,0,0,0,474.42,249.16ZM469,467.58H418.3V260.1H469Z"/><path class="cls-5" d="M354.8,473.05V363.84a5.47,5.47,0,0,0-5.47-5.47H287.75a5.47,5.47,0,0,0-5.47,5.47V473.05a5.47,5.47,0,0,0,5.47,5.47h61.58A5.47,5.47,0,0,0,354.8,473.05Zm-10.94-5.47H293.22V369.31h50.64Z"/><path class="cls-5" d="M162.67,312.71a5.46,5.46,0,0,0-5.47,5.46V473.05a5.47,5.47,0,0,0,5.47,5.47h61.58a5.47,5.47,0,0,0,5.47-5.47V318.17a5.46,5.46,0,0,0-5.47-5.46Zm56.11,154.87H168.14V323.64h50.64Z"/><path class="cls-5" d="M37.58,478.52H99.17a5.46,5.46,0,0,0,5.46-5.47V416.76a5.46,5.46,0,0,0-5.46-5.47H37.58a5.47,5.47,0,0,0-5.47,5.47v56.29A5.47,5.47,0,0,0,37.58,478.52Zm5.47-56.29H93.7v45.35H43.05Z"/><path class="cls-5" d="M68.37,339.83a24,24,0,1,0,24,24A24.07,24.07,0,0,0,68.37,339.83Zm0,37.14a13.1,13.1,0,1,1,13.11-13.1A13.12,13.12,0,0,1,68.37,377Z"/><path class="cls-5" d="M318.54,335a24,24,0,1,0-20.09-37.2l-68.63-25.06A5.47,5.47,0,0,0,226.07,283l68.62,25.05a25,25,0,0,0-.19,2.89A24.07,24.07,0,0,0,318.54,335Zm0-37.14a13.1,13.1,0,1,1-13.1,13.1A13.11,13.11,0,0,1,318.54,297.85Z"/><path class="cls-5" d="M440.89,218.94a24.06,24.06,0,1,0-21.15-12.63L347,278.85a5.47,5.47,0,1,0,7.72,7.75L427,214.5A23.83,23.83,0,0,0,440.89,218.94Zm0-37.14a13.1,13.1,0,1,1-13.1,13.1A13.12,13.12,0,0,1,440.89,181.8Z"/><path class="cls-5" d="M101.31,343.39a5.45,5.45,0,0,0,3.53-1.3l68.26-58a24.17,24.17,0,1,0-6.81-8.56L97.76,333.75a5.47,5.47,0,0,0,3.55,9.64ZM188,252.18a13.1,13.1,0,1,1-13.1,13.1A13.12,13.12,0,0,1,188,252.18Z"/></svg>