<svg id="icon" xmlns="http://www.w3.org/2000/svg" viewBox="0 0 512 512"><defs><style>.cls-1{fill:#79c7e2;}.cls-2{fill:#fff;}.cls-3{fill:#ffca5f;}.cls-4{fill:#f7899e;}.cls-5{fill:#376782;}</style></defs><title>website analytics</title><path class="cls-1" d="M64.93,108.38H447.07a27.35,27.35,0,0,1,27.35,27.35v24.58a0,0,0,0,1,0,0H37.58a0,0,0,0,1,0,0V135.73A27.35,27.35,0,0,1,64.93,108.38Z"/><path class="cls-2" d="M37.58,160.31H474.42a0,0,0,0,1,0,0v216a27.35,27.35,0,0,1-27.35,27.35H64.93a27.35,27.35,0,0,1-27.35-27.35v-216A0,0,0,0,1,37.58,160.31Z"/><path class="cls-3" d="M97.67,285.79a67.81,67.81,0,0,0,135.61,0H165.47V218A67.8,67.8,0,0,0,97.67,285.79Z"/><path class="cls-4" d="M193,196.21v61.65h61.64A61.65,61.65,0,0,0,193,196.21Z"/><path class="cls-5" d="M447.07,102.91H64.93a32.86,32.86,0,0,0-32.82,32.82v24.58a5.47,5.47,0,0,0,5.47,5.47H469V376.27a21.91,21.91,0,0,1-21.88,21.88H64.93a21.91,21.91,0,0,1-21.88-21.88V188.59a5.47,5.47,0,0,0-10.94,0V376.27a32.87,32.87,0,0,0,32.82,32.82H447.07a32.87,32.87,0,0,0,32.82-32.82V135.73A32.86,32.86,0,0,0,447.07,102.91ZM64.93,113.85H447.07A21.91,21.91,0,0,1,469,135.73v19.11H43.05V135.73A21.91,21.91,0,0,1,64.93,113.85Z"/><path class="cls-5" d="M432,136.43a4.75,4.75,0,0,0,.5.95,5.63,5.63,0,0,0,.69.83,4.56,4.56,0,0,0,.83.68,5.32,5.32,0,0,0,.94.51,4.54,4.54,0,0,0,1,.31,5.38,5.38,0,0,0,4.92-1.5,4.18,4.18,0,0,0,.68-.83,4.32,4.32,0,0,0,.51-.95,5.16,5.16,0,0,0,.32-1,6.36,6.36,0,0,0,.1-1.07,6.68,6.68,0,0,0-.1-1.08,5.71,5.71,0,0,0-.32-1,5,5,0,0,0-.51-.94,4.8,4.8,0,0,0-.67-.82A5.51,5.51,0,0,0,436,129a5.13,5.13,0,0,0-1,.32,4.7,4.7,0,0,0-.94.5,4.23,4.23,0,0,0-.83.69,6.11,6.11,0,0,0-.69.82,5.65,5.65,0,0,0-.5.94,4.92,4.92,0,0,0-.3,1,4.45,4.45,0,0,0-.11,1.08,4.28,4.28,0,0,0,.11,1.07A4.51,4.51,0,0,0,432,136.43Z"/><path class="cls-5" d="M406.68,138.89a5.41,5.41,0,0,0,.95.51,4.46,4.46,0,0,0,1,.31,5.39,5.39,0,0,0,1.07.11,5.45,5.45,0,0,0,1.06-.11,4.7,4.7,0,0,0,1-.31,5.7,5.7,0,0,0,.94-.51,5.44,5.44,0,0,0,.84-.68,5.46,5.46,0,0,0,0-7.72,5.42,5.42,0,0,0-1.78-1.19,5.34,5.34,0,0,0-1-.32,5.87,5.87,0,0,0-2.13,0,5,5,0,0,0-1,.32,4.78,4.78,0,0,0-.95.5,4.23,4.23,0,0,0-.83.69,4.86,4.86,0,0,0-.68.82,5.7,5.7,0,0,0-.51.94,5.62,5.62,0,0,0-.3,1,5,5,0,0,0-.11,1.08,5.42,5.42,0,0,0,1.6,3.86A4.56,4.56,0,0,0,406.68,138.89Z"/><path class="cls-5" d="M379.34,138.89a5,5,0,0,0,.94.51,4.54,4.54,0,0,0,1,.31,5.37,5.37,0,0,0,1.06.11,5.48,5.48,0,1,0-3.87-9.33,6,6,0,0,0-.68.82,5,5,0,0,0-.49.94,5.33,5.33,0,0,0-.43,2.1,5.51,5.51,0,0,0,1.6,3.86A5,5,0,0,0,379.34,138.89Z"/><path class="cls-5" d="M104.18,256.23a5.47,5.47,0,0,0-7.07,3.12,73.28,73.28,0,1,0,141.64,26.44,5.47,5.47,0,0,0-5.47-5.47H170.94V218a5.47,5.47,0,0,0-5.47-5.47,72.73,72.73,0,0,0-29.83,6.33,5.47,5.47,0,1,0,4.45,10A61.81,61.81,0,0,1,160,223.68v62.11a5.46,5.46,0,0,0,5.47,5.46h62.1A62.34,62.34,0,1,1,107.31,263.3,5.46,5.46,0,0,0,104.18,256.23Z"/><path class="cls-5" d="M119.22,244c.69-.76,1.39-1.5,2.12-2.23A5.47,5.47,0,0,0,113.6,234c-.86.86-1.69,1.73-2.5,2.63a5.47,5.47,0,0,0,.4,7.72,5.47,5.47,0,0,0,7.72-.39Z"/><path class="cls-5" d="M254.63,263.33a5.47,5.47,0,0,0,5.47-5.47A67.19,67.19,0,0,0,193,190.74a5.47,5.47,0,0,0-5.47,5.47v61.65a5.47,5.47,0,0,0,5.47,5.47ZM198.46,202a56.27,56.27,0,0,1,50.44,50.44H198.46Z"/><path class="cls-5" d="M421.74,244.87a5.47,5.47,0,1,0,0-10.93h-25a5.47,5.47,0,1,0,0,10.93Z"/><path class="cls-5" d="M355.2,283.33a5.47,5.47,0,0,0,5.47,5.47h61.07a5.47,5.47,0,0,0,0-10.94H360.67A5.47,5.47,0,0,0,355.2,283.33Z"/><path class="cls-5" d="M308.19,332.73H421.74a5.47,5.47,0,1,0,0-10.94H308.19a5.47,5.47,0,1,0,0,10.94Z"/><path class="cls-5" d="M369.56,233.94H308.19a5.47,5.47,0,1,0,0,10.93h61.37a5.47,5.47,0,1,0,0-10.93Z"/><path class="cls-5" d="M308.19,288.8H331a5.47,5.47,0,0,0,0-10.94H308.19a5.47,5.47,0,1,0,0,10.94Z"/></svg>