<svg id="icon" xmlns="http://www.w3.org/2000/svg" viewBox="0 0 512 512"><title>diagram graph</title><path d="M478.94,439.13h-16c-3.31-.37-39.47-5.51-39.47-53.61V335.76c.15-3.26,1.4-42.64-23.4-68.79-14.06-14.84-33.59-22.36-58-22.36s-44,7.52-58.06,22.36c-24.79,26.15-23.54,65.53-23.39,68.79v49.76c0,48.17-36.26,53.26-39.47,53.61H120.68a67,67,0,0,0,5.75-5c18.81-18.35,28.35-47.65,28.35-87.09V264.5c0-.76-2.46-76.7,33.76-114.31,13.33-13.84,30.5-20.86,51-20.86,57,0,76.35,53.34,82.51,98.08a5.58,5.58,0,0,0,11.06-1.52c-9.56-69.47-42.79-107.72-93.57-107.72-23.7,0-43.59,8.17-59.1,24.29-39.15,40.69-37,117.72-36.86,122.36V347c0,82.43-43.93,91.42-48.14,92.09H38.64V387.39H64.87a5.58,5.58,0,1,0,0-11.16H38.64V324.49H64.87a5.59,5.59,0,0,0,0-11.17H38.64V261.58H64.87a5.58,5.58,0,0,0,0-11.16H38.64V198.68H64.87a5.59,5.59,0,0,0,0-11.17H38.64V135.77H64.87a5.58,5.58,0,0,0,0-11.16H38.64V72.87H64.87a5.58,5.58,0,0,0,0-11.16H33.06a5.58,5.58,0,0,0-5.59,5.58V444.71a5.58,5.58,0,0,0,5.59,5.58H478.94a5.58,5.58,0,1,0,0-11.16ZM271.69,385.52V335.33c0-.37-1.64-37.56,20.38-60.73,11.87-12.49,28.67-18.82,49.91-18.82s38,6.33,49.9,18.82c22,23.18,20.41,60.36,20.39,60.73,0,.1,0,.19,0,.29v49.9c0,28.61,11.31,44.65,23.15,53.61H383.7c-4.4-.71-48.15-9.83-48.15-92.09V278.92a5.58,5.58,0,1,0-11.16,0V347c0,39.44,9.54,68.74,28.35,87.09a67,67,0,0,0,5.75,5H248.55C260.39,430.17,271.69,414.13,271.69,385.52Z"/></svg>