<svg id="icon" xmlns="http://www.w3.org/2000/svg" viewBox="0 0 512 512"><title>flowchart</title><path d="M360.46,66.26a38.83,38.83,0,0,0-38.79-38.79H190.33a38.79,38.79,0,1,0,0,77.57h60.09v50a5.58,5.58,0,1,0,11.16,0V105h60.09A38.83,38.83,0,0,0,360.46,66.26ZM321.67,93.88H190.33a27.62,27.62,0,0,1,0-55.24H321.67a27.62,27.62,0,1,1,0,55.24Z"/><path d="M334.93,218.76a5.58,5.58,0,0,0-3.13-5l-73.35-35.82a5.62,5.62,0,0,0-4.9,0L180.2,213.74a5.58,5.58,0,0,0,0,10l73.35,35.82a5.55,5.55,0,0,0,4.9,0l73.35-35.82A5.56,5.56,0,0,0,334.93,218.76ZM256,248.36l-60.63-29.6L256,189.15l60.63,29.61Z"/><path d="M33.06,484.53H157.12a5.59,5.59,0,0,0,5.59-5.59v-62a5.59,5.59,0,0,0-5.59-5.59H33.06a5.59,5.59,0,0,0-5.59,5.59v62A5.59,5.59,0,0,0,33.06,484.53Zm5.58-62h112.9v50.84H38.64Z"/><path d="M478.94,411.35H354.88a5.59,5.59,0,0,0-5.59,5.59v62a5.59,5.59,0,0,0,5.59,5.59H478.94a5.59,5.59,0,0,0,5.59-5.59v-62A5.59,5.59,0,0,0,478.94,411.35Zm-5.58,62H360.46V422.52h112.9Z"/><path d="M478.94,280.83H354.88a5.58,5.58,0,0,0-5.59,5.58v62a5.58,5.58,0,0,0,5.59,5.58h56.45v35a5.58,5.58,0,1,0,11.16,0V354h56.45a5.58,5.58,0,0,0,5.59-5.58v-62A5.58,5.58,0,0,0,478.94,280.83Zm-5.58,62H360.46V292h112.9Z"/><path d="M357.26,224.34h19.91a34.2,34.2,0,0,1,34.16,34.16,5.58,5.58,0,1,0,11.16,0,45.38,45.38,0,0,0-45.32-45.33H357.26a5.59,5.59,0,0,0,0,11.17Z"/><path d="M95.09,394.61a5.58,5.58,0,0,0,5.58-5.59V258.5a34.2,34.2,0,0,1,34.16-34.16h19.91a5.59,5.59,0,0,0,0-11.17H134.83A45.38,45.38,0,0,0,89.51,258.5V389A5.58,5.58,0,0,0,95.09,394.61Z"/><path d="M327,442.36H185a5.58,5.58,0,1,0,0,11.16H327a5.58,5.58,0,1,0,0-11.16Z"/></svg>