<svg id="icon" xmlns="http://www.w3.org/2000/svg" viewBox="0 0 512 512"><title>horizontal chart</title><path d="M478.94,325.6H146.42a5.58,5.58,0,0,0-5.58,5.58V410a5.58,5.58,0,0,0,5.58,5.59H478.94a5.59,5.59,0,0,0,5.59-5.59V331.18A5.58,5.58,0,0,0,478.94,325.6ZM152,336.76H352v67.7H152Zm321.35,67.7H363.15v-67.7H473.36Z"/><path d="M478.94,211H146.42a5.58,5.58,0,0,0-5.58,5.58v78.86a5.58,5.58,0,0,0,5.58,5.58H478.94a5.58,5.58,0,0,0,5.59-5.58V216.57A5.58,5.58,0,0,0,478.94,211ZM152,222.15h123.4v67.7H152Zm321.35,67.7H286.57v-67.7H473.36Z"/><path d="M478.94,96.37H146.42a5.58,5.58,0,0,0-5.58,5.59v78.86a5.58,5.58,0,0,0,5.58,5.58H478.94a5.58,5.58,0,0,0,5.59-5.58V102A5.59,5.59,0,0,0,478.94,96.37ZM152,107.54H376.66v67.7H152Zm321.35,67.7H387.82v-67.7h85.54Z"/><path d="M65,293.49A37.49,37.49,0,1,0,27.47,256,37.53,37.53,0,0,0,65,293.49Zm0-63.81A26.32,26.32,0,1,1,38.64,256,26.35,26.35,0,0,1,65,229.68Z"/><path d="M67.5,102.47a5.58,5.58,0,0,0-5,3.06L28.83,172.21a5.59,5.59,0,0,0,5,8.1h67.37a5.59,5.59,0,0,0,5-8.1L72.48,105.53A5.58,5.58,0,0,0,67.5,102.47ZM42.89,169.14,67.5,120.43l24.6,48.71Z"/><path d="M89.57,340.76a5.59,5.59,0,0,0-7.9,0l-22,22-22-22a5.58,5.58,0,0,0-7.89,7.9l22,21.95-21.95,22a5.58,5.58,0,1,0,7.89,7.89l51.81-51.8A5.59,5.59,0,0,0,89.57,340.76Z"/><path d="M76.92,379.92a5.58,5.58,0,1,0-7.89,7.9l12.64,12.64a5.58,5.58,0,1,0,7.9-7.89Z"/></svg>