<svg id="icon" xmlns="http://www.w3.org/2000/svg" viewBox="0 0 512 512"><title>laptop analytics</title><path d="M70.78,331.72a5.58,5.58,0,0,0,5.58-5.58V105.28H435.64V326.14a5.58,5.58,0,0,0,11.16,0V99.69a5.58,5.58,0,0,0-5.58-5.58H70.78a5.58,5.58,0,0,0-5.58,5.58V326.14A5.58,5.58,0,0,0,70.78,331.72Z"/><path d="M106.11,129.69a5.58,5.58,0,0,0-5.59,5.58V320a5.59,5.59,0,0,0,5.59,5.59H405.89a5.59,5.59,0,0,0,5.59-5.59V135.27a5.58,5.58,0,0,0-5.59-5.58ZM400.31,314.4H111.69V140.85H400.31Z"/><path d="M478.94,348.51H275.09a5.58,5.58,0,1,0,0,11.16h13.73v5.22a12.74,12.74,0,0,1-12.73,12.73H235.9a12.74,12.74,0,0,1-12.72-12.73v-5.22H238a5.58,5.58,0,1,0,0-11.16h-205a5.58,5.58,0,0,0-5.59,5.58v21.85a42,42,0,0,0,42,41.95H442.58a42,42,0,0,0,41.95-41.95V354.09A5.58,5.58,0,0,0,478.94,348.51Zm-5.58,27.43a30.81,30.81,0,0,1-30.78,30.78H69.42a30.81,30.81,0,0,1-30.78-30.78V359.67H212v5.22a23.91,23.91,0,0,0,23.88,23.89h40.19A23.91,23.91,0,0,0,300,364.89v-5.22H473.36Z"/><path d="M140.17,292.43h33.06a5.58,5.58,0,0,0,5.58-5.58V256.79a5.58,5.58,0,0,0-5.58-5.58H140.17a5.57,5.57,0,0,0-5.58,5.58v30.06A5.58,5.58,0,0,0,140.17,292.43Zm5.58-30.06h21.9v18.89h-21.9Z"/><path d="M201.79,292.43h33.06a5.58,5.58,0,0,0,5.58-5.58V232.24a5.58,5.58,0,0,0-5.58-5.58H201.79a5.58,5.58,0,0,0-5.59,5.58v54.61A5.58,5.58,0,0,0,201.79,292.43Zm5.58-54.61h21.9v43.44h-21.9Z"/><path d="M263.41,292.43h33.06a5.58,5.58,0,0,0,5.58-5.58v-99.7a5.58,5.58,0,0,0-5.58-5.58H263.41a5.58,5.58,0,0,0-5.59,5.58v99.7A5.58,5.58,0,0,0,263.41,292.43ZM269,192.74h21.9v88.52H269Z"/><path d="M332.41,192.74h39.75a5.59,5.59,0,0,0,0-11.17H332.41a5.59,5.59,0,0,0,0,11.17Z"/><path d="M332.41,221.69h21.95a5.59,5.59,0,0,0,0-11.17H332.41a5.59,5.59,0,0,0,0,11.17Z"/><path d="M332.41,250.64h7.87a5.59,5.59,0,0,0,0-11.17h-7.87a5.59,5.59,0,0,0,0,11.17Z"/></svg>