<svg id="icon" xmlns="http://www.w3.org/2000/svg" viewBox="0 0 512 512"><title>marketing analytics</title><path d="M230.18,275.78l-7-48.23a30.07,30.07,0,0,0-17.52-23.22l-14.25-6.4a5.58,5.58,0,1,0-4.58,10.18l14.26,6.4a19,19,0,0,1,11,14.64l7.68,53a5.58,5.58,0,0,0,5.52,4.78h76.49a5.59,5.59,0,0,0,5.32-3.88l20.27-63.58a5.58,5.58,0,0,0-5.32-7.28H240.94a5.58,5.58,0,1,0,0,11.16h73.52l-16.71,52.42Z"/><path d="M220.21,313.73a17.42,17.42,0,1,0,17.41-17.42A17.43,17.43,0,0,0,220.21,313.73Zm23.66,0a6.25,6.25,0,1,1-6.25-6.25A6.26,6.26,0,0,1,243.87,313.73Z"/><path d="M304.9,313.73a17.42,17.42,0,1,0-17.42,17.41A17.43,17.43,0,0,0,304.9,313.73ZM287.48,320a6.25,6.25,0,1,1,6.25-6.25A6.27,6.27,0,0,1,287.48,320Z"/><path d="M163.74,170.89a5.57,5.57,0,0,0-7.83,1,126.72,126.72,0,0,0-3.54,150.62,5.58,5.58,0,1,0,9.12-6.43,115.61,115.61,0,0,1,3.23-137.34A5.57,5.57,0,0,0,163.74,170.89Z"/><path d="M290.46,359.89l-1.61.49a5.58,5.58,0,0,0,1.58,10.93,5.46,5.46,0,0,0,1.59-.23l1.76-.53a5.58,5.58,0,1,0-3.32-10.66Z"/><path d="M331.52,147.82a5.58,5.58,0,1,0-6.66,9,115.56,115.56,0,0,1-4.25,188.59,5.59,5.59,0,0,0,6.25,9.26,126.73,126.73,0,0,0,4.66-206.81Z"/><path d="M108,311.78a5.59,5.59,0,0,0,5.22-7.58,152.19,152.19,0,0,1-10-54.63c0-84.27,68.56-152.83,152.83-152.83a153.26,153.26,0,0,1,36.72,4.44,5.58,5.58,0,1,0,2.67-10.84A164.67,164.67,0,0,0,256,85.57c-90.43,0-164,73.57-164,164a163.3,163.3,0,0,0,10.79,58.62A5.59,5.59,0,0,0,108,311.78Z"/><path d="M256,402.4a151.24,151.24,0,0,1-68-15.92,5.58,5.58,0,1,0-5,10,162.29,162.29,0,0,0,73,17.1c90.43,0,164-73.57,164-164a162.75,162.75,0,0,0-13.79-65.91A5.58,5.58,0,1,0,396,188.15a151.75,151.75,0,0,1,12.84,61.42C408.83,333.84,340.27,402.4,256,402.4Z"/><path d="M61,435.41a5.58,5.58,0,0,0,0,11.16H80.58a5.58,5.58,0,1,0,0-11.16Z"/><path d="M33.06,413.57h81.65a47.11,47.11,0,0,0,40.14-22.68l24.42-40.51a127,127,0,0,0,73.28,25.85h.15a5.58,5.58,0,0,0,.15-11.16,115.82,115.82,0,0,1-67.79-24.3l17.88-29.66a5.58,5.58,0,1,0-9.56-5.77l-48.09,79.79a35.9,35.9,0,0,1-30.58,17.27H33.06a5.59,5.59,0,1,0,0,11.17Z"/><path d="M130,468.41H95.57a5.59,5.59,0,0,0,0,11.17H130a5.59,5.59,0,1,0,0-11.17Z"/><path d="M130,435.41H102a5.58,5.58,0,1,0,0,11.16h28a5.58,5.58,0,1,0,0-11.16Z"/><path d="M478.94,65.43h-46a5.58,5.58,0,0,0,0,11.16h46a5.58,5.58,0,1,0,0-11.16Z"/><path d="M405.44,76.59a5.58,5.58,0,0,0,0-11.16H392a5.58,5.58,0,1,0,0,11.16Z"/><path d="M478.94,32.42H384.35A47.13,47.13,0,0,0,344.2,55.1l-45.34,75.23a126.8,126.8,0,0,0-103.37,7.89,5.58,5.58,0,1,0,5.34,9.81A115.77,115.77,0,0,1,293,140.09l-12.15,20.15a5.58,5.58,0,1,0,9.56,5.77L353.77,60.86a35.9,35.9,0,0,1,30.58-17.27h94.59a5.59,5.59,0,1,0,0-11.17Z"/><path d="M478.94,98.43H449.58a5.59,5.59,0,1,0,0,11.17h29.36a5.59,5.59,0,1,0,0-11.17Z"/></svg>