<svg id="icon" xmlns="http://www.w3.org/2000/svg" viewBox="0 0 512 512"><title>money analyze</title><path d="M366.26,318.32a16.86,16.86,0,0,0-21.45-2l-13.1-13.11a5.59,5.59,0,0,0-7.9,7.9L336.71,324,324,336.72l-23.07-23.08a163.68,163.68,0,0,0,54.63-122.12c0-90.45-73.59-164-164-164s-164,73.59-164,164A163.89,163.89,0,0,0,139.31,347.08a5.58,5.58,0,1,0,3.55-10.58,152.75,152.75,0,0,1-104.22-145c0-84.29,68.58-152.87,152.87-152.87s152.88,68.58,152.88,152.87S275.81,344.4,191.51,344.4c-2.94,0-5.9-.09-8.85-.26l4.74-8a5.59,5.59,0,0,0-9.62-5.68l-16.53,28a35.9,35.9,0,0,1-30.58,17.27H59.29a5.59,5.59,0,0,0,0,11.17h71.38a47.14,47.14,0,0,0,40.17-22.72l5.5-9.31c5,.46,10.11.71,15.17.71a163.25,163.25,0,0,0,100.83-34.73l24,24a16.88,16.88,0,0,0,2,21.44L426.65,474.61a33.91,33.91,0,0,0,48-47.95ZM466.7,466.71a22.76,22.76,0,0,1-32.16,0L326.2,358.37a5.71,5.71,0,0,1,0-8.06l24.1-24.1a5.7,5.7,0,0,1,8.06,0L466.7,434.55a22.74,22.74,0,0,1,0,32.16Z"/><path d="M116.05,108.72l1.73-1.54a5.58,5.58,0,0,0-7.36-8.4c-.64.56-1.27,1.13-1.9,1.7a5.58,5.58,0,1,0,7.53,8.24Z"/><path d="M92.13,128.37a5.59,5.59,0,0,0-7.62,2.07,123.09,123.09,0,1,0,56.17-51.16,5.58,5.58,0,1,0,4.61,10.17,111,111,0,0,1,46.22-10A112,112,0,1,1,94.2,136,5.59,5.59,0,0,0,92.13,128.37Z"/><path d="M120.59,439.64H57.3a5.59,5.59,0,0,0,0,11.17h63.29a5.59,5.59,0,1,0,0-11.17Z"/><path d="M140.22,406.64H109a5.58,5.58,0,1,0,0,11.16h31.27a5.58,5.58,0,0,0,0-11.16Z"/><path d="M57.3,417.8H89a5.58,5.58,0,0,0,0-11.16H57.3a5.58,5.58,0,1,0,0,11.16Z"/><path d="M191.51,131.65a5.58,5.58,0,0,0-5.58,5.59V146a28.11,28.11,0,0,0,1.34,56.18h8.49a16.95,16.95,0,0,1,1.34,33.84V219.89a5.59,5.59,0,0,0-11.17,0v16.23H173.1a5.58,5.58,0,1,0,0,11.16h12.83V256a5.59,5.59,0,0,0,11.17,0v-8.8a28.08,28.08,0,0,0,0-56.1V174.86a5.59,5.59,0,1,0-11.17,0V191a16.95,16.95,0,0,1,1.34-33.84h22.66a5.58,5.58,0,0,0,0-11.16H197.1v-8.73A5.59,5.59,0,0,0,191.51,131.65Z"/></svg>