<svg id="icon" xmlns="http://www.w3.org/2000/svg" viewBox="0 0 512 512"><title>money analytics</title><path d="M256,122.86a126.83,126.83,0,0,0-60.51,15.36,5.58,5.58,0,1,0,5.34,9.81A115.77,115.77,0,0,1,293,140.09l-11.26,18.69a5.58,5.58,0,0,0,9.56,5.76L353.77,60.86a35.9,35.9,0,0,1,30.58-17.27h94.59a5.59,5.59,0,1,0,0-11.17H384.35A47.13,47.13,0,0,0,344.2,55.1l-45.34,75.23A126.37,126.37,0,0,0,256,122.86Z"/><path d="M163.74,170.89a5.57,5.57,0,0,0-7.83,1,126.72,126.72,0,0,0-3.54,150.62,5.58,5.58,0,1,0,9.12-6.43,115.61,115.61,0,0,1,3.23-137.34A5.57,5.57,0,0,0,163.74,170.89Z"/><path d="M285.08,367.31a5.58,5.58,0,0,0,5.35,4,5.46,5.46,0,0,0,1.59-.23l1.76-.53a5.58,5.58,0,1,0-3.32-10.66l-1.61.49A5.57,5.57,0,0,0,285.08,367.31Z"/><path d="M320.61,345.37a5.59,5.59,0,0,0,6.25,9.26,126.73,126.73,0,0,0,4.66-206.81,5.58,5.58,0,1,0-6.66,9,115.56,115.56,0,0,1-4.25,188.59Z"/><path d="M108,311.78a5.59,5.59,0,0,0,5.21-7.58,152.19,152.19,0,0,1-10-54.63c0-84.27,68.56-152.83,152.83-152.83a153.26,153.26,0,0,1,36.72,4.44,5.58,5.58,0,1,0,2.67-10.84A164.67,164.67,0,0,0,256,85.57c-90.43,0-164,73.57-164,164a163.3,163.3,0,0,0,10.79,58.62A5.59,5.59,0,0,0,108,311.78Z"/><path d="M188,386.48a5.58,5.58,0,1,0-5,10,162.29,162.29,0,0,0,73,17.1c90.43,0,164-73.57,164-164a162.75,162.75,0,0,0-13.79-65.91A5.58,5.58,0,1,0,396,188.15a151.75,151.75,0,0,1,12.84,61.42c0,84.27-68.56,152.83-152.83,152.83A151.24,151.24,0,0,1,188,386.48Z"/><path d="M61,435.41a5.58,5.58,0,0,0,0,11.16H80.58a5.58,5.58,0,1,0,0-11.16Z"/><path d="M33.06,413.57h81.65a47.11,47.11,0,0,0,40.14-22.68l24.42-40.51a127,127,0,0,0,73.28,25.85h.15a5.58,5.58,0,0,0,.15-11.16,115.82,115.82,0,0,1-67.79-24.3l17.88-29.66a5.58,5.58,0,1,0-9.56-5.77l-48.09,79.79a35.9,35.9,0,0,1-30.58,17.27H33.06a5.59,5.59,0,1,0,0,11.17Z"/><path d="M130,468.41H95.57a5.59,5.59,0,0,0,0,11.17H130a5.59,5.59,0,1,0,0-11.17Z"/><path d="M130,435.41H102a5.58,5.58,0,1,0,0,11.16h28a5.58,5.58,0,1,0,0-11.16Z"/><path d="M478.94,65.43h-46a5.58,5.58,0,0,0,0,11.16h46a5.58,5.58,0,1,0,0-11.16Z"/><path d="M405.44,76.59a5.58,5.58,0,0,0,0-11.16H392a5.58,5.58,0,1,0,0,11.16Z"/><path d="M478.94,98.43H449.58a5.59,5.59,0,0,0,0,11.17h29.36a5.59,5.59,0,1,0,0-11.17Z"/><path d="M257.68,316.12a5.58,5.58,0,0,0,5.58-5.58v-8.8a28.08,28.08,0,0,0,0-56.1V229.38a5.59,5.59,0,0,0-11.17,0V245.5a16.95,16.95,0,0,1,1.34-33.84h22.66a5.59,5.59,0,0,0,0-11.17H263.26v-8.72a5.59,5.59,0,1,0-11.17,0v8.79a28.1,28.1,0,0,0,1.34,56.17h8.49a17,17,0,0,1,1.34,33.85V274.42a5.59,5.59,0,0,0-11.17,0v16.22H239.26a5.59,5.59,0,0,0,0,11.17h12.83v8.73A5.58,5.58,0,0,0,257.68,316.12Z"/></svg>