<svg id="icon" xmlns="http://www.w3.org/2000/svg" viewBox="0 0 512 512"><title>people analytics</title><path d="M163.74,170.89a5.57,5.57,0,0,0-7.83,1,126.72,126.72,0,0,0-3.54,150.62,5.57,5.57,0,0,0,4.56,2.37,5.58,5.58,0,0,0,4.56-8.8,115.61,115.61,0,0,1,3.23-137.34A5.57,5.57,0,0,0,163.74,170.89Z"/><path d="M252.55,376.23h.15a5.58,5.58,0,0,0,.15-11.16,115.82,115.82,0,0,1-67.79-24.3l17.88-29.66a5.58,5.58,0,1,0-9.56-5.77l-48.09,79.79a35.9,35.9,0,0,1-30.58,17.27H33.06a5.59,5.59,0,1,0,0,11.17h81.65a47.11,47.11,0,0,0,40.14-22.68l24.42-40.51A127,127,0,0,0,252.55,376.23Z"/><path d="M290.46,359.89l-1.61.49a5.58,5.58,0,0,0,1.58,10.93,5.74,5.74,0,0,0,1.58-.22l1.77-.54a5.58,5.58,0,1,0-3.32-10.66Z"/><path d="M320.61,345.38a5.58,5.58,0,0,0,6.25,9.25,126.73,126.73,0,0,0,4.66-206.81,5.58,5.58,0,1,0-6.66,9,115.57,115.57,0,0,1-4.25,188.6Z"/><path d="M292.72,101.18a5.59,5.59,0,0,0,2.67-10.85A165.24,165.24,0,0,0,256,85.57c-90.43,0-164,73.57-164,164a163.3,163.3,0,0,0,10.79,58.62,5.58,5.58,0,1,0,10.43-4,152.19,152.19,0,0,1-10-54.63c0-84.27,68.56-152.83,152.83-152.83A153.33,153.33,0,0,1,292.72,101.18Z"/><path d="M398.86,180.79a5.58,5.58,0,0,0-2.87,7.36,151.75,151.75,0,0,1,12.84,61.42c0,84.27-68.56,152.83-152.83,152.83a151.37,151.37,0,0,1-68-15.92,5.58,5.58,0,1,0-5,10,162.32,162.32,0,0,0,73,17.1c90.43,0,164-73.57,164-164a162.83,162.83,0,0,0-13.79-65.92A5.58,5.58,0,0,0,398.86,180.79Z"/><path d="M478.94,32.42H384.35A47.13,47.13,0,0,0,344.2,55.1l-45.34,75.23a126.8,126.8,0,0,0-103.37,7.89,5.58,5.58,0,1,0,5.34,9.81A115.77,115.77,0,0,1,293,140.09l-11.26,18.69a5.58,5.58,0,0,0,9.56,5.76L353.77,60.86a35.9,35.9,0,0,1,30.58-17.27h94.59a5.59,5.59,0,1,0,0-11.17Z"/><path d="M80.58,435.41H61a5.58,5.58,0,0,0,0,11.16H80.58a5.58,5.58,0,1,0,0-11.16Z"/><path d="M130,468.41H95.57a5.59,5.59,0,0,0,0,11.17H130a5.59,5.59,0,1,0,0-11.17Z"/><path d="M130,435.41H102a5.58,5.58,0,1,0,0,11.16h28a5.58,5.58,0,1,0,0-11.16Z"/><path d="M478.94,65.43h-46a5.58,5.58,0,0,0,0,11.16h46a5.58,5.58,0,1,0,0-11.16Z"/><path d="M405.44,76.59a5.58,5.58,0,0,0,0-11.16H392a5.58,5.58,0,1,0,0,11.16Z"/><path d="M478.94,98.43H449.58a5.59,5.59,0,1,0,0,11.17h29.36a5.59,5.59,0,1,0,0-11.17Z"/><path d="M257.93,235a30.12,30.12,0,1,0-30.12-30.11A30.15,30.15,0,0,0,257.93,235Zm0-49.07a19,19,0,1,1-19,19A19,19,0,0,1,257.93,185.9Z"/><path d="M218.87,303.46H297a5.58,5.58,0,0,0,5.58-5.58c0-29.7-19.84-53.87-44.22-53.87h-.84c-24.38,0-44.22,24.17-44.22,53.87A5.58,5.58,0,0,0,218.87,303.46Zm38.64-48.28h.84c16.76,0,30.65,16.2,32.78,37.11H224.74C226.86,271.38,240.75,255.18,257.51,255.18Z"/></svg>