<svg id="icon" xmlns="http://www.w3.org/2000/svg" viewBox="0 0 512 512"><title>pie graph data</title><path d="M102.12,96H33.06a5.59,5.59,0,1,0,0,11.17h69.06a5.59,5.59,0,1,0,0-11.17Z"/><path d="M88.62,129a5.58,5.58,0,1,0,0,11.16h14.7a5.58,5.58,0,1,0,0-11.16Z"/><path d="M33.06,140.18H61.63a5.58,5.58,0,0,0,0-11.16H33.06a5.58,5.58,0,1,0,0,11.16Z"/><path d="M478.94,61.06H409.88a5.58,5.58,0,1,0,0,11.16h69.06a5.58,5.58,0,1,0,0-11.16Z"/><path d="M478.94,28.06H412.46A47.12,47.12,0,0,0,372.4,50.58l-59.66,86.51a5.58,5.58,0,1,0,9.19,6.34L330,131.7a145.18,145.18,0,0,1-8.13,254.23l-19.58-42.39A98.52,98.52,0,0,0,261.58,158.2V111.55a144.36,144.36,0,0,1,41.85,7.81,5.53,5.53,0,0,0,1.82.31,5.58,5.58,0,0,0,1.82-10.86,156.59,156.59,0,0,0-139.61,18.94L139.63,85.58A47.13,47.13,0,0,0,99.54,63H33.06a5.58,5.58,0,1,0,0,11.16H99.54a35.89,35.89,0,0,1,30.59,17.28l.12.19L176,160.93a5.58,5.58,0,0,0,4.66,2.5,5.51,5.51,0,0,0,3.07-.92,5.59,5.59,0,0,0,1.59-7.73l-11.69-17.7a143.59,143.59,0,0,1,76.81-25.53V158.2a98.68,98.68,0,0,0-93,98.38,97.49,97.49,0,0,0,27.12,67.85l-32,34a145.11,145.11,0,0,1-6.29-196.92,5.58,5.58,0,1,0-8.43-7.32,156.32,156.32,0,0,0,51.86,244,33.08,33.08,0,0,1-27.61,15H74.67a5.58,5.58,0,1,0,0,11.16h87.47A44.33,44.33,0,0,0,199.93,403l17.6-30.45a5.58,5.58,0,0,0-9.66-5.59l-12.46,21.57a145.05,145.05,0,0,1-34.66-22.4l32-34a98.42,98.42,0,0,0,99.48,16.17l19.57,42.37A144,144,0,0,1,256,401.73a146,146,0,0,1-30.77-3.27,5.59,5.59,0,0,0-2.35,10.92A157.53,157.53,0,0,0,256,412.9a155,155,0,0,0,65.56-14.39h0a156.35,156.35,0,0,0,14.81-276l45.32-65.72a2.82,2.82,0,0,0,.18-.29,35.92,35.92,0,0,1,30.59-17.27h66.48a5.58,5.58,0,1,0,0-11.16ZM196.17,320.24a86.56,86.56,0,0,1-27.55-63.66,87.38,87.38,0,1,1,124,79.33h0a87.35,87.35,0,0,1-96.47-15.67Z"/><path d="M423.39,94.06H408.68a5.59,5.59,0,0,0,0,11.17h14.71a5.59,5.59,0,0,0,0-11.17Z"/><path d="M478.94,94.06H450.37a5.59,5.59,0,0,0,0,11.17h28.57a5.59,5.59,0,1,0,0-11.17Z"/><path d="M96.54,478.36a5.58,5.58,0,0,0,5.58,5.58h50.62a5.58,5.58,0,1,0,0-11.16H102.12A5.58,5.58,0,0,0,96.54,478.36Z"/><path d="M171,453.18A5.59,5.59,0,0,0,171,442H141.89a5.59,5.59,0,0,0,0,11.17Z"/><path d="M123.25,442H86.77a5.59,5.59,0,0,0,0,11.17h36.48a5.59,5.59,0,0,0,0-11.17Z"/></svg>