<svg id="icon" xmlns="http://www.w3.org/2000/svg" viewBox="0 0 512 512"><title>pie graph analytics</title><path d="M366.26,318.32a16.86,16.86,0,0,0-21.45-2L331.7,303.22a5.58,5.58,0,1,0-7.89,7.9L336.71,324,324,336.72l-23.08-23.08a163.65,163.65,0,0,0,54.64-122.12c0-90.45-73.59-164-164-164s-164,73.59-164,164A163.89,163.89,0,0,0,139.31,347.08a5.58,5.58,0,1,0,3.55-10.58,152.75,152.75,0,0,1-104.22-145c0-84.29,68.58-152.87,152.87-152.87s152.88,68.58,152.88,152.87S275.81,344.4,191.51,344.4c-2.94,0-5.9-.09-8.85-.26l4.74-8a5.59,5.59,0,0,0-9.62-5.68l-16.53,28a35.9,35.9,0,0,1-30.58,17.27H59.29a5.59,5.59,0,0,0,0,11.17h71.38a47.14,47.14,0,0,0,40.17-22.72l5.5-9.31c5,.46,10.11.71,15.17.71a163.25,163.25,0,0,0,100.83-34.73l24,24a16.88,16.88,0,0,0,2,21.44L426.65,474.6a33.9,33.9,0,1,0,48-47.94ZM466.7,466.71a22.78,22.78,0,0,1-32.16,0L326.2,358.37a5.71,5.71,0,0,1,0-8.06l24.1-24.1a5.7,5.7,0,0,1,8.06,0L466.7,434.55a22.74,22.74,0,0,1,0,32.16Z"/><path d="M110.42,98.78c-.64.56-1.27,1.13-1.9,1.7a5.58,5.58,0,1,0,7.53,8.25l1.73-1.55a5.58,5.58,0,0,0-7.36-8.4Z"/><path d="M92.13,128.37a5.59,5.59,0,0,0-7.62,2.07,123.09,123.09,0,1,0,56.17-51.16,5.58,5.58,0,1,0,4.61,10.16A112,112,0,1,1,94.2,136,5.59,5.59,0,0,0,92.13,128.37Z"/><path d="M57.3,450.81h63.29a5.59,5.59,0,0,0,0-11.17H57.3a5.59,5.59,0,0,0,0,11.17Z"/><path d="M140.22,417.8a5.58,5.58,0,0,0,0-11.16H109a5.58,5.58,0,1,0,0,11.16Z"/><path d="M57.3,417.8H89a5.58,5.58,0,0,0,0-11.16H57.3a5.58,5.58,0,1,0,0,11.16Z"/><path d="M184.1,132.28a64.84,64.84,0,0,0-24.33,4.34c-36,14.53-43.26,46.18-43.86,49.12A70.21,70.21,0,1,0,254.3,202.48a5.58,5.58,0,0,0-5.58-5.58h-59v-59A5.59,5.59,0,0,0,184.1,132.28Zm58.78,75.79a59,59,0,1,1-116.09-19.78l.06-.29c.22-1.15,5.92-28.45,37.09-41a50.18,50.18,0,0,1,14.58-3.31v58.81a5.58,5.58,0,0,0,5.58,5.59Z"/><path d="M269.07,181.45a5.58,5.58,0,0,0,5.58-5.58,64.41,64.41,0,0,0-64.33-64.33,5.58,5.58,0,0,0-5.58,5.58v58.75a5.58,5.58,0,0,0,5.58,5.58ZM215.91,123a53.27,53.27,0,0,1,47.29,47.29H215.91Z"/></svg>