<svg id="icon" xmlns="http://www.w3.org/2000/svg" viewBox="0 0 512 512"><title>timeline analytics</title><path d="M33.06,143.49H83.78a5.58,5.58,0,1,0,0-11.16H33.06a5.58,5.58,0,1,0,0,11.16Z"/><path d="M33.06,110.49H75.13a35.9,35.9,0,0,1,30.58,17.27L143.19,190a5.58,5.58,0,1,0,9.56-5.76L115.27,122A47.11,47.11,0,0,0,75.13,99.32H33.06a5.59,5.59,0,1,0,0,11.17Z"/><path d="M106.2,170.92a5.58,5.58,0,0,0-5.58-5.59H69.35a5.59,5.59,0,0,0,0,11.17h31.27A5.58,5.58,0,0,0,106.2,170.92Z"/><path d="M33.06,176.5H49.35a5.59,5.59,0,0,0,0-11.17H33.06a5.59,5.59,0,1,0,0,11.17Z"/><path d="M131.86,241.11a28.7,28.7,0,0,0,56.85,5.58h71.67a5.59,5.59,0,1,0,0-11.17H188.71a28.7,28.7,0,0,0-56.85,5.59Zm28.7-17.54A17.54,17.54,0,1,1,143,241.11,17.56,17.56,0,0,1,160.56,223.57Z"/><path d="M328.32,143.49h50.73a5.58,5.58,0,0,0,0-11.16H328.32a5.58,5.58,0,1,0,0,11.16Z"/><path d="M328.32,110.49h42.07A35.9,35.9,0,0,1,401,127.76L438.45,190a5.58,5.58,0,0,0,9.56-5.76L410.53,122a47.11,47.11,0,0,0-40.14-22.68H328.32a5.59,5.59,0,1,0,0,11.17Z"/><path d="M395.88,165.33H364.61a5.59,5.59,0,0,0,0,11.17h31.27a5.59,5.59,0,0,0,0-11.17Z"/><path d="M328.32,176.5h16.29a5.59,5.59,0,0,0,0-11.17H328.32a5.59,5.59,0,1,0,0,11.17Z"/><path d="M455.82,212.4a28.71,28.71,0,1,0,28.71,28.71A28.74,28.74,0,0,0,455.82,212.4Zm0,46.24a17.54,17.54,0,1,1,17.54-17.53A17.56,17.56,0,0,1,455.82,258.64Z"/><path d="M452.46,337.59H381.08a35.89,35.89,0,0,1-30.56-17.23L334,292.3a5.59,5.59,0,0,0-9.62,5.68l16.58,28.1a47.13,47.13,0,0,0,40.15,22.68h71.38a5.59,5.59,0,0,0,0-11.17Z"/><path d="M460,407.09a5.58,5.58,0,0,0-5.58-5.58H391.16a5.59,5.59,0,0,0,0,11.17h63.29A5.58,5.58,0,0,0,460,407.09Z"/><path d="M402.8,379.67a5.58,5.58,0,1,0,0-11.16H371.53a5.58,5.58,0,1,0,0,11.16Z"/><path d="M454.45,368.51H422.8a5.58,5.58,0,1,0,0,11.16h31.65a5.58,5.58,0,1,0,0-11.16Z"/><path d="M308.19,269.81a28.74,28.74,0,0,0,28.15-23.12H408a5.59,5.59,0,1,0,0-11.17H336.34a28.7,28.7,0,1,0-28.15,34.29Zm0-46.24a17.54,17.54,0,1,1-17.53,17.54A17.56,17.56,0,0,1,308.19,223.57Z"/></svg>