<svg id="icon" xmlns="http://www.w3.org/2000/svg" viewBox="0 0 512 512"><title>website analytics</title><path d="M451,99.74H61a33.54,33.54,0,0,0-33.5,33.5v25.09a5.58,5.58,0,0,0,5.59,5.58h440.3V378.76A22.35,22.35,0,0,1,451,401.09H61a22.35,22.35,0,0,1-22.33-22.33V187.19a5.59,5.59,0,0,0-11.17,0V378.76A33.54,33.54,0,0,0,61,412.26H451a33.54,33.54,0,0,0,33.5-33.5V133.24A33.54,33.54,0,0,0,451,99.74ZM61,110.91H451a22.35,22.35,0,0,1,22.33,22.33v19.51H38.64V133.24A22.35,22.35,0,0,1,61,110.91Z"/><path d="M435.66,134a5.26,5.26,0,0,0,.51,1,6.46,6.46,0,0,0,.7.85,5.28,5.28,0,0,0,.85.7,6.27,6.27,0,0,0,1,.51,5.53,5.53,0,0,0,1.05.32,5.68,5.68,0,0,0,1.09.12,5.55,5.55,0,0,0,3.93-1.65,4.34,4.34,0,0,0,.7-.85,4.75,4.75,0,0,0,.52-1,5.34,5.34,0,0,0,.32-1,5.68,5.68,0,0,0,.11-1.09,5.86,5.86,0,0,0-.11-1.1,6,6,0,0,0-.32-1,5.6,5.6,0,0,0-.52-1,5.44,5.44,0,0,0-.68-.84,5.68,5.68,0,0,0-5-1.53,5.68,5.68,0,0,0-2,.83,4.8,4.8,0,0,0-.85.7,7.08,7.08,0,0,0-.7.84,6.33,6.33,0,0,0-.51,1,6,6,0,0,0-.31,1,4.57,4.57,0,0,0-.11,1.1,4.44,4.44,0,0,0,.11,1.09A5.31,5.31,0,0,0,435.66,134Z"/><path d="M409.81,136.47a5.84,5.84,0,0,0,1,.51,5.32,5.32,0,0,0,1.05.32,5.6,5.6,0,0,0,1.09.12,5.67,5.67,0,0,0,1.08-.12A5.53,5.53,0,0,0,415,137a6.27,6.27,0,0,0,1-.51,6.41,6.41,0,0,0,.86-.7,5.59,5.59,0,0,0,0-7.89,5.72,5.72,0,0,0-.86-.7,5.68,5.68,0,0,0-2-.83,5.66,5.66,0,0,0-2.17,0,5.32,5.32,0,0,0-1.05.32,5.17,5.17,0,0,0-1,.51,4.8,4.8,0,0,0-.85.7,5.57,5.57,0,0,0-.7.84,6.39,6.39,0,0,0-.52,1,5.18,5.18,0,0,0-.3,1,4.58,4.58,0,0,0-.12,1.1,5.55,5.55,0,0,0,1.64,3.94A5.28,5.28,0,0,0,409.81,136.47Z"/><path d="M381.89,136.47a6.38,6.38,0,0,0,1,.51,5.23,5.23,0,0,0,1,.32,5.68,5.68,0,0,0,1.09.12,5.62,5.62,0,0,0,5.59-5.59,5.59,5.59,0,0,0-9.54-4,7.08,7.08,0,0,0-.7.84,6.26,6.26,0,0,0-.5,1,6,6,0,0,0-.32,1,5.86,5.86,0,0,0-.11,1.1,5.62,5.62,0,0,0,1.63,3.94A5.76,5.76,0,0,0,381.89,136.47Z"/><path d="M101,256.23a5.58,5.58,0,0,0-7.22,3.19,74.8,74.8,0,1,0,144.57,27,5.58,5.58,0,0,0-5.58-5.58H169.18V217.19a5.58,5.58,0,0,0-5.58-5.58,74.24,74.24,0,0,0-30.46,6.46,5.58,5.58,0,0,0,4.55,10.2A62.93,62.93,0,0,1,158,223V286.4A5.59,5.59,0,0,0,163.6,292H227a63.63,63.63,0,1,1-122.75-28.54A5.59,5.59,0,0,0,101,256.23Z"/><path d="M116.39,243.74c.7-.77,1.42-1.53,2.16-2.27a5.59,5.59,0,0,0-7.91-7.89c-.87.87-1.71,1.76-2.54,2.68a5.58,5.58,0,0,0,8.29,7.48Z"/><path d="M254.6,263.48a5.58,5.58,0,0,0,5.59-5.58,68.58,68.58,0,0,0-68.51-68.51A5.58,5.58,0,0,0,186.1,195V257.9a5.58,5.58,0,0,0,5.58,5.58Zm-57.34-62.65a57.43,57.43,0,0,1,51.49,51.49H197.26Z"/><path d="M425.17,244.64a5.58,5.58,0,1,0,0-11.16H399.63a5.58,5.58,0,1,0,0,11.16Z"/><path d="M357.25,283.9a5.58,5.58,0,0,0,5.59,5.58h62.33a5.58,5.58,0,1,0,0-11.16H362.84A5.58,5.58,0,0,0,357.25,283.9Z"/><path d="M309.27,334.32h115.9a5.59,5.59,0,1,0,0-11.17H309.27a5.59,5.59,0,0,0,0,11.17Z"/><path d="M371.91,233.48H309.27a5.58,5.58,0,1,0,0,11.16h62.64a5.58,5.58,0,1,0,0-11.16Z"/><path d="M309.27,289.48h23.26a5.58,5.58,0,1,0,0-11.16H309.27a5.58,5.58,0,1,0,0,11.16Z"/></svg>