<svg id="icon" xmlns="http://www.w3.org/2000/svg" viewBox="0 0 512 512"><title>arm female</title><path d="M102,82.81l-2.2,2a5.66,5.66,0,0,0,7.64,8.36l2.09-1.88A5.66,5.66,0,0,0,102,82.81Z"/><path d="M353.57,405.16l.57.38a5.61,5.61,0,0,0,3.19,1,5.66,5.66,0,0,0,3.2-10.33l-.72-.48a.05.05,0,0,0,0,0l0,0-.29-.19a5.66,5.66,0,1,0-6.13,9.52Z"/><path d="M256,487.75a229.82,229.82,0,0,0,167.1-71.16,5.66,5.66,0,1,0-8.16-7.85,225,225,0,0,1-25.27,22.61A69,69,0,0,0,380,414.52a5.66,5.66,0,0,0-8.95,6.94,55.92,55.92,0,0,1,9.12,16.8,219.7,219.7,0,0,1-20.58,12.48c-12.46-25.38-31.1-40.36-58.44-46.94-10.74-2.58-26.85-2.9-38.34-2.34-56.76,2.79-91.86-8-112.84-14.44a30.81,30.81,0,0,1-21.58-32.87c9.4-83.43,43.53-181.72,57.77-220.11a41,41,0,0,1,23.22-23.78L281.76,81.4a17.71,17.71,0,0,1,16.89,2,78.5,78.5,0,0,1,24.45,27.43,10,10,0,0,1-2.39,12.28l-31.26,26.53a10.06,10.06,0,0,1-13.55-.56l-5.18-5.17a5.66,5.66,0,0,0-7.37-.54,39.1,39.1,0,0,1-23.65,8.15h-.47a5.66,5.66,0,0,0-.06,11.32A49.6,49.6,0,0,0,266,155.25l1.86,1.86a21.46,21.46,0,0,0,28.89,1.18L306,150.5l3.11,2.91A20.88,20.88,0,0,0,337,154l8.41-7.2A20.72,20.72,0,0,0,352,126.05a5.66,5.66,0,1,0-11,2.72,9.44,9.44,0,0,1-3,9.47l-8.41,7.2a9.57,9.57,0,0,1-12.79-.28l-2.17-2L328,131.76a21.24,21.24,0,0,0,5.11-26.14,90,90,0,0,0-27.94-31.43,29,29,0,0,0-27.64-3.31L205.15,99.74A52.33,52.33,0,0,0,175.5,130.1c-14.38,38.78-48.86,138.12-58.4,222.78a42.14,42.14,0,0,0,29.51,45c21.68,6.66,58,17.8,116.72,14.92,10.21-.5,25.54-.27,35.13,2,24.15,5.81,40,18.53,51,41A219.62,219.62,0,0,1,256,476.43C134.45,476.43,35.57,377.55,35.57,256A219.31,219.31,0,0,1,73.08,133a5.66,5.66,0,0,0-9.39-6.33A230.55,230.55,0,0,0,24.25,256C24.25,383.79,128.21,487.75,256,487.75Z"/><path d="M256,24.25A232.05,232.05,0,0,0,145.09,52.46a5.66,5.66,0,0,0,5.43,9.94A220.7,220.7,0,0,1,256,35.57c121.55,0,220.43,98.88,220.43,220.43a221.11,221.11,0,0,1-3.88,41.35c-12.74,2.1-34.8,3.75-54.51-4.7-1.83-.74-45.34-17.69-94.4,14a51.29,51.29,0,0,1-20.8,7.66c-44.31,6-78.07,7.87-94.64,5.43,3.64-16.48,13.38-68.4,17.27-166.93a5.66,5.66,0,1,0-11.32-.44C209.48,270.52,196,322.08,195.88,322.58a5.65,5.65,0,0,0,3.92,6.91c6.34,1.82,15.73,2.53,26.57,2.53,24.74,0,57.05-3.72,78-6.53a62.63,62.63,0,0,0,25.43-9.37c44-28.34,82.42-13.6,83.91-13,20,8.58,41.88,8,56.29,6.06q-2.18,8.74-5.06,17.32a5.66,5.66,0,0,0,3.56,7.18,5.72,5.72,0,0,0,1.81.3,5.66,5.66,0,0,0,5.36-3.86A231.45,231.45,0,0,0,487.75,256C487.75,128.21,383.79,24.25,256,24.25Z"/></svg>