<svg id="icon" xmlns="http://www.w3.org/2000/svg" viewBox="0 0 512 512"><title>back female</title><path d="M102,82.81c-.74.65-1.47,1.31-2.2,2a5.66,5.66,0,0,0,7.64,8.36c.69-.63,1.38-1.26,2.08-1.88A5.66,5.66,0,0,0,102,82.81Z"/><path d="M279.39,278.43a5.64,5.64,0,0,0-4.51,6.61c.26,1.4,6.83,34.56,38.24,60.37a5.6,5.6,0,0,0,3.59,1.29,5.66,5.66,0,0,0,3.6-10c-28-23-34.22-53.28-34.31-53.73A5.65,5.65,0,0,0,279.39,278.43Z"/><path d="M225.23,278.43a5.65,5.65,0,0,0-6.61,4.51c-.06.3-6,30.49-34.31,53.72a5.67,5.67,0,0,0,3.6,10,5.6,5.6,0,0,0,3.59-1.29c31.41-25.81,38-59,38.25-60.37A5.66,5.66,0,0,0,225.23,278.43Z"/><path d="M252.31,349.65a5.65,5.65,0,0,0-5.66,5.66V436A5.66,5.66,0,0,0,258,436V355.31A5.65,5.65,0,0,0,252.31,349.65Z"/><path d="M252.31,324.65a5.65,5.65,0,0,0-5.66,5.66v.27a5.66,5.66,0,0,0,11.32,0v-.27A5.65,5.65,0,0,0,252.31,324.65Z"/><path d="M252.31,236.55a5.65,5.65,0,0,0-5.66,5.66v65a5.66,5.66,0,1,0,11.32,0v-65A5.65,5.65,0,0,0,252.31,236.55Z"/><path d="M279.89,109.19a5.66,5.66,0,0,0,5.5-4.31c.19-.77.37-1.54.56-2.32a5.67,5.67,0,0,0-11-2.59c-.17.73-.35,1.47-.53,2.2a5.67,5.67,0,0,0,4.14,6.86A5.8,5.8,0,0,0,279.89,109.19Z"/><path d="M286.38,26.24l-.13,0a232.4,232.4,0,0,0-30.25-2c-6.65,0-13.3.32-20,.92a3.93,3.93,0,0,0-.49,0,5.6,5.6,0,0,0-1,.16A233.86,233.86,0,0,0,199,31.57a5.68,5.68,0,0,0-3.08.81A258.65,258.65,0,0,0,157.76,46C147.63,50.57,134,58.65,133.41,59a5.66,5.66,0,0,0,5.77,9.74c.1-.06,6.9-4.08,14.24-7.94-4.29,49.21.17,101.18,3.37,128.84a5.67,5.67,0,0,0,5.62,5c.22,0,.44,0,.66,0a5.67,5.67,0,0,0,5-6.28c-3.3-28.48-7.95-83.14-2.69-133.23a247,247,0,0,1,27-9.91c-2,20.7-6.91,75-7.4,120.09a5.66,5.66,0,0,0,5.6,5.72h.06a5.66,5.66,0,0,0,5.66-5.6C196.79,117.13,202.43,58,204,42a224.06,224.06,0,0,1,26.44-4.84c.09,3,.16,7,.14,11.73a5.65,5.65,0,0,0,5.64,5.68h0a5.66,5.66,0,0,0,5.66-5.64c0-5.33-.06-9.69-.16-12.83,4.75-.32,9.49-.5,14.22-.5a222,222,0,0,1,24.46,1.36,225.19,225.19,0,0,1-1.07,36.73,5.66,5.66,0,0,0,5,6.24,4.3,4.3,0,0,0,.62,0,5.66,5.66,0,0,0,5.62-5,240,240,0,0,0,1.24-36.38,218.84,218.84,0,0,1,30.81,7.38c1.85,26-.31,72.45-31.72,108.82-15.53,18-36.45,31.4-62.52,40.15,20.24-14.71,35.91-34.71,46.82-59.81a5.67,5.67,0,0,0-10.39-4.52c-13.18,30.34-33.89,52.57-61.71,66.35,24.55-28.8,33.87-74.87,37.16-112.43a5.66,5.66,0,1,0-11.28-1c-3.91,44.71-16.49,102-54.1,122.19l-4.41.38a5.65,5.65,0,0,0-2.1-.13l-14.66,1.93-.14,0c-8.85,1.4-21.09,4.8-28.48,9.25-24.24,14.59-25.51,42.42-25.54,43.46-2.09,34.39-.49,89.25-.47,89.8,0,.07,0,.13,0,.19,1.59,25.29-.16,44.31-2.56,57.59A220.31,220.31,0,0,1,73.08,133a5.66,5.66,0,0,0-9.39-6.33,231.4,231.4,0,0,0,32,296.66,4.25,4.25,0,0,0,.35.39c.43.41.87.8,1.3,1.2l1.81,1.68c1.15,1.05,2.3,2.1,3.46,3.13l2,1.78q1.64,1.42,3.31,2.8c.77.65,1.55,1.29,2.34,1.93l3.07,2.44c.9.7,1.79,1.4,2.7,2.08s1.84,1.38,2.77,2.06,2,1.51,3.08,2.25l2.35,1.63c1.2.82,2.39,1.66,3.6,2.46l1.35.87c3.51,2.3,7.07,4.53,10.71,6.64a5.64,5.64,0,0,0,8.14-6.81c-.45-27.75,4.69-56.44,9-75.36,3.82,16.18,8.1,34.56,10.85,46.47a29.3,29.3,0,0,1-.93,16.46c-2.25,6.3-5,14.21-8.09,23.5a5.67,5.67,0,0,0,3.07,7l.16.07.13.07a229.23,229.23,0,0,0,68.84,18.43l.6.06c1.23.13,2.46.23,3.69.34l2.37.21,1.38.09c5.58.4,11.2.62,16.86.62,4.93,0,9.83-.17,14.71-.48l2.17-.13,1.26-.1a229.81,229.81,0,0,0,69-16.22.83.83,0,0,0,.16-.09l.15-.05a5.66,5.66,0,0,0,3.23-7c-3.53-10.55-6.56-19.39-9-26.26a29.21,29.21,0,0,1-.94-16.46c2.75-11.91,7-30.29,10.85-46.46,4.55,19.93,10,50.71,8.89,79.82a5.6,5.6,0,0,0,.43,4.19,5.67,5.67,0,0,0,7.66,2.34c4-2.09,7.79-4.31,11.58-6.61l.72-.43c1.84-1.12,3.65-2.28,5.45-3.45l.37-.23A231.34,231.34,0,0,0,487.75,256C487.75,138.51,399.87,41.16,286.38,26.24ZM409.29,414.45c-2.9-13-5.71-34.13-3.84-63.9a1.15,1.15,0,0,0,0-.19c0-.55,1.62-55.41-.46-89.66,0-1.18-1.31-29-25.55-43.6-7.45-4.48-19.19-8.12-27.32-8.48-9.3-.4-32.49-2.29-46.72-11.09a16.17,16.17,0,0,1-7.18-9.93,5.66,5.66,0,0,0-11,2.75,27.47,27.47,0,0,0,12.21,16.81c15.91,9.83,39.53,12.22,52.19,12.78,6.28.27,16.13,3.35,22,6.86,18.89,11.37,20.06,34.09,20.08,34.44,2,33.23.53,86.14.46,88.69-2.18,34.73,1.61,58.54,5.61,73.16a222.4,222.4,0,0,1-23.36,17.57l-.51.32q-3.21,2.08-6.5,4.06l-1.46.87c-.06-43.29-12.15-86.28-14.73-95,3.82-15.57,9.47-32.85,12.56-41.93A5.66,5.66,0,0,0,355,305.38c-3.25,9.56-9.29,28-13.22,44.42h0c-4.33,17.65-12,50.54-16.15,68.58a40.57,40.57,0,0,0,1.3,22.81c2,5.67,4.44,12.7,7.22,21q-9.31,3.54-18.88,6.21l-.1,0c-1.46.4-2.93.79-4.39,1.17l-.61.15c-1.35.34-2.69.67-4,1l-1,.23c-1.25.29-2.5.56-3.76.83l-1.32.27c-1.17.24-2.34.46-3.51.68L295,473l-3.28.56-1.9.29-3,.46-2.17.28-2.85.36-2.44.26-2.61.26c-.92.09-1.85.16-2.78.24l-2.31.18-3.22.19-1.92.11c-1.33.06-2.67.1-4,.14l-1.15,0c-1.76,0-3.51.06-5.27.06-1.91,0-3.81,0-5.71-.07l-1.26-.05c-1.45,0-2.91-.09-4.36-.16l-2-.13c-1.19-.07-2.38-.14-3.56-.23l-2.42-.2-3.13-.28c-.89-.09-1.77-.2-2.66-.3s-1.89-.21-2.83-.33l-2.88-.39-2.58-.37c-1-.15-2-.32-3-.49l-2.36-.4c-1.08-.19-2.15-.39-3.22-.6l-2.14-.42c-1.13-.23-2.26-.47-3.38-.72l-1.93-.43c-1.18-.27-2.37-.55-3.55-.84l-1.7-.44c-1.24-.31-2.48-.64-3.72-1l-1.46-.41c-1.31-.37-2.62-.75-3.92-1.14l-1.19-.37c-1.38-.43-2.76-.86-4.13-1.32l-.89-.29c-1.47-.5-2.93-1-4.39-1.53l-.48-.17q-4.93-1.78-9.79-3.81c2.41-7.12,4.54-13.28,6.35-18.37A40.66,40.66,0,0,0,179,418.38c-4.18-18-11.83-50.93-16.16-68.58h0c-3.93-16.38-10-34.86-13.22-44.42A5.66,5.66,0,0,0,138.86,309c3.09,9.08,8.74,26.37,12.56,41.93-2.49,8.38-13.83,48.7-14.67,90.42-.73-.47-1.47-.94-2.19-1.42s-1.2-.78-1.79-1.18c-1.66-1.12-3.29-2.26-4.91-3.42l-1.43-1a217.91,217.91,0,0,1-20.21-16.67c3.22-14,6.22-36.36,4.26-67.72-.08-2.55-1.57-55.46.46-88.83,0-.22,1-22.84,20.07-34.3,5.77-3.47,16.59-6.52,24.34-7.75l10.1-1.33h.42q5.77-.36,11.37-.9l.13,0q4.44-.43,8.76-1h.13c49.94-6.38,88-24.38,113.29-53.68,32.15-37.23,36.06-83.68,34.73-112.17C417.29,81.58,476.43,162,476.43,256A220,220,0,0,1,409.29,414.45Z"/></svg>