<svg id="icon" xmlns="http://www.w3.org/2000/svg" viewBox="0 0 512 512"><title>back male</title><path d="M221.17,189.55c-13.59-11-35-11.11-36-11.11h0a5.66,5.66,0,0,0,0,11.32h0c5.09,0,20.13,1.54,28.86,8.59a5.66,5.66,0,1,0,7.12-8.8Z"/><path d="M192,321.41a5.66,5.66,0,0,0,1.68,11.07,5.73,5.73,0,0,0,1.67-.25c42.77-13.23,40.95-42.37,40.85-43.61a5.66,5.66,0,0,0-11.29.9C224.91,289.74,226.18,310.83,192,321.41Z"/><path d="M225.13,396.42c-.06.21-6.16,20.49-12.52,32.46a5.66,5.66,0,1,0,10,5.31c6.88-12.95,13.1-33.65,13.37-34.52a5.66,5.66,0,0,0-10.85-3.25Z"/><path d="M298,198.36c10.47-8.46,28.7-8.6,28.88-8.6a5.66,5.66,0,1,0,0-11.32h0c-1,0-22.41.14-36,11.1a5.67,5.67,0,0,0,7.12,8.82Z"/><path d="M281.92,283.43a5.64,5.64,0,0,0-6.1,5.19c-.09,1.24-1.92,30.38,40.85,43.61a5.73,5.73,0,0,0,1.67.25A5.66,5.66,0,0,0,320,321.41c-33.59-10.39-33-30.94-32.9-31.94A5.67,5.67,0,0,0,281.92,283.43Z"/><path d="M279.83,392.62a5.67,5.67,0,0,0-3.81,7.05c.27.87,6.49,21.57,13.37,34.52a5.66,5.66,0,1,0,10-5.31c-6.35-12-12.46-32.25-12.52-32.46A5.66,5.66,0,0,0,279.83,392.62Z"/><path d="M250.34,414.79a5.66,5.66,0,0,0,11.32,0v-112a5.66,5.66,0,0,0-11.32,0Z"/><path d="M250.34,268.52a5.66,5.66,0,0,0,11.32,0V215.93a5.66,5.66,0,0,0-11.32,0Z"/><path d="M256,24.25A232,232,0,0,0,145.09,52.46a5.66,5.66,0,0,0,5.43,9.94A217.28,217.28,0,0,1,180.2,49a74.37,74.37,0,0,0,12.6,32.44c3.86,5.56,12,13.84,18,17.29a5.66,5.66,0,1,0,5.68-9.79c-4.4-2.55-11.33-9.6-14.36-14a63.15,63.15,0,0,1-10.93-29.65,220.63,220.63,0,0,1,129.66,0A63,63,0,0,1,309.91,75c-3.27,4.71-9.79,11.43-14.27,13.91a5.66,5.66,0,1,0,5.48,9.91c6.37-3.53,14.07-11.58,18.09-17.37A74.36,74.36,0,0,0,331.8,49c84.32,31,144.63,112.07,144.63,207a220.84,220.84,0,0,1-16.32,83.67,298.75,298.75,0,0,0-9.74-41.87c1.57-18.2-.12-37.45-1.83-50.51a91.09,91.09,0,0,0-51-70.68A134.41,134.41,0,0,0,361,165.27c-20-19-47.7-24.8-58.47-26.41a133,133,0,0,1-1-24.69,5.66,5.66,0,1,0-11.31-.59A143.82,143.82,0,0,0,292,144.9a5.67,5.67,0,0,0,5.11,4.69c.35,0,35.5,3.27,57.27,25a5.68,5.68,0,0,0,3.4,1.63,121.18,121.18,0,0,1,34.9,10.57,79.78,79.78,0,0,1,44.63,61.93c1.68,12.77,3.33,31.66,1.68,49.15a5.72,5.72,0,0,0,.27,2.32c.09.28,9.21,28,11.67,57.76a5.28,5.28,0,0,0,.17,1,220,220,0,0,1-52.93,65.49c-.33-25.38-3.67-57.93-15.88-85.22,1.09-7.42,2.47-16.65,11.62-29.37a57.26,57.26,0,0,0,9-18.88A5.66,5.66,0,0,0,392,288.1a45.8,45.8,0,0,1-7.25,15.16c-10.8,15-12.51,26.69-13.64,34.42l-.22,1.48s0,.08,0,.12,0,.09,0,.13c0,.35-3.85,34.84-20.83,59.43a5.76,5.76,0,0,0-1,3.35c0,.28.67,27.45,2.46,52.53a217.81,217.81,0,0,1-89.8,21.63V454a5.66,5.66,0,0,0-11.32,0v22.33A217.72,217.72,0,0,1,161.2,455c1.73-25.17,1.8-52.69,1.8-53a5.68,5.68,0,0,0-1-3.22c-16.93-24.52-20.79-59.08-20.83-59.43,0,0,0-.09,0-.13s0-.08,0-.12l-.22-1.48c-1.13-7.73-2.84-19.42-13.64-34.42A45.8,45.8,0,0,1,120,288.1a5.66,5.66,0,0,0-11,2.89,57.26,57.26,0,0,0,9,18.88c9.16,12.72,10.53,21.95,11.62,29.37-12.2,27.27-15.55,59.8-15.88,85.22A219.85,219.85,0,0,1,60.92,359c0-.26.11-.51.14-.78,2.42-29.88,11.59-57.72,11.69-58a5.89,5.89,0,0,0,.26-2.32c-1.65-17.48,0-36.38,1.68-49.15a79.78,79.78,0,0,1,44.63-61.93,121.8,121.8,0,0,1,34.9-10.57,5.65,5.65,0,0,0,3.4-1.63c21.77-21.77,56.92-25,57.27-25a5.67,5.67,0,0,0,5.11-4.7,143.43,143.43,0,0,0,1.68-32.55,5.67,5.67,0,0,0-11.31.68,132.61,132.61,0,0,1-.9,25.83C198.7,140.47,171,146.28,151,165.27a134.52,134.52,0,0,0-36.57,11.34,91.09,91.09,0,0,0-51,70.68c-1.71,13.07-3.4,32.32-1.83,50.51a298.75,298.75,0,0,0-9.74,41.87A221.37,221.37,0,0,1,73.08,133a5.66,5.66,0,0,0-9.39-6.33A232.05,232.05,0,0,0,49.25,360.82a234,234,0,0,0,66.86,80,5.64,5.64,0,0,0,9-5.6,6,6,0,0,0,.09-1.12c-.32-20.47,1.11-48,8.58-73.13,3.14,12.52,8.63,28.8,17.93,42.83,0,6.77-.34,32.11-2,54.27v0a6.18,6.18,0,0,0,0,.86c0,.09,0,.18,0,.27s.1.44.15.65a5.48,5.48,0,0,0,.38,1c.06.12.1.25.16.37a3.3,3.3,0,0,0,.22.3,5.36,5.36,0,0,0,.74.91,6.33,6.33,0,0,0,.46.44l.24.15a4.89,4.89,0,0,0,.72.46h0a232.27,232.27,0,0,0,207.18-.34h0a6.31,6.31,0,0,0,.82-.52l.13-.09a5,5,0,0,0,.78-.75,6.3,6.3,0,0,0,.37-.53,3.09,3.09,0,0,0,.26-.37,5.11,5.11,0,0,0,.22-.48c.08-.18.17-.34.23-.52a5.7,5.7,0,0,0,.24-1.07s0-.08,0-.11a7,7,0,0,0,0-1v0c-1.69-22.12-2.47-47.16-2.66-54,9.28-14,14.75-30.27,17.89-42.78,7.45,25.07,8.89,52.48,8.58,72.88a5.95,5.95,0,0,0,9.05,7,234,234,0,0,0,66.86-80,229.32,229.32,0,0,0,25-104.82C487.75,128.21,383.79,24.25,256,24.25Z"/><path d="M102,82.81l-2.2,2a5.66,5.66,0,0,0,7.64,8.36l2.09-1.88A5.66,5.66,0,0,0,102,82.81Z"/><path d="M230.5,105.91a5.67,5.67,0,0,0,5.63,5.69h0a5.65,5.65,0,0,0,5.66-5.63A39.63,39.63,0,0,0,236,84.5a5.67,5.67,0,0,0-9.6,6A28.29,28.29,0,0,1,230.5,105.91Z"/><path d="M283.23,83.33a5.67,5.67,0,0,0-7.76,2A39.66,39.66,0,0,0,270.18,106a5.65,5.65,0,0,0,5.66,5.63h0a5.66,5.66,0,0,0,5.63-5.69,28.38,28.38,0,0,1,3.73-14.83A5.67,5.67,0,0,0,283.23,83.33Z"/><path d="M256.51,115.81a5.65,5.65,0,0,0,5.66-5.66V96.36a5.66,5.66,0,0,0-11.32,0v13.79A5.65,5.65,0,0,0,256.51,115.81Z"/></svg>