<svg id="icon" xmlns="http://www.w3.org/2000/svg" viewBox="0 0 512 512"><title>breast female</title><path d="M368,364.55a94.77,94.77,0,0,1,6.73,27l4.62,48.85a5.66,5.66,0,0,0,5.63,5.13l.54,0a5.65,5.65,0,0,0,5.1-6.17L386,390.47a106.69,106.69,0,0,0-7.54-30.24l-1.07-2.58A5.66,5.66,0,0,0,367,362Z"/><path d="M152.89,240.63a5.66,5.66,0,0,0-5.66,5.66v6.89c-6.29,5.14-22,20.68-24,49.16-1.87,26.7,14.28,41,15.38,41.91h0a95.32,95.32,0,0,0,19.1,12.32h0l0,0a70.41,70.41,0,0,0,27,5.28,62.86,62.86,0,0,0,34-9.74c1.07-.68,26.27-17.06,28.41-50.06a5.66,5.66,0,1,0-11.3-.73c-1.76,27.12-22.33,40.68-23.18,41.23-23.65,15-49.25,4.15-50.23,3.72A85.44,85.44,0,0,1,146,335.66l0,0v0c-.13-.11-12.92-11.12-11.42-32.49,2-29.15,20.65-41.88,21.42-42.39a5.66,5.66,0,0,0,2.57-4.74v-9.71A5.66,5.66,0,0,0,152.89,240.63Z"/><path d="M367.64,344.29h0l0,0h0c1.07-.91,17.26-15.18,15.39-41.91-2-28.48-17.67-44-24-49.16v-6.89a5.67,5.67,0,0,0-11.33,0V256a5.66,5.66,0,0,0,2.57,4.74c.19.13,19.36,13,21.42,42.39,1.48,21.11-10.92,32.06-11.42,32.49l0,0,0,0a84.81,84.81,0,0,1-16.51,10.65c-1,.43-26.57,11.25-50.23-3.72-.21-.13-21.41-13.91-23.18-41.23a5.66,5.66,0,1,0-11.3.73c2.14,33,27.34,49.38,28.42,50.07a62.88,62.88,0,0,0,34,9.73,70.47,70.47,0,0,0,27-5.28l0,0h0a95.11,95.11,0,0,0,19.06-12.29Z"/><path d="M253.17,431.68a5.65,5.65,0,0,0,5.66-5.66V393.28a5.66,5.66,0,0,0-11.32,0V426A5.65,5.65,0,0,0,253.17,431.68Z"/><path d="M247.62,456.85a5.44,5.44,0,0,0,.33,1.06,6.08,6.08,0,0,0,.51,1,7.29,7.29,0,0,0,.7.86,5.67,5.67,0,0,0,8,0,6.34,6.34,0,0,0,.69-.86,6,6,0,0,0,.85-2,5.86,5.86,0,0,0,.11-1.1,6,6,0,0,0-.11-1.11,5.44,5.44,0,0,0-.33-1.06,5.77,5.77,0,0,0-.52-1,6.34,6.34,0,0,0-.69-.86,5.7,5.7,0,0,0-8,0,7.29,7.29,0,0,0-.7.86,6.53,6.53,0,0,0-.51,1,5.44,5.44,0,0,0-.33,1.06,6,6,0,0,0-.11,1.11A5.86,5.86,0,0,0,247.62,456.85Z"/><path d="M217.1,206.3c.1,0,10.59-1.33,19.09,5.77a5.66,5.66,0,1,0,7.25-8.69C231,193,216.08,195,215.45,195.1a5.66,5.66,0,1,0,1.65,11.2Z"/><path d="M270.15,212.07c8.44-7,18.87-5.8,19.12-5.77a5.66,5.66,0,0,0,1.62-11.2c-.63-.1-15.52-2.14-28,8.28a5.66,5.66,0,0,0,7.26,8.69Z"/><path d="M118,442.22a6.42,6.42,0,0,0,.65.41l0,0a5.83,5.83,0,0,0,2.09.64h.33l.27,0c.09,0,.17,0,.26,0a6.51,6.51,0,0,0,.9-.11c.15,0,.28-.08.43-.12a5.27,5.27,0,0,0,.7-.25l.42-.21a5.74,5.74,0,0,0,.66-.43,3.81,3.81,0,0,0,.32-.24,5.83,5.83,0,0,0,.84-.88l0,0,.11-.19a4.82,4.82,0,0,0,.43-.73,2.44,2.44,0,0,0,.14-.34,5.35,5.35,0,0,0,.24-.67c0-.14,0-.28.08-.42a3.7,3.7,0,0,0,.09-.48l4.55-46.65a95.09,95.09,0,0,1,6.74-27l.67-1.63a5.66,5.66,0,0,0-10.47-4.32l-.67,1.63a106.6,106.6,0,0,0-7.54,30.24l-3.55,36.39a219.61,219.61,0,0,1-31.09-31.09v0c6-32.82,20.08-95.3,20.22-95.93,0-.14.06-.28.08-.43l10.93-74.76c2.72-19.33,10.93-32,23.72-36.57a32.17,32.17,0,0,1,16.5-1.15c8.08,1.44,19.06,2.46,32.63,3a32.77,32.77,0,0,0,34.13-32.76v-11.9a5.66,5.66,0,0,0-11.32,0v11.9a21.46,21.46,0,0,1-22.34,21.45c-13.06-.55-23.53-1.51-31.11-2.87a43.45,43.45,0,0,0-22.32,1.64C125,181.65,109.93,193,105.7,223L94.81,297.53c-.84,3.68-11.93,53-18.37,86.13A220.17,220.17,0,0,1,73.08,133a5.66,5.66,0,0,0-9.39-6.33A232,232,0,0,0,49.8,361.89,233.8,233.8,0,0,0,118,442.22Z"/><path d="M146.49,460.3A232.17,232.17,0,0,0,256,487.75a229.43,229.43,0,0,0,104.81-25,5.66,5.66,0,0,0-5.13-10.1c-2.38,1.21-4.79,2.36-7.2,3.48-2.39-10.29-5.18-20.62-7.2-27.82a35.43,35.43,0,0,1-.51-17.17c2.46-11.06,4.89-23.26,7.22-36.27a5.66,5.66,0,1,0-11.14-2c-2.31,12.85-4.7,24.9-7.13,35.8a46.76,46.76,0,0,0,.66,22.69c2.12,7.56,5.1,18.62,7.54,29.35A218.31,218.31,0,0,1,256,476.43a221.26,221.26,0,0,1-87.08-17.9c2.36-10.09,5.1-20.25,7-27.15a46.76,46.76,0,0,0,.66-22.69c-2.25-10.12-4.49-21.3-6.66-33.23a5.66,5.66,0,0,0-11.14,2c2.19,12.08,4.46,23.41,6.75,33.67a35.43,35.43,0,0,1-.51,17.17c-1.83,6.5-4.36,15.85-6.63,25.38-2.21-1.09-4.41-2.21-6.58-3.38a5.66,5.66,0,0,0-5.36,10Z"/><path d="M411.64,420.09a5.65,5.65,0,0,0,8,0A230.18,230.18,0,0,0,487.75,256c0-107.59-73.7-198.29-173.26-224.27a5.32,5.32,0,0,0-.57-.16,232.23,232.23,0,0,0-120.71,1.35,5.28,5.28,0,0,0-1.27.34,230.21,230.21,0,0,0-46.85,19.2,5.66,5.66,0,0,0,5.43,9.94,218.8,218.8,0,0,1,38.73-16.5l4.08,31a78.79,78.79,0,0,0,19.21,42.42,139.88,139.88,0,0,0,21.94,19.46,29.73,29.73,0,0,0,14,5.4l.65,0a5.66,5.66,0,0,0,.63-11.28,18.4,18.4,0,0,1-8.62-3.35,128.28,128.28,0,0,1-20.17-17.87,67.35,67.35,0,0,1-16.36-36.29l-4.3-32.73a220.82,220.82,0,0,1,106-1.37l-4.49,34.1a67.35,67.35,0,0,1-16.36,36.29A125.08,125.08,0,0,1,270,126a5.66,5.66,0,0,0,7,8.9c1.86-1.46,3.65-3,5.41-4.5v26.75a32.77,32.77,0,0,0,34.14,32.76c13.56-.57,24.54-1.59,32.62-3a32.17,32.17,0,0,1,16.5,1.15c12.79,4.6,21,17.24,23.73,36.6l10.92,74.73c0,.15.05.29.08.43.16.71,16,70.95,21.22,101.61-3.21,3.64-6.54,7.21-10,10.67A5.66,5.66,0,0,0,411.64,420.09Zm-.11-122.56L400.65,223c-4.24-30-19.26-41.39-31.11-45.65a43.55,43.55,0,0,0-22.32-1.64c-7.58,1.36-18.05,2.32-31.11,2.87a21.46,21.46,0,0,1-22.34-21.45V119.39l0,0A78.76,78.76,0,0,0,313,76.94l4.29-32.69C409.12,70.87,476.43,155.72,476.43,256A218.71,218.71,0,0,1,431.1,389.94C424.93,357.07,412.42,301.45,411.53,297.53Z"/><path d="M102,82.81l-2.2,2a5.66,5.66,0,0,0,7.64,8.36l2.09-1.88A5.66,5.66,0,0,0,102,82.81Z"/></svg>