<svg id="icon" xmlns="http://www.w3.org/2000/svg" viewBox="0 0 512 512"><title>chest male</title><path d="M166.19,295.15a5.66,5.66,0,0,0-.84,11.29l4.37.33.42,0a5.66,5.66,0,0,0,.42-11.31Z"/><path d="M193.82,369.54A5.61,5.61,0,0,0,188,364c-21.94.58-30.22-20.69-30.58-21.64a5.66,5.66,0,0,0-10.62,3.91c3.72,10.16,16.88,29.07,40.34,29.07l1.16,0A5.66,5.66,0,0,0,193.82,369.54Z"/><path d="M170.8,383.8A5.66,5.66,0,1,0,160.75,389c4.89,9.44,12.89,15.69,22.5,17.6a6,6,0,0,0,1.1.11,5.66,5.66,0,0,0,1.1-11.22C177.54,393.93,173.12,388.27,170.8,383.8Z"/><path d="M243.85,335.05c-8.12,2.44-15.31,8-20.78,16a30.73,30.73,0,0,1-10.08,9.5,5.66,5.66,0,1,0,5.59,9.85,42,42,0,0,0,13.83-13c4.06-5.93,9-9.8,14.7-11.52a5.66,5.66,0,0,0-3.26-10.84Z"/><path d="M209.09,403.44c.41.38,8.39,7.66,21.94,7.66a41.15,41.15,0,0,0,11.05-1.55,5.66,5.66,0,1,0-3-10.91c-13.79,3.8-21.86-3.13-22.29-3.51a5.66,5.66,0,0,0-7.69,8.31Z"/><path d="M209.09,446.41c.41.38,8.39,7.66,21.94,7.66a41.56,41.56,0,0,0,11.05-1.55,5.66,5.66,0,0,0-3-10.92c-13.79,3.8-21.86-3.12-22.29-3.5a5.66,5.66,0,0,0-7.69,8.31Z"/><path d="M224.81,188c-31,2.41-68.8-10.51-69.18-10.64a5.66,5.66,0,0,0-3.7,10.7c1.64.57,40.39,13.8,73.75,11.23a11.22,11.22,0,0,1,8.48,2.92,22.5,22.5,0,0,1,3.32,3.7,5.63,5.63,0,0,0,4.68,2.47,5.65,5.65,0,0,0,4.67-8.85,33.66,33.66,0,0,0-5-5.63A22.61,22.61,0,0,0,224.81,188Z"/><path d="M386,314.77a99.27,99.27,0,0,0,24.72-37.29A5.66,5.66,0,0,0,400,273.94a89.38,89.38,0,0,1-21.74,32.6,35.41,35.41,0,0,1-18.41,9.14c-18.58,3.22-54.38,6.53-85.35-7.46a5.66,5.66,0,0,0-4.67,10.32c19.2,8.67,39.9,11.27,57.83,11.27a202.87,202.87,0,0,0,34.12-3,47.62,47.62,0,0,0,12.06-3.8,78.2,78.2,0,0,0,8.88,30.75,5.57,5.57,0,0,0,.37.57l0,.06c13.8,19,17.72,45.33,18.58,64.1a5.67,5.67,0,0,0,5.65,5.4h.27A5.65,5.65,0,0,0,413,418c-.92-20.18-5.23-48.6-20.44-69.81-7.18-13.36-7.73-27.21-7.64-32.45C385.27,315.42,385.65,315.11,386,314.77Z"/><path d="M342.28,306.77l4.37-.33a5.66,5.66,0,1,0-.84-11.29l-4.37.33a5.66,5.66,0,0,0,.42,11.31Z"/><path d="M365.19,346.3a5.66,5.66,0,0,0-10.62-3.91c-.34.9-8.62,22.26-30.58,21.64h-.15a5.66,5.66,0,0,0-.15,11.32l1.16,0C348.31,375.37,361.48,356.46,365.19,346.3Z"/><path d="M341.2,383.8c-2.32,4.47-6.74,10.13-14.65,11.7a5.66,5.66,0,0,0,1.1,11.22,6.14,6.14,0,0,0,1.11-.11c9.61-1.91,17.6-8.16,22.5-17.6a5.66,5.66,0,0,0-10.06-5.21Z"/><path d="M299,360.52a30.73,30.73,0,0,1-10.08-9.5c-5.26-7.7-11.84-12.94-19.57-15.59a5.67,5.67,0,0,0-3.67,10.72c5.37,1.83,10,5.62,13.9,11.26a42,42,0,0,0,13.83,13,5.66,5.66,0,1,0,5.59-9.85Z"/><path d="M303.2,395.51a5.68,5.68,0,0,0-8-.38c-.34.3-8.42,7.34-22.3,3.51a5.66,5.66,0,1,0-3,10.91A41.15,41.15,0,0,0,281,411.1c13.55,0,21.53-7.28,21.94-7.66A5.63,5.63,0,0,0,303.2,395.51Z"/><path d="M295.23,438.09c-.34.3-8.42,7.34-22.3,3.51a5.66,5.66,0,0,0-3,10.92A41.56,41.56,0,0,0,281,454.07c13.55,0,21.53-7.28,21.94-7.66a5.66,5.66,0,0,0-7.68-8.32Z"/><path d="M287.19,188a22.71,22.71,0,0,0-17,5.9,33.66,33.66,0,0,0-5,5.63,5.66,5.66,0,1,0,9.35,6.38,23,23,0,0,1,3.32-3.7,11.28,11.28,0,0,1,8.48-2.92c33.35,2.58,72.12-10.66,73.75-11.23a5.66,5.66,0,1,0-3.7-10.7C356,177.44,318.22,190.36,287.19,188Z"/><path d="M303.2,160.63a5.66,5.66,0,0,0,11.15-2c-1.74-9.76-2.67-19.65-2.75-20.52l-1.67-27.78a5.67,5.67,0,1,0-11.31.69l1.68,27.84a.29.29,0,0,0,0,.09s0,0,0,.07C300.35,139.47,301.29,150,303.2,160.63Z"/><path d="M100.69,428a5.64,5.64,0,0,0,9.39-4.92,5.27,5.27,0,0,0,.11-.81c.67-16.66,4-47.63,18.72-67.87l0-.05a5.72,5.72,0,0,0,.37-.58A78.2,78.2,0,0,0,138.19,323a47.62,47.62,0,0,0,12.06,3.8,202.87,202.87,0,0,0,34.12,3c17.93,0,38.63-2.6,57.83-11.27a5.66,5.66,0,0,0-4.67-10.32c-31,14-66.77,10.68-85.35,7.46a35.41,35.41,0,0,1-18.41-9.14A89.57,89.57,0,0,1,112,274a5.66,5.66,0,0,0-10.75,3.53A99.17,99.17,0,0,0,126,314.77c.36.34.74.65,1.11,1,.09,5.23-.45,19.06-7.62,32.41-13.42,18.71-18.24,44.63-19.91,63.14a220.68,220.68,0,0,1-46.13-68.5c.05-.12.11-.24.16-.37,3.16-9.13,6.07-19.26,8.65-30.1a129.8,129.8,0,0,0,3.54-30.06V258.68c0-76.54,49.13-86,51.2-86.35l.26-.05c23.26-5,51.11-14.17,70.38-21a5.66,5.66,0,0,0-3.77-10.68c-18.93,6.69-46.24,15.67-68.89,20.56-1.81.33-16.29,3.31-30.67,16.31-13.61,12.31-29.84,36.38-29.84,81.18v23.58a118.22,118.22,0,0,1-3.23,27.44c-1.31,5.52-2.75,10.94-4.26,16.13A220.21,220.21,0,0,1,73.08,133a5.66,5.66,0,0,0-9.39-6.33,231.83,231.83,0,0,0,37,301.39Z"/><path d="M382.71,450.08a5.66,5.66,0,0,0-6.2-9.48c-2.13,1.4-4.29,2.75-6.46,4.07.76-19.31,2.07-37.73,3-48.33A27.16,27.16,0,0,1,376.75,385c1.65-2.78,3.33-5.77,5-8.87a5.66,5.66,0,1,0-10-5.36c-1.59,3-3.2,5.81-4.77,8.46a38.64,38.64,0,0,0-5.2,16.06c-1.08,11.91-2.61,33.57-3.31,55.37,0,.16,0,.31,0,.47a220.68,220.68,0,0,1-205.06,0,2.86,2.86,0,0,0,0-.42c-.72-24.56-2.38-45.29-3.31-55.45a38.49,38.49,0,0,0-5.2-16.06c-1.56-2.63-3.16-5.48-4.77-8.46a5.66,5.66,0,1,0-10,5.36c1.68,3.13,3.36,6.11,5,8.87a27.16,27.16,0,0,1,3.66,11.32c.84,9.13,2.27,26.91,3.06,48.32-.45-.27-.9-.52-1.34-.8a5.67,5.67,0,0,0-5.94,9.65,232,232,0,0,0,248-3.43Z"/><path d="M256,24.25A232,232,0,0,0,145.09,52.46a5.66,5.66,0,0,0,5.43,9.94,217.67,217.67,0,0,1,37-15.94c3.06,12.63,7,25.08,9.26,31.66a30.36,30.36,0,0,0,6.57,11.08l-2.95,48.88c0,.49-1,10.59-2.75,20.56a5.66,5.66,0,0,0,4.58,6.56,5.72,5.72,0,0,0,1,.09,5.65,5.65,0,0,0,5.57-4.67c1.91-10.67,2.85-21.15,2.89-21.59,0,0,0,0,0-.06a.36.36,0,0,0,0-.1l2.5-41.48c1.7,1,3.46,2.07,5.31,3.07a5.66,5.66,0,1,0,5.42-9.93A102.32,102.32,0,0,1,214.44,84a19.08,19.08,0,0,1-6.93-9.48c-2.18-6.5-6.15-18.88-9.12-31.28a220.47,220.47,0,0,1,115.22,0c-3,12.38-6.94,24.8-9.12,31.3A19,19,0,0,1,297.55,84c-10.6,7.64-24.26,13.42-33.86,16.92a22.39,22.39,0,0,1-11.58,1,5.66,5.66,0,0,0-2,11.15,33.86,33.86,0,0,0,17.43-1.53c10.27-3.75,24.95-10,36.6-18.37a30.34,30.34,0,0,0,11.06-15.07c2.2-6.57,6.2-19.05,9.25-31.65,88.12,28.87,152,111.88,152,209.53A220.46,220.46,0,0,1,465.06,326c-1.52-5.23-3-10.7-4.29-16.25a118.22,118.22,0,0,1-3.23-27.44V258.68c0-44.8-16.23-68.87-29.83-81.18-14.38-13-28.87-16-30.68-16.31-22.77-4.91-50.25-14-69.3-20.7A5.66,5.66,0,1,0,324,151.17c19.4,6.85,47.42,16.08,70.8,21.11l.27.05c.51.09,51.19,9.35,51.19,86.35v23.58a130.34,130.34,0,0,0,3.54,30.06c2.48,10.41,5.27,20.19,8.3,29.06a5.55,5.55,0,0,0,.64,1.29A218.47,218.47,0,0,1,442.8,373.1a5.65,5.65,0,0,0,1.78,7.8,5.58,5.58,0,0,0,3,.87,5.65,5.65,0,0,0,4.8-2.65A231.14,231.14,0,0,0,487.75,256C487.75,128.21,383.79,24.25,256,24.25Z"/><path d="M102,82.81l-2.2,2a5.66,5.66,0,0,0,7.64,8.36l2.09-1.88A5.66,5.66,0,0,0,102,82.81Z"/><path d="M261.66,360.74a5.66,5.66,0,0,0-11.32,0v28a5.66,5.66,0,0,0,11.32,0Z"/><path d="M256,410.25a5.66,5.66,0,0,0-5.66,5.66V434.3a5.66,5.66,0,0,0,11.32,0V415.91A5.66,5.66,0,0,0,256,410.25Z"/><path d="M261.66,231.35a5.66,5.66,0,0,0-11.32,0v60.53a5.66,5.66,0,0,0,11.32,0Z"/><path d="M278.76,129a5.67,5.67,0,0,0-7.78,1.9L257.37,153.3a3,3,0,0,1-4.84.38l-6.05-7.15a5.66,5.66,0,0,0-8.65,7.31l6,7.15a14.37,14.37,0,0,0,10.94,5.07c.37,0,.74,0,1.1,0a14.39,14.39,0,0,0,11.13-6.84l13.6-22.38A5.66,5.66,0,0,0,278.76,129Z"/></svg>