<svg id="icon" xmlns="http://www.w3.org/2000/svg" viewBox="0 0 512 512"><title>ear</title><path d="M413.52,278a5.67,5.67,0,0,0-6.58,4.57c-3.4,18.89,2.46,42.36,23.24,52.22A5.66,5.66,0,0,0,435,324.6c-16.42-7.8-19.39-26.41-16.94-40A5.68,5.68,0,0,0,413.52,278Z"/><path d="M329.17,91.17c-48.68-11.25-82.08,22.61-85,25.73a127.7,127.7,0,0,0-26.59,35.7h0c-13.06,24.11-21.56,50-23.91,72.89a5.66,5.66,0,0,0,5.05,6.21l.59,0a5.65,5.65,0,0,0,5.62-5.08c2.21-21.44,10.24-45.82,22.61-68.66a.36.36,0,0,1,0-.07l0-.05A116.5,116.5,0,0,1,252,125.07c.11-.1.22-.2.32-.31.3-.33,30.72-32.63,74.32-22.55,29.11,6.72,52,29.43,59.84,59.27C402,221,396.91,276.41,370.86,331.06c-.27.58-27.59,57.88-75.72,78.18-28.13,11.85-59.45,6-79.82-14.81-12.9-13.21-19.31-30.2-19-50.5,0,0,0-.05,0-.07s0-.05,0-.07-.14-11.33-.05-29.31a5.66,5.66,0,0,0-5.63-5.7h0a5.67,5.67,0,0,0-5.66,5.64c-.09,17.1,0,28.12,0,29.37a228.52,228.52,0,0,1-10.71,58.07A5.66,5.66,0,1,0,185,405.42a221.44,221.44,0,0,0,6.81-25.81,76.18,76.18,0,0,0,15.44,22.73,81,81,0,0,0,58.28,24.3,87.57,87.57,0,0,0,34-7c52.09-22,80.4-81.28,81.56-83.77,27.23-57.13,32.56-115.12,16.31-177.29C388.54,124.69,362.4,98.85,329.17,91.17Z"/><path d="M62.24,139.29a5.66,5.66,0,0,0,7.82-1.73c2.62-4.1,5.4-8.13,8.3-12.07,4.36,19.3,15.43,48.16,43.51,65.94a5.6,5.6,0,0,0,3,.88,5.66,5.66,0,0,0,3-10.44c-31.36-19.86-38.82-56-40.57-70.6a5.57,5.57,0,0,0-.19-.83s0-.07,0-.1a6.07,6.07,0,0,0-.38-1l0-.06a5.51,5.51,0,0,0-.6-.91h0a5.65,5.65,0,0,0-4.77-2.09h-.19a.48.48,0,0,1-.12,0,6.42,6.42,0,0,0-.63.15,2.33,2.33,0,0,0-.36.08,5,5,0,0,0-.64.26A3.29,3.29,0,0,0,79,107a6.22,6.22,0,0,0-.54.35,4.73,4.73,0,0,0-.39.28,5.93,5.93,0,0,0-.44.43c-.1.11-.21.19-.31.31a235.37,235.37,0,0,0-16.85,23.12A5.66,5.66,0,0,0,62.24,139.29Z"/><path d="M145.84,459.85a5.28,5.28,0,0,0,1.44.77A232.1,232.1,0,0,0,323.7,477.71a5.66,5.66,0,1,0-3.3-10.83A220.8,220.8,0,0,1,158.59,453.7a109.85,109.85,0,0,0,10.51-14,5.66,5.66,0,0,0-9.56-6.07,96,96,0,0,1-11.3,14.59C81.05,410.42,35.57,338.43,35.57,256A219.09,219.09,0,0,1,53,169.88a5.66,5.66,0,0,0-10.42-4.43A230.34,230.34,0,0,0,24.25,256C24.25,343.94,73.48,420.6,145.84,459.85Z"/><path d="M256,24.25a229.69,229.69,0,0,0-140,47,5.66,5.66,0,1,0,6.85,9A218.45,218.45,0,0,1,256,35.57c121.55,0,220.43,98.88,220.43,220.43a221,221,0,0,1-10.82,68.66c-7.95-2-21.15-8.19-22.93-27.38a5.66,5.66,0,0,0-11.28,1c2,21.91,16,33.16,30.4,37.07a219.45,219.45,0,0,1-54,80.48,5.66,5.66,0,1,0,7.8,8.21A229.67,229.67,0,0,0,487.75,256C487.75,128.21,383.79,24.25,256,24.25Z"/><path d="M136.56,256.75a5.67,5.67,0,0,0,7.94-1c14.64-18.76,9.86-40.57,9.65-41.49a5.66,5.66,0,0,0-11,2.53c0,.17,3.82,17.43-7.54,32A5.67,5.67,0,0,0,136.56,256.75Z"/><path d="M172.24,215.75h0a5.65,5.65,0,0,0-5.66,5.65c0,.24-.17,23.5-12.68,39.89a5.66,5.66,0,0,0,9,6.88c14.82-19.4,15-45.65,15-46.76A5.66,5.66,0,0,0,172.24,215.75Z"/><path d="M185,245c0,.15-1.92,15.83-11.36,26.15a5.66,5.66,0,1,0,8.35,7.65c11.89-13,14.17-31.72,14.26-32.51A5.66,5.66,0,1,0,185,245Z"/><path d="M364.12,190.85a5.66,5.66,0,1,0,11.19-1.72A104.77,104.77,0,0,0,367.36,162a63.66,63.66,0,0,0-60.47-38.15,62.86,62.86,0,0,0-57.83,40.55c-.83,2.13-1.31,3.65-1.52,4.33C227,219,271.54,243.55,272,243.79a5.66,5.66,0,0,0,5.35-10c-1.48-.8-36.11-20.14-19.21-61.05a5.53,5.53,0,0,0,.22-.65s.39-1.38,1.25-3.58a51.71,51.71,0,0,1,47.57-33.36A52.49,52.49,0,0,1,357,166.64,94.13,94.13,0,0,1,364.12,190.85Z"/><path d="M324.57,272a5.66,5.66,0,0,0-7.06,3.77c-.27.9-.55,1.8-.85,2.72a5.65,5.65,0,0,0,3.65,7.12,5.55,5.55,0,0,0,1.74.28,5.68,5.68,0,0,0,5.39-3.93c.31-1,.61-1.94.91-2.9A5.67,5.67,0,0,0,324.57,272Z"/><path d="M334.35,247.71c4.11-66.53-58.36-75.09-59-75.17a5.66,5.66,0,1,0-1.4,11.23,66.28,66.28,0,0,1,26,10.42C316.72,205.66,324.5,223.44,323,247a5.66,5.66,0,0,0,5.31,6h.35A5.67,5.67,0,0,0,334.35,247.71Z"/><path d="M221.48,336.75a5.66,5.66,0,0,0,9.6,6c0-.06,3.94-6.29,9.25-13.43a29.86,29.86,0,0,0,1.48-33.55l-.24-.37c-4.23-6.53-4.09-14.6.35-20.07a23.78,23.78,0,0,1,8.34-6.31,20.78,20.78,0,0,1,18.74.05,19.51,19.51,0,0,1,8.38,8.37,19.82,19.82,0,0,1-.7,18.88c-3.17,5.34-8.11,8.84-14.68,10.43a5.66,5.66,0,0,0,2.65,11c9.52-2.3,17.05-7.71,21.77-15.67a31.17,31.17,0,0,0,1.05-29.77,30.48,30.48,0,0,0-13.11-13.22,32.11,32.11,0,0,0-29-.29,35.17,35.17,0,0,0-12.24,9.38c-7.53,9.3-8,22.7-1.05,33.36l.16.26a18.5,18.5,0,0,1-1,20.76C225.65,330.09,221.65,336.48,221.48,336.75Z"/><path d="M232.71,356.75a5.65,5.65,0,0,0,1.41,7.88,5.59,5.59,0,0,0,3.23,1,5.67,5.67,0,0,0,4.65-2.42c.09-.13,10-11.72,44.41-2.86,12.39,3.19,24,1.61,34.43-4.7,25.85-15.59,35.43-54.9,35.83-56.56a5.66,5.66,0,1,0-11-2.62c-.08.36-8.91,36.39-30.68,49.5-7.86,4.73-16.28,5.85-25.73,3.42C246.87,338.5,234,354.85,232.71,356.75Z"/></svg>