<svg id="icon" xmlns="http://www.w3.org/2000/svg" viewBox="0 0 512 512"><title>face female</title><path d="M103.62,94.63a5.67,5.67,0,0,0,3.82-1.48c.69-.63,1.38-1.26,2.08-1.88A5.66,5.66,0,0,0,102,82.81l-2.2,2a5.66,5.66,0,0,0,3.82,9.84Z"/><path d="M256,487.75c5.57,0,11.2-.2,16.73-.59a5.66,5.66,0,1,0-.8-11.29c-5.27.37-10.62.56-15.93.56-5.47,0-10.9-.21-16.27-.6,8-8.24,12.11-17.26,12.11-26.58v-7.7a5.66,5.66,0,0,0-11.32,0v7.7c0,10.5-8.34,19.16-16,24.92C117.82,458.83,35.57,366.85,35.57,256A219.31,219.31,0,0,1,73.08,133a5.66,5.66,0,0,0-9.39-6.33A230.55,230.55,0,0,0,24.25,256C24.25,383.79,128.21,487.75,256,487.75Z"/><path d="M256,24.25A232,232,0,0,0,145.09,52.46a5.66,5.66,0,0,0,5.43,9.94A220.7,220.7,0,0,1,256,35.57c121.55,0,220.43,98.88,220.43,220.43,0,81.07-45.33,155.64-115.34,193.8a50.24,50.24,0,0,1-14.93-17,53.3,53.3,0,0,1-6.53-24.78l-1.14-48a5.66,5.66,0,0,0-11.32.27l1.14,48a64.65,64.65,0,0,0,8,30A62.93,62.93,0,0,0,350,455.44q-7.74,3.66-15.84,6.74a5.66,5.66,0,1,0,4,10.59A231.86,231.86,0,0,0,487.75,256C487.75,128.21,383.79,24.25,256,24.25Z"/><path d="M393.46,394.39a5.66,5.66,0,1,0,11.31-.49l-7.68-177.81a1.21,1.21,0,0,1,0-.19c-.23-3-6.38-74.3-69.75-107.71-24.66-13-54.1-17.09-82.88-11.53C223.06,100.8,204.85,108,190.3,118a93.8,93.8,0,0,0-36.75,18.18c-17.15,13.75-37.61,40.31-37.61,88.7,0,.12,0,.24,0,.36l12.49,193.61a5.65,5.65,0,0,0,5.64,5.29h.37a5.66,5.66,0,0,0,5.29-6L127.27,224.72c0-34.93,11.12-61.63,33-79.36a82,82,0,0,1,33.31-16.45,5.6,5.6,0,0,0,2.31-1c13.38-9.46,30.46-16.24,50.75-20.17,26.26-5.08,53.06-1.38,75.45,10.43,56.89,30,63.5,95.92,63.73,98.48Z"/><path d="M276.16,252.82a5.33,5.33,0,0,0,1,.1,5.66,5.66,0,0,0,1-11.23c-24.61-4.62-35-27.66-35.08-27.89a5.66,5.66,0,0,0-10.39,4.5C233.29,219.47,245.51,247.07,276.16,252.82Z"/><path d="M201.65,172.2a5.68,5.68,0,0,0-5.12-.87c-65.75,21-49.25,125.61-48.27,131.48,7.44,56.6,28.53,88.3,44.92,104.92a61.17,61.17,0,0,0,80.63,5c30.28-24,41.65-56.13,45.23-69.35,23.09,4.79,36.9-11,41.32-21,8.94-15.41,11.75-29.18,8.35-40.94a25.62,25.62,0,0,0-27.17-18.55,24.57,24.57,0,0,0-13.22,5.51,47.08,47.08,0,0,0-22.07-29.77l-.29-.14c-18.88-8.61-18.3-22.27-18.26-23a5.66,5.66,0,0,0-11.28-1c-.08.9-1.69,22,24.65,34.15,1.53.86,19.69,11.67,16.8,36h0c-.07.54-.65,4.93-1.65,11.57a5.67,5.67,0,0,0,4.76,6.44,6.07,6.07,0,0,0,.85.06,5.66,5.66,0,0,0,5.59-4.81c.88-5.84,1.43-9.9,1.61-11.32.7-2,4.49-11.51,13.69-12.48a14.5,14.5,0,0,1,15.12,10.44c2.49,8.61-.08,19.81-7.43,32.37a6,6,0,0,0-.31.62c-.9,2.05-8.85,18.71-28.62,14.73q.63-3.19,1.25-6.51a5.66,5.66,0,1,0-11.13-2.09c-.74,4-1.51,7.86-2.27,11.53v.08a.14.14,0,0,0,0,.07c-.08.4-7.64,40.82-42.53,68.47a49.87,49.87,0,0,1-65.54-4.12c-15.18-15.4-34.75-45-41.77-98.55l0-.21c-.16-1-14.95-92.2,33.47-116.06,1.29,15.78,7.58,49.14,37.21,60.6A5.66,5.66,0,0,0,234.21,235c-31-12-30.31-57.67-30.3-58.12A5.66,5.66,0,0,0,201.65,172.2Z"/></svg>