<svg id="icon" xmlns="http://www.w3.org/2000/svg" viewBox="0 0 512 512"><title>face male</title><path d="M103.62,94.63a5.67,5.67,0,0,0,3.82-1.48c.69-.63,1.38-1.26,2.08-1.88A5.66,5.66,0,0,0,102,82.81l-2.2,2a5.66,5.66,0,0,0,3.82,9.84Z"/><path d="M110.39,236.67a46,46,0,0,0,8.37,11.14,161.73,161.73,0,0,1,18,21.25v61.08A64.91,64.91,0,0,0,156.1,376.2c14,13.74,33.38,34.26,46.26,54a19.92,19.92,0,0,0,16.75,9h30.16a33,33,0,0,0,23.41-9.65c25-24.9,41.15-47.16,48-66.27,13.82,1.3,35.91-2.11,45.63-22.87.63-1.4,14.33-32.53-1.66-52.42,4.4-6.88,12-22.33,13.61-48.84,0-.05,0-.1,0-.15,0-.21,0-.41,0-.62a4,4,0,0,0-.05-.5,4.72,4.72,0,0,0-.13-.54,4.81,4.81,0,0,0-.16-.54c-.06-.16-.14-.3-.21-.45a5.93,5.93,0,0,0-.29-.56s0-.09-.07-.13c-.47-.71-11.87-17.39-36.54-19.72a57.1,57.1,0,0,0-10,0c-15.22,1.2-27.8-.32-32-3.85a5.66,5.66,0,0,0-9.24,5.05,34,34,0,0,0,5,13,2.19,2.19,0,0,1,.06,2.3,2.47,2.47,0,0,1-2.19,1.28h0a45.92,45.92,0,0,1-17.62-3.31,5.06,5.06,0,0,0-.73-.38c-11.14-4.44-19.6-11.56-23.22-19.54a5.66,5.66,0,1,0-10.31,4.68c6.17,13.61,19.38,21.14,27.71,24.71l.11.06a56,56,0,0,0,24,5.11h.08A13.81,13.81,0,0,0,304.49,238a13.36,13.36,0,0,0,.81-11.47c9.05,1.69,19.44,1.36,26.36.82a46.8,46.8,0,0,1,8,0c15.49,1.46,24.16,9.9,27.08,13.33-1.73,22.64-8.12,35.64-11.51,41.06-9.22-3.08-17.49-2.7-24.64,1.15-6.36,3.42-10.62,9.05-13.42,14.4a73.81,73.81,0,0,0-15.73-16c-10.7-7.59-18.09-16.72-22-27.16A5.66,5.66,0,1,0,268.89,258c4.68,12.61,13.44,23.53,26,32.44,4.18,3,15.48,13,17.43,22.76a5.65,5.65,0,0,0,5.55,4.54h.06a5.66,5.66,0,0,0,5.52-4.67c0-.15,2.8-15,12.58-20.27,4.81-2.58,10.91-2.36,18.11.58,14.21,14.14,1.94,42.2,1.85,42.4-7.48,16-24.71,17-33.22,16.37l.75-9.86a5.66,5.66,0,0,0-11.29-.86L311.12,356c-3.7,12.62-14.78,34.1-46.42,65.55A21.74,21.74,0,0,1,249.27,428H219.11a8.61,8.61,0,0,1-7.26-3.91c-13.44-20.62-33.43-41.79-47.82-55.92a53.55,53.55,0,0,1-16-38V269.42a146,146,0,0,1,2-24.71,5.66,5.66,0,0,0-11.16-1.93c-.5,2.89-.88,5.88-1.2,8.93-4.32-5.16-8.32-9.33-10.92-11.92a34.67,34.67,0,0,1-6.34-8.39C98.11,189,138,156.46,139.69,155.1a5.7,5.7,0,0,0,1.89-2.76c6.53-21.09,25.32-37.38,55.85-48.43a171.73,171.73,0,0,1,104.05-4.27c39.56,10.76,66.78,33.57,80.9,67.81a125.48,125.48,0,0,1,9.5,49.08c-.29,5-1.28,9.05-2.93,12a5.66,5.66,0,0,0,9.85,5.59c2.51-4.43,4-10.12,4.38-16.89.06-1,1.33-25.47-10.15-53.6-10.63-26.06-34.63-60.21-88.58-74.88a183,183,0,0,0-110.88,4.55c-32.82,11.89-54.32,30.58-62.3,54.14C123.49,154.32,86.27,190.8,110.39,236.67Z"/><path d="M190.41,233.49c-10.29.57-40.94-5.49-46.56-39.58a5.67,5.67,0,0,0-11.18,1.85c6.69,40.55,42.35,49.08,56.66,49.08.6,0,1.17,0,1.7,0a5.66,5.66,0,0,0-.62-11.31Z"/><path d="M235.75,243.5c1.62,0,3-.07,4-.15a5.66,5.66,0,1,0-.84-11.29c-5.51.41-24.32.56-34.81-14.71a5.66,5.66,0,1,0-9.33,6.41C206.67,241.11,226,243.5,235.75,243.5Z"/><path d="M209.38,483a5.28,5.28,0,0,0,.81.16A232.06,232.06,0,0,0,256,487.75a5.66,5.66,0,1,0,0-11.32,221.49,221.49,0,0,1-34.67-2.73c2.5-4.41,4.9-10.77,5.94-19.73A5.66,5.66,0,0,0,216,452.68c-1.26,10.92-4.84,16.43-6.82,18.73C110.06,449.9,35.57,361.49,35.57,256A219.31,219.31,0,0,1,73.08,133a5.66,5.66,0,0,0-9.39-6.33A230.55,230.55,0,0,0,24.25,256C24.25,367.82,103.86,461.41,209.38,483Z"/><path d="M256,24.25A232.05,232.05,0,0,0,145.09,52.46a5.66,5.66,0,0,0,5.43,9.94A220.7,220.7,0,0,1,256,35.57c121.55,0,220.43,98.88,220.43,220.43,0,79.33-41.33,150.09-106.84,189.14-25.65-4.52-28.86-43.92-28.45-67.32a5.66,5.66,0,1,0-11.32-.21c-.7,39.62,8.39,65.1,26.45,74.85A223.59,223.59,0,0,1,320.12,467,5.66,5.66,0,0,0,321.76,478a5.54,5.54,0,0,0,1.65-.24,230,230,0,0,0,49.25-21.59,5.47,5.47,0,0,0,1.19-.7,234,234,0,0,0,67.4-60.23A229.76,229.76,0,0,0,487.75,256C487.75,128.21,383.79,24.25,256,24.25Z"/></svg>