<svg id="icon" xmlns="http://www.w3.org/2000/svg" viewBox="0 0 512 512"><title>foot</title><path d="M232.38,383.87a5.66,5.66,0,0,0-10.24,4.84,1.89,1.89,0,0,1,.11.25,5.67,5.67,0,0,0,5.24,3.52,5.55,5.55,0,0,0,2.14-.42,5.66,5.66,0,0,0,3.11-7.38Z"/><path d="M220.85,399.07a6.43,6.43,0,0,1-4.49,1.91,60.07,60.07,0,0,1-11.54-1.14,6.74,6.74,0,0,1-5.44-7.47l0-.15a6.85,6.85,0,0,1,6.16-6c1.64-.16,3.44-.25,5.37-.28a5.66,5.66,0,0,0-.08-11.32h-.08c-2.24,0-4.35.14-6.3.33a18.11,18.11,0,0,0-16.31,15.91l0,.16a18.07,18.07,0,0,0,14.6,20,72,72,0,0,0,13.2,1.34h.54a17.63,17.63,0,0,0,12.41-5.25,5.66,5.66,0,1,0-8-8Z"/><path d="M256,24.25A232.05,232.05,0,0,0,145.09,52.46a5.66,5.66,0,0,0,5.43,9.94,218.12,218.12,0,0,1,41.33-17.29c1.62,14.93,4.08,40.34,5.6,69.09a2.58,2.58,0,0,0,.15,1.12c.12,1.06.51,7.37-3.65,24-5.38,21.51-7.67,34.1,3.83,61.29.58,6.46,3.85,51.75-11.37,108.66-1.92,3.82-10.94,23.52-10.24,54.81l-2.53,32.09a36.5,36.5,0,0,0,42.27,39.14l1-.16a40.68,40.68,0,0,0,33.27-39.58,125.2,125.2,0,0,0-2.43-25.77.13.13,0,0,1,0-.06,4.62,4.62,0,0,1,2.75.27,2.31,2.31,0,0,1,1.35,1.07c1.53,7,4.12,20.25,4.2,30.36a23.82,23.82,0,0,0,4.89,14.64c5.11,6.51,12.86,9.39,21.82,8.11l.49-.09a22.51,22.51,0,0,0,13.72-11,27.11,27.11,0,0,0,14.9,0c6.59-2,12.12-6.54,16.52-13.55.1-.14.19-.29.28-.44s.28-.42.41-.64c4.35-.3,11.54-1.66,17.48-7,5.1-4.56,8.19-10.93,9.22-19,5-.37,12.1-1.92,17.31-7.24,5.06-5.16,7-12.43,5.79-21.6a42.13,42.13,0,0,0-4.91-14.66c-4-7.39-12-22-20.7-37.09-1.56-4-15.52-40.87-25.41-91.58a113.81,113.81,0,0,1-2.1-20.88L325.49,150a51,51,0,0,0-4.9-21.44c-3.29-7-6.28-12.74-8.87-17a24.78,24.78,0,0,1-3.49-12.19c-.31-13.22-.75-37.57-.37-57.54C404.46,65.13,476.43,152.31,476.43,256c0,121.55-98.88,220.43-220.43,220.43S35.57,377.55,35.57,256A219.31,219.31,0,0,1,73.08,133a5.66,5.66,0,0,0-9.39-6.33A230.58,230.58,0,0,0,24.25,256c0,127.79,104,231.75,231.75,231.75S487.75,383.79,487.75,256,383.79,24.25,256,24.25Zm40.91,75.32a36.27,36.27,0,0,0,5.1,17.75c2.37,3.93,5.25,9.47,8.34,16a39.75,39.75,0,0,1,3.81,16.71l.24,29.53a125.88,125.88,0,0,0,2.3,23c10.64,54.53,25.51,92.36,26.14,93.94a5.06,5.06,0,0,0,.36.74c8.3,14.46,16,28.52,20.23,36.21a8.94,8.94,0,0,1-5,4.61,5.66,5.66,0,0,0,1.65,11.08,5.82,5.82,0,0,0,1.59-.23,19.06,19.06,0,0,0,6-3.19c.61,5.26-.28,9.18-2.67,11.65-2.56,2.63-6.72,3.59-10,3.87-3.64-13-13.4-21.63-13.86-22a5.66,5.66,0,1,0-7.44,8.53,41.66,41.66,0,0,1,7.35,9.39c-1.35,3-5.83,3.88-6,3.91a5.66,5.66,0,0,0,.93,11.25,5.42,5.42,0,0,0,.89-.07,22,22,0,0,0,7.8-2.95c-.46,6.13-2.36,10.75-5.65,13.74a17,17,0,0,1-8.76,4,49.82,49.82,0,0,0-12.61-33,5.66,5.66,0,0,0-8.06,7.95,36.58,36.58,0,0,1,7.12,12.3,15.43,15.43,0,0,1-8.54,4.35,5.66,5.66,0,0,0,.53,11.3l.49,0a26.94,26.94,0,0,0,9.74-3.25,40.55,40.55,0,0,1-.61,7.58c-2.78,4.2-6,6.9-9.65,8a15.79,15.79,0,0,1-8.94-.07A55.68,55.68,0,0,0,297.2,382a147.48,147.48,0,0,1-5.21-20.1,5.66,5.66,0,0,0-11.16,1.94,158.54,158.54,0,0,0,5.67,21.86c.14.4.26.8.38,1.2-4.33,3.19-10.24,3.15-10.38,3.16a5.66,5.66,0,0,0-.31,11.32h.45a31.58,31.58,0,0,0,11.86-2.46,49.75,49.75,0,0,1-.3,5.8,11.71,11.71,0,0,1-7.41,8.36c-4.83.62-8.42-.67-11-3.92a12.76,12.76,0,0,1-2.49-7.75c-.09-11.14-2.83-25.27-4.46-32.7-1.5-6.8-8.3-10.34-14.3-10.34h-.14c-6.11,0-10.75,3.57-11.85,9.08a11.87,11.87,0,0,0,0,4.6,112.87,112.87,0,0,1,2.21,23.41A29.32,29.32,0,0,1,214.88,424l-.78.14a25,25,0,0,1-21-6.34,25.34,25.34,0,0,1-8.14-20.74l2.55-32.37a5.82,5.82,0,0,0,0-.59c-.76-31.18,9.1-49.89,9.19-50.06a5.55,5.55,0,0,0,.5-1.24c17.15-63.68,12-112.2,11.77-114.24a5.56,5.56,0,0,0-.42-1.6c-10.5-24.5-8.69-34.54-3.61-54.9,4.62-18.46,4.28-26.17,3.8-28.89-1.59-30-4.2-56.44-5.82-71.14a220.59,220.59,0,0,1,93.67-2.73C296.12,59.91,296.59,85.76,296.91,99.57Z"/><path d="M107.44,93.15l2.09-1.88A5.66,5.66,0,0,0,102,82.81l-2.2,2a5.66,5.66,0,0,0,7.64,8.36Z"/></svg>