<svg id="icon" xmlns="http://www.w3.org/2000/svg" viewBox="0 0 512 512"><title>hand female</title><path d="M189.67,362.33a.56.56,0,0,0,0,.12l-.06.11a99.38,99.38,0,0,0-4.67,19.14,5.67,5.67,0,0,0,4.83,6.39,7.13,7.13,0,0,0,.79.05,5.66,5.66,0,0,0,5.6-4.88,88.67,88.67,0,0,1,4-16.63c.82-1.95,8.69-20.81,12.76-40.1A79.84,79.84,0,0,0,214.44,306c-1.13-22.35-6.85-134.78-7.94-153.39v-.06h0v0c0-.69.22-4.24,4.63-7.25a5.62,5.62,0,0,0,2.48-4.72l-.11-15.78a4.72,4.72,0,0,1,9.44-.13l1.26,28.13-.31,1.38a5.39,5.39,0,0,1-3.66,4.16,4.31,4.31,0,0,1-1.48.14,5.66,5.66,0,0,0-1.07,11.27,13.88,13.88,0,0,0,1.44.07,15.7,15.7,0,0,0,4-.54,16,16,0,0,0,5.72-2.89,53.22,53.22,0,0,1,1.05,9.31c.08,2.65.3,5.23.52,7.63,1.85,19.63,7.08,67.87,15.93,93a69.9,69.9,0,0,0,4.53,12.65,5.66,5.66,0,0,0,10.18-5,59.08,59.08,0,0,1-3.76-10.58c0-.1-.07-.19-.1-.29s0-.2-.08-.3c-8.72-24.47-14-75.48-15.43-90.53-.2-2.21-.4-4.57-.47-6.9-.37-12.91-3.92-20.64-5.78-23.84l-1.22-27.32a16,16,0,0,0-32.07.63l.09,13c-6.05,5.35-7.34,12-7.07,15.5,1.1,18.75,6.8,130.92,7.93,153.24a68.39,68.39,0,0,1-1.31,17.59C197.85,343,189.75,362.14,189.67,362.33Z"/><path d="M257.89,257.64a5.66,5.66,0,1,0,10.62,3.93c4.42-11.94,7.15-29.17,8.12-51.21V117.74c0-.15,0-.3,0-.45s-.27-5.37,3.1-8.94a5.66,5.66,0,0,0,1.55-3.89V87a5.31,5.31,0,1,1,10.61,0v18.43a5.57,5.57,0,0,0-.65,2.3l-.21,3.42a4.09,4.09,0,0,1-4.08,3.84,5.66,5.66,0,0,0,0,11.32,15.37,15.37,0,0,0,10-3.75c.07.85.13,1.72.15,2.64L299,250.66c0,.2,0,1.3.09,2.59,0,2.06.45,20.45,11.64,31.36a5.66,5.66,0,1,0,7.91-8.11c-6-5.88-7.65-15.81-8.07-20.61a6.15,6.15,0,0,0,0-1.42,37.27,37.27,0,0,1-.23-4L308.45,125c-.26-10.75-3.48-17.84-5.25-20.94V87A16.63,16.63,0,1,0,270,87V102.4a24.84,24.84,0,0,0-4.64,15.52V210C264.39,230.79,261.89,246.82,257.89,257.64Z"/><path d="M354.83,99.82a16.24,16.24,0,0,0-17,15,.92.92,0,0,0,0,.16l-.39,7.72c-6.66,5.85-7,16.56-6.95,18.92-.36,4.77-5.63,73.11-8,93.44a83.51,83.51,0,0,1-3.26,15.58A5.66,5.66,0,1,0,330,254.11a95.36,95.36,0,0,0,3.72-17.71c2.45-21.18,7.82-91.16,8.05-94.13a5.43,5.43,0,0,0,0-.57c-.08-3.08.94-9.44,3.75-10.91a5.66,5.66,0,0,0,3-4.73l.52-10.38a5,5,0,0,1,8.68-2.92,5.08,5.08,0,0,1,1.3,3.68l-.84,21.68a5.73,5.73,0,0,1-4.53.81,5.66,5.66,0,0,0-2.75,11,16.81,16.81,0,0,0,4.13.51,17,17,0,0,0,2.68-.24l-.11,2.79c-.22,4.2-5.2,102.74-1.54,130.52.06,1.37.4,9.75.22,18.47a5.66,5.66,0,0,0,5.54,5.78H362a5.66,5.66,0,0,0,5.66-5.55c.2-9.87-.22-19.06-.24-19.44,0-.09,0-.17,0-.25s0-.17,0-.26C363.81,255.9,369,154.58,369,153.49l.45-11.63a5.65,5.65,0,0,0,.09-2.28l.88-22.65a16.34,16.34,0,0,0-15.59-17.11Z"/><path d="M372.41,367.75c12.58-24.91,24.77-58,29.43-71,1-2.75,1.85-5.61,2.58-8.48l8.57-34c7.89-28,10.1-41.39,10.55-44.53a10.77,10.77,0,0,0,.5-1.74l5.77-19.09a14.22,14.22,0,0,0-26.67-9.79l-4.83,10.48c-10.33,8.94-14.87,31.81-15.49,35.18-3.56,15-7.68,27.53-12.23,37.09a5.66,5.66,0,1,0,10.22,4.87c4.91-10.32,9.31-23.61,13.07-39.5l.06-.29c1.64-9,6.42-25,12.25-29.16a5.62,5.62,0,0,0,1.84-2.23l5.43-11.78a1.67,1.67,0,0,0,.08-.2,2.9,2.9,0,0,1,5.44,2l-6.16,20.39a5.06,5.06,0,0,1-2.64,1.7,5.66,5.66,0,0,0-4.29,10.48,10.27,10.27,0,0,0,4.17.85h.2c-1.53,7.06-4.06,17.61-8.19,32.27,0,0,0,.1,0,.15l-8.59,34.1c-.64,2.53-1.4,5-2.26,7.45-3.58,10-16.24,44.72-28.88,69.74-.72,1.42-17.69,35.24-22.73,59.8a2.87,2.87,0,0,0-.05.31A271.58,271.58,0,0,0,337.11,461c-3.47,1.37-7,2.69-10.49,3.88a5.66,5.66,0,0,0,1.81,11,5.72,5.72,0,0,0,1.81-.3c5-1.68,9.94-3.56,14.78-5.57a12.07,12.07,0,0,0,3.43-7.81,264.67,264.67,0,0,1,2.25-37.67C355.47,401.49,372.24,368.08,372.41,367.75Z"/><path d="M256,487.75a234.43,234.43,0,0,0,33.75-2.44,5.66,5.66,0,1,0-1.63-11.2A223.36,223.36,0,0,1,256,476.43a220.84,220.84,0,0,1-38.39-3.35,77.54,77.54,0,0,0-24.37-40.45l-37.38-31.7a60.45,60.45,0,0,1-13.91-17c-3.88-7-9.67-17.72-15.26-28.84a63.09,63.09,0,0,0-9.12-13.49L82.49,302a2.49,2.49,0,0,1-.62-1.91A2.51,2.51,0,0,1,86,298.46L95.7,307a4.76,4.76,0,0,0,.68.5,5.5,5.5,0,0,0,.74.87,20.91,20.91,0,0,1,5.73,9.78,5.67,5.67,0,0,0,5.47,4.25,5.9,5.9,0,0,0,1.43-.18,5.67,5.67,0,0,0,4.06-6.9,32.15,32.15,0,0,0-2.8-7.12c7.77,1.4,18.74,6.42,28.36,22.16a94.35,94.35,0,0,0,33.14,31.24,5.66,5.66,0,1,0,5.55-9.86,84.57,84.57,0,0,1-29-27.18c-17.48-28.61-39.73-28.9-48-27.86L93.52,290A13.84,13.84,0,0,0,74,309.53L109.1,349.1a51.71,51.71,0,0,1,7.47,11.07c5.68,11.28,11.54,22.12,15.46,29.22a71.91,71.91,0,0,0,16.5,20.17l37.3,31.63a65.27,65.27,0,0,1,19.32,29.31C108,447.48,35.57,360.05,35.57,256A219.31,219.31,0,0,1,73.08,133a5.66,5.66,0,0,0-9.39-6.33A230.55,230.55,0,0,0,24.25,256C24.25,383.79,128.21,487.75,256,487.75Z"/><path d="M256,24.25A232,232,0,0,0,145.09,52.46a5.66,5.66,0,0,0,5.43,9.94A220.7,220.7,0,0,1,256,35.57c121.55,0,220.43,98.88,220.43,220.43a218.46,218.46,0,0,1-68.95,160.14,5.66,5.66,0,1,0,7.78,8.22A229.63,229.63,0,0,0,487.75,256C487.75,128.21,383.79,24.25,256,24.25Z"/><path d="M102,82.81c-.74.66-1.47,1.31-2.2,2a5.66,5.66,0,0,0,7.64,8.36l2.09-1.88A5.66,5.66,0,0,0,102,82.81Z"/><path d="M262.19,327a4.68,4.68,0,0,0,.74,0,5.67,5.67,0,0,0,5.61-4.93A39.75,39.75,0,0,0,268,309a5.66,5.66,0,0,0-11.09,2.3,28.53,28.53,0,0,1,.37,9.37A5.66,5.66,0,0,0,262.19,327Z"/><path d="M324.7,321.16l.57,0a5.67,5.67,0,0,0,5.63-5.1,23.66,23.66,0,0,0-1-9.45,5.66,5.66,0,1,0-10.78,3.45,12.25,12.25,0,0,1,.51,4.87A5.67,5.67,0,0,0,324.7,321.16Z"/></svg>