<svg id="icon" xmlns="http://www.w3.org/2000/svg" viewBox="0 0 512 512"><title>hand</title><path d="M379,104.84a21.76,21.76,0,0,0-43.52-.29c-.9,36.21-7.11,93.44-10.73,124.33a5.66,5.66,0,1,0,11.24,1.32c3.65-31.09,9.9-88.71,10.81-125.37a10.44,10.44,0,0,1,20.88.13c.29,29,.34,103.27-5.65,166a.22.22,0,0,0,0,.08.24.24,0,0,1,0,.08,118.34,118.34,0,0,0,0,13.52,5.66,5.66,0,0,0,5.65,5.28H368a5.66,5.66,0,0,0,5.27-6,104.57,104.57,0,0,1,0-11.94C379.29,208.69,379.25,134,379,104.84Z"/><path d="M387.57,305.28a5.2,5.2,0,0,0-.17.68,588.49,588.49,0,0,1-23.88,83c-6.47,17.24-10.74,39.49-12.7,66.12-5.71,2.72-11.57,5.23-17.47,7.44a5.66,5.66,0,0,0,2,11,5.59,5.59,0,0,0,2-.36,232,232,0,0,0,21.42-9.29,5.64,5.64,0,0,0,3.05-6,5.21,5.21,0,0,0,.25-1.26c1.87-25.87,5.93-47.29,12.07-63.68a600.5,600.5,0,0,0,24.32-84.41c10.67-32.57,25.67-90.91,31.64-114.54a19.39,19.39,0,1,0-37.62-9.41A399.7,399.7,0,0,1,379.61,226a5.66,5.66,0,0,0,10.64,3.88,414.78,414.78,0,0,0,13.2-42.65,8.06,8.06,0,0,1,9.74-5.88,8.07,8.07,0,0,1,5.91,9.8C413.14,214.76,398.14,273.11,387.57,305.28Z"/><path d="M257.13,288.21a5.66,5.66,0,0,0-4.85,6.37,34.25,34.25,0,0,1-1.66,13.4,5.66,5.66,0,0,0,3.6,7.15,5.53,5.53,0,0,0,1.78.29,5.66,5.66,0,0,0,5.38-3.88,45.39,45.39,0,0,0,2.12-18.47A5.67,5.67,0,0,0,257.13,288.21Z"/><path d="M306.6,296.42a16.27,16.27,0,0,0-.26,3.31c-.07,3.22-.2,9.21-1.83,14.11a5.66,5.66,0,0,0,10.74,3.58c2.18-6.52,2.34-13.9,2.41-17.44,0-.58,0-1.05,0-1.36a5.66,5.66,0,0,0-11.1-2.2Z"/><path d="M361.6,330.52a5.66,5.66,0,0,0,5.28-3.63,48.31,48.31,0,0,0,3.18-15.73,5.67,5.67,0,1,0-11.33,0,36.93,36.93,0,0,1-2.42,11.66,5.67,5.67,0,0,0,3.26,7.32A5.53,5.53,0,0,0,361.6,330.52Z"/><path d="M256,487.75a234.47,234.47,0,0,0,40.28-3.48,5.66,5.66,0,0,0-1.95-11.16,221.9,221.9,0,0,1-84.57-1.57c-2.7-9.44-8.5-23.09-21-37.78a111.37,111.37,0,0,0-24.63-21.28c-11.76-7.59-40-28.55-48.7-59.31a.83.83,0,0,0,0-.15c-.38-1.23-9.66-30.42-32.94-53.25a10.27,10.27,0,0,1,6.8-17.49,75.66,75.66,0,0,1,20.51,2,41.75,41.75,0,0,1,26.4,20c7.56,13.33,23.63,37.13,46.4,46.76a16.82,16.82,0,0,0,21.57-8.3c3.75-8,8.29-22.08,8.65-44v-.27l-5.46-175.31a13.36,13.36,0,0,1,26.62-2c3.74,30.53,10,86.55,9.77,118.72a1.93,1.93,0,0,0,0,.24s0,0,0,.06l.05,1v.12l1.11,23.34a5.66,5.66,0,0,0,5.65,5.39h.27a5.66,5.66,0,0,0,5.39-5.93l-1.05-22a5.6,5.6,0,0,0,0-1.47c0-.12,0-.24,0-.37l0-.39c.21-32.82-6.08-89.25-9.85-120A24.69,24.69,0,0,0,196,123.46l5.46,175.18c-.35,19.84-4.31,32.29-7.58,39.24a5.54,5.54,0,0,1-6.9,2.7c-19.69-8.34-34.12-29.84-41-41.92a53.18,53.18,0,0,0-33.61-25.44A87.67,87.67,0,0,0,88.81,271a21.6,21.6,0,0,0-14.28,36.89c20.73,20.33,29.59,47.09,30,48.48C114,389.52,142.07,411.71,158,422a100.2,100.2,0,0,1,22.15,19.11,95.18,95.18,0,0,1,16.59,27.23C103.88,442.38,35.57,357,35.57,256A219.31,219.31,0,0,1,73.08,133a5.66,5.66,0,0,0-9.39-6.33A230.55,230.55,0,0,0,24.25,256C24.25,383.79,128.21,487.75,256,487.75Z"/><path d="M256,24.25A232.05,232.05,0,0,0,145.09,52.46a5.66,5.66,0,0,0,5.43,9.94A220.7,220.7,0,0,1,256,35.57c121.55,0,220.43,98.88,220.43,220.43a220.72,220.72,0,0,1-50.85,140.84,5.66,5.66,0,1,0,8.7,7.24A232,232,0,0,0,487.75,256C487.75,128.21,383.79,24.25,256,24.25Z"/><path d="M102,82.81c-.74.66-1.47,1.31-2.2,2a5.66,5.66,0,0,0,7.64,8.36l2.09-1.88A5.66,5.66,0,0,0,102,82.81Z"/><path d="M317.77,243.83h0v-63c-.42-33.61-2.31-77.24-3.39-100.26a23.49,23.49,0,0,0-46.95.57l-3.21,138.75a105.19,105.19,0,0,1-3.47,21.25,5.66,5.66,0,0,0,11,2.68,115.83,115.83,0,0,0,3.78-23.4.91.91,0,0,1,0-.17l3.21-138.85a12.17,12.17,0,0,1,24.32-.3c1.08,22.95,3,66.43,3.38,99.8v66.72c-.28,4,1.8,11.68,11.77,14.46a5.74,5.74,0,0,0,1.52.21,5.66,5.66,0,0,0,1.52-11.12c-3-.83-3.45-2.13-3.5-2.77a1.84,1.84,0,0,0,0-.54Z"/></svg>