<svg id="icon" xmlns="http://www.w3.org/2000/svg" viewBox="0 0 512 512"><title>leg muscle</title><path d="M300.71,141.51c-14.77,14.55-33.45,18-55.52,10.33a107.79,107.79,0,0,1-30.3-17,5.67,5.67,0,0,0-7.33,8.64,117.37,117.37,0,0,0,33.58,18.9,77.18,77.18,0,0,0,25.66,4.72c15.83,0,30-5.9,41.85-17.56a5.66,5.66,0,1,0-7.94-8.06Z"/><path d="M294.5,403.36a5.66,5.66,0,0,0,7.68-2.27c33.17-61,18.9-95.9,1.07-114.43a5.66,5.66,0,1,0-8.16,7.85c15.2,15.8,27,46.18-2.86,101.17A5.66,5.66,0,0,0,294.5,403.36Z"/><path d="M256,24.25a232.53,232.53,0,0,0-66.15,9.64,5.09,5.09,0,0,0-1.09.33,229.68,229.68,0,0,0-43.67,18.24,5.66,5.66,0,0,0,5.43,9.94,218.71,218.71,0,0,1,39.72-16.8c18,10.84,29.9,18.31,35.41,22.2,28.53,20.1,63.83,44,82.33,56.38,5.81,3.9,11.12,7.19,16.24,10.06,22.74,12.76,36.13,34,39.81,63a131.56,131.56,0,0,1-1.43,41.1c-.05.2-.08.4-.11.6-9,75.22-15.35,175.6-17.84,218.85A218.88,218.88,0,0,1,280.8,475c2.31-22.79-.84-44.57-3.09-56.15a31,31,0,0,0-6.22-13.32c-43.83-54.91-21.16-129.2-13.17-150.66a27.71,27.71,0,0,0,.71-17.51,46.63,46.63,0,0,1,11.43,14.81,5.66,5.66,0,1,0,10.21-4.88c-13.78-28.86-49.19-36.85-54-37.81a85.26,85.26,0,0,0-26-3.64C134.15,208.18,76,188.67,49.74,178.14A219.42,219.42,0,0,1,73.08,133a5.66,5.66,0,0,0-9.39-6.33A230.55,230.55,0,0,0,24.25,256c0,127.79,104,231.75,231.75,231.75A230.3,230.3,0,0,0,351.83,467a5.18,5.18,0,0,0,1.39-.64C432.58,429.52,487.75,349.09,487.75,256,487.75,128.21,383.79,24.25,256,24.25ZM35.57,256A220.33,220.33,0,0,1,46,188.85c27.25,10.89,86.84,30.7,155,28.33.33,0,33-1.13,45.54,19.72a16.22,16.22,0,0,1,1.13,14c-8.52,22.87-32.61,102.12,14.93,161.67a19.51,19.51,0,0,1,3.95,8.43c2.21,11.3,5.33,32.88,2.73,55-4.41.26-8.85.41-13.32.41C134.45,476.43,35.57,377.55,35.57,256ZM356.32,452.25c2.69-45.88,8.82-140.18,17.38-211.67a141.45,141.45,0,0,0,1.61-44.39c-4-32.53-19.78-57.36-45.55-71.82-4.86-2.73-9.92-5.86-15.47-9.59-18.46-12.4-53.67-36.19-82.12-56.24-4.7-3.31-13.72-9-26.86-17A221.16,221.16,0,0,1,256,35.57c121.55,0,220.43,98.88,220.43,220.43C476.43,341.44,427.57,415.69,356.32,452.25Z"/><path d="M102,82.81c-.74.66-1.47,1.31-2.2,2a5.66,5.66,0,0,0,7.64,8.36c.69-.63,1.38-1.26,2.08-1.88A5.66,5.66,0,0,0,102,82.81Z"/></svg>