<svg id="icon" xmlns="http://www.w3.org/2000/svg" viewBox="0 0 512 512"><title>leg</title><path d="M246.59,208a5.66,5.66,0,0,0,5.3,3.67,5.59,5.59,0,0,0,2-.36,5.66,5.66,0,0,0,3.31-7.29c-6.67-17.8-29-18-29.93-18a5.67,5.67,0,0,0,0,11.33C227.41,197.35,242.7,197.64,246.59,208Z"/><path d="M256,24.25A232.05,232.05,0,0,0,145.09,52.46a5.66,5.66,0,0,0,5.43,9.94,215.93,215.93,0,0,1,20.36-9.75l.07.05,126.87,73.09a100.41,100.41,0,0,1,49.75,93.38c-5.79,83.51-11.29,196.53-13.46,243a218.82,218.82,0,0,1-54.43,13c.85-32.2-7-67.66-7.33-69.23a5.27,5.27,0,0,0-.54-1.45C229.57,326.26,257,262.77,257.22,262.23a34.61,34.61,0,0,0-.19-30.56c-8.54-15.19-37.83-18.85-41.25-19.23C153.63,206.74,88.57,184.06,53,170a219.77,219.77,0,0,1,20.08-37,5.66,5.66,0,0,0-9.39-6.33A230.58,230.58,0,0,0,24.25,256c0,127.79,104,231.75,231.75,231.75S487.75,383.79,487.75,256,383.79,24.25,256,24.25ZM35.57,256a220.29,220.29,0,0,1,13.29-75.48C85,194.83,151.22,217.89,214.64,223.7c6.89.77,27.67,4.9,32.54,13.56a23.63,23.63,0,0,1-.25,20.24c-1.24,2.77-29.93,68.62,14.53,151.64,1.14,5.33,7.83,38.29,6.86,66.94q-6.12.35-12.32.35C134.45,476.43,35.57,377.55,35.57,256Zm310.1,201.35c2.32-49.23,7.62-157,13.2-237.39a111.82,111.82,0,0,0-55.4-104L184.55,47.47A221.29,221.29,0,0,1,256,35.57c121.55,0,220.43,98.88,220.43,220.43C476.43,345.63,422.65,422.93,345.67,457.35Z"/><path d="M107.44,93.15l2.08-1.88A5.66,5.66,0,0,0,102,82.81c-.74.66-1.47,1.31-2.2,2a5.66,5.66,0,0,0,7.64,8.36Z"/></svg>