<svg id="icon" xmlns="http://www.w3.org/2000/svg" viewBox="0 0 512 512"><title>mouth</title><path d="M256,24.25A232.05,232.05,0,0,0,145.09,52.46a5.66,5.66,0,0,0,5.43,9.94A220.7,220.7,0,0,1,256,35.57c121.55,0,220.43,98.88,220.43,220.43S377.55,476.43,256,476.43,35.57,377.55,35.57,256A219.31,219.31,0,0,1,73.08,133a5.66,5.66,0,0,0-9.39-6.33A230.58,230.58,0,0,0,24.25,256c0,127.79,104,231.75,231.75,231.75S487.75,383.79,487.75,256,383.79,24.25,256,24.25Z"/><path d="M107.44,93.15l2.09-1.88A5.67,5.67,0,0,0,102,82.81l-2.19,2a5.66,5.66,0,0,0,7.64,8.36Z"/><path d="M73.72,253.49a5.67,5.67,0,0,0-4.85,10.24,84.39,84.39,0,0,1,14.22,8.21c12.24,11.27,68.24,56.87,172.91,56.87,70,0,118.62-20.63,147-37.94a5.66,5.66,0,0,0-5.89-9.67C370,297.75,323.42,317.48,256,317.48c-78.31,0-128.71-27.12-152.07-43.56,2.25.12,4.62.2,7.13.2a125.25,125.25,0,0,0,38.14-5.79c18.18-5.83,37.11-7.61,48.23-4.52a199.78,199.78,0,0,0,36.8,6.88,5.66,5.66,0,1,0,1-11.28,188.67,188.67,0,0,1-34.72-6.51c-15.9-4.42-38.69-.5-54.71,4.65a116.49,116.49,0,0,1-42.09,5c41.09-19.81,78.72-34.55,94.22-40.41a13.81,13.81,0,0,1,12.58,1.47c14.49,9.78,30.64,16.33,39,19.37a19.09,19.09,0,0,0,13.12,0c8.34-3,24.49-9.59,39-19.37a13.79,13.79,0,0,1,12.58-1.47c15.5,5.86,53.13,20.6,94.22,40.41a116.49,116.49,0,0,1-42.09-5c-16-5.15-38.81-9.06-54.71-4.65a192.6,192.6,0,0,1-31,6.15,5.66,5.66,0,1,0,1.23,11.25,204.61,204.61,0,0,0,32.81-6.49c11.11-3.09,30-1.31,48.23,4.52a125.25,125.25,0,0,0,38.14,5.79,117.93,117.93,0,0,0,27.86-3.06l.11,0,.18,0h0a42.69,42.69,0,0,0,9.72-4.8,42.74,42.74,0,0,1,4.29-2.44,5.67,5.67,0,0,0-4.85-10.24,56.91,56.91,0,0,0-5.39,3,41.33,41.33,0,0,1-5.22,2.89c-46.9-23.57-92.1-41.3-109.54-47.9a25.12,25.12,0,0,0-22.92,2.67c-13.49,9.1-28.68,15.26-36.53,18.12a7.84,7.84,0,0,1-5.36,0c-7.85-2.86-23-9-36.52-18.12a25.15,25.15,0,0,0-22.93-2.67c-17.41,6.59-62.5,24.27-109.31,47.78A115.26,115.26,0,0,0,73.72,253.49Z"/><path d="M227.79,277.62a5.65,5.65,0,0,0-6.55,4.6c-.08.46-2,11.39-1.69,18.61a5.67,5.67,0,0,0,5.66,5.43h.23a5.67,5.67,0,0,0,5.43-5.89c-.24-6,1.51-16.1,1.53-16.2A5.67,5.67,0,0,0,227.79,277.62Z"/><path d="M176.46,276.86a49.76,49.76,0,0,0-2.15,12,5.65,5.65,0,0,0,5.38,5.92H180a5.67,5.67,0,0,0,5.65-5.39,37.94,37.94,0,0,1,1.59-8.93,5.66,5.66,0,1,0-10.75-3.57Z"/><path d="M195,235a21.47,21.47,0,0,0-.68,3.94,5.65,5.65,0,0,0,5.29,6H200a5.66,5.66,0,0,0,5.65-5.3,9.65,9.65,0,0,1,.3-1.63A5.66,5.66,0,0,0,195,235Z"/><path d="M258.77,260.36a5.66,5.66,0,0,0-1.06-.33,5.68,5.68,0,0,0-6.77,5.55,6,6,0,0,0,.11,1.12,5.8,5.8,0,0,0,.33,1.05,4.5,4.5,0,0,0,.52,1,4.94,4.94,0,0,0,.7.87,5.71,5.71,0,0,0,4,1.67,5.89,5.89,0,0,0,1.11-.12,5.63,5.63,0,0,0,1.06-.32,4.75,4.75,0,0,0,1-.52,4.91,4.91,0,0,0,.87-.71,5.74,5.74,0,0,0,1.65-4,5.65,5.65,0,0,0-1.65-4,4.91,4.91,0,0,0-.87-.71A4.75,4.75,0,0,0,258.77,260.36Z"/><path d="M286.56,306.26h.23a5.67,5.67,0,0,0,5.66-5.43c.28-7.22-1.61-18.15-1.69-18.61a5.66,5.66,0,0,0-11.16,1.95c0,.1,1.77,10.2,1.53,16.2A5.67,5.67,0,0,0,286.56,306.26Z"/><path d="M328.39,273.28a5.66,5.66,0,0,0-3.6,7.14,38.55,38.55,0,0,1,1.59,8.94,5.67,5.67,0,0,0,5.65,5.39h.28a5.65,5.65,0,0,0,5.38-5.92,49.76,49.76,0,0,0-2.15-12A5.65,5.65,0,0,0,328.39,273.28Z"/><path d="M312,244.94h.35a5.65,5.65,0,0,0,5.3-6A21.47,21.47,0,0,0,317,235a5.66,5.66,0,0,0-10.92,3,9.77,9.77,0,0,1,.3,1.64A5.66,5.66,0,0,0,312,244.94Z"/></svg>