<svg id="icon" xmlns="http://www.w3.org/2000/svg" viewBox="0 0 512 512"><title>nose</title><path d="M184.41,476.42a5.74,5.74,0,0,0,1.15.38,231.84,231.84,0,0,0,234.4-57,5.66,5.66,0,1,0-8-8,220.56,220.56,0,0,1-221,54.85c-.34-.84-.66-1.69-1-2.52a18.31,18.31,0,0,1,3.76-18.74l8.6-9.35a140.79,140.79,0,0,0,32.93,20.33,5.59,5.59,0,0,0,2.28.48A5.66,5.66,0,0,0,239.86,446a125.28,125.28,0,0,1-33.67-21.7,83.61,83.61,0,0,1-12.1-21.74,17.21,17.21,0,0,1-1.11-4.95,137.53,137.53,0,0,1,33.75,3.06,24,24,0,0,1,11.61,6.4c9.84,9.83,36.74,34.4,74,50.25a5.58,5.58,0,0,0,2.21.46,5.66,5.66,0,0,0,2.22-10.87c-35.41-15.08-61-38.49-70.41-47.85a35.2,35.2,0,0,0-17.09-9.43,146.54,146.54,0,0,0-33.32-3.4l17.48-32.17a5.46,5.46,0,0,0,.35-.78c8-22.24-7-35.54-16-39.47l-.22-.09L143.58,292.9a41.41,41.41,0,0,1-16-66.21l130-145.84a32.75,32.75,0,0,0,8.3-21.8V54.86a5.66,5.66,0,0,0-11.32,0v4.19a21.39,21.39,0,0,1-5.44,14.26l-130,145.84a52.76,52.76,0,0,0,20.39,84.32l53.82,20.76c1.42.65,15.84,7.69,9.93,24.82l-18.18,33.44a28.79,28.79,0,0,0-1.54,24.16,99.44,99.44,0,0,0,11.07,21.09l-9.18,10a29.58,29.58,0,0,0-7.54,24.41C94.78,430.51,35.57,350.05,35.57,256A219.31,219.31,0,0,1,73.08,133a5.66,5.66,0,0,0-9.39-6.33A230.55,230.55,0,0,0,24.25,256C24.25,358.81,91.55,446.19,184.41,476.42Z"/><path d="M256,24.25A232,232,0,0,0,145.09,52.46a5.66,5.66,0,0,0,5.43,9.94A220.7,220.7,0,0,1,256,35.57c121.55,0,220.43,98.88,220.43,220.43a225,225,0,0,1-1.6,26.76,5.66,5.66,0,0,0,4.94,6.3,5.27,5.27,0,0,0,.68,0,5.67,5.67,0,0,0,5.62-5A235.18,235.18,0,0,0,487.75,256C487.75,128.21,383.79,24.25,256,24.25Z"/><path d="M103.62,94.63a5.65,5.65,0,0,0,3.82-1.48l2.09-1.88A5.66,5.66,0,0,0,102,82.81l-2.2,2a5.66,5.66,0,0,0,3.82,9.84Z"/><path d="M263.34,453.63A5.66,5.66,0,1,0,261,464.7c1.12.24,2.26.47,3.41.67a5.18,5.18,0,0,0,1,.1,5.67,5.67,0,0,0,1-11.24C265.39,454,264.36,453.84,263.34,453.63Z"/><path d="M212.79,294a5.66,5.66,0,0,0,5.34,6c5.27.29,21.59,2.66,27.23,9.56a5.66,5.66,0,0,0,4.39,2.08,5.67,5.67,0,0,0,5.24-7.79c-.65-1.62-16.55-39.9-55.75-46.93a16.31,16.31,0,0,0-17.44,23.2,30.61,30.61,0,0,0,8,10.1,5.66,5.66,0,0,0,7.24-8.71A19.33,19.33,0,0,1,192,275.1a5,5,0,0,1,.53-5.17,4.79,4.79,0,0,1,4.74-1.89c17.07,3.06,29.11,13.61,36.75,23.11a80.44,80.44,0,0,0-15.24-2.48A5.68,5.68,0,0,0,212.79,294Z"/><path d="M252.29,332.44a5.66,5.66,0,0,0-2.45,11.06,78.08,78.08,0,0,0,15.53,1.5c9.5,0,21.65-1.7,31.35-8.74,9.14-6.63,14.41-16.65,15.68-29.77,1.53-15.9-2.3-31.74-11.39-47.08a5.66,5.66,0,1,0-9.74,5.77c7.84,13.23,11.16,26.76,9.86,40.22-.95,9.87-4.56,17-11,21.68C275.84,337.45,252.53,332.49,252.29,332.44Z"/><path d="M307.49,96.9a31.07,31.07,0,0,1-4.39,7.9c-5.31,6.85-13.25,10.4-24.27,10.86a5.66,5.66,0,0,0,.23,11.32h.25c14.37-.61,25.4-5.75,32.77-15.28a39.65,39.65,0,0,0,2.39-3.47c10.47,9.11,35.13,25.14,79,25.14,3.4,0,6.92-.09,10.55-.29a5.66,5.66,0,0,0-.64-11.31c-51.63,2.88-77.15-17.73-84.09-24.52,5.18-17.21,1.38-35.52,1.16-36.51a5.66,5.66,0,0,0-11.07,2.37c0,.22,3.87,18.82-1.91,33.76Z"/><path d="M315.92,130.42a28.9,28.9,0,0,1-12.28,10.23,5.66,5.66,0,0,0,2.26,10.86,5.61,5.61,0,0,0,2.25-.47,40.54,40.54,0,0,0,17.15-14.28,5.66,5.66,0,0,0-9.38-6.34Z"/><path d="M338.52,142.23a28.91,28.91,0,0,1-9.29,13,5.66,5.66,0,0,0,3.51,10.11,5.61,5.61,0,0,0,3.49-1.21,40.46,40.46,0,0,0,13-18.15,5.67,5.67,0,0,0-10.69-3.76Z"/><path d="M365.32,171.25a5.76,5.76,0,0,0,2.11.4,5.64,5.64,0,0,0,5.25-3.56,40.37,40.37,0,0,0,2.69-19,5.66,5.66,0,0,0-11.27,1.14,28.92,28.92,0,0,1-1.93,13.62A5.67,5.67,0,0,0,365.32,171.25Z"/></svg>