<svg id="icon" xmlns="http://www.w3.org/2000/svg" viewBox="0 0 512 512"><title>shoulder male</title><path d="M322.14,348.42a5.66,5.66,0,0,0-10.17,5,93.83,93.83,0,0,1,7.37,21.89l12.09,92.55a5.67,5.67,0,0,0,5.61,4.93,6.13,6.13,0,0,0,.74,0,5.66,5.66,0,0,0,4.88-6.35l-12.11-92.69a1.87,1.87,0,0,0,0-.25A103.78,103.78,0,0,0,322.14,348.42Z"/><path d="M120.41,443.83a5.65,5.65,0,0,0,1.65,1.2A230.5,230.5,0,0,0,256,487.75a233.83,233.83,0,0,0,43.14-4h.07l.09,0c3.42-.65,6.82-1.34,10.2-2.14a5.66,5.66,0,1,0-2.61-11c-1.29.3-2.59.58-3.89.86-10.77-74.19,4.33-137.93,4.48-138.58a1.25,1.25,0,0,0,0-.19l.06-.22c5.75-34.47,21.7-50,22-50.23a5.66,5.66,0,0,0-7.73-8.28c-.77.71-18.87,17.9-25.36,56.42-1.08,4.52-15.65,67.77-4.58,143.19A220.22,220.22,0,0,1,144.41,446a65.47,65.47,0,0,0,17.92-6,5.66,5.66,0,0,0-5.38-10c-.15.09-15.24,8-29.76,4.68a222.28,222.28,0,0,1-44.08-42.18,51.26,51.26,0,0,0,4.57-5.73c4.58-6.7,10.15-11.21,16.56-13.4a5.66,5.66,0,1,0-3.67-10.71c-8.77,3-16.25,9-22.24,17.72-.68,1-1.41,1.95-2.17,2.87A220.29,220.29,0,0,1,73.08,133a5.66,5.66,0,0,0-9.39-6.33A230.55,230.55,0,0,0,24.25,256C24.25,333.2,62.2,401.69,120.41,443.83Z"/><path d="M256,24.25a232.65,232.65,0,0,0-54,6.39,6.54,6.54,0,0,0-1.08.26,230.18,230.18,0,0,0-55.82,21.56,5.66,5.66,0,0,0,5.43,9.94A218.71,218.71,0,0,1,197.1,43.59v59.18a5.66,5.66,0,1,0,11.32,0v-62A221.29,221.29,0,0,1,256,35.57c121.55,0,220.43,98.88,220.43,220.43a221.11,221.11,0,0,1-46.22,134.92c-11.66-62.05-9.31-156.73-8.24-185.68a94.4,94.4,0,0,0-6-37.37,100.14,100.14,0,0,0-24.81-37c-19.95-19-46.66-29.4-75.22-29.4h-33.9c-21.13-.38-41.49-10.64-54.85-19.18a5.66,5.66,0,1,0-6.1,9.54c14.59,9.33,37,20.54,60.85,21h34c25.64,0,49.58,9.34,67.42,26.29a88.92,88.92,0,0,1,22,32.86,83,83,0,0,1,5.2,32.9c-1.13,30.69-3.68,134.45,10.29,197.31a219.53,219.53,0,0,1-35.4,32.24,5.66,5.66,0,0,0,6.66,9.16,233.41,233.41,0,0,0,38.9-35.75c.14-.15.28-.31.41-.47A230.64,230.64,0,0,0,487.75,256C487.75,128.21,383.79,24.25,256,24.25Z"/><path d="M110,83.28a5.65,5.65,0,0,0-8-.47l-2.2,2a5.66,5.66,0,0,0,7.64,8.36l2.09-1.88A5.66,5.66,0,0,0,110,83.28Z"/><path d="M263.07,153.12a5.63,5.63,0,0,0,3.19-1l1.32-.92a5.66,5.66,0,0,0-6.49-9.27l-1.22.84a5.66,5.66,0,0,0,3.2,10.34Z"/><path d="M242.27,153c-32.89,15.8-64.36,13.79-80.2,11.19a35.18,35.18,0,0,0-29.38,8.53l-8.86,8a5.66,5.66,0,0,0,7.57,8.42l8.86-8a23.92,23.92,0,0,1,20-5.78c17.14,2.82,51.24,5,86.94-12.15A5.66,5.66,0,0,0,242.27,153Z"/><path d="M122.81,213.2a5.67,5.67,0,0,0-11.33,0v97.53a5.67,5.67,0,1,0,11.33,0Z"/><path d="M234.34,342.31c-50.18,4.87-96.66-10.79-97.13-10.95a5.66,5.66,0,1,0-3.67,10.71,272.92,272.92,0,0,0,80.54,12.52c6.94,0,14.09-.3,21.35-1a44.8,44.8,0,0,0,19.75-6.84l16.34-10.52a5.66,5.66,0,1,0-6.12-9.52l-16.35,10.52A33.14,33.14,0,0,1,234.34,342.31Z"/><path d="M109.9,188.64a5.66,5.66,0,0,0-.43-8l-8.85-8a35.18,35.18,0,0,0-29.39-8.53l-2.35.36a5.66,5.66,0,1,0,1.63,11.21c.88-.13,1.74-.26,2.56-.4a23.91,23.91,0,0,1,20,5.78l8.86,8a5.66,5.66,0,0,0,8-.42Z"/><path d="M96.09,331.36a221.39,221.39,0,0,1-23.34,6.09,5.66,5.66,0,0,0,1.16,11.2,5.81,5.81,0,0,0,1.17-.12,226.65,226.65,0,0,0,24.69-6.46,5.66,5.66,0,0,0-3.68-10.71Z"/><path d="M222,324.6a5.66,5.66,0,0,0,0-11.32h-4.1a5.66,5.66,0,1,0,0,11.32Z"/><path d="M117.14,376.73a5.67,5.67,0,0,0-5.66,5.67v28.53a5.67,5.67,0,0,0,11.33,0V382.4A5.67,5.67,0,0,0,117.14,376.73Z"/><path d="M263.7,378.41a5.66,5.66,0,0,0-7.81,1.78c-9.8,15.62-26,20.37-34.83,21.82a5.66,5.66,0,0,0,.9,11.25,5.84,5.84,0,0,0,.93-.08c10.68-1.75,30.42-7.58,42.59-27A5.66,5.66,0,0,0,263.7,378.41Z"/><path d="M255.79,415a5.66,5.66,0,0,0-7.7,2.2,35.39,35.39,0,0,1-18.24,15.7A5.66,5.66,0,0,0,232,443.81a5.73,5.73,0,0,0,2.13-.42A47.1,47.1,0,0,0,258,422.7,5.67,5.67,0,0,0,255.79,415Z"/><path d="M156,380.47c-6-8.76-13.47-14.72-22.24-17.72a5.66,5.66,0,0,0-3.67,10.71c6.41,2.2,12,6.7,16.56,13.4a47.88,47.88,0,0,0,15.74,14.75,5.66,5.66,0,1,0,5.58-9.85A36.53,36.53,0,0,1,156,380.47Z"/></svg>