<svg id="icon" xmlns="http://www.w3.org/2000/svg" viewBox="0 0 512 512"><title>shoulder female</title><path d="M292.19,419.16a5.67,5.67,0,0,0-3.08,7.4l4.7,11.38a154,154,0,0,1,10.3,38.46,5.67,5.67,0,0,0,5.61,4.92,6.3,6.3,0,0,0,.75-.05,5.67,5.67,0,0,0,4.87-6.36,165.65,165.65,0,0,0-11.06-41.29l-4.7-11.38A5.67,5.67,0,0,0,292.19,419.16Z"/><path d="M132.42,339.1a5.66,5.66,0,0,0-11.3.73c3.28,50.73,41.93,75.84,43.58,76.9a96.57,96.57,0,0,0,52.28,15,108.36,108.36,0,0,0,41.21-8c4.2-1.58,54.73-21.87,53.37-77.51-1.19-49-29.55-75.17-38.3-82.1V251.46a5.67,5.67,0,0,0-11.33,0v15.42a5.66,5.66,0,0,0,2.5,4.69c.34.23,34.57,23.94,35.81,74.86,1.2,49.38-44.13,66-46.05,66.64a1.79,1.79,0,0,0-.24.12,2.25,2.25,0,0,0-.24.08c-.43.19-43.1,19.1-83-6.11C170.41,406.94,135.33,384.15,132.42,339.1Z"/><path d="M167.8,173.48c-.94-.14-23.15-3.19-41.83,12.41a5.66,5.66,0,1,0,7.26,8.69c14.64-12.23,32.64-9.94,32.94-9.9a5.66,5.66,0,0,0,1.63-11.2Z"/><path d="M256,487.75c1.5,0,3,0,4.49,0a5.66,5.66,0,0,0-.11-11.32h-.11c-1.42,0-2.84,0-4.27,0s-2.88,0-4.31-.05c2.15-11.2,4.26-22.73,6.26-34.43A5.66,5.66,0,1,0,246.79,440c-2.09,12.19-4.28,24.2-6.54,35.82a220.36,220.36,0,0,1-160.64-87.8,99.16,99.16,0,0,0,16.07-48.23,5.66,5.66,0,0,0-11.3-.73A87.68,87.68,0,0,1,72.5,378a220.52,220.52,0,0,1-25-193.77,5.62,5.62,0,0,0,3.11.45c.18,0,18.25-2.37,32.94,9.9a5.66,5.66,0,0,0,7.26-8.69c-15.13-12.64-32.58-13-39.16-12.66A218.93,218.93,0,0,1,73.08,133a5.66,5.66,0,0,0-9.39-6.33A230.55,230.55,0,0,0,24.25,256C24.25,383.79,128.21,487.75,256,487.75Z"/><path d="M256,24.25a232.5,232.5,0,0,0-94.1,19.94,5.79,5.79,0,0,0-.57.25c-5.51,2.47-10.94,5.12-16.24,8a5.66,5.66,0,0,0,5.43,9.94c2.53-1.39,5.1-2.7,7.69-4V110a48.71,48.71,0,0,0,50.73,48.69c21.38-.9,38.66-2.5,51.35-4.77a54.39,54.39,0,0,1,27.9,2c21.54,7.74,35.32,28.74,39.84,60.75l17.34,118.65c0,.15.05.29.08.43.13.6,13.32,59,23.7,109.5a216.93,216.93,0,0,1-20.92,11.07,5.66,5.66,0,0,0,2.37,10.8,5.55,5.55,0,0,0,2.37-.52,230.43,230.43,0,0,0,25.66-13.89l.09-.06a231.61,231.61,0,0,0,109-196.6C487.75,128.21,383.79,24.25,256,24.25Zm123.36,414.4c-9.93-48-22-101.41-22.82-105.23L339.24,215c-6.5-46-29.27-63.34-47.22-69.8a65.67,65.67,0,0,0-33.72-2.46c-12.19,2.18-29,3.73-49.84,4.6A37.39,37.39,0,0,1,169.53,110V53.2A221.25,221.25,0,0,1,256,35.57c121.55,0,220.43,98.88,220.43,220.43A221.29,221.29,0,0,1,379.36,438.65Z"/><path d="M102,82.81l-2.2,2a5.66,5.66,0,0,0,7.64,8.36l2.09-1.88A5.66,5.66,0,0,0,102,82.81Z"/></svg>