<svg id="icon" xmlns="http://www.w3.org/2000/svg" viewBox="0 0 512 512"><title>waist female</title><path d="M307.9,30.11c-.21-.06-.41-.1-.62-.14a232.65,232.65,0,0,0-140,11.86,5.66,5.66,0,0,0,4.33,10.46q8.64-3.57,17.49-6.38A84.36,84.36,0,0,0,175.26,82a5.65,5.65,0,0,0,4.83,6.38,5.32,5.32,0,0,0,.78.06,5.67,5.67,0,0,0,5.61-4.89,72.72,72.72,0,0,1,21.89-42.82,221.85,221.85,0,0,1,95.32.06,72.7,72.7,0,0,1,21.83,42.76,5.67,5.67,0,0,0,5.61,4.89,5.22,5.22,0,0,0,.78-.06A5.65,5.65,0,0,0,336.74,82a84.55,84.55,0,0,0-13.8-36,220.32,220.32,0,0,1,69.49,37,423.43,423.43,0,0,0-17.12,53.84,114.59,114.59,0,0,0,4.84,68.64c4.2,10.74,8.74,21.06,11.92,28.06-13.14,7.33-29.53,13.87-49,19.51a143,143,0,0,0,8.69-13.29,5.66,5.66,0,0,0-9.81-5.66A134.83,134.83,0,0,1,324.4,258l-3.35.8a289.52,289.52,0,0,1-130.1,0l-3.35-.8A134.83,134.83,0,0,1,170,234.08a5.66,5.66,0,0,0-9.81,5.66A145.08,145.08,0,0,0,168.89,253c-19.43-5.64-35.82-12.18-49-19.51,3.17-7,7.72-17.31,11.92-28.06a114.59,114.59,0,0,0,4.84-68.64,453.43,453.43,0,0,0-17.15-53.91,220.36,220.36,0,0,1,20.19-14.22,5.66,5.66,0,0,0-6-9.61,233.65,233.65,0,0,0-24.52,17.55c-.08.07-.14.15-.21.22a4.78,4.78,0,0,0-.45.45l-.23.27a5.22,5.22,0,0,0-.52.8h0a5.61,5.61,0,0,0-.32,4.76c7.67,19.53,14.3,40.05,18.18,56.31a103.3,103.3,0,0,1-4.37,61.89c-5.24,13.4-11,26.15-13.87,32.27l-2.22,4.65-.42.88Q94,260.73,84.66,282a1.54,1.54,0,0,1-.08.19h0C74.21,305.78,65.13,329,57.42,351.65A220.4,220.4,0,0,1,84.73,117.22a5.66,5.66,0,1,0-8.79-7.14A232.25,232.25,0,0,0,24.25,256c0,127.79,104,231.75,231.75,231.75a229.54,229.54,0,0,0,101.77-23.48,5.66,5.66,0,1,0-5-10.17,217.51,217.51,0,0,1-72.86,21c1.08-28.06,6.37-48,6.47-48.32,0-.05,0-.1,0-.15s0-.08,0-.13c20.1-91.4,101.29-125.36,132.6-135.19,10.89,25.1,20.29,49.77,28.07,73.76.06.16.13.31.2.46a223.54,223.54,0,0,1-14.19,21.64,5.66,5.66,0,1,0,9.09,6.74,229.86,229.86,0,0,0,45.52-138C487.75,146.05,410.79,53.74,307.9,30.11ZM64.72,365.47c0-.12.11-.23.15-.35,7.78-24,17.18-48.65,28.07-73.76,31.31,9.83,112.5,43.79,132.6,135.19,0,.05,0,.09,0,.13a.8.8,0,0,0,0,.15c0,.2,5.38,20.06,6.46,48.3C160.46,467.36,99,425.16,64.72,365.47ZM256,476.43c-4.22,0-8.41-.13-12.57-.36a272.79,272.79,0,0,0-4.55-41.64A75.91,75.91,0,0,0,256,436.69a75.91,75.91,0,0,0,17.12-2.26,272.86,272.86,0,0,0-4.56,41.65Q262.32,476.43,256,476.43ZM414.47,280.94C380.84,291.72,298,327.43,276,421.52c-8.3,3.78-19.87,3.85-20,3.85s-11.7-.07-20-3.85C214,327.46,131.21,291.75,97.57,281c5.25-11.51,13.26-28.23,17.38-36.82,0-.11.1-.21.16-.32,17.65,9.72,40.54,18,68.2,24.78l.29.07,4.79,1.14a300.87,300.87,0,0,0,135.22,0l4.79-1.14.29-.07c27.66-6.74,50.55-15.06,68.2-24.78.38.75.75,1.5,1.12,2.26q1.47,3,2.91,5.92l1.34,2.76q1.56,3.24,3.11,6.49l1,2.06c1.23,2.62,2.45,5.23,3.66,7.85.11.25.23.49.34.74Q412.45,276.42,414.47,280.94Zm40.15,70.84a889.64,889.64,0,0,0-37.36-91.89l-.06-.14q-2.35-5-4.77-10c-.33-.69-.67-1.38-1-2.08q-2.48-5.1-5-10.22c-.08-.17-8.41-17.51-15.69-36.13a103.3,103.3,0,0,1-4.37-61.89,404.26,404.26,0,0,1,15.28-48.79,220.47,220.47,0,0,1,53,261.12Z"/><path d="M154.43,212.11a5.67,5.67,0,0,0-3.74,7.08s.11.37.35,1.05a5.66,5.66,0,1,0,10.7-3.7c-.15-.42-.22-.67-.24-.71A5.65,5.65,0,0,0,154.43,212.11Z"/><path d="M353.76,223.74a5.75,5.75,0,0,0,1.85.31,5.66,5.66,0,0,0,5.35-3.81c.24-.68.35-1.05.35-1.05a5.66,5.66,0,0,0-10.81-3.36s-.09.29-.24.71A5.66,5.66,0,0,0,353.76,223.74Z"/><path d="M261.66,181.87V173.4a5.66,5.66,0,1,0-11.32,0v8.47a5.66,5.66,0,0,0,11.32,0Z"/></svg>