<svg id="icon" xmlns="http://www.w3.org/2000/svg" viewBox="0 0 512 512"><title>waist male</title><path d="M142.35,207.3c0,.15.33,1.52,1,3.87a5.66,5.66,0,0,0,5.43,4.07,5.81,5.81,0,0,0,1.59-.22,5.67,5.67,0,0,0,3.85-7c-.58-2-.83-3.1-.83-3.11a5.66,5.66,0,0,0-11.06,2.41Z"/><path d="M190.72,150.09a5.66,5.66,0,0,0-5.88,9.68c13.42,8.15,30.17,12.91,49.76,14.13H235a5.67,5.67,0,0,0,.34-11.32C217.56,161.49,202.56,157.28,190.72,150.09Z"/><path d="M153.31,81.39a5.67,5.67,0,0,0-6.06,5.23c-.08,1.12-1.84,27.71,14.59,51.54a5.66,5.66,0,1,0,9.32-6.43c-14.1-20.44-12.63-44-12.62-44.28A5.66,5.66,0,0,0,153.31,81.39Z"/><path d="M231.4,74.82C209,81,193,77.27,183.49,73.05a5.66,5.66,0,1,0-4.61,10.34,72.44,72.44,0,0,0,29.69,6,97.23,97.23,0,0,0,25.84-3.67,5.66,5.66,0,0,0-3-10.92Z"/><path d="M358.59,204.88s-.25,1.14-.83,3.12a5.67,5.67,0,0,0,3.85,7,5.81,5.81,0,0,0,1.59.22,5.66,5.66,0,0,0,5.43-4.07c.68-2.35,1-3.72,1-3.86a5.66,5.66,0,0,0-11.06-2.43Z"/><path d="M271.4,168.6a5.66,5.66,0,0,0,5.64,5.31h.36c19.59-1.22,36.34-6,49.76-14.13a5.66,5.66,0,1,0-5.88-9.68c-11.84,7.19-26.84,11.4-44.58,12.5A5.67,5.67,0,0,0,271.4,168.6Z"/><path d="M342.29,139.6a5.64,5.64,0,0,0,7.87-1.44c16.43-23.83,14.67-50.42,14.59-51.54a5.66,5.66,0,1,0-11.29.84c0,.23,1.57,23.69-12.62,44.27A5.66,5.66,0,0,0,342.29,139.6Z"/><path d="M303.43,89.41a72.4,72.4,0,0,0,29.69-6,5.66,5.66,0,1,0-4.61-10.34c-9.46,4.22-25.46,8-47.91,1.77a5.66,5.66,0,0,0-3,10.92A97.23,97.23,0,0,0,303.43,89.41Z"/><path d="M256,24.25c-2.47,0-4.95,0-7.42.12-1,0-2,.09-3,.14-1.47.06-2.95.12-4.42.21-1.24.08-2.48.2-3.72.29s-2.41.19-3.61.3c-1.37.13-2.73.29-4.08.45-1.08.12-2.15.23-3.22.37-1.43.18-2.85.39-4.27.6-1,.15-2,.29-3,.45-1.45.23-2.89.49-4.33.75l-2.91.52c-1.44.28-2.87.58-4.31.89l-2.91.62c-1.4.32-2.8.66-4.2,1-1,.25-2,.49-3,.75-1.35.35-2.7.72-4,1.09-1,.29-2.07.58-3.11.89-1.28.37-2.56.77-3.83,1.16l-3.29,1.06c-1.2.39-2.4.8-3.59,1.21s-2.33.82-3.49,1.25-2.22.81-3.32,1.24-2.47,1-3.7,1.45l-3.06,1.25c-1.3.55-2.59,1.11-3.88,1.68-.94.42-1.89.83-2.82,1.26-1.34.61-2.67,1.24-4,1.88l-2.66,1.29c-1.34.67-2.66,1.35-4,2l-2.63,1.38-1.17.62c-.09,0-.16.12-.25.17-1.45.8-2.9,1.58-4.34,2.4a5.67,5.67,0,0,0,5.66,9.82c1.81-1,3.65-2.06,5.49-3l2.43-1.27c1.28-.67,2.57-1.34,3.86-2,.82-.41,1.64-.8,2.47-1.2,1.28-.62,2.57-1.23,3.86-1.82.87-.4,1.75-.78,2.63-1.17,1.24-.55,2.49-1.09,3.74-1.62,1-.4,1.91-.79,2.86-1.17,1.19-.48,2.38-1,3.57-1.4,1-.4,2.07-.79,3.11-1.17s2.24-.8,3.37-1.2,2.24-.77,3.37-1.14l3.16-1,3.62-1.1,3-.85c1.27-.35,2.54-.7,3.82-1,1-.25,1.91-.48,2.86-.72,1.32-.32,2.65-.64,4-.94.92-.21,1.85-.4,2.79-.6,1.35-.29,2.71-.58,4.07-.84.93-.18,1.86-.34,2.79-.5,1.36-.25,2.73-.49,4.1-.71,1-.16,1.91-.29,2.87-.43,1.34-.2,2.69-.4,4-.57,1-.13,2.05-.24,3.08-.35,1.29-.15,2.57-.3,3.86-.43s2.31-.19,3.47-.28,2.34-.2,3.51-.28c1.4-.09,2.8-.14,4.2-.2.94,0,1.88-.11,2.82-.14l1.51,0V73.39a5.66,5.66,0,1,0,11.32,0V35.64a220.15,220.15,0,0,1,165.48,81.74,360.29,360.29,0,0,0-17.06,97.55c-.13,3.74-.16,7.48-.13,11.23-9,5.65-27.73,15.3-59.06,22.61q3.86-5.9,7.17-12.18a5.66,5.66,0,0,0-10-5.28,136.91,136.91,0,0,1-13.49,20.82c-21.31,3.82-47.31,6.42-78.67,6.42s-57.35-2.59-78.66-6.41a137.33,137.33,0,0,1-13.5-20.83,5.66,5.66,0,1,0-10,5.28c2.2,4.19,4.61,8.26,7.18,12.2-31.15-7.26-49.87-16.86-59.07-22.63,0-3.75,0-7.49-.13-11.23a360.1,360.1,0,0,0-17.09-97.68,222.43,222.43,0,0,1,23-24.3A5.66,5.66,0,1,0,100,84.58a233,233,0,0,0-26.1,28,5.65,5.65,0,0,0-.94,5.27l.7,2.14a348.83,348.83,0,0,1,16.78,95.31c1.13,32.55-4.27,65.43-16,97.73a343.64,343.64,0,0,0-13.2,46.07,220.43,220.43,0,0,1-.42-205.64,5.66,5.66,0,1,0-10-5.27A232.18,232.18,0,0,0,24.25,256c0,127.79,104,231.75,231.75,231.75A229.29,229.29,0,0,0,400.25,437.4a5.66,5.66,0,0,0-7.05-8.86,217.72,217.72,0,0,1-103.28,45.33,406.82,406.82,0,0,1-.71-41.81,61.27,61.27,0,0,0,19.69-41.94c8.24-9.37,55.74-61.45,113.55-86.45q2.07,6.65,4.48,13.26a330,330,0,0,1,15,56.26,6,6,0,0,0,.24.88q-4.74,7.44-10.1,14.55a5.66,5.66,0,1,0,9,6.81A229.71,229.71,0,0,0,487.75,256C487.75,128.21,383.79,24.25,256,24.25ZM69.85,373.93a5.74,5.74,0,0,0,.2-.74,329.49,329.49,0,0,1,15-56.26q2.42-6.62,4.48-13.26c57.81,25,105.31,77.08,113.55,86.45a61.27,61.27,0,0,0,19.69,41.94,407.87,407.87,0,0,1-.7,41.76A220.83,220.83,0,0,1,69.85,373.93ZM256,476.43a220.37,220.37,0,0,1-22.66-1.16c1-14.6,1.12-27.26,1-35.62l.76.32,1.24.53c.49.2,1,.39,1.46.57s.83.32,1.25.46l1.51.49,1.25.38c.52.15,1,.28,1.56.41l1.23.3c.55.12,1.09.23,1.64.33s.79.16,1.18.22c.59.1,1.18.18,1.76.25l1.09.15c.68.07,1.35.12,2,.17l.83.07a55.53,55.53,0,0,0,5.77,0c.25,0,.51-.05.77-.06.69-.05,1.39-.1,2.09-.18l1-.14c.6-.08,1.21-.16,1.82-.26.38-.06.75-.14,1.13-.21l1.69-.34,1.18-.29c.54-.14,1.08-.27,1.62-.43l1.2-.36c.52-.16,1-.33,1.55-.51l1.21-.44c.51-.18,1-.38,1.51-.58l1.2-.52.78-.33c-.12,8.37,0,21,1,35.64A224.18,224.18,0,0,1,256,476.43Zm53.35-103.59a93.72,93.72,0,0,1,2-14.86,5.67,5.67,0,0,0-10.95-2.91c-.12.48-3.09,11.88-2.78,32.78h0a49.33,49.33,0,0,1-17.38,37L280,425a31.42,31.42,0,0,1-6.12,3.9,40.56,40.56,0,0,1-35.84,0A31.42,31.42,0,0,1,232,425l-.22-.17a49.69,49.69,0,0,1-17.38-36.95c.31-20.91-2.66-32.32-2.78-32.8a5.66,5.66,0,0,0-11,2.9,93.16,93.16,0,0,1,2,14.87c-18.57-19.52-60.1-59-109.93-80.14A268.85,268.85,0,0,0,101.49,239c12.84,7.13,35.73,17.12,71.39,23.78l.24,0c22.4,4.17,49.8,7,82.88,7s60.35-2.84,82.71-7l.54-.1c35.7-6.69,58.57-16.71,71.26-23.74a268.75,268.75,0,0,0,8.77,53.66C369.45,313.83,327.92,353.32,309.35,372.84Zm141.46-13.55a344.45,344.45,0,0,0-13.24-46.24c-11.78-32.3-17.18-65.18-16.05-97.73a349,349,0,0,1,14.17-86.86,220.45,220.45,0,0,1,15.12,230.83Z"/><path d="M256.35,140.85a5.65,5.65,0,0,0,5.66-5.66V97.92a5.66,5.66,0,1,0-11.32,0v37.27A5.65,5.65,0,0,0,256.35,140.85Z"/><path d="M250.34,189.44a5.66,5.66,0,1,0,11.32,0V180a5.66,5.66,0,0,0-11.32,0Z"/></svg>