<svg id="icon" xmlns="http://www.w3.org/2000/svg" viewBox="0 0 512 512"><defs><style>.cls-1{fill:#ffe2d4;}.cls-2{fill:#f7bdb5;}.cls-3{fill:#e89991;}.cls-4{fill:#f9e7e5;}.cls-5{fill:#efb9ab;}.cls-6{fill:#fff9f8;}.cls-7{fill:#4d4d4d;}</style></defs><title>breast female</title><path class="cls-1" d="M432.71,407.42C427.8,377,410.36,299.81,410.36,299.81l-11.24-76.93c-3.91-27.66-17.12-38.32-28.22-42.31a38.74,38.74,0,0,0-20-1.43c-9.4,1.68-21.67,2.57-32.8,3a27.91,27.91,0,0,1-29.07-27.9V107.49H217.12v46.78a27.9,27.9,0,0,1-29.06,27.9c-11.13-.46-23.4-1.35-32.81-3a38.7,38.7,0,0,0-20,1.43c-11.1,4-24.32,14.65-28.22,42.31L95.81,299.81S80.37,368.15,74.45,401.59a234.53,234.53,0,0,0,43,41.4l4.69-48a103.45,103.45,0,0,1,7.34-29.47L139,342.42a92.63,92.63,0,0,0,18.35,11.83s4.48,29.8,11.24,60.19A42,42,0,0,1,168,435c-2.38,8.5-5.76,21.07-8.38,32.93a233.38,233.38,0,0,0,187.44,2.35c-2.68-12.53-6.34-26.21-8.89-35.28a42,42,0,0,1-.6-20.51c6.76-30.39,11.25-60.19,11.25-60.19a92.38,92.38,0,0,0,18.34-11.83l9.53,23.09A103.8,103.8,0,0,1,384,395l5.06,51.93A233.85,233.85,0,0,0,432.71,407.42Z"/><circle class="cls-2" cx="172.39" cy="307.49" r="21.5"/><path class="cls-3" d="M156.7,322.16a21.46,21.46,0,0,0,32.63-1.47,19,19,0,0,0-32.63,1.47Z"/><path class="cls-4" d="M185.57,290.53a21.42,21.42,0,0,0-27.3.77,16.56,16.56,0,0,0,27.3-.77Z"/><circle class="cls-2" cx="334.34" cy="307.49" r="21.5"/><path class="cls-5" d="M289.05,136.07V107.49H217.12v28.17L242,158.17a16.62,16.62,0,0,0,22.24.07Z"/><path class="cls-5" d="M288.44,195.93c-11.6-4-24.53,0-31,2.51a11.42,11.42,0,0,1-8.24,0c-6.49-2.5-19.42-6.53-31-2.46a2,2,0,0,0,.56,4c12.41.18,23.59,8.94,29.71,14.83a6.28,6.28,0,0,0,9.08-.47c9.18-10.52,22-13.57,30.41-14.36A2.07,2.07,0,0,0,288.44,195.93Z"/><path class="cls-3" d="M350,322.16a21.44,21.44,0,0,1-32.62-1.47A19,19,0,0,1,350,322.16Z"/><path class="cls-4" d="M321.16,290.53a21.42,21.42,0,0,1,27.3.77,16.56,16.56,0,0,1-27.3-.77Z"/><path class="cls-1" d="M256,23.28a233,233,0,0,0-63.83,8.86l5.1,38.79a74.71,74.71,0,0,0,18.31,40.51,138.33,138.33,0,0,0,21.67,19.21,24.59,24.59,0,0,0,14.4,4.66h2.88a24.56,24.56,0,0,0,14.39-4.66,137.42,137.42,0,0,0,21.67-19.21A74.71,74.71,0,0,0,308.9,70.93l5.3-40.31A233.09,233.09,0,0,0,256,23.28Z"/><path class="cls-5" d="M242.36,288.65a5.42,5.42,0,0,0-10.37-.46c-21.31,61.68-71.71,42.91-71.71,42.91-27.62-17-17.05-60.69-17.05-60.69l-19.42,12.42s-13.94,26.24-1.73,59.59c0,0-11.31,19.78-13.7,37.58-1.61,12.05-5.54,35.31-7.91,49.09q8.15,7.34,17,13.9l4.69-48a103.45,103.45,0,0,1,7.34-29.47L139,342.42a92.63,92.63,0,0,0,18.35,11.83s1.2,8,3.31,20a51.46,51.46,0,0,0,38-.09c.11-.05.2-.12.3-.16,1-.47,2-.94,3-1.42h0C252.64,347.93,245.82,302.49,242.36,288.65Z"/><path class="cls-5" d="M398.34,380c-2.38-17.8-13.7-37.58-13.7-37.58,12.21-33.35-1.73-59.59-1.73-59.59l-19.42-12.42s10.58,43.73-17.05,60.69c0,0-50.39,18.77-71.71-42.91a5.42,5.42,0,0,0-10.37.46c-3.33,13.34-9.79,56.07,35.19,81.18h0l.61.33c3.49,1.9,21.86,11.17,44.46,9,2.65-14.64,4.2-24.94,4.2-24.94a92.38,92.38,0,0,0,18.34-11.83l9.53,23.09A103.8,103.8,0,0,1,384,395l5.06,51.93q9.27-6.48,17.85-13.81C404.74,420.33,400.12,393.32,398.34,380Z"/><path class="cls-5" d="M247.52,365.41a73.6,73.6,0,0,0-31.06,27.42,2.91,2.91,0,0,0,4.46,3.66c17.11-16.11,32.66-17.59,32.66-17.59s15.56,1.48,32.67,17.59a2.9,2.9,0,0,0,4.45-3.66,73.48,73.48,0,0,0-31.06-27.42A14.57,14.57,0,0,0,247.52,365.41Z"/><path class="cls-6" d="M150.47,197.05a9.66,9.66,0,0,0,9.81-9.58v-7.55c-1.73-.24-3.43-.5-5-.78a38.7,38.7,0,0,0-20,1.43c-10.76,3.87-23.51,14-27.84,39.83l8.44,2.12a9.61,9.61,0,0,0,11.41-6.23C132.77,200.39,142.88,197,150.47,197.05Z"/><path class="cls-6" d="M191.82,253.34c7.44,1.56,17.82,5.52,24.72,15.59a7.53,7.53,0,0,1-2.86,11l-.49.24a7.45,7.45,0,0,1-9.53-2.46A21.17,21.17,0,0,0,189,268.11a7.49,7.49,0,0,1-6.31-7.41h0A7.53,7.53,0,0,1,191.82,253.34Z"/><path class="cls-6" d="M370.9,180.57a38.74,38.74,0,0,0-20-1.43c-2,.35-4.09.66-6.28,1v7.38a9.66,9.66,0,0,0,9.81,9.58c7.59,0,17.7,3.34,23.18,19.24A9.61,9.61,0,0,0,389,222.52l9.64-2.42C394.3,194.5,381.62,184.42,370.9,180.57Z"/><path class="cls-6" d="M313.1,253.34c-7.44,1.56-17.82,5.52-24.72,15.59a7.53,7.53,0,0,0,2.86,11l.49.24a7.45,7.45,0,0,0,9.53-2.46,21.17,21.17,0,0,1,14.63-9.59,7.49,7.49,0,0,0,6.31-7.41h0A7.53,7.53,0,0,0,313.1,253.34Z"/><path class="cls-7" d="M371.3,367.73a97.9,97.9,0,0,1,6.94,27.79L383,445.81a5.83,5.83,0,0,0,5.79,5.28l.56,0a5.83,5.83,0,0,0,5.25-6.35l-4.75-50.3a109.59,109.59,0,0,0-7.76-31.12l-1.1-2.66a5.83,5.83,0,0,0-10.77,4.45Z"/><path class="cls-7" d="M149.87,240.18A5.83,5.83,0,0,0,144,246v7.09c-6.47,5.29-22.61,21.29-24.66,50.6-1.93,27.49,14.7,42.17,15.83,43.14h0a98,98,0,0,0,19.66,12.69h0l0,0A72.42,72.42,0,0,0,182.71,365a64.69,64.69,0,0,0,35-10c1.1-.7,27-17.56,29.24-51.53a5.83,5.83,0,0,0-11.63-.75c-1.81,27.91-23,41.87-23.85,42.44-24.35,15.4-50.71,4.27-51.71,3.83a87.19,87.19,0,0,1-17-11h0s0,0,0,0-13.3-11.45-11.75-33.45c2.1-30,21.26-43.1,22.05-43.63A5.83,5.83,0,0,0,155.7,256V246A5.83,5.83,0,0,0,149.87,240.18Z"/><path class="cls-7" d="M170.16,312.87a6.74,6.74,0,0,0,1.08.33,5.6,5.6,0,0,0,1.15.11,5.82,5.82,0,0,0,5.81-5.82,6.3,6.3,0,0,0-.1-1.15,6.1,6.1,0,0,0-.33-1.08,7.07,7.07,0,0,0-.54-1,6,6,0,0,0-.73-.87,5.82,5.82,0,1,0-8.23,8.23,4.88,4.88,0,0,0,.89.73A6,6,0,0,0,170.16,312.87Z"/><path class="cls-7" d="M370.91,346.88h0l0,0h0c1.1-.94,17.76-15.63,15.83-43.14-2.05-29.31-18.18-45.31-24.66-50.6V246a5.83,5.83,0,1,0-11.65,0v10a5.83,5.83,0,0,0,2.64,4.88c.2.13,19.92,13.34,22.05,43.63,1.52,21.73-11.24,33-11.76,33.45,0,0,0,0,0,0h0a86.82,86.82,0,0,1-17,11c-1,.44-27.35,11.57-51.69-3.83-.22-.14-22.05-14.32-23.87-42.44a5.83,5.83,0,0,0-11.63.75c2.2,34,28.14,50.83,29.25,51.54a64.73,64.73,0,0,0,35,10,72.42,72.42,0,0,0,27.77-5.44l0,0h0a98,98,0,0,0,19.61-12.65Z"/><path class="cls-7" d="M329,310.73a5.87,5.87,0,0,0,.71.87,6.17,6.17,0,0,0,.89.73,8.06,8.06,0,0,0,1,.54,7,7,0,0,0,1.1.33,5.48,5.48,0,0,0,1.13.11,5.82,5.82,0,0,0,5.83-5.83,5.9,5.9,0,0,0-1.7-4.12,6.1,6.1,0,0,0-.89-.72,5.44,5.44,0,0,0-1-.54,5.73,5.73,0,0,0-1.09-.33,5.92,5.92,0,0,0-5.26,1.59,5.47,5.47,0,0,0-.71.88,5.18,5.18,0,0,0-.54,1,6.51,6.51,0,0,0-.34,1.09,6.29,6.29,0,0,0-.11,1.14,6.4,6.4,0,0,0,.11,1.15,6.14,6.14,0,0,0,.34,1.08A5,5,0,0,0,329,310.73Z"/><path class="cls-7" d="M253.09,436.83a5.82,5.82,0,0,0,5.82-5.82v-33.7a5.83,5.83,0,1,0-11.65,0V431A5.83,5.83,0,0,0,253.09,436.83Z"/><path class="cls-7" d="M247.38,462.74a5.73,5.73,0,0,0,.33,1.09,6.48,6.48,0,0,0,.53,1,6.83,6.83,0,0,0,.72.89,5.85,5.85,0,0,0,8.25,0,6,6,0,0,0,.71-.89,5.18,5.18,0,0,0,.54-1,5.11,5.11,0,0,0,.34-1.09,6.29,6.29,0,0,0,.11-1.14,6.18,6.18,0,0,0-.11-1.13,5.2,5.2,0,0,0-.34-1.1,5.1,5.1,0,0,0-.54-1,6,6,0,0,0-.71-.89,5.85,5.85,0,0,0-8.25,0,6.83,6.83,0,0,0-.72.89,6.38,6.38,0,0,0-.53,1,5.82,5.82,0,0,0-.33,1.1,5.43,5.43,0,0,0-.12,1.13A5.52,5.52,0,0,0,247.38,462.74Z"/><path class="cls-7" d="M216,204.84c.1,0,10.9-1.36,19.64,5.94a5.83,5.83,0,0,0,7.48-8.95c-12.84-10.72-28.17-8.61-28.82-8.52a5.83,5.83,0,1,0,1.7,11.53Z"/><path class="cls-7" d="M270.57,210.78c8.68-7.25,19.42-6,19.68-5.93a5.83,5.83,0,0,0,1.66-11.54c-.64-.09-16-2.2-28.81,8.52a5.83,5.83,0,0,0,7.47,8.95Z"/><path class="cls-7" d="M152.54,297.36a5.82,5.82,0,0,0-6.9,4.51,27.7,27.7,0,0,0-.58,5.62,27.32,27.32,0,1,0,21.82-26.77,5.83,5.83,0,1,0,2.34,11.42,15.2,15.2,0,0,1,3.16-.32,15.67,15.67,0,1,1-15.66,15.67,15.9,15.9,0,0,1,.33-3.24A5.82,5.82,0,0,0,152.54,297.36Z"/><path class="cls-7" d="M314.45,296.41a5.84,5.84,0,0,0-7.11,4.18,27.33,27.33,0,1,0,26.45-20.43,27.09,27.09,0,0,0-4.59.39A5.83,5.83,0,0,0,331.15,292a15.42,15.42,0,0,1,2.64-.22,15.67,15.67,0,1,1-15.67,15.67,16,16,0,0,1,.5-4A5.83,5.83,0,0,0,314.45,296.41Z"/><path class="cls-7" d="M114,447.68a6.92,6.92,0,0,0,.68.42l0,0a5.73,5.73,0,0,0,2.14.66h.06l.28,0,.28,0c.09,0,.18,0,.28,0a7,7,0,0,0,.92-.11c.15,0,.29-.08.44-.12s.49-.16.73-.26l.42-.22a6.2,6.2,0,0,0,.69-.44,3.92,3.92,0,0,0,.32-.25,5.63,5.63,0,0,0,.86-.9l0,0a2,2,0,0,0,.12-.19,6.2,6.2,0,0,0,.45-.75c0-.12.09-.24.14-.35a5.78,5.78,0,0,0,.24-.7,3.1,3.1,0,0,0,.08-.42,4.42,4.42,0,0,0,.1-.5l4.69-48a97.43,97.43,0,0,1,6.93-27.81l.69-1.67a5.83,5.83,0,0,0-10.77-4.45l-.69,1.68a108.93,108.93,0,0,0-7.76,31.12l-3.66,37.46a226.13,226.13,0,0,1-32-32s0,0,0,0c6.14-33.78,20.66-98.09,20.81-98.73,0-.15.06-.3.08-.45l11.25-76.95c2.81-19.89,11.25-32.91,24.42-37.65a33.23,33.23,0,0,1,17-1.18c8.32,1.49,19.62,2.54,33.58,3.13A33.75,33.75,0,0,0,223,154.27V142a5.83,5.83,0,1,0-11.65,0v12.24a22.09,22.09,0,0,1-23,22.08c-13.44-.56-24.22-1.56-32-2.95a44.62,44.62,0,0,0-23,1.69c-12.2,4.38-27.66,16.09-32,46.95L90.08,298.75c-.86,3.79-12.27,54.53-18.91,88.65a226.67,226.67,0,0,1-3.46-258,5.82,5.82,0,1,0-9.66-6.51A238.83,238.83,0,0,0,43.75,365,240.77,240.77,0,0,0,114,447.68Z"/><path class="cls-7" d="M143.28,466.29A238.94,238.94,0,0,0,256,494.55a236.08,236.08,0,0,0,107.88-25.73,5.83,5.83,0,1,0-5.28-10.39q-3.68,1.86-7.41,3.58c-2.46-10.59-5.33-21.22-7.41-28.64a36.49,36.49,0,0,1-.52-17.67c2.53-11.38,5-23.94,7.43-37.33a5.83,5.83,0,1,0-11.47-2.06c-2.37,13.23-4.84,25.64-7.34,36.86a48.1,48.1,0,0,0,.68,23.35c2.18,7.79,5.25,19.16,7.76,30.21A224.79,224.79,0,0,1,256,482.89a227.83,227.83,0,0,1-89.63-18.42c2.43-10.39,5.25-20.85,7.24-28a48,48,0,0,0,.68-23.35c-2.32-10.42-4.62-21.93-6.86-34.21A5.82,5.82,0,1,0,156,381c2.26,12.44,4.59,24.1,6.94,34.66a36.24,36.24,0,0,1-.52,17.67c-1.88,6.69-4.48,16.31-6.82,26.13q-3.42-1.68-6.77-3.48a5.83,5.83,0,0,0-5.52,10.27Z"/><path class="cls-7" d="M416.2,424.91a5.83,5.83,0,0,0,8.24,0A237,237,0,0,0,494.55,256c0-110.75-75.86-204.1-178.35-230.85-.19-.07-.39-.11-.58-.16a238.89,238.89,0,0,0-124.25,1.39,5.62,5.62,0,0,0-1.31.35,236.78,236.78,0,0,0-48.22,19.76,5.83,5.83,0,1,0,5.59,10.23,223.67,223.67,0,0,1,39.87-17l4.19,31.94a81.11,81.11,0,0,0,19.77,43.67,144.29,144.29,0,0,0,22.59,20,30.63,30.63,0,0,0,14.36,5.56c.22,0,.45,0,.67,0a5.83,5.83,0,0,0,.65-11.62,18.83,18.83,0,0,1-8.87-3.44,132.64,132.64,0,0,1-20.77-18.4,69.3,69.3,0,0,1-16.84-37.35l-4.43-33.69a227.47,227.47,0,0,1,109.12-1.42l-4.62,35.11a69.27,69.27,0,0,1-16.84,37.35,130.25,130.25,0,0,1-15.83,14.69,5.83,5.83,0,1,0,7.21,9.16c1.91-1.5,3.75-3.05,5.56-4.63v27.53A33.76,33.76,0,0,0,318.36,188c14-.59,25.27-1.64,33.59-3.13a33.2,33.2,0,0,1,17,1.18c13.17,4.74,21.62,17.76,24.43,37.68l11.24,76.92a3.58,3.58,0,0,0,.09.45c.16.72,16.48,73,21.83,104.58-3.3,3.75-6.72,7.42-10.3,11A5.84,5.84,0,0,0,416.2,424.91Zm-.11-126.16-11.2-76.68c-4.36-30.89-19.82-42.6-32-47a44.77,44.77,0,0,0-23-1.69c-7.8,1.39-18.57,2.39-32,2.95a22.08,22.08,0,0,1-23-22.08V115.39l0,0a81.11,81.11,0,0,0,19.77-43.67L319.1,38c94.51,27.41,163.79,114.74,163.79,218a225.16,225.16,0,0,1-46.66,137.87C429.89,360,417,302.79,416.09,298.75Z"/><path class="cls-7" d="M97.48,77.74c-.76.67-1.51,1.35-2.26,2a5.83,5.83,0,1,0,7.87,8.6l2.14-1.93a5.83,5.83,0,1,0-7.75-8.7Z"/></svg>