<svg id="icon" xmlns="http://www.w3.org/2000/svg" viewBox="0 0 512 512"><defs><style>.cls-1{fill:#999;}.cls-2{fill:gray;}.cls-3{fill:#efb9ab;}.cls-4{fill:#ffe2d4;}.cls-5{fill:#b5b5b5;}.cls-6{fill:#fff9f8;}.cls-7{fill:#4d4d4d;}</style></defs><title>ear</title><path class="cls-1" d="M488.72,256C488.72,127.47,384.53,23.28,256,23.28A232.5,232.5,0,0,0,61.69,127.91c1.08,28.28,12.16,77.74,71.78,106.08-3.57,9.69-8.84,23.8-8.84,23.8l58.88,26.63,26.06-16.12,2.92-13.58c114.24,21.67,209.19,87,246.3,115.5A231.6,231.6,0,0,0,488.72,256Z"/><path class="cls-2" d="M488.72,256c0-1.36,0-2.72-.05-4.08a86.19,86.19,0,0,1-13.26-15,108.58,108.58,0,0,1-13.08-25.41c-8.76-24.06-46.55-111.39-136.18-121.64C253,81.48,205.39,124.45,183.59,150.7c-10.62,12.79-28.89,16.6-43.33,8.35C108.6,141,97.76,108.72,93.69,89.26a234.12,234.12,0,0,0-32,38.65c1.08,28.28,12.16,77.74,71.78,106.08-3.57,9.69-8.84,23.8-8.84,23.8l58.88,26.63,26.06-16.12,2.92-13.58c114.24,21.67,209.19,87,246.3,115.5A231.6,231.6,0,0,0,488.72,256Z"/><path class="cls-3" d="M393,243.43l-212.7,86.44L127.34,449.94A231.63,231.63,0,0,0,256,488.72c101.43,0,187.69-64.89,219.56-155.43C395.57,320.27,393,243.43,393,243.43Z"/><path class="cls-4" d="M395.92,157.23C387.51,125.06,362.4,99.5,330,92,281.31,80.77,247.91,117,247.91,117c-31.43,29.05-44,78.18-48.64,103.35a17.3,17.3,0,0,1-.43,1.79,191.9,191.9,0,0,1-7.61,24.09,24.56,24.56,0,0,1-30.73,14.37c-2.57-.88-5-1.82-7.35-2.77a17.78,17.78,0,0,1-10.36-21.29c0-.13.08-.26.11-.39a24.56,24.56,0,0,0-7.08-24.76c-41-37.56-56.13-78.14-59.19-103.63a232.77,232.77,0,0,0,69.42,353.43c40.59-38.55,42.64-114.72,42.64-114.72-.33,26.05,9.4,44,21.27,56.13,23,23.51,58.3,29.31,88.59,16.54,52.18-22,81-83.36,81-83.36C415.92,259.32,405.67,194.54,395.92,157.23Z"/><path class="cls-3" d="M292.85,340.68a34.22,34.22,0,0,0-6.74-2.64,19.28,19.28,0,0,1-11.47-28.49l.28-.47a27.93,27.93,0,0,0,10.19-19.15c0-32.71-29.43-28.3-29.43-28.3C219.06,269.32,236,299.74,236,299.74a26.15,26.15,0,0,1,4,14.67,182.81,182.81,0,0,0-11.53,26.38c-6.66,19.64,8.38,22.25,8.38,22.25,15-14.22,44.22-7.52,44.22-7.52C338.53,371.65,354,299,354,299c-18.41,40.52-42.72,44.38-53.29,43.91A18.67,18.67,0,0,1,292.85,340.68Z"/><path class="cls-3" d="M368.52,182s-.19-.83-.6-2.27c-.86-7.48-6.38-38.75-38.55-49.17a43.31,43.31,0,0,0-9.81-2.35,86.42,86.42,0,0,0-16.89-1s-31.12-1.47-49.58,40.36a21.36,21.36,0,0,1,1.54-2,57,57,0,0,0-2.76,7.54c-5,17.55-4.13,41.2,21.38,63.54l.12-.37a25.58,25.58,0,0,0,8.5,5.39,34.19,34.19,0,0,0,3.92,1.27c12.15,3.1,24-6,23.59-18.49l0-.66a19.75,19.75,0,0,0-3-9.63,19.92,19.92,0,0,1-.39-20.57l.12-.2s-15.82-16-35.72-11.78A10.34,10.34,0,0,1,258.5,168l.09-.21A24.91,24.91,0,0,1,266.43,157c6.37-2.77,15-4.06,25.82-.26,0,0,11.34,3.08,19.81-2.72a23.94,23.94,0,0,1,21.15-3.28c10.54,3.54,24.35,11.73,34.86,30.62,0,0,0-.12,0-.36C368.2,181.37,368.36,181.7,368.52,182Z"/><circle class="cls-3" cx="315.43" cy="275.5" r="10.72"/><path class="cls-5" d="M270.45,48.5a19.19,19.19,0,0,0,20.29-18.85l.07-3.78A235.05,235.05,0,0,0,256,23.28a231.54,231.54,0,0,0-129,39l4.07,6.14a19.21,19.21,0,0,0,25.4,6.18C177.3,63,218.37,45.14,270.45,48.5Z"/><path class="cls-6" d="M247.91,117c-27.15,25.09-40.25,65.16-46.28,91.84l1.94.54a17.92,17.92,0,0,0,22.09-12.57c14-51.28,38.86-72.49,54.78-81.09A17.92,17.92,0,0,0,288.6,93.2l-.05-.14A96,96,0,0,0,247.91,117Z"/><path class="cls-6" d="M242.86,355.24l4,9.11a11.54,11.54,0,0,0,13.34,6.54c6.81-1.64,17.2-2.12,30.18,3.6,14.68,6.47,29.34-.36,38.49-6.62a11.44,11.44,0,0,0,2.5-16.47l-3.87-5s-13.71,16.17-32.08,11.4S242.86,355.24,242.86,355.24Z"/><path class="cls-3" d="M190.13,364.05a218.65,218.65,0,0,0-1.52-26h-1.46a27.55,27.55,0,0,0-27.22,23.23c-5.08,32.21-26.12,59.08-46.78,78.41a232.45,232.45,0,0,0,32.9,21.44c40.59-38.55,42.64-114.72,42.64-114.72A90.52,90.52,0,0,0,190.13,364.05Z"/><path class="cls-7" d="M418.14,278.69a5.82,5.82,0,0,0-6.77,4.7c-3.51,19.44,2.53,43.6,23.92,53.75a5.83,5.83,0,0,0,5-10.53c-16.91-8-20-27.18-17.44-41.15A5.83,5.83,0,0,0,418.14,278.69Z"/><path class="cls-7" d="M331.31,86.34c-50.1-11.58-84.48,23.27-87.51,26.48a131.51,131.51,0,0,0-27.38,36.75h0c-13.45,24.83-22.19,51.48-24.61,75A5.83,5.83,0,0,0,197,231l.61,0a5.83,5.83,0,0,0,5.79-5.23c2.26-22.07,10.53-47.17,23.26-70.67l0-.07,0-.06a120.11,120.11,0,0,1,25.13-33.77c.12-.1.22-.21.33-.32.31-.34,31.62-33.58,76.5-23.21,30,6.92,53.56,30.3,61.59,61,16,61.22,10.76,118.31-16,174.56-.28.6-28.4,59.58-77.94,80.47-29,12.2-61.2,6.22-82.16-15.24-13.28-13.6-19.88-31.08-19.62-52v-.15c0-.11-.14-11.65,0-30.17a5.83,5.83,0,0,0-5.8-5.86h0a5.82,5.82,0,0,0-5.82,5.8c-.1,17.61,0,28.95,0,30.24a235.75,235.75,0,0,1-11,59.76,5.83,5.83,0,1,0,11.06,3.67,227.79,227.79,0,0,0,7-26.56,78.61,78.61,0,0,0,15.9,23.39,83.39,83.39,0,0,0,60,25,90.21,90.21,0,0,0,35-7.17c53.63-22.61,82.76-83.67,84-86.22,28-58.81,33.51-118.51,16.79-182.49C392.43,120.84,365.51,94.24,331.31,86.34Z"/><path class="cls-7" d="M56.56,135.87a5.84,5.84,0,0,0,8-1.78c2.69-4.22,5.55-8.37,8.54-12.43,4.49,19.87,15.89,49.58,44.79,67.88a5.82,5.82,0,1,0,6.23-9.84C91.9,159.25,84.22,122.07,82.41,107a4.88,4.88,0,0,0-.19-.86s0-.06,0-.1a5.6,5.6,0,0,0-.4-1,.14.14,0,0,0,0-.06,5.87,5.87,0,0,0-.62-.94h0a5.83,5.83,0,0,0-4.91-2.15h-.32a5,5,0,0,0-.65.14l-.37.08c-.23.08-.44.17-.66.27s-.27.11-.4.18a6.49,6.49,0,0,0-.55.36c-.14.1-.27.18-.4.29a4.67,4.67,0,0,0-.45.44,3.22,3.22,0,0,0-.32.32,239.17,239.17,0,0,0-17.35,23.8A5.84,5.84,0,0,0,56.56,135.87Z"/><path class="cls-7" d="M142.61,465.83a5.87,5.87,0,0,0,1.48.79,238.86,238.86,0,0,0,181.6,17.59,5.83,5.83,0,0,0-3.4-11.15A227.32,227.32,0,0,1,155.73,459.5a113,113,0,0,0,10.82-14.4,5.83,5.83,0,1,0-9.83-6.26,99.16,99.16,0,0,1-11.64,15c-69.15-38.92-116-113-116-197.87a225.43,225.43,0,0,1,18-88.64,5.82,5.82,0,1,0-10.72-4.56A237,237,0,0,0,17.45,256C17.45,346.52,68.13,425.42,142.61,465.83Z"/><path class="cls-7" d="M256,17.45A236.42,236.42,0,0,0,111.92,65.86a5.83,5.83,0,0,0,7,9.29,224.89,224.89,0,0,1,137-46c125.11,0,226.89,101.78,226.89,226.89a227.85,227.85,0,0,1-11.13,70.68c-8.18-2.05-21.77-8.43-23.61-28.19a5.83,5.83,0,1,0-11.61,1.07c2.1,22.55,16.51,34.13,31.3,38.16a226.09,226.09,0,0,1-55.63,82.84,5.83,5.83,0,0,0,8,8.45,236.44,236.44,0,0,0,74.31-173C494.55,124.46,387.54,17.45,256,17.45Z"/><path class="cls-7" d="M133.05,256.77a5.84,5.84,0,0,0,8.18-1c15.07-19.32,10.15-41.77,9.93-42.71a5.83,5.83,0,1,0-11.36,2.6c0,.18,3.94,17.95-7.76,32.94A5.83,5.83,0,0,0,133.05,256.77Z"/><path class="cls-7" d="M169.79,214.57h0a5.83,5.83,0,0,0-5.83,5.82c0,.24-.16,24.19-13,41.06a5.83,5.83,0,0,0,9.27,7.07c15.24-20,15.44-47,15.44-48.12A5.83,5.83,0,0,0,169.79,214.57Z"/><path class="cls-7" d="M182.9,244.64c0,.16-2,16.3-11.7,26.93a5.83,5.83,0,1,0,8.6,7.86C192,266.05,194.38,246.79,194.48,246a5.83,5.83,0,1,0-11.58-1.34Z"/><path class="cls-7" d="M367.29,188.94a5.83,5.83,0,0,0,11.52-1.77,108,108,0,0,0-8.18-27.92A65.52,65.52,0,0,0,308.38,120a64.68,64.68,0,0,0-59.52,41.73c-.86,2.19-1.36,3.76-1.56,4.46-21.18,51.79,24.69,77,25.16,77.26a5.73,5.73,0,0,0,2.73.69,5.83,5.83,0,0,0,2.77-11c-1.52-.83-37.16-20.73-19.77-62.84a5.9,5.9,0,0,0,.23-.67s.4-1.42,1.29-3.69a53.2,53.2,0,0,1,49-34.33A54,54,0,0,1,360,164,96.52,96.52,0,0,1,367.29,188.94Z"/><path class="cls-7" d="M326.58,272.47a5.82,5.82,0,0,0-7.26,3.89l-.88,2.8a5.82,5.82,0,0,0,3.75,7.33,5.93,5.93,0,0,0,1.8.28,5.83,5.83,0,0,0,5.54-4c.32-1,.64-2,.94-3A5.84,5.84,0,0,0,326.58,272.47Z"/><path class="cls-7" d="M336.64,247.47c4.23-68.48-60.06-77.3-60.71-77.38a5.83,5.83,0,1,0-1.45,11.57,67.83,67.83,0,0,1,26.73,10.72c17.29,11.81,25.3,30.1,23.8,54.37a5.84,5.84,0,0,0,5.46,6.18h.36A5.82,5.82,0,0,0,336.64,247.47Z"/><path class="cls-7" d="M220.47,339.12a5.82,5.82,0,1,0,9.88,6.17c0-.06,4.06-6.47,9.52-13.82a30.74,30.74,0,0,0,1.53-34.53l-.25-.39c-4.36-6.72-4.21-15,.36-20.66a24.59,24.59,0,0,1,8.59-6.49,21.32,21.32,0,0,1,19.28.06,20,20,0,0,1,8.62,8.61,20.33,20.33,0,0,1-.72,19.43c-3.25,5.49-8.34,9.11-15.11,10.74a5.83,5.83,0,1,0,2.73,11.33,34.76,34.76,0,0,0,22.41-16.13,32.12,32.12,0,0,0,1.09-30.65,31.48,31.48,0,0,0-13.5-13.6,33.05,33.05,0,0,0-29.85-.3,36.2,36.2,0,0,0-12.6,9.66c-7.75,9.57-8.19,23.37-1.08,34.34l.17.26a19,19,0,0,1-1,21.37C224.76,332.26,220.64,338.84,220.47,339.12Z"/><path class="cls-7" d="M232,359.71a5.82,5.82,0,0,0,1.45,8.11,5.75,5.75,0,0,0,3.32,1.05,5.83,5.83,0,0,0,4.79-2.5c.09-.13,10.29-12.06,45.72-2.94,12.75,3.28,24.67,1.66,35.43-4.84,26.61-16,36.47-56.51,36.88-58.22a5.83,5.83,0,0,0-11.34-2.7c-.09.38-9.18,37.46-31.59,51-8.08,4.87-16.75,6-26.48,3.51C246.6,340.92,233.39,357.75,232,359.71Z"/></svg>