<svg id="icon" xmlns="http://www.w3.org/2000/svg" viewBox="0 0 512 512"><defs><style>.cls-1{fill:#999;}.cls-2{fill:gray;}.cls-3{fill:#ffe2d4;}.cls-4{fill:#efb9ab;}.cls-5{fill:#fff9f8;}.cls-6{fill:#b5b5b5;}.cls-7{fill:#4d4d4d;}</style></defs><title>face male</title><path class="cls-1" d="M132.66,147.57s-46.94,37.23-21.38,85.82a41.71,41.71,0,0,0,7.57,10.06c7,7,22,23.21,29.08,40.4L376,238.37s23.93,7.88,25.69-22.66c0,0,5.71-98.25-97.34-126.28A183.76,183.76,0,0,0,193.73,94C168.18,103.22,141.38,119.43,132.66,147.57Z"/><path class="cls-2" d="M376,238.37s23.93,7.88,25.69-22.66c0,0,2.67-46.09-28.75-84.14,3.28,25.11-2.66,53.85-27.92,61.47s-53.24-6.07-65.85-13.45a4.83,4.83,0,0,0-7.25,4.19,74.92,74.92,0,0,0,.74,10.28,7.17,7.17,0,0,1-8.72,7.92c-14.52-3.22-28.13-9.3-36.64-13.63a4.83,4.83,0,0,0-6.8,5.73l.09.28a7.18,7.18,0,0,1-6.92,9.47c-11.29-.14-22.9-4.14-30.22-7.23a4.82,4.82,0,0,0-6.63,5.24c.07.44.15.88.23,1.29a7.16,7.16,0,0,1-7.48,8.45C142.28,209.74,134.81,193,134.81,193c1.21,18.25,14.66,29.33,14.66,29.33v61.17Z"/><path class="cls-3" d="M209.51,484.07A233.38,233.38,0,0,0,373.8,456.73c-49.19-5.79-33.72-104.55-33.72-104.55l-30.52-1.72-89.78,81.88C225.87,473.87,209.61,484,209.51,484.07Z"/><path class="cls-4" d="M340.08,352.18l-30.52-1.72-89.78,81.88c.37,2.49.65,4.87.86,7.15l44.12,11.22a28.78,28.78,0,0,0,19.29-1.83l16.16-7.57a16.53,16.53,0,0,1,21.86,7.58A83.35,83.35,0,0,0,340.18,473a231.67,231.67,0,0,0,33.62-16.28C324.61,450.94,340.08,352.18,340.08,352.18Z"/><path class="cls-3" d="M148,220.4s-9,16.28-9,49.41v62.51a60.6,60.6,0,0,0,18.2,43.25c14.62,14.34,34.87,35.79,48.42,56.57A14.72,14.72,0,0,0,218,438.82h31a28.3,28.3,0,0,0,20-8.25C281.45,418.25,310.59,388,318.5,360c0,0,33.35,6.93,45.7-19.46,0,0,15.16-33.69-3.93-51.1,0,0,13.48-14.59,15.72-51.09,0,0-10.38-15.57-33.3-17.73a54,54,0,0,0-9.26,0c-7.56.59-28.91,1.57-37.17-5.3a29.58,29.58,0,0,0,4.32,10.94,8.29,8.29,0,0,1-7.16,12.64c-10-.06-22.27-2.36-32-11.23,0,0-20.77,18.53-51.66,7.3C209.79,235,167.68,249.6,148,220.4Z"/><path class="cls-4" d="M360.27,289.46s8.45-9.17,13.09-31.12L329,238.93l-40,30.86s17.86,41.11,9.67,79.63a49,49,0,0,1-4.86,13c-6.12,11.38-20.82,37.21-35.29,51.47a17.72,17.72,0,0,1-12.46,5.1H235.7A13.71,13.71,0,0,0,222,432l-.37,6.86h27.43a28.3,28.3,0,0,0,20-8.25C281.45,418.25,310.59,388,318.5,360c0,0,33.35,6.93,45.7-19.46C364.2,340.56,379.36,306.87,360.27,289.46Z"/><path class="cls-4" d="M342.69,220.64a54,54,0,0,0-9.26,0c-7.56.59-28.91,1.57-37.17-5.3a29.58,29.58,0,0,0,4.32,10.94,8.29,8.29,0,0,1-7.16,12.64c-10-.06-22.27-2.36-32-11.23,0,0-20.77,18.53-51.66,7.3,0,0-40.14,13.9-60.32-12.63,9.45,17.25,27.18,34.59,60,32.18,0,0,24.55,15.14,52.67-3.55,0,0,42.32,20.45,61.42-4.95,0,0,27.9-12.37,52-2.76.15-1.6.29-3.23.39-4.92C376,238.37,365.61,222.8,342.69,220.64Z"/><path class="cls-1" d="M376,238.37s-10.38-15.57-33.3-17.73a54,54,0,0,0-9.26,0c-7.56.59-28.91,1.57-37.17-5.3a29.58,29.58,0,0,0,4.32,10.94,8.29,8.29,0,0,1-7.16,12.64,52.45,52.45,0,0,1-22.22-4.69c-.41,13,3.32,34.79,28.24,52.45,0,0,17.34,12.5,20.25,27,0,0,6.78-38.93,40.58-24.24C360.27,289.46,373.75,274.87,376,238.37Z"/><path class="cls-2" d="M376,238.37s-10.57-15.86-33.94-17.79a54.44,54.44,0,0,0-8.66.07c-.81.06-1.78.13-2.85.19h0c-9.12.52-26.91.65-34.28-5.49a29.57,29.57,0,0,0,4.31,10.92,8.28,8.28,0,0,1-7.09,12.66,52.41,52.41,0,0,1-22.28-4.69,57.43,57.43,0,0,0,3.38,21.34c13.07,3.8,33.51,5,46.36-8.34a11.24,11.24,0,0,1,7.64-3.45c1.74-.07,3.26-.06,4.74,0a11.68,11.68,0,0,1,11,13c-1.15,10.34-6.12,21.21-12.2,34.28,6.16-5,15.16-7.28,28.18-1.62,0,0,12.81-13.89,15.53-48.42C375.87,240.16,375.94,239.28,376,238.37Z"/><path class="cls-2" d="M319.69,313.7a42.66,42.66,0,0,1,1.3-5c-.64.79-1.3,1.59-2,2.38A23.89,23.89,0,0,1,319.69,313.7Z"/><path class="cls-5" d="M172.55,361.55C157.53,350.19,159,330.4,159,330.4V290.58A14.55,14.55,0,0,0,144.45,276h-5.4v56.28a60.6,60.6,0,0,0,18.2,43.25,445.77,445.77,0,0,1,35.6,39l3.41-2.82a15.82,15.82,0,0,0,2.45-21.81C191.49,380.51,181.18,368.07,172.55,361.55Z"/><path class="cls-6" d="M157.08,149.59c24.76-34.93,65-43.33,88.67-45.09a20.66,20.66,0,0,0,19.19-20.58v-.67A183.8,183.8,0,0,0,193.73,94c-25.55,9.25-52.35,25.46-61.07,53.6A90.83,90.83,0,0,0,112,173.06,24.16,24.16,0,0,0,141.2,166a53.62,53.62,0,0,1,8.72-8.78A36.78,36.78,0,0,0,157.08,149.59Z"/><path class="cls-7" d="M99.15,89.9a5.8,5.8,0,0,0,3.93-1.52l2.15-1.94a5.83,5.83,0,0,0-7.75-8.71l-2.26,2A5.83,5.83,0,0,0,99.15,89.9Z"/><path class="cls-7" d="M106.12,236.1a47.53,47.53,0,0,0,8.61,11.47,166.2,166.2,0,0,1,18.5,21.88c0,.12,0,.24,0,.36v62.51a66.83,66.83,0,0,0,19.95,47.41c14.4,14.13,34.36,35.26,47.62,55.6A20.51,20.51,0,0,0,218,444.65h31a34,34,0,0,0,24.1-9.94c25.77-25.63,42.36-48.54,49.37-68.22,14.23,1.34,37-2.16,47-23.54.64-1.44,14.74-33.47-1.72-53.95,4.53-7.08,12.33-23,14-50.27a.85.85,0,0,1,0-.16q0-.31,0-.63a4.36,4.36,0,0,0,0-.52,5.66,5.66,0,0,0-.13-.56,5,5,0,0,0-.17-.55c-.06-.16-.14-.31-.21-.47s-.19-.39-.3-.57l-.08-.13c-.48-.73-12.21-17.91-37.6-20.3a58.57,58.57,0,0,0-10.27,0c-15.67,1.23-28.61-.33-33-4a5.82,5.82,0,0,0-9.51,5.2,34.94,34.94,0,0,0,5.18,13.34,2.25,2.25,0,0,1,.06,2.37,2.51,2.51,0,0,1-2.25,1.32h0a47.32,47.32,0,0,1-18.13-3.41,5.89,5.89,0,0,0-.75-.39c-11.47-4.57-20.18-11.9-23.9-20.11A5.82,5.82,0,1,0,240.06,214c6.34,14,19.94,21.77,28.52,25.43l.11.07a57.76,57.76,0,0,0,24.7,5.26h.08a14.21,14.21,0,0,0,12.44-7.34,13.77,13.77,0,0,0,.84-11.81c9.31,1.74,20,1.41,27.13.85a47.57,47.57,0,0,1,8.27,0c15.94,1.5,24.86,10.19,27.86,13.72-1.77,23.3-8.35,36.69-11.84,42.26-9.49-3.17-18-2.78-25.36,1.19-6.54,3.52-10.93,9.32-13.82,14.81a76.58,76.58,0,0,0-16.18-16.49c-11-7.81-18.63-17.22-22.62-28A5.83,5.83,0,0,0,269.27,258c4.81,13,13.83,24.22,26.76,33.38,4.31,3.11,15.93,13.37,17.94,23.43a5.83,5.83,0,0,0,5.72,4.68h.05a5.83,5.83,0,0,0,5.68-4.8c0-.16,2.89-15.49,12.95-20.87,5-2.65,11.24-2.43,18.65.59,14.63,14.56,2,43.44,1.91,43.65-7.71,16.46-25.45,17.45-34.2,16.84l.77-10.14a5.83,5.83,0,0,0-11.62-.88L312.73,359c-3.8,13-15.21,35.09-47.78,67.47A22.36,22.36,0,0,1,249.07,433H218a8.87,8.87,0,0,1-7.47-4c-13.83-21.22-34.4-43-49.22-57.55a55.1,55.1,0,0,1-16.45-39.09V269.81a150.09,150.09,0,0,1,2-25.43,5.82,5.82,0,0,0-11.48-2c-.52,3-.91,6-1.24,9.18-4.45-5.3-8.56-9.59-11.24-12.26a35.65,35.65,0,0,1-6.52-8.64c-23-43.65,18.09-77.14,19.84-78.54a5.77,5.77,0,0,0,1.94-2.84c6.73-21.7,26.07-38.48,57.49-49.85a176.77,176.77,0,0,1,107.1-4.39c40.72,11.07,68.74,34.55,83.27,69.79a129.24,129.24,0,0,1,9.78,50.52c-.3,5.18-1.31,9.32-3,12.31A5.83,5.83,0,1,0,403,233.44c2.6-4.56,4.11-10.41,4.52-17.39.06-1.06,1.37-26.22-10.45-55.17-10.95-26.83-35.65-62-91.18-77.07a188.42,188.42,0,0,0-114.13,4.68C158,100.72,135.83,120,127.62,144.22,119.6,151.34,81.29,188.89,106.12,236.1Z"/><path class="cls-7" d="M188.48,232.83c-10.58.59-42.14-5.65-47.92-40.74a5.83,5.83,0,0,0-11.5,1.9c6.88,41.74,43.59,50.52,58.31,50.52.63,0,1.21,0,1.75,0a5.83,5.83,0,0,0-.64-11.64Z"/><path class="cls-7" d="M235.16,243.13c1.67,0,3.07-.07,4.1-.15a5.83,5.83,0,0,0-.86-11.62c-5.67.42-25,.58-35.83-15.14a5.83,5.83,0,1,0-9.61,6.6C205.22,240.67,225.14,243.13,235.16,243.13Z"/><path class="cls-7" d="M208,489.7a5.79,5.79,0,0,0,.83.16A238.78,238.78,0,0,0,256,494.55a5.83,5.83,0,0,0,0-11.66,228.27,228.27,0,0,1-35.69-2.81c2.58-4.53,5.05-11.08,6.11-20.3a5.83,5.83,0,1,0-11.58-1.34c-1.29,11.25-5,16.92-7,19.29C105.78,455.58,29.11,364.58,29.11,256a225.83,225.83,0,0,1,38.6-126.65,5.82,5.82,0,1,0-9.66-6.51A237.35,237.35,0,0,0,17.45,256C17.45,371.1,99.4,467.43,208,489.7Z"/><path class="cls-7" d="M256,17.45a238.85,238.85,0,0,0-114.16,29,5.83,5.83,0,1,0,5.59,10.23A227.09,227.09,0,0,1,256,29.11c125.11,0,226.89,101.78,226.89,226.89,0,81.66-42.54,154.49-110,194.68-26.41-4.64-29.71-45.2-29.28-69.29a5.83,5.83,0,0,0-11.66-.21c-.72,40.78,8.64,67,27.23,77A230.67,230.67,0,0,1,322,473.15a5.83,5.83,0,0,0,3.38,11.15,236.67,236.67,0,0,0,50.7-22.22,6.29,6.29,0,0,0,1.23-.72,240.92,240.92,0,0,0,69.37-62A236.5,236.5,0,0,0,494.55,256C494.55,124.46,387.54,17.45,256,17.45Z"/></svg>