<svg id="icon" xmlns="http://www.w3.org/2000/svg" viewBox="0 0 512 512"><defs><style>.cls-1{fill:#999;}.cls-2{fill:gray;}.cls-3{fill:#ffe2d4;}.cls-4{fill:#efb9ab;}.cls-5{fill:#b5b5b5;}.cls-6{fill:#fff9f8;}.cls-7{fill:#4d4d4d;}</style></defs><title>face female</title><path class="cls-1" d="M395.4,215.17S389.83,142.3,326.7,109c-24.95-13.15-53.79-16.65-81.48-11.3-16.81,3.25-37.26,9.55-54.5,21.73,0,0-73,12.6-73,104.55l14.68,229.18a232.75,232.75,0,0,0,272.54-18.32Z"/><path class="cls-2" d="M190.29,479.26c.82.25,1.65.49,2.48.72l2.68.74c1.17.31,2.33.62,3.51.91l1.87.47q2.65.64,5.32,1.23l.21.05a232.85,232.85,0,0,0,198.53-48.53L395.4,215.17s-5.33-69.64-64.56-103.86c-2.73,27.8-20.34,103.45-131.78,85.25L166.24,338.78,168,382.06c.82,20.47-15.36,38.07-35.86,38-.63,0-1.27,0-1.92,0l2.13,33.2a231.26,231.26,0,0,0,53.34,24.69l1.24.4Z"/><path class="cls-3" d="M256,488.72a231.68,231.68,0,0,0,107.87-26.47,57.23,57.23,0,0,1-20.16-21.39,60.63,60.63,0,0,1-7.46-28.2l-1.92-88.2L319,312.12l-73.07,92.54v50.26c0,14.07-11.14,24.95-20.81,31.75A233.51,233.51,0,0,0,256,488.72Z"/><path class="cls-4" d="M343.71,440.86a60.63,60.63,0,0,1-7.46-28.2l-1.92-88.2L319,312.12l-73.07,92.54V424.4c4.5.33,18.9.64,37.31-6.25a17.86,17.86,0,0,1,24.06,14.23c2.05,15,7.11,33.29,19.2,45.46a231.39,231.39,0,0,0,37.41-15.59A57.23,57.23,0,0,1,343.71,440.86Z"/><path class="cls-3" d="M196.56,174.4s-2.05,77.08,65.48,68.21c0,0,16.37,11,43,.71,0,0,23.87,10.89,20.46,42.94,0,0,4.7-15.81,19.18-17.33a20.67,20.67,0,0,1,21.77,14.92c2.35,8.12,2,20.47-8.21,37.88,0,0-11.59,27.28-41.61,17,0,0-7.83,43.87-45.89,74a56.08,56.08,0,0,1-34.92,11.92h0a56.53,56.53,0,0,1-40.3-16.63c-16.44-16.68-37.22-48.25-44.63-104.78C150.86,303.31,132.45,194.87,196.56,174.4Z"/><path class="cls-5" d="M262.17,100.43l-.5-4.83a132.86,132.86,0,0,0-16.45,2.11c-16.81,3.25-37.26,9.55-54.5,21.73,0,0-40.64,7-61.29,48.73l2.61,2.07a18.57,18.57,0,0,0,26-3,64.83,64.83,0,0,1,37.66-22.95,35.2,35.2,0,0,0,14.34-6.53c14.28-10.89,27.36-15.42,37.08-17.19A18.49,18.49,0,0,0,262.17,100.43Z"/><path class="cls-4" d="M251.87,259.29S257,263.41,267,265.9a42.38,42.38,0,0,1,31.8,42.91c-.77,20.09-5.68,44.92-20.94,68.85,0,0-18.05,28.82-45,27.77a13.44,13.44,0,0,0-14,12.88l-.15,3.82a57.67,57.67,0,0,0,17.08,2.59h0a56.13,56.13,0,0,0,34.92-11.91c38.06-30.16,45.89-74,45.89-74,30,10.23,41.61-17,41.61-17,10.15-17.35,10.56-29.67,8.24-37.79a20.69,20.69,0,0,0-21.79-15c-14.49,1.51-19.19,17.33-19.19,17.33,3.41-32-20.46-42.94-20.46-42.94-26.6,10.26-43-.71-43-.71-67.53,8.87-65.48-68.21-65.48-68.21S188,254,251.87,259.29Z"/><path class="cls-6" d="M170.62,206.64l-7-5.61c-23.5,39-12.76,102.28-12.76,102.28A242.23,242.23,0,0,0,162,351.66l2.8-.9a17.85,17.85,0,0,0,12-21c-12.25-52.12-5.6-87-.31-103.63A17.94,17.94,0,0,0,170.62,206.64Z"/><path class="cls-7" d="M99.15,89.9a5.8,5.8,0,0,0,3.93-1.52l2.15-1.94a5.83,5.83,0,0,0-7.75-8.71l-2.26,2A5.83,5.83,0,0,0,99.15,89.9Z"/><path class="cls-7" d="M256,494.55c5.74,0,11.53-.21,17.22-.61a5.83,5.83,0,0,0-.83-11.63c-5.41.39-10.93.58-16.39.58q-8.44,0-16.75-.62c8.19-8.47,12.47-17.76,12.47-27.35V447a5.83,5.83,0,0,0-11.66,0v7.93c0,10.8-8.58,19.72-16.5,25.65C113.77,464.78,29.11,370.1,29.11,256a225.83,225.83,0,0,1,38.6-126.65,5.82,5.82,0,1,0-9.66-6.51A237.35,237.35,0,0,0,17.45,256C17.45,387.54,124.46,494.55,256,494.55Z"/><path class="cls-7" d="M256,17.45a238.82,238.82,0,0,0-114.16,29,5.83,5.83,0,1,0,5.59,10.23A227.09,227.09,0,0,1,256,29.11c125.11,0,226.89,101.78,226.89,226.89,0,83.45-46.66,160.21-118.72,199.48A51.83,51.83,0,0,1,348.8,438a55,55,0,0,1-6.72-25.51l-1.18-49.44a5.83,5.83,0,1,0-11.65.28l1.18,49.43a66.59,66.59,0,0,0,8.19,30.91,64.8,64.8,0,0,0,14.13,17.58q-8,3.78-16.31,6.94a5.83,5.83,0,0,0,2.06,11.28,5.78,5.78,0,0,0,2.07-.38A238.61,238.61,0,0,0,494.55,256C494.55,124.46,387.54,17.45,256,17.45Z"/><path class="cls-7" d="M397.49,398.44a5.83,5.83,0,0,0,11.64-.5l-7.91-183a1.34,1.34,0,0,0,0-.2c-.24-3.1-6.57-76.47-71.79-110.86C304,90.48,273.74,86.26,244.11,92c-22,4.26-40.76,11.65-55.74,22a96.68,96.68,0,0,0-37.82,18.72c-17.66,14.15-38.71,41.49-38.71,91.3,0,.12,0,.25,0,.37l12.86,199.28a5.83,5.83,0,0,0,5.81,5.45h.38a5.83,5.83,0,0,0,5.44-6.19L123.49,223.8c0-36,11.46-63.43,33.93-81.68a84.43,84.43,0,0,1,34.29-16.94,5.69,5.69,0,0,0,2.37-1c13.78-9.74,31.36-16.73,52.25-20.76,27-5.23,54.61-1.42,77.65,10.73,58.56,30.87,65.37,98.74,65.6,101.37Z"/><path class="cls-7" d="M276.75,252.73a5.64,5.64,0,0,0,1.08.1,5.83,5.83,0,0,0,1.07-11.55c-25.33-4.76-36-28.48-36.11-28.72a5.83,5.83,0,0,0-10.69,4.64C232.62,218.4,245.21,246.81,276.75,252.73Z"/><path class="cls-7" d="M200.06,169.74a5.84,5.84,0,0,0-5.27-.89c-67.68,21.6-50.7,129.3-49.69,135.33,7.65,58.26,29.37,90.89,46.24,108a63,63,0,0,0,83,5.19C305.5,392.68,317.2,359.6,320.89,346c23.77,4.93,38-11.29,42.53-21.63,9.21-15.85,12.1-30,8.6-42.13a26.36,26.36,0,0,0-28-19.09,25.26,25.26,0,0,0-13.61,5.67,48.46,48.46,0,0,0-22.71-30.64l-.3-.15c-19.44-8.86-18.84-22.93-18.8-23.64a5.83,5.83,0,0,0-11.61-1c-.09.92-1.74,22.67,25.38,35.14,1.57.89,20.26,12,17.28,37h0c-.07.55-.66,5.07-1.69,11.9a5.83,5.83,0,0,0,4.89,6.63,5.3,5.3,0,0,0,.88.07,5.82,5.82,0,0,0,5.75-5c.91-6,1.47-10.19,1.67-11.65.71-2,4.61-11.85,14.08-12.84a14.89,14.89,0,0,1,15.56,10.73c2.57,8.87-.08,20.4-7.64,33.33-.11.19-.23.43-.32.63-.93,2.12-9.11,19.27-29.47,15.17q.66-3.3,1.3-6.7a5.83,5.83,0,0,0-11.46-2.15c-.76,4.09-1.55,8.08-2.33,11.86a.28.28,0,0,0,0,.09.14.14,0,0,0,0,.07c-.08.41-7.86,42-43.77,70.48A51.34,51.34,0,0,1,199.64,404c-15.63-15.85-35.78-46.32-43-101.44l0-.22c-.17-1-15.39-94.9,34.45-119.46,1.33,16.24,7.8,50.58,38.3,62.38a5.83,5.83,0,0,0,4.21-10.87C201.62,222,202.38,175,202.39,174.56A5.84,5.84,0,0,0,200.06,169.74Z"/></svg>