<svg id="icon" xmlns="http://www.w3.org/2000/svg" viewBox="0 0 512 512"><defs><style>.cls-1{fill:#ffe2d4;}.cls-2{fill:#efb9ab;}.cls-3{fill:#fff9f8;}.cls-4{fill:#4d4d4d;}</style></defs><title>foot male</title><path class="cls-1" d="M333.47,35.67a233.8,233.8,0,0,0-141.9-2.55l8.17,55c1.41,9.49,1.71,20.27-1.52,29.3-3,8.32-5.48,19.4-9.72,30.52-5.2,13.62-4,28.77,1.31,42.34,3.54,9,6.43,13.34,16.33,26.67l-10.82,78.34a75.86,75.86,0,0,1-5.49,19.59c-3.83,8.92-8.83,24-6.86,38.28a46,46,0,0,1-4.29,26.7c-3.7,7.48-7.45,17-8.36,26.28A27.44,27.44,0,0,0,185.44,433c10.56,5.33,28.15,11.26,47.7,5.6a32.9,32.9,0,0,0,20-29.51s9.14,22.44,31.58,18.7c0,0,12.46-2.91,16.62-15.79,0,0,25.76,17,34.07-12.46,0,0,18.7,5,22.44-15.79,0,0,21.83-.61,22.5-21.51A30,30,0,0,0,374.55,344l-11.11-15.65a31.38,31.38,0,0,1-4.61-9.68L328.71,210.5a194.31,194.31,0,0,1,6.92-21.63,33,33,0,0,0,1-20.68A106,106,0,0,0,328.13,147a39.26,39.26,0,0,1-4.58-20.75C324.76,106.71,327.74,66.84,333.47,35.67Z"/><path class="cls-2" d="M377.15,348.39a32,32,0,0,0-2.6-4.36l-11.11-15.65a31.38,31.38,0,0,1-4.61-9.68L328.71,210.5a194.31,194.31,0,0,1,6.92-21.63,33,33,0,0,0,1-20.68A106,106,0,0,0,328.13,147a39.26,39.26,0,0,1-4.58-20.75c1.21-19.57,4.19-59.44,9.92-90.61a230.52,230.52,0,0,0-37.05-9.26l-3.95,94.34a21.61,21.61,0,0,0,5.7,15.46,60.66,60.66,0,0,1,11.76,19.18,18.35,18.35,0,0,1-.2,13.74l-4.82,11.46a20,20,0,0,0-.83,13.18l33.52,119.5a19.85,19.85,0,0,0,9.83,12.24A114.5,114.5,0,0,1,377.15,348.39Z"/><path class="cls-2" d="M380.3,362.27a27.91,27.91,0,0,0-.89-7.79c-13.93,10.29-26.38,2.31-26.38,2.31l5,10.43c-3.39,16.58-28.13,6.48-28.13,6.48,4.42,10.54,1.52,17.17,1.52,17.17C321,397.89,301.9,388,301.9,388c-1.75,13.44-18.69,13.61-18.69,13.61-28.63,3.09-34.59-15.82-34.59-15.82,1,27-23.75,23.29-23.75,23.29l-26.3-4.57c-14,4.4-10.52,21.95-7.69,31,10.67,4.41,25.75,7.89,42.26,3.12a32.9,32.9,0,0,0,20-29.51s9.14,22.44,31.58,18.7c0,0,12.46-2.91,16.62-15.79,0,0,25.76,17,34.07-12.46,0,0,18.7,5,22.44-15.79C357.8,383.78,379.63,383.17,380.3,362.27Z"/><path class="cls-3" d="M199.74,88.08a85.25,85.25,0,0,1,1,14.83l2.46-.41a22.63,22.63,0,0,0,18.66-25.43L215,27.43a229.67,229.67,0,0,0-23.38,5.69Z"/><path class="cls-3" d="M192.85,404.07s-2.81-19.61,16-18.24,24,8.47,24,8.47,3.9,15.25-8,14.82S192.85,404.07,192.85,404.07Z"/><path class="cls-3" d="M280.22,399.57s-9.13.36-6.7-8.7,25.63-7.09,25.63-7.09v15.79Z"/><path class="cls-3" d="M230.64,232.55l-1.13,59.31a7.38,7.38,0,0,1-7.57,7h0a7.31,7.31,0,0,1-7.51-8l7.46-58.9a4.1,4.1,0,0,1,1.69-2.8h0C226.49,227.07,230.7,229.08,230.64,232.55Z"/><path class="cls-4" d="M253.09,262.15a5.83,5.83,0,0,0-5.83,5.83v61.8a5.83,5.83,0,1,0,11.65,0V268A5.83,5.83,0,0,0,253.09,262.15Z"/><path class="cls-4" d="M253.09,232.66a5.83,5.83,0,0,0-5.83,5.83v2.45a5.83,5.83,0,1,0,11.65,0v-2.45A5.83,5.83,0,0,0,253.09,232.66Z"/><path class="cls-4" d="M286,294.35a5.83,5.83,0,0,0-11.6,1.17c.06.54,1.38,13.32,6.49,24.28a5.83,5.83,0,1,0,10.56-4.93C287.22,305.75,286,294.46,286,294.35Z"/><path class="cls-4" d="M233.57,386.69a5.83,5.83,0,1,0-8.11,8.37,5.68,5.68,0,0,1,.57.64,5.83,5.83,0,1,0,9.22-7.14A17.52,17.52,0,0,0,233.57,386.69Z"/><path class="cls-4" d="M226.36,404.42l-.16-.05c-8.32-3.29-19.6-4.33-27.52-4.52l1.39-3.84a6.7,6.7,0,0,1,5.89-4.37,5.83,5.83,0,1,0-.72-11.63,18.33,18.33,0,0,0-16.13,12l-1.39,3.83a11.58,11.58,0,0,0,10.45,15.52c10,.36,18.46,1.72,23.75,3.81a13.66,13.66,0,0,0,1.45.48,6,6,0,0,0,1.5.19,5.83,5.83,0,0,0,1.49-11.46Z"/><path class="cls-4" d="M256,17.45a238.85,238.85,0,0,0-114.16,29,5.83,5.83,0,1,0,5.59,10.23,224.32,224.32,0,0,1,39.26-16.79l7.28,49c1.61,10.79,1.19,19.7-1.24,26.48-1.33,3.7-2.54,7.86-3.82,12.25-1.72,5.9-3.5,12-5.85,18.15a60.36,60.36,0,0,0,1.47,46.89c.57,1.22,1.11,2.42,1.65,3.61,3.06,6.79,6.22,13.79,13.82,22.48l-10.45,75.65a70.78,70.78,0,0,1-5.07,18.1C180,323,175.1,338.64,177.2,353.91a40.16,40.16,0,0,1-3.74,23.33c-5.1,10.3-8.1,19.82-8.93,28.29a33.36,33.36,0,0,0,18.28,32.7c8.51,4.3,20.36,8.54,34,8.54a64.39,64.39,0,0,0,18-2.55l.4-.13a39,39,0,0,0,20.74-20.53c6.55,6.71,16.49,12.22,29.72,10l.37-.07A31,31,0,0,0,304.06,420c5.25,2.17,13.21,4.23,20.88,1.37,6.44-2.39,11.27-7.57,14.42-15.42a23.76,23.76,0,0,0,13.49-3.5c4.59-2.91,7.82-7.38,9.65-13.32,9.75-1.8,23.05-8.78,23.62-26.64a33.78,33.78,0,0,0-1.17-9.75,5.28,5.28,0,0,0-.21-.78,37.78,37.78,0,0,0-5.44-11.28L368.19,325a25.23,25.23,0,0,1-3.74-7.87l-29.7-106.69A195.11,195.11,0,0,1,341.06,191a38.91,38.91,0,0,0,1.16-24.34,111.67,111.67,0,0,0-8.94-22.32,33.41,33.41,0,0,1-3.91-17.67c1.14-18.48,3.72-52.95,8.51-82.23,84.76,32.91,145,115.35,145,211.6,0,125.11-101.78,226.89-226.89,226.89S29.11,381.11,29.11,256a225.83,225.83,0,0,1,38.6-126.65,5.82,5.82,0,1,0-9.66-6.51A237.35,237.35,0,0,0,17.45,256c0,131.54,107,238.55,238.55,238.55S494.55,387.54,494.55,256,387.54,17.45,256,17.45Zm67,132.31a99.64,99.64,0,0,1,8,20,27.22,27.22,0,0,1-.8,17c-.45,1.16-.87,2.3-1.28,3.42l-1.38-4.77a5.83,5.83,0,0,0-11.2,3.23l6.77,23.41h0l30.12,108.2a37,37,0,0,0,5.47,11.49l11.1,15.65a25.82,25.82,0,0,1,2.78,5,12.4,12.4,0,0,1-4.31,1.61,5.83,5.83,0,0,0,.76,11.6,6.23,6.23,0,0,0,.74,0,24.68,24.68,0,0,0,4.5-1.12c-1.07,7.2-5.87,10.57-10.07,12.14a42.15,42.15,0,0,0-12.67-30.3,5.82,5.82,0,0,0-7.69,8.75,29.5,29.5,0,0,1,7.79,14.16,7.37,7.37,0,0,1-4.74.74,5.83,5.83,0,0,0-2.88,11.3,16.18,16.18,0,0,0,4,.47,20.08,20.08,0,0,0,4.2-.47c-.06.52-.1,1-.19,1.57-.86,4.71-2.67,8-5.38,9.74a11.76,11.76,0,0,1-5.64,1.7,69.13,69.13,0,0,0-13.6-36.09,5.83,5.83,0,0,0-9,7.39,56.72,56.72,0,0,1,9.49,20.16,21.12,21.12,0,0,1-7.7-.44,5.83,5.83,0,0,0-3.15,11.22,32.49,32.49,0,0,0,8.29,1.06,30.31,30.31,0,0,0,4.15-.29c0,.48,0,1,0,1.46-1.91,6.31-4.79,10.26-8.61,11.7-4.38,1.64-9.83,0-13.41-1.64a78.55,78.55,0,0,0-10.53-45,5.83,5.83,0,0,0-9.82,6.28,68.16,68.16,0,0,1,8.24,24c-5.63.51-11.05,1.39-15,2.15a1.55,1.55,0,0,1-1.4-.42,1.46,1.46,0,0,1-.42-1.31,5.82,5.82,0,0,1,1.66-3.44,5.83,5.83,0,1,0-7.19-9.17,16.71,16.71,0,0,0-5.93,10.5,13.19,13.19,0,0,0,13,15.53,12.92,12.92,0,0,0,2.47-.24c3.61-.68,8.47-1.48,13.48-1.95-.07,1.61-.21,3.25-.43,4.91a18.66,18.66,0,0,1-12.11,11.45c-15.78,2.46-23.3-11.57-24.74-14.62l-1.83-12.4c5.3-12.95,6.31-22.21,3.12-28.26a10.62,10.62,0,0,0-6.92-5.59,5.84,5.84,0,0,0-5.25,1.59c-3.43,3.42-5.13,8.85-5,16.15a5.16,5.16,0,0,0,.06.79l2.26,15.32,0,.19,2.08,14.05a27,27,0,0,1-16,23.77c-17.32,4.92-33-.14-43.2-5.27a21.66,21.66,0,0,1-11.95-21.16c.69-7,3.38-15.35,7.78-24.26a51.68,51.68,0,0,0,4.84-30.09c-1.82-13.28,3.26-27.74,6.45-35.18a82.33,82.33,0,0,0,5.9-21.09l10.83-78.34c2.52-18.24,1.83-27.54,1.8-27.92a5.83,5.83,0,0,0-11.62.9,93,93,0,0,1-.23,11,99,99,0,0,1-5.06-10.16c-.56-1.24-1.13-2.49-1.72-3.76A48.66,48.66,0,0,1,194,150c2.34-6.12,4.15-12.23,5.77-17.74.52,3.85,1.05,7.73,1.58,11.52a5.82,5.82,0,0,0,5.76,5,7.34,7.34,0,0,0,.81-.05,5.83,5.83,0,0,0,5-6.58c-3.51-25.26-7.29-54.51-7.32-54.8v0a.28.28,0,0,0,0-.09L198,36.65a226.94,226.94,0,0,1,128.73,3.76c-5.09,30.23-7.8,66.36-9,85.51A45,45,0,0,0,323,149.76Z"/><path class="cls-4" d="M103.08,88.38l2.15-1.94a5.83,5.83,0,0,0-7.74-8.71c-.76.68-1.52,1.35-2.27,2a5.83,5.83,0,0,0,7.86,8.61Z"/></svg>