<svg id="icon" xmlns="http://www.w3.org/2000/svg" viewBox="0 0 512 512"><defs><style>.cls-1{fill:#ffe2d4;}.cls-2{fill:#efb9ab;}.cls-3{fill:#e89991;}.cls-4{fill:#f9e7e5;}.cls-5{fill:#fff9f8;}.cls-6{fill:#4d4d4d;}</style></defs><title>hand female</title><path class="cls-1" d="M429.34,185.15a8.82,8.82,0,0,0-16.56-6l-5.59,12.13C397,198.59,392.25,225,392.25,225c-12.4,52.47-27.35,58.83-27.35,58.83-3.82-28,1.59-133.55,1.59-133.55L368,112.57A11,11,0,0,0,346,111.18L345.5,122c-7.31,3.81-7,16.53-7,16.53s-5.73,74.73-8.27,96.67-10.81,32.43-10.81,32.43c-12.72,1.59-13.36-17.17-13.36-17.17l-1.91-129.1c-.31-13-5.4-20-5.4-20V82.09A11.29,11.29,0,0,0,287.47,70.8h0a11.29,11.29,0,0,0-11.29,11.29V100c-5.4,5.72-4.77,13.67-4.77,13.67v95.08c-2.86,64.87-19.71,66.46-19.71,66.46-9.15-25.67-14.61-77.76-16.2-94.6-.23-2.49-.44-5-.51-7.47-.45-15.72-5.87-22.9-5.87-22.9l-1.33-29.72a10.69,10.69,0,0,0-10.68-10.3h0a10.69,10.69,0,0,0-10.68,10.69l.11,16.29c-7.95,5.41-7.31,12.72-7.31,12.72,1.09,18.52,6.61,127.05,8.17,157.84a75.89,75.89,0,0,1-1.47,19.61c-4.26,20.2-12.85,40.34-12.85,40.34-35.14-9.09-52.1-38.17-52.1-38.17-20-32.71-46.13-25.48-46.13-25.48l-9.94-8.75a8.42,8.42,0,0,0-11.86,11.9L109.15,348a58.51,58.51,0,0,1,8.54,12.64c5.68,11.28,11.55,22.16,15.81,29.88a68.5,68.5,0,0,0,15.65,19.13l38.48,32.63a73.53,73.53,0,0,1,24,42.23,233.72,233.72,0,0,0,133.78-13.56,275.52,275.52,0,0,1,2.34-42.42c5.09-24.81,22.89-60.1,22.89-60.1,13-25.72,25.76-60.55,30-72.45q1.44-4.05,2.49-8.2l8.84-35.1c9.22-32.75,10.81-45.79,10.81-45.79Z"/><path class="cls-2" d="M74.21,295a8.41,8.41,0,0,0-1.16,12.25L109.15,348a58.51,58.51,0,0,1,8.54,12.64c5.68,11.28,11.55,22.16,15.81,29.88a68.5,68.5,0,0,0,15.65,19.13l38.48,32.63c.7.62,1.35,1.24,2,1.87l1.91-2.29a16.26,16.26,0,0,0-1.9-22.74l-29-24.84a37.27,37.27,0,0,1-7-8.06c-7.5-11.63-27-41.91-30-47.19-3.72-6.56-28.83-34.92-28.83-34.92l-11.53-9.83A8.42,8.42,0,0,0,74.21,295Z"/><path class="cls-3" d="M227.24,155.31l1.88-4.87-1.33-29.72a10.69,10.69,0,0,0-10.68-10.29h0a10.68,10.68,0,0,0-10.68,10.68l.11,16.29,1.7,15.45a9.86,9.86,0,0,0,19,2.46Z"/><path class="cls-3" d="M94.85,304.26l-9.94-8.75a8.42,8.42,0,0,0-11.86,11.91l28.16,31.76a27.29,27.29,0,0,0-4.71-33.33Z"/><path class="cls-3" d="M287.85,116.9a10,10,0,0,0,10-9.41c.27-4.45.59-10.12.89-16.22v-9A11.3,11.3,0,0,0,287.47,71h0a11.3,11.3,0,0,0-11.29,11.29V100.2l1.85,8.74A10,10,0,0,0,287.85,116.9Z"/><path class="cls-3" d="M423.65,174.34a9,9,0,0,0-11,5.31l-5.46,11.81s-4.77,15.32,7,20.55a6.2,6.2,0,0,0,8.59-5h0l6.57-21.71A8.82,8.82,0,0,0,423.65,174.34Z"/><path class="cls-3" d="M358,141.69a11.67,11.67,0,0,0,9.12-4.4l.81-24.54A11,11,0,0,0,346,111.36l-.54,10.78.93,9.08A11.66,11.66,0,0,0,358,141.69Z"/><path class="cls-2" d="M341.66,148.56,338,145c-1.45,18.68-5.67,72.13-7.76,90.12-2.54,21.94-10.81,32.43-10.81,32.43a9.42,9.42,0,0,1-9.2-3.85l6.45,23.59c12.7,2.59,17.15-6.57,25.11-30.95,6.11-18.73,7.24-68,7.43-89.87A24.6,24.6,0,0,0,341.66,148.56Z"/><path class="cls-2" d="M276.18,265.57c11.33-24.07,10.09-90.83,9.16-116.26a22,22,0,0,0-8.12-16.23l-5.81-4.71v80.4c-2.18,49.48-12.51,62.14-17.28,65.36l4.9,17.25C271.93,276.57,276.18,265.57,276.18,265.57Z"/><path class="cls-2" d="M370.62,368.4c7.19-14.23,14.3-31.24,19.95-45.62l-2.72-.25a24.15,24.15,0,0,0-23.64,12.92l-41.89,80.74s-21.17,38.52-58.49,50.71c-8.67,2.84-15.18,9.93-14.46,19l.21,2.7c2.13.05,4.27.09,6.42.09a232.05,232.05,0,0,0,89.39-17.8,275.52,275.52,0,0,1,2.34-42.42C352.82,403.69,370.62,368.4,370.62,368.4Z"/><path class="cls-4" d="M206.43,121.11l.11,16.29.26,2.32a20.94,20.94,0,0,0,8.07-29A10.67,10.67,0,0,0,206.43,121.11Z"/><path class="cls-4" d="M287.47,71a11.3,11.3,0,0,0-11.29,11.29V99.39a21,21,0,0,0,13.14-28.24,11.26,11.26,0,0,0-1.85-.17Z"/><path class="cls-4" d="M361.16,105.13a20.52,20.52,0,0,0-.26-3.16,10.81,10.81,0,0,0-3.43-.72A11,11,0,0,0,346,111.36l-.54,10.78.33,3.17A21,21,0,0,0,361.16,105.13Z"/><path class="cls-4" d="M427,176.37a8.85,8.85,0,0,0-3.37-2,9,9,0,0,0-11,5.31l-5.46,11.81a25.17,25.17,0,0,0-.68,3.23A21,21,0,0,0,427,176.37Z"/><path class="cls-4" d="M87.9,309.9a20.92,20.92,0,0,0-8-16.45,8.4,8.4,0,0,0-6.86,14l11.81,13.32A20.94,20.94,0,0,0,87.9,309.9Z"/><path class="cls-5" d="M222.55,281.45l-4.16-86.31A13.4,13.4,0,0,0,205,182.39h-4c1.8,34.48,4.42,85.8,5.84,113.71l4.69-.82A13.4,13.4,0,0,0,222.55,281.45Z"/><path class="cls-5" d="M240.25,312.48a5.93,5.93,0,0,1,9.06,5.1,22.44,22.44,0,0,1-1.72,8.16c-2.16,5.15-5.71,5.25-8.44,4.31a5.83,5.83,0,0,1-3.86-5.56v-5.63a6,6,0,0,1,2.82-5.06Z"/><path class="cls-5" d="M304.74,306.84c3.17-2.46,7.33.43,7.24,5.1a27.47,27.47,0,0,1-1.38,8.16c-1.72,5.15-4.56,5.24-6.74,4.31-1.87-.8-3.08-3.09-3.08-5.56v-5.64a6.38,6.38,0,0,1,2.25-5Z"/><path class="cls-6" d="M187.72,365.45s0,.08,0,.12,0,.07-.05.11a101.3,101.3,0,0,0-4.81,19.7,5.83,5.83,0,0,0,5,6.58,5.51,5.51,0,0,0,.81.05,5.82,5.82,0,0,0,5.76-5,91.81,91.81,0,0,1,4.14-17.12c.85-2,8.94-21.42,13.13-41.27a81.75,81.75,0,0,0,1.59-21.11c-1.17-23-7.05-138.73-8.17-157.89a.18.18,0,0,1,0-.06h0s0,0,0,0c0-.72.24-4.37,4.78-7.46a5.83,5.83,0,0,0,2.55-4.86l-.12-16.25a4.86,4.86,0,0,1,9.72-.13l1.29,29-.31,1.43a5.55,5.55,0,0,1-3.77,4.28,4.54,4.54,0,0,1-1.52.14,5.83,5.83,0,0,0-1.1,11.61c.49,0,1,.06,1.48.06a16.18,16.18,0,0,0,4.16-.55,16.58,16.58,0,0,0,5.88-3,54.8,54.8,0,0,1,1.09,9.57c.08,2.73.3,5.39.53,7.86,1.9,20.21,7.29,69.85,16.4,95.68a72.25,72.25,0,0,0,4.66,13,5.83,5.83,0,1,0,10.48-5.11,60.73,60.73,0,0,1-3.87-10.89c0-.1-.08-.2-.11-.3s0-.21-.07-.31c-9-25.19-14.43-77.69-15.88-93.18-.22-2.27-.42-4.7-.49-7.1-.38-13.29-4-21.25-5.95-24.54l-1.26-28.13a16.51,16.51,0,0,0-33,.65l.09,13.43c-6.22,5.51-7.55,12.38-7.27,15.95,1.13,19.3,7,134.76,8.16,157.73a70.61,70.61,0,0,1-1.35,18.11C196.14,345.56,187.8,365.25,187.72,365.45Z"/><path class="cls-6" d="M258,257.69a5.83,5.83,0,0,0,3.44,7.49,6,6,0,0,0,2,.36,5.82,5.82,0,0,0,5.47-3.81c4.54-12.29,7.35-30,8.35-52.71a2.09,2.09,0,0,0,0-.25V113.69c0-.16,0-.31,0-.47s-.27-5.53,3.2-9.2a5.86,5.86,0,0,0,1.59-4V82.09a5.46,5.46,0,1,1,10.92,0v19a5.79,5.79,0,0,0-.67,2.37l-.21,3.53a4.21,4.21,0,0,1-4.2,3.94,5.83,5.83,0,0,0,0,11.66,15.81,15.81,0,0,0,10.33-3.86c.07.87.13,1.77.16,2.72l1.91,129.09c0,.2,0,1.35.09,2.67,0,2.12.47,21.05,12,32.28a5.85,5.85,0,0,0,4.07,1.65,5.82,5.82,0,0,0,4.07-10c-6.21-6.07-7.86-16.28-8.3-21.22a6,6,0,0,0,0-1.46c-.14-.94-.22-3-.24-4.09L310,121.18c-.27-11.07-3.59-18.36-5.4-21.55V82.09a17.12,17.12,0,1,0-34.24,0V97.9a25.55,25.55,0,0,0-4.77,16v94.77C264.63,230.05,262.06,246.55,258,257.69Z"/><path class="cls-6" d="M357.73,95.24a16.74,16.74,0,0,0-17.5,15.49.92.92,0,0,1,0,.16l-.39,7.94c-6.86,6-7.17,17-7.15,19.48-.38,4.9-5.8,75.25-8.23,96.18a85.58,85.58,0,0,1-3.36,16,5.83,5.83,0,0,0,11.11,3.53A98.07,98.07,0,0,0,336,235.83c2.53-21.8,8.05-93.84,8.29-96.89a5.86,5.86,0,0,0,0-.59c-.08-3.17,1-9.72,3.87-11.23a5.81,5.81,0,0,0,3.12-4.87l.54-10.68a5.15,5.15,0,0,1,10.27.77l-.87,22.33a5.9,5.9,0,0,1-4.66.83,5.83,5.83,0,0,0-2.83,11.31,17.41,17.41,0,0,0,4.25.52,17.92,17.92,0,0,0,2.76-.24l-.11,2.87c-.22,4.32-5.35,105.75-1.58,134.34.06,1.42.4,10,.22,19a5.82,5.82,0,0,0,5.71,5.94h.12a5.83,5.83,0,0,0,5.82-5.71c.21-10.16-.22-19.62-.24-20a2.34,2.34,0,0,0,0-.26,1.15,1.15,0,0,0,0-.26c-3.69-27.12,1.59-131.41,1.64-132.54l.47-12a6,6,0,0,0,.09-2.35l.9-23.31a16.82,16.82,0,0,0-16-17.62Z"/><path class="cls-6" d="M375.83,371c12.94-25.63,25.49-59.67,30.29-73.11,1-2.84,1.9-5.78,2.65-8.74l8.82-35c8.13-28.86,10.4-42.6,10.87-45.83a12.14,12.14,0,0,0,.51-1.8l5.94-19.65a14.64,14.64,0,0,0-27.46-10.07l-5,10.79c-10.63,9.19-15.3,32.73-15.94,36.2-3.67,15.49-7.9,28.34-12.59,38.18a5.83,5.83,0,1,0,10.52,5c5.06-10.62,9.58-24.3,13.45-40.66l.06-.3c1.69-9.31,6.62-25.7,12.61-30a5.94,5.94,0,0,0,1.9-2.29l5.58-12.13.09-.2a3,3,0,0,1,5.6,2.07l-6.35,21a5.1,5.1,0,0,1-2.71,1.75A5.83,5.83,0,0,0,410.28,217a10.53,10.53,0,0,0,4.29.89l.21,0c-1.57,7.27-4.18,18.13-8.43,33.22,0,.05,0,.1,0,.16l-8.84,35.1c-.66,2.59-1.44,5.17-2.33,7.66-3.68,10.33-16.71,46-29.72,71.78-.74,1.47-18.22,36.28-23.4,61.56l-.06.32A280.36,280.36,0,0,0,339.49,467c-3.58,1.41-7.18,2.77-10.8,4a5.83,5.83,0,1,0,3.73,11c5.11-1.72,10.23-3.65,15.21-5.73a5.81,5.81,0,0,0,3.4-6.76,6.67,6.67,0,0,0,.13-1.27,275.81,275.81,0,0,1,2.31-38.78C358.39,405.76,375.65,371.37,375.83,371Z"/><path class="cls-6" d="M256,494.55A242.34,242.34,0,0,0,290.74,492a5.83,5.83,0,0,0-1.68-11.54A229.15,229.15,0,0,1,256,482.89a226.62,226.62,0,0,1-39.51-3.45,79.82,79.82,0,0,0-25.09-41.63l-38.48-32.63a62.42,62.42,0,0,1-14.32-17.51c-4-7.22-9.94-18.24-15.7-29.68a64.59,64.59,0,0,0-9.39-13.89l-36.1-40.73a2.59,2.59,0,0,1-.64-2,2.53,2.53,0,0,1,1-1.8,2.59,2.59,0,0,1,3.29.1L91,308.45a4.88,4.88,0,0,0,.7.52,5.85,5.85,0,0,0,.76.9,21.32,21.32,0,0,1,5.9,10.06A5.82,5.82,0,0,0,104,324.3a6.16,6.16,0,0,0,1.47-.18,5.83,5.83,0,0,0,4.18-7.1,32.68,32.68,0,0,0-2.88-7.33c8,1.44,19.29,6.61,29.19,22.81a97.2,97.2,0,0,0,34.11,32.16,5.83,5.83,0,1,0,5.72-10.16,86.93,86.93,0,0,1-29.82-28c-18-29.45-40.9-29.75-49.37-28.68L88.76,291A14.25,14.25,0,0,0,68.69,311.1l36.1,40.73a53.4,53.4,0,0,1,7.7,11.39c5.84,11.62,11.87,22.77,15.91,30.09a74.13,74.13,0,0,0,17,20.76l38.39,32.55a67.18,67.18,0,0,1,19.89,30.17C103.7,453.1,29.11,363.1,29.11,256a225.83,225.83,0,0,1,38.6-126.65,5.82,5.82,0,1,0-9.66-6.51A237.35,237.35,0,0,0,17.45,256C17.45,387.54,124.46,494.55,256,494.55Z"/><path class="cls-6" d="M256,17.45a238.82,238.82,0,0,0-114.16,29,5.83,5.83,0,1,0,5.59,10.23A227.09,227.09,0,0,1,256,29.11c125.11,0,226.89,101.78,226.89,226.89a224.83,224.83,0,0,1-71,164.83,5.83,5.83,0,0,0,8,8.47A236.4,236.4,0,0,0,494.55,256C494.55,124.46,387.54,17.45,256,17.45Z"/><path class="cls-6" d="M97.48,77.73l-2.25,2a5.83,5.83,0,0,0,7.85,8.61l2.15-1.94a5.83,5.83,0,0,0-7.75-8.71Z"/><path class="cls-6" d="M262.37,329.07a6.61,6.61,0,0,0,.76.05,5.84,5.84,0,0,0,5.78-5.08,40.69,40.69,0,0,0-.53-13.51A5.83,5.83,0,1,0,257,312.89a29.56,29.56,0,0,1,.38,9.64A5.83,5.83,0,0,0,262.37,329.07Z"/><path class="cls-6" d="M326.71,323.07l.59,0a5.82,5.82,0,0,0,5.79-5.25,24.24,24.24,0,0,0-1-9.72,5.83,5.83,0,1,0-11.1,3.55,12.5,12.5,0,0,1,.53,5A5.83,5.83,0,0,0,326.71,323.07Z"/></svg>