<svg id="icon" xmlns="http://www.w3.org/2000/svg" viewBox="0 0 512 512"><defs><style>.cls-1{fill:#f7bdb5;}.cls-2{fill:#e89991;}.cls-3{fill:#fff;}.cls-4{fill:#4d4d4d;}</style></defs><title>mouth</title><path class="cls-1" d="M317.89,215.67a20,20,0,0,0-18.28,2.12c-14.54,9.83-30.95,16.43-38.86,19.31a13.85,13.85,0,0,1-9.5,0c-7.91-2.88-24.31-9.48-38.86-19.31a20,20,0,0,0-18.28-2.12,1227.71,1227.71,0,0,0-114.48,50.2S136.79,325.11,256,325.11s176.37-59.24,176.37-59.24A1227.71,1227.71,0,0,0,317.89,215.67Z"/><path class="cls-2" d="M145.31,284.68c-2.77-27.48,38.51-26,38.51-26a15.65,15.65,0,0,1-8.52-16.94c5.14-17.19,19.5-23.89,32.07-26.37a20,20,0,0,0-13.26.29,1227.71,1227.71,0,0,0-114.48,50.2s31.72,32.86,97.17,49.64C161.67,308.36,146.66,298,145.31,284.68Z"/><path class="cls-2" d="M337.91,314.81c63.62-17,94.46-48.94,94.46-48.94a1227.71,1227.71,0,0,0-114.48-50.2,20,20,0,0,0-12.76-.44c12.74,2.36,27.57,9,32.81,26.52a15.65,15.65,0,0,1-8.52,16.94s41.29-1.49,38.51,26C366.63,297.57,352.53,307.69,337.91,314.81Z"/><path class="cls-3" d="M207.37,281.94a47.12,47.12,0,0,0,0,16.43,3.3,3.3,0,0,1-3.25,3.79h0a7.59,7.59,0,0,1-7.59-8.3,31.94,31.94,0,0,1,4.76-14.32,3.37,3.37,0,0,1,2.89-1.59h0A3.32,3.32,0,0,1,207.37,281.94Z"/><path class="cls-3" d="M304.63,281.94a47.12,47.12,0,0,1,0,16.43,3.3,3.3,0,0,0,3.26,3.79h0a7.58,7.58,0,0,0,7.58-8.3,31.94,31.94,0,0,0-4.76-14.32,3.37,3.37,0,0,0-2.89-1.59h0A3.32,3.32,0,0,0,304.63,281.94Z"/><circle class="cls-3" cx="219.3" cy="245.32" r="4.99"/><path class="cls-4" d="M256,17.45a238.85,238.85,0,0,0-114.16,29,5.83,5.83,0,1,0,5.59,10.23A227.2,227.2,0,0,1,256,29.11c125.11,0,226.89,101.78,226.89,226.89S381.11,482.89,256,482.89,29.11,381.11,29.11,256a225.83,225.83,0,0,1,38.6-126.65,5.82,5.82,0,1,0-9.66-6.51A237.35,237.35,0,0,0,17.45,256c0,131.54,107,238.55,238.55,238.55S494.55,387.54,494.55,256,387.54,17.45,256,17.45Z"/><path class="cls-4" d="M103.08,88.38l2.15-1.94a5.83,5.83,0,1,0-7.75-8.7c-.76.67-1.51,1.35-2.26,2a5.83,5.83,0,0,0,7.86,8.61Z"/><path class="cls-4" d="M68.38,253.42a5.83,5.83,0,1,0-5,10.53A86.83,86.83,0,0,1,78,272.41c12.6,11.6,70.25,58.53,178,58.53,72.1,0,122.09-21.23,151.34-39.05a5.83,5.83,0,1,0-6.06-9.95c-28,17-75.89,37.35-145.28,37.35-80.61,0-132.49-27.92-156.53-44.84,2.31.12,4.76.2,7.34.2a129,129,0,0,0,39.26-6c18.72-6,38.2-7.83,49.65-4.65a205.32,205.32,0,0,0,37.87,7.08,5.83,5.83,0,1,0,1-11.61,194.24,194.24,0,0,1-35.73-6.7c-16.37-4.55-39.83-.51-56.33,4.78a119.84,119.84,0,0,1-43.32,5.12c42.3-20.39,81-35.56,97-41.59a14.24,14.24,0,0,1,13,1.5c14.92,10.07,31.55,16.82,40.13,19.95a19.7,19.7,0,0,0,13.5,0c8.58-3.13,25.21-9.88,40.13-19.95a14.21,14.21,0,0,1,12.95-1.5c15.95,6,54.68,21.2,97,41.59a119.84,119.84,0,0,1-43.32-5.12c-16.5-5.29-40-9.32-56.32-4.78a199.09,199.09,0,0,1-31.92,6.33,5.82,5.82,0,1,0,1.27,11.58A209.75,209.75,0,0,0,316.29,264c11.43-3.18,30.92-1.35,49.64,4.65a129,129,0,0,0,39.26,6,121.23,121.23,0,0,0,28.68-3.15l.11,0,.18,0h0a43.49,43.49,0,0,0,10-4.94,47.49,47.49,0,0,1,4.42-2.51,5.83,5.83,0,1,0-5-10.53,55.8,55.8,0,0,0-5.54,3.13,45.09,45.09,0,0,1-5.37,3C384.43,235.26,337.9,217,320,210.22a25.9,25.9,0,0,0-23.6,2.74c-13.88,9.37-29.51,15.71-37.59,18.66a8.06,8.06,0,0,1-5.52,0c-8.08-3-23.71-9.29-37.59-18.66a25.87,25.87,0,0,0-23.6-2.74c-17.92,6.78-64.33,25-112.52,49.17A120.51,120.51,0,0,0,68.38,253.42Z"/><path class="cls-4" d="M227,278.26a5.82,5.82,0,0,0-6.75,4.73c-.08.48-2,11.72-1.73,19.15a5.82,5.82,0,0,0,5.81,5.6h.24a5.82,5.82,0,0,0,5.59-6.05c-.25-6.18,1.55-16.58,1.57-16.68A5.81,5.81,0,0,0,227,278.26Z"/><path class="cls-4" d="M174.13,277.47a50.64,50.64,0,0,0-2.22,12.31,5.83,5.83,0,0,0,5.54,6.1h.29a5.82,5.82,0,0,0,5.81-5.55,39.42,39.42,0,0,1,1.64-9.2,5.83,5.83,0,0,0-11.06-3.67Z"/><path class="cls-4" d="M193.21,234.37a21.87,21.87,0,0,0-.71,4.06,5.83,5.83,0,0,0,5.45,6.18h.37a5.82,5.82,0,0,0,5.81-5.46,10.25,10.25,0,0,1,.31-1.68,5.83,5.83,0,0,0-11.23-3.11Z"/><path class="cls-4" d="M258.85,260.49a5.29,5.29,0,0,0-1.09-.34,5.84,5.84,0,0,0-7,5.71,6.14,6.14,0,0,0,.12,1.15,5.85,5.85,0,0,0,.33,1.08,4.87,4.87,0,0,0,.54,1,5.61,5.61,0,0,0,.72.89,5.86,5.86,0,0,0,4.12,1.71,6.2,6.2,0,0,0,1.14-.11,5.29,5.29,0,0,0,1.09-.34,4.59,4.59,0,0,0,1-.54,4.76,4.76,0,0,0,.89-.72,5.82,5.82,0,0,0,0-8.24,4.76,4.76,0,0,0-.89-.72A4.59,4.59,0,0,0,258.85,260.49Z"/><path class="cls-4" d="M287.46,307.73h.24a5.82,5.82,0,0,0,5.81-5.6c.3-7.43-1.65-18.67-1.73-19.15a5.83,5.83,0,0,0-11.48,2c0,.1,1.82,10.5,1.57,16.68A5.82,5.82,0,0,0,287.46,307.73Z"/><path class="cls-4" d="M330.51,273.78a5.83,5.83,0,0,0-3.7,7.36,39.6,39.6,0,0,1,1.64,9.2,5.82,5.82,0,0,0,5.81,5.55h.29a5.83,5.83,0,0,0,5.54-6.1,50.64,50.64,0,0,0-2.22-12.31A5.83,5.83,0,0,0,330.51,273.78Z"/><path class="cls-4" d="M313.68,244.62h.37a5.83,5.83,0,0,0,5.45-6.18,21,21,0,0,0-.71-4.06,5.83,5.83,0,0,0-11.23,3.11,10.05,10.05,0,0,1,.31,1.68A5.83,5.83,0,0,0,313.68,244.62Z"/></svg>