<svg id="icon" xmlns="http://www.w3.org/2000/svg" viewBox="0 0 512 512"><defs><style>.cls-1{fill:#ffe2d4;}.cls-2{fill:#f7bdb5;}.cls-3{fill:#efb9ab;}.cls-4{fill:#fff9f8;}.cls-5{fill:#e89991;}.cls-6{fill:#fff;}.cls-7{fill:#4d4d4d;}</style></defs><title>nose</title><path class="cls-1" d="M488.72,256c0-127.08-101.86-230.35-228.39-232.67V53.27a27.88,27.88,0,0,1-7.07,18.57L119.45,222a48.47,48.47,0,0,0,18.73,77.47l55.54,21.43s21.89,9.51,13.32,33.31L188.12,389a23.78,23.78,0,0,0-1.28,20c2.71,7,7.09,16.25,13.54,24.18L187.65,447a24.72,24.72,0,0,0-5.05,25.24c.62,1.71,1.34,3.51,2.15,5.37A232.43,232.43,0,0,0,256,488.72C384.53,488.72,488.72,384.53,488.72,256Z"/><path class="cls-2" d="M227.17,399.23a150.93,150.93,0,0,0-41.57-3.07,23.79,23.79,0,0,0,1.24,12.8c2.71,7,7.09,16.25,13.54,24.18L187.65,447a24.72,24.72,0,0,0-5.05,25.24c.62,1.71,1.34,3.51,2.15,5.37a233.42,233.42,0,0,0,165.55-8.78C295.86,457,255.78,421.2,241.94,407.38A30.49,30.49,0,0,0,227.17,399.23Z"/><path class="cls-3" d="M196.55,263.93a11,11,0,0,0-11.69,15.57c3.84,7.82,12.66,15.77,32.48,17.22,0,0,23.47,1.28,32.22,12C249.56,308.68,234.19,270.68,196.55,263.93Z"/><path class="cls-4" d="M140.23,287a26.84,26.84,0,0,0,4.14-24.95c-4.94-14.9,6.65-26.5,6.65-26.5L241.2,135.41a26.67,26.67,0,0,0-3.38-38.86l-3.89-3L119.45,222a48.48,48.48,0,0,0,13.15,74.91Z"/><path class="cls-3" d="M365.76,145.61c-21.62-7.75-49.26-21.19-57.2-41l-38.35,80.25a40.7,40.7,0,0,0,2.38,39.43c8.48,13.32,19.9,31.93,29.36,49.71l6.38,12.8c2.41,12.44,1.92,27.48-7.71,41.25,0,0-19.34,19.07-49.69,13.74,0,0,14.09,7.54,37.5,16.14,25.15,9.23,60.32-11.54,56-35.95,0,0-1-4.36-1.86-6.54l-30.66-78.89a60.1,60.1,0,0,1,1.54-47.13l10.41-22.36a27.42,27.42,0,0,1,29.93-15.37c3.14.59,6.53,1.14,10.08,1.59A4,4,0,0,0,365.76,145.61Z"/><path class="cls-5" d="M350.3,468.81a196,196,0,0,1-45.41-16.2c-1.62-.74-3.07-1.47-4.33-2.2q-4.6-2.43-8.95-5h0c-7.12,26.42-30.84,20.51-31.86,20.24a199.71,199.71,0,0,1-23.86-9.7C217,460.91,213,473.65,212.72,484.68A233.45,233.45,0,0,0,350.3,468.81Z"/><path class="cls-6" d="M224.74,416.56,217.48,425a5.46,5.46,0,0,1-8.15.18,16.62,16.62,0,0,1-4.35-9.24c-.7-5.95,10.31-5.7,17.59-4.9A3.38,3.38,0,0,1,224.74,416.56Z"/><path class="cls-6" d="M234.22,423.51l-6.94,9.66a3.4,3.4,0,0,0,.91,4.83l3.29,2.13a3.39,3.39,0,0,0,5-1.55l4.29-10.35a4.76,4.76,0,0,0-.89-5.05h0A3.63,3.63,0,0,0,234.22,423.51Z"/><path class="cls-6" d="M201.44,452.72c-1.89,1.39-4.78,4.63-5.95,11.84a3.48,3.48,0,0,0,2.22,3.82l.42.15a3.44,3.44,0,0,0,4.64-3,33.19,33.19,0,0,1,2.37-9.94,2.44,2.44,0,0,0-.67-2.74h0A2.43,2.43,0,0,0,201.44,452.72Z"/><path class="cls-7" d="M182.31,482.89a6.24,6.24,0,0,0,1.18.38,238.59,238.59,0,0,0,241.28-58.68,5.83,5.83,0,0,0-8.25-8.24,227,227,0,0,1-227.45,56.46c-.35-.86-.69-1.73-1-2.59a18.87,18.87,0,0,1,3.86-19.29l8.86-9.62a144.87,144.87,0,0,0,33.89,20.92,5.74,5.74,0,0,0,2.35.5,5.83,5.83,0,0,0,2.36-11.16,129.22,129.22,0,0,1-34.66-22.33c-6-7.49-10.1-16.29-12.46-22.38a18.26,18.26,0,0,1-1.14-5.1,141,141,0,0,1,34.74,3.15,24.67,24.67,0,0,1,11.95,6.59C248,421.62,275.64,446.91,314,463.23a5.91,5.91,0,0,0,2.28.46,5.83,5.83,0,0,0,2.28-11.19c-36.45-15.52-62.82-39.61-72.47-49.25a36.25,36.25,0,0,0-17.6-9.7,150.29,150.29,0,0,0-34.29-3.5l18-33.11a5.87,5.87,0,0,0,.36-.81c8.24-22.89-7.17-36.58-16.48-40.63l-.22-.09L140.28,294a42.64,42.64,0,0,1-16.48-68.16L257.61,75.71a33.68,33.68,0,0,0,8.55-22.44V49a5.83,5.83,0,1,0-11.65,0v4.3A22.06,22.06,0,0,1,248.91,68L115.1,218.07a54.3,54.3,0,0,0,21,86.79l55.4,21.37c1.45.66,16.3,7.91,10.21,25.55L183,386.2a29.6,29.6,0,0,0-1.6,24.87,103.31,103.31,0,0,0,11.4,21.71L183.36,443a30.44,30.44,0,0,0-7.77,25.12C90.05,435.63,29.11,352.81,29.11,256a225.83,225.83,0,0,1,38.6-126.65,5.82,5.82,0,1,0-9.66-6.51A237.35,237.35,0,0,0,17.45,256C17.45,361.83,86.73,451.77,182.31,482.89Z"/><path class="cls-7" d="M256,17.45a238.82,238.82,0,0,0-114.16,29,5.83,5.83,0,1,0,5.59,10.23A227.09,227.09,0,0,1,256,29.11c125.11,0,226.89,101.78,226.89,226.89a229.65,229.65,0,0,1-1.65,27.54,5.83,5.83,0,0,0,5.09,6.49,5.48,5.48,0,0,0,.7,0,5.83,5.83,0,0,0,5.78-5.13A242.52,242.52,0,0,0,494.55,256C494.55,124.46,387.54,17.45,256,17.45Z"/><path class="cls-7" d="M99.15,89.9a5.79,5.79,0,0,0,3.94-1.53l2.14-1.93a5.83,5.83,0,0,0-7.75-8.71l-2.26,2A5.83,5.83,0,0,0,99.15,89.9Z"/><path class="cls-7" d="M263.55,459.42a5.83,5.83,0,0,0-2.41,11.4c1.16.25,2.34.48,3.52.69a5.33,5.33,0,0,0,1,.1,5.83,5.83,0,0,0,1-11.57C265.67,459.85,264.6,459.64,263.55,459.42Z"/><path class="cls-7" d="M211.52,295.12a5.83,5.83,0,0,0,5.5,6.14c5.43.3,22.22,2.74,28,9.84a5.85,5.85,0,0,0,4.51,2.14,5.84,5.84,0,0,0,5.4-8c-.67-1.67-17-41.06-57.38-48.3a16.77,16.77,0,0,0-18,23.87,31.34,31.34,0,0,0,8.22,10.4,5.83,5.83,0,1,0,7.45-9,19.83,19.83,0,0,1-5.2-6.57,5.07,5.07,0,0,1,.54-5.32,4.9,4.9,0,0,1,4.88-1.95c17.57,3.15,30,14,37.83,23.79a83.62,83.62,0,0,0-15.69-2.56A5.87,5.87,0,0,0,211.52,295.12Z"/><path class="cls-7" d="M252.18,334.68a5.83,5.83,0,0,0-2.52,11.38,79.42,79.42,0,0,0,16,1.55c9.79,0,22.29-1.75,32.27-9,9.41-6.83,14.84-17.14,16.14-30.65,1.58-16.37-2.36-32.67-11.72-48.46a5.83,5.83,0,1,0-10,5.94c8.07,13.62,11.49,27.54,10.15,41.4-1,10.16-4.69,17.46-11.35,22.31C276.43,339.84,252.43,334.74,252.18,334.68Z"/><path class="cls-7" d="M309,92.24a32.27,32.27,0,0,1-4.52,8.13c-5.46,7-13.63,10.7-25,11.18a5.83,5.83,0,0,0,.24,11.65H280c14.8-.62,26.15-5.91,33.74-15.72a40.48,40.48,0,0,0,2.45-3.58c10.78,9.38,36.16,25.89,81.35,25.89q5.25,0,10.86-.31a5.83,5.83,0,0,0-.66-11.64c-53.15,3-79.42-18.25-86.56-25.24,5.34-17.71,1.42-36.56,1.2-37.58A5.83,5.83,0,0,0,311,57.46c0,.23,4,19.37-2,34.74Z"/><path class="cls-7" d="M317.68,126.74A29.86,29.86,0,0,1,305,137.27a5.83,5.83,0,0,0,2.33,11.17,5.74,5.74,0,0,0,2.32-.48,41.67,41.67,0,0,0,17.65-14.69,5.83,5.83,0,1,0-9.65-6.53Z"/><path class="cls-7" d="M340.94,138.9a29.86,29.86,0,0,1-9.56,13.39,5.83,5.83,0,0,0,7.21,9.16,41.79,41.79,0,0,0,13.35-18.68,5.83,5.83,0,1,0-11-3.87Z"/><path class="cls-7" d="M368.53,168.76a5.81,5.81,0,0,0,7.57-3.24A41.51,41.51,0,0,0,378.87,146a5.83,5.83,0,0,0-11.6,1.17,29.71,29.71,0,0,1-2,14A5.84,5.84,0,0,0,368.53,168.76Z"/></svg>