<svg id="icon" xmlns="http://www.w3.org/2000/svg" viewBox="0 0 512 512"><defs><style>.cls-1{fill:#ffe2d4;}.cls-2{fill:#f7bdb5;}.cls-3{fill:#efb9ab;}.cls-4{fill:#e89991;}.cls-5{fill:#f9e7e5;}.cls-6{fill:#fff9f8;}.cls-7{fill:#4d4d4d;}</style></defs><title>shoulder female</title><path class="cls-1" d="M353.76,336.75,335.91,214.62c-6.2-43.92-27.18-60.84-44.81-67.17a61.54,61.54,0,0,0-31.71-2.28c-14.93,2.67-34.41,4.08-52.08,4.82a44.31,44.31,0,0,1-46.14-44.29V43.43A232.75,232.75,0,0,0,23.28,256c0,124.68,98.05,226.46,221.26,232.44,7.1-36,11.51-65.26,11.51-65.26a146.89,146.89,0,0,0,29.13-18.79l15.12,36.66a164.67,164.67,0,0,1,11,41A231.42,231.42,0,0,0,379,453.58C368.06,400,353.76,336.75,353.76,336.75Z"/><circle class="cls-2" cx="244.54" cy="354.78" r="34.07"/><path class="cls-3" d="M164.36,176.55c-26-7.18-45.35-2.18-55.34,2a9.46,9.46,0,0,1-11-2.76,33.65,33.65,0,0,0-5.33-5.28,20.58,20.58,0,0,1-7.53-16V98a232.9,232.9,0,0,0-47.89,78.36c32.35-1.94,50.38,16.2,58.58,27.95a7.74,7.74,0,0,0,12.22.7C132.81,176.13,164.36,176.55,164.36,176.55Z"/><path class="cls-3" d="M76.93,404.64c11.07-28.13,8.23-59.9,8.23-59.9V315.65a5.09,5.09,0,0,0-9.81-1.89C67.1,334.57,54.21,344,42.13,347.88A232.68,232.68,0,0,0,76.93,404.64Z"/><path class="cls-4" d="M263.56,383.05a42.89,42.89,0,0,0-52.86-32.2,34.07,34.07,0,0,0,52.86,32.2Z"/><path class="cls-5" d="M244.54,320.71a34.08,34.08,0,0,0-4.88.35,31.82,31.82,0,0,0,35.88,19.59A34.07,34.07,0,0,0,244.54,320.71Z"/><path class="cls-3" d="M319.3,390.74c18.8-64.81-28.7-108.2-28.7-108.2,12.75,20.76,14.57,54.72,14.57,54.72l-1.61,14.84a20.86,20.86,0,0,0-17.22,10.2c-7.67,12.95-26,31.92-68.13,35.5-20,1.7-40.2-2.37-57.48-12.58-18.41-10.87-37.88-30.55-43.42-65.92a4.94,4.94,0,0,0-4-4.21,4.78,4.78,0,0,0-5.54,4.48c-1.24,24.44.48,139.25,141.78,142.14,4.08-22.68,6.47-38.53,6.47-38.53a136.87,136.87,0,0,0,20.7-12.32h0c5.19-3.7,8.42-6.47,8.42-6.47l15.12,36.66a164.67,164.67,0,0,1,11,41,231.28,231.28,0,0,0,27.35-8.5l-19.4-66.09A30,30,0,0,1,319.3,390.74Z"/><path class="cls-6" d="M310.44,206.88,316.62,259a26.66,26.66,0,0,0,29.19,23.38l-9.9-67.77c-6.2-43.92-27.18-60.84-44.81-67.17a61.54,61.54,0,0,0-31.71-2.28c-2.5.45-5.13.85-7.86,1.23a26.72,26.72,0,0,0,22.93,24.54C288.6,173,305,181.17,310.44,206.88Z"/><path class="cls-6" d="M209.16,286.41l1.19,3.38c1.8,5.1,6.27,8.12,11.06,7.49,7.49-1,19.14-1.11,29.58,4.61,3,1.67,6.77.31,8.6-3.1h0a8.56,8.56,0,0,0-1-9.74c-6.16-6.49-20-17.3-42.46-15.39C210.68,274.12,207.13,280.67,209.16,286.41Z"/><path class="cls-7" d="M254.05,321.54a5.83,5.83,0,0,0-5.16-6.43,42.11,42.11,0,0,0-4.35-.23,39.9,39.9,0,1,0,39.9,39.9c0-1.23-.06-2.47-.17-3.69a5.83,5.83,0,1,0-11.61,1.07c.08.86.12,1.74.12,2.62a28.25,28.25,0,1,1-28.24-28.25,28.94,28.94,0,0,1,3.09.17A5.82,5.82,0,0,0,254.05,321.54Z"/><path class="cls-7" d="M265.71,336.09a5.83,5.83,0,0,0,8.74-7.71l-.46-.52a5.83,5.83,0,1,0-8.62,7.84Z"/><path class="cls-7" d="M293.25,424a5.82,5.82,0,0,0-3.17,7.61l4.84,11.71a159.08,159.08,0,0,1,10.6,39.59,5.83,5.83,0,0,0,5.77,5.06,6.81,6.81,0,0,0,.78-.05,5.84,5.84,0,0,0,5-6.55,170.61,170.61,0,0,0-11.39-42.49l-4.83-11.72A5.83,5.83,0,0,0,293.25,424Z"/><path class="cls-7" d="M128.79,341.54a5.83,5.83,0,1,0-11.63.75c3.38,52.22,43.16,78.07,44.86,79.15a99.41,99.41,0,0,0,53.81,15.4,111.86,111.86,0,0,0,42.43-8.26c4.32-1.63,56.32-22.52,54.93-79.79-1.23-50.39-30.42-77.37-39.43-84.51V251.33a5.83,5.83,0,1,0-11.65,0V267.2a5.85,5.85,0,0,0,2.56,4.83c.36.24,35.59,24.64,36.87,77.05,1.24,50.83-45.43,67.9-47.41,68.6-.08,0-.15.08-.24.11s-.17,0-.25.09c-.44.2-44.36,19.66-85.38-6.29C167.9,411.36,131.8,387.91,128.79,341.54Z"/><path class="cls-7" d="M243.4,349.06a7.66,7.66,0,0,0-1.09.33,7.52,7.52,0,0,0-1,.54,6.17,6.17,0,0,0-.89.73,5.86,5.86,0,0,0-1.7,4.11,6.31,6.31,0,0,0,.11,1.15,6.51,6.51,0,0,0,.34,1.09,5.18,5.18,0,0,0,.54,1,5.87,5.87,0,0,0,.71.87,5.08,5.08,0,0,0,.89.73,5.78,5.78,0,0,0,1,.54,5.09,5.09,0,0,0,1.09.33,5.43,5.43,0,0,0,2.27,0,5.09,5.09,0,0,0,1.09-.33,5.78,5.78,0,0,0,1-.54,5.08,5.08,0,0,0,.89-.73,7.64,7.64,0,0,0,.73-.87,6,6,0,0,0,.86-2.1,5.54,5.54,0,0,0,.11-1.15,5.82,5.82,0,0,0-7-5.71Z"/><path class="cls-7" d="M165.21,171.06c-1-.14-23.83-3.29-43.05,12.77a5.83,5.83,0,0,0,7.47,8.95c15.07-12.59,33.6-10.23,33.91-10.19a5.83,5.83,0,0,0,1.67-11.53Z"/><path class="cls-7" d="M256,494.55c1.54,0,3.08,0,4.62,0a5.83,5.83,0,0,0-.11-11.66h-.11c-1.47,0-2.93,0-4.4,0s-3,0-4.44-.05c2.22-11.52,4.39-23.4,6.45-35.44a5.83,5.83,0,0,0-11.49-2c-2.15,12.55-4.41,24.92-6.73,36.88A226.81,226.81,0,0,1,74.44,391.93,102.11,102.11,0,0,0,91,342.29a5.83,5.83,0,0,0-11.63-.75,90.25,90.25,0,0,1-12.23,40A227,227,0,0,1,41.41,182.12a5.73,5.73,0,0,0,3.19.47c.19,0,18.8-2.44,33.91,10.19A5.83,5.83,0,0,0,86,183.83c-15.58-13-33.54-13.41-40.31-13a226.26,226.26,0,0,1,22-41.46,5.82,5.82,0,1,0-9.66-6.51A237.35,237.35,0,0,0,17.45,256C17.45,387.54,124.46,494.55,256,494.55Z"/><path class="cls-7" d="M256,17.45A239.24,239.24,0,0,0,159.14,38l-.59.26c-5.67,2.54-11.25,5.27-16.71,8.25a5.83,5.83,0,1,0,5.59,10.23c2.6-1.42,5.25-2.78,7.91-4.09V105.7a50.15,50.15,0,0,0,52.22,50.11c22-.92,39.8-2.57,52.86-4.9a55.86,55.86,0,0,1,28.71,2c22.18,8,36.36,29.59,41,62.54L348,337.6c0,.14.05.29.08.44.14.61,13.71,60.7,24.4,112.71a226.36,226.36,0,0,1-21.54,11.39,5.83,5.83,0,0,0,4.88,10.59,239.08,239.08,0,0,0,26.42-14.31l.09-.05A238.41,238.41,0,0,0,494.55,256C494.55,124.46,387.54,17.45,256,17.45ZM383,444c-10.23-49.46-22.6-104.39-23.49-108.32L341.68,213.81c-6.69-47.34-30.12-65.2-48.61-71.85a67.67,67.67,0,0,0-34.7-2.53c-12.55,2.25-29.81,3.84-51.3,4.74A38.48,38.48,0,0,1,167,105.7V47.25a227.67,227.67,0,0,1,89-18.14c125.11,0,226.89,101.78,226.89,226.89A227.78,227.78,0,0,1,383,444Z"/><path class="cls-7" d="M97.48,77.73l-2.26,2a5.83,5.83,0,0,0,7.86,8.61l2.15-1.94a5.83,5.83,0,0,0-7.75-8.71Z"/></svg>