<svg xmlns="http://www.w3.org/2000/svg" viewBox="0 0 60 60"><title>10-Research</title><g id="_10-Research" data-name="10-Research"><path d="M1,53s3-2,11-2c10,0,18,8,18,8s7-8,18-8c8,0,11,2,11,2" style="fill:none;stroke:#000;stroke-linejoin:round;stroke-width:2px"/><path d="M44,33c3,0,6,3,6,3l8,13a38.112,38.112,0,0,0-13-2c-8,0-15,7-15,7s-7-7-15-7A38.112,38.112,0,0,0,2,49l8-13s3-3,6-3" style="fill:none;stroke:#000;stroke-linejoin:round;stroke-width:2px"/><line x1="30" y1="46" x2="30" y2="54" style="fill:none;stroke:#000;stroke-linejoin:round;stroke-width:2px"/><polyline points="34 14 37 14 37 18 23 18 23 14 26 14" style="fill:none;stroke:#000;stroke-linejoin:round;stroke-width:2px"/><path d="M26,18v4c-4,1-7,5-7,10a11,11,0,0,0,22,0c0-4.662-3-9-7-10V18" style="fill:none;stroke:#000;stroke-linejoin:round;stroke-width:2px"/><circle cx="27" cy="36" r="2" style="fill:none;stroke:#000;stroke-linejoin:round;stroke-width:2px"/><circle cx="32" cy="27" r="2" style="fill:none;stroke:#000;stroke-linejoin:round;stroke-width:2px"/><polygon points="42 9 33 9 30 14 27 9 18 9 18 1 42 1 42 9" style="fill:none;stroke:#000;stroke-linejoin:round;stroke-width:2px"/><line x1="25" y1="5" x2="27" y2="5" style="fill:none;stroke:#000;stroke-linejoin:round;stroke-width:2px"/><line x1="29" y1="5" x2="31" y2="5" style="fill:none;stroke:#000;stroke-linejoin:round;stroke-width:2px"/><line x1="33" y1="5" x2="35" y2="5" style="fill:none;stroke:#000;stroke-linejoin:round;stroke-width:2px"/></g></svg>