<svg xmlns="http://www.w3.org/2000/svg" viewBox="0 0 60 60"><title>15-Bio</title><g id="_15-Bio" data-name="15-Bio"><rect x="46.757" y="42.929" width="8.485" height="14.142" transform="translate(-20.418 50.707) rotate(-45)" style="fill:none;stroke:#000;stroke-linejoin:round;stroke-width:2px"/><line x1="44" y1="41" x2="47" y2="44" style="fill:none;stroke:#000;stroke-linejoin:round;stroke-width:2px"/><line x1="42" y1="43" x2="45" y2="46" style="fill:none;stroke:#000;stroke-linejoin:round;stroke-width:2px"/><circle cx="33" cy="33" r="14" style="fill:none;stroke:#000;stroke-linejoin:round;stroke-width:2px"/><path d="M49,39a24.356,24.356,0,0,0,3-12.5C52,13,40,1,26.5,1A25.5,25.5,0,0,0,1,26.5,25.238,25.238,0,0,0,26.5,52C32,52,36,51,40,48.137" style="fill:none;stroke:#000;stroke-linejoin:round;stroke-width:2px"/><ellipse cx="34" cy="33" rx="4" ry="6" style="fill:none;stroke:#000;stroke-linejoin:round;stroke-width:2px"/><line x1="40" y1="27" x2="37" y2="29" style="fill:none;stroke:#000;stroke-linejoin:round;stroke-width:2px"/><line x1="41" y1="33" x2="38" y2="33" style="fill:none;stroke:#000;stroke-linejoin:round;stroke-width:2px"/><line x1="37" y1="37" x2="40" y2="39" style="fill:none;stroke:#000;stroke-linejoin:round;stroke-width:2px"/><line x1="28" y1="27" x2="31" y2="29" style="fill:none;stroke:#000;stroke-linejoin:round;stroke-width:2px"/><line x1="27" y1="33" x2="30" y2="33" style="fill:none;stroke:#000;stroke-linejoin:round;stroke-width:2px"/><line x1="31" y1="37" x2="28" y2="39" style="fill:none;stroke:#000;stroke-linejoin:round;stroke-width:2px"/><ellipse cx="17" cy="16" rx="3" ry="4" style="fill:none;stroke:#000;stroke-linejoin:round;stroke-width:2px"/><line x1="19" y1="13" x2="21" y2="11" style="fill:none;stroke:#000;stroke-linejoin:round;stroke-width:2px"/><line x1="19" y1="19" x2="21" y2="21" style="fill:none;stroke:#000;stroke-linejoin:round;stroke-width:2px"/><line x1="20" y1="16" x2="22" y2="16" style="fill:none;stroke:#000;stroke-linejoin:round;stroke-width:2px"/><line x1="15" y1="13" x2="13" y2="11" style="fill:none;stroke:#000;stroke-linejoin:round;stroke-width:2px"/><line x1="15" y1="19" x2="13" y2="21" style="fill:none;stroke:#000;stroke-linejoin:round;stroke-width:2px"/><line x1="14" y1="16" x2="12" y2="16" style="fill:none;stroke:#000;stroke-linejoin:round;stroke-width:2px"/><ellipse cx="35" cy="12" rx="3" ry="2" style="fill:none;stroke:#000;stroke-linejoin:round;stroke-width:2px"/><line x1="37" y1="13" x2="39" y2="15" style="fill:none;stroke:#000;stroke-linejoin:round;stroke-width:2px"/><line x1="33" y1="13" x2="31" y2="15" style="fill:none;stroke:#000;stroke-linejoin:round;stroke-width:2px"/><line x1="35" y1="14" x2="35" y2="16" style="fill:none;stroke:#000;stroke-linejoin:round;stroke-width:2px"/><line x1="37" y1="11" x2="39" y2="9" style="fill:none;stroke:#000;stroke-linejoin:round;stroke-width:2px"/><line x1="33" y1="11" x2="31" y2="9" style="fill:none;stroke:#000;stroke-linejoin:round;stroke-width:2px"/><line x1="35" y1="10" x2="35" y2="8" style="fill:none;stroke:#000;stroke-linejoin:round;stroke-width:2px"/><ellipse cx="11" cy="34" rx="2" ry="3" style="fill:none;stroke:#000;stroke-linejoin:round;stroke-width:2px"/><line x1="10" y1="36" x2="8" y2="38" style="fill:none;stroke:#000;stroke-linejoin:round;stroke-width:2px"/><line x1="10" y1="32" x2="8" y2="30" style="fill:none;stroke:#000;stroke-linejoin:round;stroke-width:2px"/><line x1="9" y1="34" x2="7" y2="34" style="fill:none;stroke:#000;stroke-linejoin:round;stroke-width:2px"/><line x1="12" y1="36" x2="14" y2="38" style="fill:none;stroke:#000;stroke-linejoin:round;stroke-width:2px"/><line x1="12" y1="32" x2="14" y2="30" style="fill:none;stroke:#000;stroke-linejoin:round;stroke-width:2px"/><line x1="13" y1="34" x2="15" y2="34" style="fill:none;stroke:#000;stroke-linejoin:round;stroke-width:2px"/><circle cx="16" cy="43" r="2" style="fill:none;stroke:#000;stroke-linejoin:round;stroke-width:2px"/><circle cx="8" cy="23" r="2" style="fill:none;stroke:#000;stroke-linejoin:round;stroke-width:2px"/><circle cx="25" cy="8" r="2" style="fill:none;stroke:#000;stroke-linejoin:round;stroke-width:2px"/><circle cx="44" cy="17" r="2" style="fill:none;stroke:#000;stroke-linejoin:round;stroke-width:2px"/></g></svg>