<svg xmlns="http://www.w3.org/2000/svg" viewBox="0 0 60 60"><title>16-Flask</title><g id="_16-Flask" data-name="16-Flask"><path d="M34,26a4,4,0,0,0,0,8V47a2,2,0,0,0,4,0V34" style="fill:none;stroke:#000;stroke-linejoin:round;stroke-width:2px"/><path d="M33,26H9l4,8V58a.979.979,0,0,0,1,1H46a.979.979,0,0,0,1-1V31a4,4,0,0,0,0-8h0a5,5,0,0,0-10,0h0a2,2,0,0,0-4,0h0a7,7,0,0,0-14,0h0a2,2,0,0,0-4,0" style="fill:none;stroke:#000;stroke-linejoin:round;stroke-width:2px"/><line x1="17" y1="37" x2="21" y2="37" style="fill:none;stroke:#000;stroke-linejoin:round;stroke-width:2px"/><line x1="17" y1="42" x2="21" y2="42" style="fill:none;stroke:#000;stroke-linejoin:round;stroke-width:2px"/><line x1="17" y1="47" x2="21" y2="47" style="fill:none;stroke:#000;stroke-linejoin:round;stroke-width:2px"/><line x1="17" y1="52" x2="21" y2="52" style="fill:none;stroke:#000;stroke-linejoin:round;stroke-width:2px"/><path d="M34,8c0-2.209-4-7-4-7s-4,4.791-4,7a4,4,0,0,0,8,0Z" style="fill:none;stroke:#000;stroke-linejoin:round;stroke-width:2px"/></g></svg>