<svg xmlns="http://www.w3.org/2000/svg" viewBox="0 0 60 60"><title>18-Brain</title><g id="_18-Brain" data-name="18-Brain"><path d="M32,38V49a10,10,0,0,1-20,0h0A11,11,0,0,1,1,38c0-6,3-8,5-8-2,0-5-2-5-8A11,11,0,0,1,12,11h0A10,10,0,0,1,22,1c5.523,0,10,4.477,10,9V22" style="fill:none;stroke:#000;stroke-linejoin:round;stroke-width:2px"/><polygon points="45 1 41 1 39 5 41 9 45 9 47 5 45 1" style="fill:none;stroke:#000;stroke-linejoin:round;stroke-width:2px"/><polygon points="57 26 53 26 51 30 53 34 57 34 59 30 57 26" style="fill:none;stroke:#000;stroke-linejoin:round;stroke-width:2px"/><polygon points="45 51 41 51 39 55 41 59 45 59 47 55 45 51" style="fill:none;stroke:#000;stroke-linejoin:round;stroke-width:2px"/><line x1="36" y1="5" x2="34" y2="5" style="fill:none;stroke:#000;stroke-linejoin:round;stroke-width:2px"/><line x1="37" y1="11" x2="35" y2="11" style="fill:none;stroke:#000;stroke-linejoin:round;stroke-width:2px"/><line x1="37" y1="15" x2="35" y2="15" style="fill:none;stroke:#000;stroke-linejoin:round;stroke-width:2px"/><line x1="37" y1="30" x2="35" y2="30" style="fill:none;stroke:#000;stroke-linejoin:round;stroke-width:2px"/><line x1="33" y1="30" x2="31" y2="30" style="fill:none;stroke:#000;stroke-linejoin:round;stroke-width:2px"/><line x1="33" y1="25" x2="31" y2="25" style="fill:none;stroke:#000;stroke-linejoin:round;stroke-width:2px"/><line x1="33" y1="35" x2="31" y2="35" style="fill:none;stroke:#000;stroke-linejoin:round;stroke-width:2px"/><line x1="42" y1="30" x2="40" y2="30" style="fill:none;stroke:#000;stroke-linejoin:round;stroke-width:2px"/><line x1="47" y1="30" x2="45" y2="30" style="fill:none;stroke:#000;stroke-linejoin:round;stroke-width:2px"/><line x1="19" y1="30" x2="17" y2="30" style="fill:none;stroke:#000;stroke-linejoin:round;stroke-width:2px"/><line x1="14" y1="30" x2="12" y2="30" style="fill:none;stroke:#000;stroke-linejoin:round;stroke-width:2px"/><line x1="14" y1="26" x2="12" y2="26" style="fill:none;stroke:#000;stroke-linejoin:round;stroke-width:2px"/><line x1="14" y1="34" x2="12" y2="34" style="fill:none;stroke:#000;stroke-linejoin:round;stroke-width:2px"/><line x1="24" y1="30" x2="22" y2="30" style="fill:none;stroke:#000;stroke-linejoin:round;stroke-width:2px"/><line x1="29" y1="30" x2="27" y2="30" style="fill:none;stroke:#000;stroke-linejoin:round;stroke-width:2px"/><line x1="48" y1="11" x2="54" y2="23" style="fill:none;stroke:#000;stroke-linejoin:round;stroke-width:2px"/><line x1="54" y1="37" x2="48" y2="50" style="fill:none;stroke:#000;stroke-linejoin:round;stroke-width:2px"/><line x1="36" y1="55" x2="34" y2="55" style="fill:none;stroke:#000;stroke-linejoin:round;stroke-width:2px"/><polyline points="35 19 39 19 41 16" style="fill:none;stroke:#000;stroke-linejoin:round;stroke-width:2px"/><polyline points="35 25 41 25 43 23 44 23" style="fill:none;stroke:#000;stroke-linejoin:round;stroke-width:2px"/><circle cx="42" cy="15" r="2" style="fill:none;stroke:#000;stroke-linejoin:round;stroke-width:2px"/><circle cx="46" cy="23" r="2" style="fill:none;stroke:#000;stroke-linejoin:round;stroke-width:2px"/><line x1="37" y1="49" x2="35" y2="49" style="fill:none;stroke:#000;stroke-linejoin:round;stroke-width:2px"/><line x1="37" y1="45" x2="35" y2="45" style="fill:none;stroke:#000;stroke-linejoin:round;stroke-width:2px"/><polyline points="35 41 39 41 41 44" style="fill:none;stroke:#000;stroke-linejoin:round;stroke-width:2px"/><polyline points="35 35 41 35 43 37 44 37" style="fill:none;stroke:#000;stroke-linejoin:round;stroke-width:2px"/><circle cx="42" cy="45" r="2" style="fill:none;stroke:#000;stroke-linejoin:round;stroke-width:2px"/><circle cx="46" cy="37" r="2" style="fill:none;stroke:#000;stroke-linejoin:round;stroke-width:2px"/><path d="M12,15a8,8,0,0,0,16,0" style="fill:none;stroke:#000;stroke-linejoin:round;stroke-width:2px"/><path d="M12,45a8,8,0,0,1,16,0" style="fill:none;stroke:#000;stroke-linejoin:round;stroke-width:2px"/></g></svg>