<svg xmlns="http://www.w3.org/2000/svg" viewBox="0 0 60 60"><title>19-Dna</title><g id="_19-Dna" data-name="19-Dna"><path d="M5,0V9c0,5,22,7,22,13V38c0,6-22,8-22,13v9" style="fill:none;stroke:#000;stroke-linejoin:round;stroke-width:2px"/><path d="M27,0V9c0,5-22,7-22,13V38c0,6,22,8,22,13v9" style="fill:none;stroke:#000;stroke-linejoin:round;stroke-width:2px"/><line x1="8" y1="5" x2="17" y2="5" style="fill:none;stroke:#000;stroke-linejoin:round;stroke-width:2px"/><line x1="19" y1="5" x2="24" y2="5" style="fill:none;stroke:#000;stroke-linejoin:round;stroke-width:2px"/><line x1="8" y1="1" x2="24" y2="1" style="fill:none;stroke:#000;stroke-linejoin:round;stroke-width:2px"/><line x1="12" y1="9" x2="20" y2="9" style="fill:none;stroke:#000;stroke-linejoin:round;stroke-width:2px"/><line x1="12" y1="20" x2="20" y2="20" style="fill:none;stroke:#000;stroke-linejoin:round;stroke-width:2px"/><line x1="12" y1="40" x2="20" y2="40" style="fill:none;stroke:#000;stroke-linejoin:round;stroke-width:2px"/><line x1="9" y1="25" x2="17" y2="25" style="fill:none;stroke:#000;stroke-linejoin:round;stroke-width:2px"/><line x1="19" y1="25" x2="23" y2="25" style="fill:none;stroke:#000;stroke-linejoin:round;stroke-width:2px"/><line x1="9" y1="35" x2="15" y2="35" style="fill:none;stroke:#000;stroke-linejoin:round;stroke-width:2px"/><line x1="17" y1="35" x2="23" y2="35" style="fill:none;stroke:#000;stroke-linejoin:round;stroke-width:2px"/><line x1="15" y1="30" x2="24" y2="30" style="fill:none;stroke:#000;stroke-linejoin:round;stroke-width:2px"/><line x1="8" y1="30" x2="13" y2="30" style="fill:none;stroke:#000;stroke-linejoin:round;stroke-width:2px"/><line x1="8" y1="55" x2="17" y2="55" style="fill:none;stroke:#000;stroke-linejoin:round;stroke-width:2px"/><line x1="19" y1="55" x2="24" y2="55" style="fill:none;stroke:#000;stroke-linejoin:round;stroke-width:2px"/><line x1="11" y1="51" x2="21" y2="51" style="fill:none;stroke:#000;stroke-linejoin:round;stroke-width:2px"/><line x1="8" y1="59" x2="14" y2="59" style="fill:none;stroke:#000;stroke-linejoin:round;stroke-width:2px"/><line x1="16" y1="59" x2="24" y2="59" style="fill:none;stroke:#000;stroke-linejoin:round;stroke-width:2px"/><path d="M33,0V9c0,5,22,7,22,13V38c0,6-22,8-22,13v9" style="fill:none;stroke:#000;stroke-linejoin:round;stroke-width:2px"/><path d="M55,0V9c0,5-22,7-22,13V38c0,6,22,8,22,13v9" style="fill:none;stroke:#000;stroke-linejoin:round;stroke-width:2px"/><line x1="36" y1="5" x2="42" y2="5" style="fill:none;stroke:#000;stroke-linejoin:round;stroke-width:2px"/><line x1="44" y1="5" x2="52" y2="5" style="fill:none;stroke:#000;stroke-linejoin:round;stroke-width:2px"/><line x1="36" y1="1" x2="52" y2="1" style="fill:none;stroke:#000;stroke-linejoin:round;stroke-width:2px"/><line x1="40" y1="9" x2="48" y2="9" style="fill:none;stroke:#000;stroke-linejoin:round;stroke-width:2px"/><line x1="40" y1="20" x2="48" y2="20" style="fill:none;stroke:#000;stroke-linejoin:round;stroke-width:2px"/><line x1="40" y1="40" x2="48" y2="40" style="fill:none;stroke:#000;stroke-linejoin:round;stroke-width:2px"/><line x1="37" y1="25" x2="41" y2="25" style="fill:none;stroke:#000;stroke-linejoin:round;stroke-width:2px"/><line x1="43" y1="25" x2="46" y2="25" style="fill:none;stroke:#000;stroke-linejoin:round;stroke-width:2px"/><line x1="48" y1="25" x2="51" y2="25" style="fill:none;stroke:#000;stroke-linejoin:round;stroke-width:2px"/><line x1="37" y1="35" x2="45" y2="35" style="fill:none;stroke:#000;stroke-linejoin:round;stroke-width:2px"/><line x1="47" y1="35" x2="51" y2="35" style="fill:none;stroke:#000;stroke-linejoin:round;stroke-width:2px"/><line x1="41" y1="30" x2="52" y2="30" style="fill:none;stroke:#000;stroke-linejoin:round;stroke-width:2px"/><line x1="36" y1="30" x2="39" y2="30" style="fill:none;stroke:#000;stroke-linejoin:round;stroke-width:2px"/><line x1="36" y1="55" x2="42" y2="55" style="fill:none;stroke:#000;stroke-linejoin:round;stroke-width:2px"/><line x1="44" y1="55" x2="52" y2="55" style="fill:none;stroke:#000;stroke-linejoin:round;stroke-width:2px"/><line x1="39" y1="51" x2="49" y2="51" style="fill:none;stroke:#000;stroke-linejoin:round;stroke-width:2px"/><line x1="36" y1="59" x2="45" y2="59" style="fill:none;stroke:#000;stroke-linejoin:round;stroke-width:2px"/><line x1="47" y1="59" x2="52" y2="59" style="fill:none;stroke:#000;stroke-linejoin:round;stroke-width:2px"/></g></svg>