<svg xmlns="http://www.w3.org/2000/svg" viewBox="0 0 60 60"><title>2-Flask</title><g id="_2-Flask" data-name="2-Flask"><path d="M9,19v6h3v3L3,58a.979.979,0,0,0,1,1H34a.979.979,0,0,0,1-1L26,28V25h3V19Z" style="fill:none;stroke:#000;stroke-linejoin:round;stroke-width:2px"/><path d="M44,49a3,3,0,0,0,6,0V13h2V9H42v4h2Z" style="fill:none;stroke:#000;stroke-linejoin:round;stroke-width:2px"/><polyline points="35 48 35 13 37 13 37 9 27 9 27 13 29 13 29 16" style="fill:none;stroke:#000;stroke-linejoin:round;stroke-width:2px"/><polyline points="20 16 20 13 22 13 22 9 12 9 12 13 14 13 14 16" style="fill:none;stroke:#000;stroke-linejoin:round;stroke-width:2px"/><line x1="18" y1="25" x2="26" y2="25" style="fill:none;stroke:#000;stroke-linejoin:round;stroke-width:2px"/><line x1="19" y1="37" x2="25" y2="37" style="fill:none;stroke:#000;stroke-linejoin:round;stroke-width:2px"/><line x1="19" y1="44" x2="25" y2="44" style="fill:none;stroke:#000;stroke-linejoin:round;stroke-width:2px"/><line x1="19" y1="51" x2="25" y2="51" style="fill:none;stroke:#000;stroke-linejoin:round;stroke-width:2px"/><path d="M1,60V38a4.3,4.3,0,0,1,4-4h5" style="fill:none;stroke:#000;stroke-linejoin:round;stroke-width:2px"/><path d="M59,60V38a4.3,4.3,0,0,0-4-4H50" style="fill:none;stroke:#000;stroke-linejoin:round;stroke-width:2px"/><line x1="44" y1="34" x2="35" y2="34" style="fill:none;stroke:#000;stroke-linejoin:round;stroke-width:2px"/></g></svg>