<svg xmlns="http://www.w3.org/2000/svg" viewBox="0 0 60 60"><title>21-Biology</title><g id="_21-Biology" data-name="21-Biology"><path d="M23,21H18v4h4v6L7,58a.979.979,0,0,0,1,1H52a.979.979,0,0,0,1-1L38,31V25h4V21H37" style="fill:none;stroke:#000;stroke-linejoin:round;stroke-width:2px"/><path d="M33,34c0-1.657-3-6-3-6s-3,4.343-3,6a3,3,0,0,0,6,0Z" style="fill:none;stroke:#000;stroke-linejoin:round;stroke-width:2px"/><path d="M45,59c0-3.314-6.716-6-15-6s-15,2.686-15,6" style="fill:none;stroke:#000;stroke-linejoin:round;stroke-width:2px"/><line x1="30" y1="46" x2="30" y2="53" style="fill:none;stroke:#000;stroke-linejoin:round;stroke-width:2px"/><path d="M30,46a7.467,7.467,0,0,0-3-3c-3.225-1.612-7,1-7,1s4,3,6,3A10.343,10.343,0,0,0,30,46Z" style="fill:none;stroke:#000;stroke-linejoin:round;stroke-width:2px"/><path d="M30,46a7.467,7.467,0,0,1,3-3c3.225-1.612,7,1,7,1s-4,3-6,3A10.343,10.343,0,0,1,30,46Z" style="fill:none;stroke:#000;stroke-linejoin:round;stroke-width:2px"/><path d="M28,21a2,2,0,0,0,4,0V8H28Z" style="fill:none;stroke:#000;stroke-linejoin:round;stroke-width:2px"/><path d="M24,0c0,3,3,4,3,4V5H25V8H35V5H33V4s3-1,3-4" style="fill:none;stroke:#000;stroke-linejoin:round;stroke-width:2px"/></g></svg>