<svg xmlns="http://www.w3.org/2000/svg" viewBox="0 0 60 60"><title>22-Biology</title><g id="_22-Biology" data-name="22-Biology"><rect x="43.257" y="40.308" width="8.485" height="18.385" transform="translate(-21.089 48.086) rotate(-45)" style="fill:none;stroke:#000;stroke-linejoin:round;stroke-width:2px"/><line x1="39" y1="39" x2="42" y2="42" style="fill:none;stroke:#000;stroke-linejoin:round;stroke-width:2px"/><line x1="37" y1="41" x2="40" y2="44" style="fill:none;stroke:#000;stroke-linejoin:round;stroke-width:2px"/><circle cx="27" cy="30" r="15" style="fill:none;stroke:#000;stroke-linejoin:round;stroke-width:2px"/><path d="M24,48v3A8,8,0,0,1,8,51V7H4V1H28V7H24v5" style="fill:none;stroke:#000;stroke-linejoin:round;stroke-width:2px"/><line x1="24" y1="7" x2="13" y2="7" style="fill:none;stroke:#000;stroke-linejoin:round;stroke-width:2px"/><polygon points="25 24 19 24 16 29 19 34 25 34 28 29 25 24" style="fill:none;stroke:#000;stroke-linejoin:round;stroke-width:2px"/><polygon points="34 29 28 29 25 34 28 39 34 39 37 34 34 29" style="fill:none;stroke:#000;stroke-linejoin:round;stroke-width:2px"/><line x1="25" y1="24" x2="28" y2="19" style="fill:none;stroke:#000;stroke-linejoin:round;stroke-width:2px"/><line x1="34" y1="29" x2="37" y2="24" style="fill:none;stroke:#000;stroke-linejoin:round;stroke-width:2px"/><line x1="30" y1="24" x2="32" y2="24" style="fill:none;stroke:#000;stroke-linejoin:round;stroke-width:2px"/><line x1="30" y1="34" x2="32" y2="34" style="fill:none;stroke:#000;stroke-linejoin:round;stroke-width:2px"/><line x1="21" y1="29" x2="23" y2="29" style="fill:none;stroke:#000;stroke-linejoin:round;stroke-width:2px"/><line x1="21" y1="39" x2="23" y2="39" style="fill:none;stroke:#000;stroke-linejoin:round;stroke-width:2px"/></g></svg>