<svg xmlns="http://www.w3.org/2000/svg" viewBox="0 0 60 60"><title>23-Dna</title><g id="_23-Dna" data-name="23-Dna"><path d="M6,0V9c0,5,22,7,22,13V38c0,6-22,8-22,13v9" style="fill:none;stroke:#000;stroke-linejoin:round;stroke-width:2px"/><path d="M28,0V9c0,5-22,7-22,13V38c0,6,22,8,22,13v9" style="fill:none;stroke:#000;stroke-linejoin:round;stroke-width:2px"/><line x1="9" y1="5" x2="18" y2="5" style="fill:none;stroke:#000;stroke-linejoin:round;stroke-width:2px"/><line x1="20" y1="5" x2="25" y2="5" style="fill:none;stroke:#000;stroke-linejoin:round;stroke-width:2px"/><line x1="9" y1="1" x2="25" y2="1" style="fill:none;stroke:#000;stroke-linejoin:round;stroke-width:2px"/><line x1="13" y1="9" x2="21" y2="9" style="fill:none;stroke:#000;stroke-linejoin:round;stroke-width:2px"/><line x1="13" y1="20" x2="21" y2="20" style="fill:none;stroke:#000;stroke-linejoin:round;stroke-width:2px"/><line x1="13" y1="40" x2="21" y2="40" style="fill:none;stroke:#000;stroke-linejoin:round;stroke-width:2px"/><line x1="10" y1="25" x2="18" y2="25" style="fill:none;stroke:#000;stroke-linejoin:round;stroke-width:2px"/><line x1="20" y1="25" x2="24" y2="25" style="fill:none;stroke:#000;stroke-linejoin:round;stroke-width:2px"/><line x1="10" y1="35" x2="16" y2="35" style="fill:none;stroke:#000;stroke-linejoin:round;stroke-width:2px"/><line x1="18" y1="35" x2="24" y2="35" style="fill:none;stroke:#000;stroke-linejoin:round;stroke-width:2px"/><line x1="16" y1="30" x2="25" y2="30" style="fill:none;stroke:#000;stroke-linejoin:round;stroke-width:2px"/><line x1="9" y1="30" x2="14" y2="30" style="fill:none;stroke:#000;stroke-linejoin:round;stroke-width:2px"/><line x1="9" y1="55" x2="18" y2="55" style="fill:none;stroke:#000;stroke-linejoin:round;stroke-width:2px"/><line x1="20" y1="55" x2="25" y2="55" style="fill:none;stroke:#000;stroke-linejoin:round;stroke-width:2px"/><line x1="12" y1="51" x2="22" y2="51" style="fill:none;stroke:#000;stroke-linejoin:round;stroke-width:2px"/><line x1="9" y1="59" x2="15" y2="59" style="fill:none;stroke:#000;stroke-linejoin:round;stroke-width:2px"/><line x1="17" y1="59" x2="25" y2="59" style="fill:none;stroke:#000;stroke-linejoin:round;stroke-width:2px"/><polyline points="31 59 54 59 54 6 46 6" style="fill:none;stroke:#000;stroke-linejoin:round;stroke-width:2px"/><polyline points="31 54 50 54 50 9 48 9" style="fill:none;stroke:#000;stroke-linejoin:round;stroke-width:2px"/><polyline points="31 3 45 3 45 10 31 10" style="fill:none;stroke:#000;stroke-linejoin:round;stroke-width:2px"/><line x1="45" y1="48" x2="33" y2="48" style="fill:none;stroke:#000;stroke-linejoin:round;stroke-width:2px"/><line x1="45" y1="40" x2="39" y2="40" style="fill:none;stroke:#000;stroke-linejoin:round;stroke-width:2px"/><line x1="37" y1="44" x2="33" y2="44" style="fill:none;stroke:#000;stroke-linejoin:round;stroke-width:2px"/><line x1="37" y1="40" x2="33" y2="40" style="fill:none;stroke:#000;stroke-linejoin:round;stroke-width:2px"/><line x1="45" y1="44" x2="39" y2="44" style="fill:none;stroke:#000;stroke-linejoin:round;stroke-width:2px"/><polygon points="41 27 37 27 35 31 37 35 41 35 43 31 41 27" style="fill:none;stroke:#000;stroke-linejoin:round;stroke-width:2px"/><polygon points="41 19 37 19 35 23 37 27 41 27 43 23 41 19" style="fill:none;stroke:#000;stroke-linejoin:round;stroke-width:2px"/></g></svg>