<svg xmlns="http://www.w3.org/2000/svg" viewBox="0 0 60 60"><title>24-Flask</title><g id="_24-Flask" data-name="24-Flask"><path d="M39,8c0-4.343-4-7-8-7s-8,3-8,7a9.078,9.078,0,0,0,3,7l1,4.792a4.959,4.959,0,0,0,3.989,1.966A5.026,5.026,0,0,0,35,19.792L36,15A9.078,9.078,0,0,0,39,8Z" style="fill:none;stroke:#000;stroke-linecap:round;stroke-linejoin:round;stroke-width:2px"/><path d="M30,16c10,0,9-8,9-8" style="fill:none;stroke:#000;stroke-linejoin:round;stroke-width:2px"/><line x1="42" y1="8" x2="44" y2="8" style="fill:none;stroke:#000;stroke-linejoin:round;stroke-width:2px"/><line x1="46" y1="8" x2="48" y2="8" style="fill:none;stroke:#000;stroke-linejoin:round;stroke-width:2px"/><line x1="50" y1="8" x2="52" y2="8" style="fill:none;stroke:#000;stroke-linejoin:round;stroke-width:2px"/><line x1="44" y1="12" x2="46" y2="12" style="fill:none;stroke:#000;stroke-linejoin:round;stroke-width:2px"/><line x1="44" y1="4" x2="46" y2="4" style="fill:none;stroke:#000;stroke-linejoin:round;stroke-width:2px"/><line x1="48" y1="14" x2="50" y2="14" style="fill:none;stroke:#000;stroke-linejoin:round;stroke-width:2px"/><line x1="48" y1="2" x2="50" y2="2" style="fill:none;stroke:#000;stroke-linejoin:round;stroke-width:2px"/><line x1="20" y1="8" x2="18" y2="8" style="fill:none;stroke:#000;stroke-linejoin:round;stroke-width:2px"/><line x1="16" y1="8" x2="14" y2="8" style="fill:none;stroke:#000;stroke-linejoin:round;stroke-width:2px"/><line x1="12" y1="8" x2="10" y2="8" style="fill:none;stroke:#000;stroke-linejoin:round;stroke-width:2px"/><line x1="18" y1="12" x2="16" y2="12" style="fill:none;stroke:#000;stroke-linejoin:round;stroke-width:2px"/><line x1="18" y1="4" x2="16" y2="4" style="fill:none;stroke:#000;stroke-linejoin:round;stroke-width:2px"/><line x1="14" y1="14" x2="12" y2="14" style="fill:none;stroke:#000;stroke-linejoin:round;stroke-width:2px"/><line x1="14" y1="2" x2="12" y2="2" style="fill:none;stroke:#000;stroke-linejoin:round;stroke-width:2px"/><path d="M59,35H38v4l2,3V58a.979.979,0,0,0,1,1H58a.979.979,0,0,0,1-1Z" style="fill:none;stroke:#000;stroke-linejoin:round;stroke-width:2px"/><rect x="1" y="37" width="29" height="22" style="fill:none;stroke:#000;stroke-linejoin:round;stroke-width:2px"/><rect x="5" y="33" width="4" height="4" style="fill:none;stroke:#000;stroke-linejoin:round;stroke-width:2px"/><rect x="22" y="33" width="4" height="4" style="fill:none;stroke:#000;stroke-linejoin:round;stroke-width:2px"/><rect x="5" y="50" width="21" height="5" style="fill:none;stroke:#000;stroke-linejoin:round;stroke-width:2px"/><line x1="5" y1="42" x2="9" y2="42" style="fill:none;stroke:#000;stroke-linejoin:round;stroke-width:2px"/><line x1="22" y1="42" x2="26" y2="42" style="fill:none;stroke:#000;stroke-linejoin:round;stroke-width:2px"/><line x1="24" y1="40" x2="24" y2="44" style="fill:none;stroke:#000;stroke-linejoin:round;stroke-width:2px"/><polyline points="7 30 7 27 3 27 3 24 7 20 24 20" style="fill:none;stroke:#000;stroke-linejoin:round;stroke-width:2px"/><polyline points="24 30 24 28 51 28 54 31 54 32" style="fill:none;stroke:#000;stroke-linejoin:round;stroke-width:2px"/><polyline points="48 25 48 23 45 20 38 20" style="fill:none;stroke:#000;stroke-linejoin:round;stroke-width:2px"/><line x1="48" y1="31" x2="48" y2="32" style="fill:none;stroke:#000;stroke-linejoin:round;stroke-width:2px"/><line x1="43" y1="46" x2="46" y2="46" style="fill:none;stroke:#000;stroke-linejoin:round;stroke-width:2px"/><line x1="43" y1="50" x2="46" y2="50" style="fill:none;stroke:#000;stroke-linejoin:round;stroke-width:2px"/><line x1="43" y1="54" x2="46" y2="54" style="fill:none;stroke:#000;stroke-linejoin:round;stroke-width:2px"/><polyline points="28 12 28 7 31 10 34 7 34 12" style="fill:none;stroke:#000;stroke-linejoin:round;stroke-width:2px"/></g></svg>