<svg xmlns="http://www.w3.org/2000/svg" viewBox="0 0 60 60"><title>25-Chemistry</title><g id="_25-Chemistry" data-name="25-Chemistry"><path d="M22,22H9v6h3v3L3,58a.979.979,0,0,0,1,1H32a.979.979,0,0,0,1-1L29,45" style="fill:none;stroke:#000;stroke-linejoin:round;stroke-width:2px"/><line x1="12" y1="28" x2="22" y2="28" style="fill:none;stroke:#000;stroke-linejoin:round;stroke-width:2px"/><line x1="18" y1="45" x2="23" y2="45" style="fill:none;stroke:#000;stroke-linejoin:round;stroke-width:2px"/><line x1="18" y1="40" x2="23" y2="40" style="fill:none;stroke:#000;stroke-linejoin:round;stroke-width:2px"/><line x1="18" y1="50" x2="23" y2="50" style="fill:none;stroke:#000;stroke-linejoin:round;stroke-width:2px"/><polygon points="25 36 28 36 28 42 34 36 57 36 57 1 25 1 25 36" style="fill:none;stroke:#000;stroke-linejoin:round;stroke-width:2px"/><circle cx="37" cy="17" r="2" style="fill:none;stroke:#000;stroke-linejoin:round;stroke-width:2px"/><circle cx="45" cy="17" r="2" style="fill:none;stroke:#000;stroke-linejoin:round;stroke-width:2px"/><line x1="38" y1="26" x2="44" y2="26" style="fill:none;stroke:#000;stroke-linejoin:round;stroke-width:2px"/><path d="M52,17a11,11,0,0,0-22,0,10.615,10.615,0,0,0,5,9v5H47V26A10.615,10.615,0,0,0,52,17Z" style="fill:none;stroke:#000;stroke-linejoin:round;stroke-width:2px"/></g></svg>