<svg xmlns="http://www.w3.org/2000/svg" viewBox="0 0 60 60"><title>3-Research</title><g id="_3-Research" data-name="3-Research"><polyline points="3 15 3 59 35 59" style="fill:none;stroke:#000;stroke-linejoin:round;stroke-width:2px"/><polyline points="22 4 44 4 44 24" style="fill:none;stroke:#000;stroke-linejoin:round;stroke-width:2px"/><line x1="38" y1="15" x2="28" y2="15" style="fill:none;stroke:#000;stroke-linejoin:round;stroke-width:2px"/><line x1="38" y1="19" x2="23" y2="19" style="fill:none;stroke:#000;stroke-linejoin:round;stroke-width:2px"/><line x1="38" y1="23" x2="31" y2="23" style="fill:none;stroke:#000;stroke-linejoin:round;stroke-width:2px"/><line x1="29" y1="23" x2="21" y2="23" style="fill:none;stroke:#000;stroke-linejoin:round;stroke-width:2px"/><circle cx="12" cy="9" r="8" style="fill:none;stroke:#000;stroke-linejoin:round;stroke-width:2px"/><circle cx="12" cy="9" r="4" style="fill:none;stroke:#000;stroke-linejoin:round;stroke-width:2px"/><polyline points="7 15 7 23 9 23 12 21 15 23 17 23 17 15" style="fill:none;stroke:#000;stroke-linejoin:round;stroke-width:2px"/><path d="M35,55H12a.979.979,0,0,1-1-1V28a.979.979,0,0,1,1-1H52a.979.979,0,0,1,1,1v4" style="fill:none;stroke:#000;stroke-linejoin:round;stroke-width:2px"/><rect x="16" y="32" width="12" height="15" style="fill:none;stroke:#000;stroke-linejoin:round;stroke-width:2px"/><path d="M16,46c0-2.761,2.686-5,6-5s6,2.239,6,5v1H16Z" style="fill:none;stroke:#000;stroke-linejoin:round;stroke-width:2px"/><circle cx="22" cy="38" r="3" style="fill:none;stroke:#000;stroke-linejoin:round;stroke-width:2px"/><line x1="32" y1="35" x2="38" y2="35" style="fill:none;stroke:#000;stroke-linejoin:round;stroke-width:2px"/><line x1="32" y1="43" x2="38" y2="43" style="fill:none;stroke:#000;stroke-linejoin:round;stroke-width:2px"/><line x1="32" y1="39" x2="34" y2="39" style="fill:none;stroke:#000;stroke-linejoin:round;stroke-width:2px"/><line x1="36" y1="39" x2="38" y2="39" style="fill:none;stroke:#000;stroke-linejoin:round;stroke-width:2px"/><path d="M42,35v3h1v2L37,58a.979.979,0,0,0,1,1H56a.979.979,0,0,0,1-1L51,40V38h1V35Z" style="fill:none;stroke:#000;stroke-linejoin:round;stroke-width:2px"/><line x1="47" y1="49" x2="50" y2="49" style="fill:none;stroke:#000;stroke-linejoin:round;stroke-width:2px"/><line x1="47" y1="53" x2="50" y2="53" style="fill:none;stroke:#000;stroke-linejoin:round;stroke-width:2px"/></g></svg>