<svg xmlns="http://www.w3.org/2000/svg" viewBox="0 0 60 60"><title>4-Research</title><g id="_4-Research" data-name="4-Research"><polyline points="18 39 18 59 59 59 59 1 18 1 18 13" style="fill:none;stroke:#000;stroke-linejoin:round;stroke-width:2px"/><line x1="25" y1="50" x2="40" y2="50" style="fill:none;stroke:#000;stroke-linejoin:round;stroke-width:2px"/><line x1="44" y1="50" x2="55" y2="50" style="fill:none;stroke:#000;stroke-linejoin:round;stroke-width:2px"/><line x1="37" y1="54" x2="55" y2="54" style="fill:none;stroke:#000;stroke-linejoin:round;stroke-width:2px"/><line x1="21" y1="54" x2="35" y2="54" style="fill:none;stroke:#000;stroke-linejoin:round;stroke-width:2px"/><path d="M53,43c0,1-1,3-2,3s-2-2-2-3V9a1,1,0,0,1,1-1h2a.979.979,0,0,1,1,1Z" style="fill:none;stroke:#000;stroke-miterlimit:10;stroke-width:2px"/><line x1="49" y1="13" x2="53" y2="13" style="fill:none;stroke:#000;stroke-miterlimit:10;stroke-width:2px"/><line x1="49" y1="42" x2="53" y2="42" style="fill:none;stroke:#000;stroke-miterlimit:10;stroke-width:2px"/><polygon points="13 12 5 12 1 19 5 26 13 26 17 19 13 12" style="fill:none;stroke:#000;stroke-linejoin:round;stroke-width:2px"/><polygon points="13 26 5 26 1 33 5 40 13 40 17 33 13 26" style="fill:none;stroke:#000;stroke-linejoin:round;stroke-width:2px"/><polygon points="38 12 29 12 25 19 29 26 37 26 41 19 38 12" style="fill:none;stroke:#000;stroke-linejoin:round;stroke-width:2px"/><polygon points="25 19 17 19 13 26 17 33 25 33 29 26 25 19" style="fill:none;stroke:#000;stroke-linejoin:round;stroke-width:2px"/><polygon points="37 26 29 26 25 33 29 40 37 40 41 33 37 26" style="fill:none;stroke:#000;stroke-linejoin:round;stroke-width:2px"/></g></svg>