<svg xmlns="http://www.w3.org/2000/svg" viewBox="0 0 60 60"><title>5-Report</title><g id="_5-Report" data-name="5-Report"><polyline points="19 3 11 3 11 59 49 59 49 3 41 3" style="fill:none;stroke:#000;stroke-linejoin:round;stroke-width:2px"/><polyline points="17 7 15 7 15 55 45 55 45 7 43 7" style="fill:none;stroke:#000;stroke-linejoin:round;stroke-width:2px"/><rect x="20" y="1" width="20" height="7" style="fill:none;stroke:#000;stroke-linejoin:round;stroke-width:2px"/><line x1="41" y1="15" x2="36" y2="15" style="fill:none;stroke:#000;stroke-linejoin:round;stroke-width:2px"/><line x1="34" y1="15" x2="28" y2="15" style="fill:none;stroke:#000;stroke-linejoin:round;stroke-width:2px"/><line x1="41" y1="19" x2="37" y2="19" style="fill:none;stroke:#000;stroke-linejoin:round;stroke-width:2px"/><line x1="35" y1="19" x2="28" y2="19" style="fill:none;stroke:#000;stroke-linejoin:round;stroke-width:2px"/><line x1="27" y1="50" x2="20" y2="50" style="fill:none;stroke:#000;stroke-linejoin:round;stroke-width:2px"/><line x1="27" y1="46" x2="20" y2="46" style="fill:none;stroke:#000;stroke-linejoin:round;stroke-width:2px"/><circle cx="23" cy="25" r="2" style="fill:none;stroke:#000;stroke-linejoin:round;stroke-width:2px"/><circle cx="38" cy="37" r="2" style="fill:none;stroke:#000;stroke-linejoin:round;stroke-width:2px"/><circle cx="22" cy="39" r="2" style="fill:none;stroke:#000;stroke-linejoin:round;stroke-width:2px"/><circle cx="38" cy="27" r="2" style="fill:none;stroke:#000;stroke-linejoin:round;stroke-width:2px"/><circle cx="29" cy="32" r="3" style="fill:none;stroke:#000;stroke-linejoin:round;stroke-width:2px"/><line x1="24" y1="27" x2="27" y2="30" style="fill:none;stroke:#000;stroke-linejoin:round;stroke-width:2px"/><line x1="23" y1="38" x2="27" y2="34" style="fill:none;stroke:#000;stroke-linejoin:round;stroke-width:2px"/><line x1="31" y1="34" x2="36" y2="36" style="fill:none;stroke:#000;stroke-linejoin:round;stroke-width:2px"/><line x1="31" y1="31" x2="36" y2="28" style="fill:none;stroke:#000;stroke-linejoin:round;stroke-width:2px"/><polyline points="29 50 40 50 40 42" style="fill:none;stroke:#000;stroke-linejoin:round;stroke-width:2px"/><polyline points="25 15 21 15 21 20" style="fill:none;stroke:#000;stroke-linejoin:round;stroke-width:2px"/></g></svg>