<svg xmlns="http://www.w3.org/2000/svg" viewBox="0 0 60 60"><title>6-Tube</title><g id="_6-Tube" data-name="6-Tube"><polyline points="28 15 28 1 32 1 32 15" style="fill:none;stroke:#000;stroke-linejoin:round;stroke-width:2px"/><polyline points="32 28 32 54 28 54 28 28" style="fill:none;stroke:#000;stroke-linejoin:round;stroke-width:2px"/><rect x="18" y="54" width="24" height="5" style="fill:none;stroke:#000;stroke-linejoin:round;stroke-width:2px"/><rect x="26" y="18" width="8" height="7" style="fill:none;stroke:#000;stroke-linejoin:round;stroke-width:2px"/><line x1="34" y1="21" x2="54" y2="21" style="fill:none;stroke:#000;stroke-linejoin:round;stroke-width:2px"/><line x1="7" y1="21" x2="26" y2="21" style="fill:none;stroke:#000;stroke-linejoin:round;stroke-width:2px"/><polyline points="49 18 49 10 51 10 51 6 41 6 41 10 43 10 43 18" style="fill:none;stroke:#000;stroke-linejoin:round;stroke-width:2px"/><path d="M43,24V46a3,3,0,0,0,6,0V24" style="fill:none;stroke:#000;stroke-linejoin:round;stroke-width:2px"/><polyline points="18 18 18 13 20 13 20 9 10 9 10 13 12 13 12 18" style="fill:none;stroke:#000;stroke-linejoin:round;stroke-width:2px"/><path d="M12,24V39a3,3,0,0,0,6,0V24" style="fill:none;stroke:#000;stroke-linejoin:round;stroke-width:2px"/></g></svg>