<svg xmlns="http://www.w3.org/2000/svg" viewBox="0 0 60 60"><title>9-Avatar</title><g id="_9-Avatar" data-name="9-Avatar"><path d="M27,32c-2.431-1.216-5.134-3.267-6-5-1.264-2.528-2-8.679-2-15A10.722,10.722,0,0,1,30,1,10.915,10.915,0,0,1,41,12c0,6.321-.736,12.472-2,15-.836,1.672-3.624,3.76-6,4.976A6.308,6.308,0,0,1,27,32Z" style="fill:none;stroke:#000;stroke-miterlimit:10;stroke-width:2px"/><line x1="44" y1="46" x2="44" y2="60" style="fill:none;stroke:#000;stroke-miterlimit:10;stroke-width:2px"/><line x1="16" y1="46" x2="16" y2="60" style="fill:none;stroke:#000;stroke-miterlimit:10;stroke-width:2px"/><path d="M52,60V45a10.166,10.166,0,0,0-7-10c-1.9-.632-9-2-9-2V30" style="fill:none;stroke:#000;stroke-linejoin:round;stroke-width:2px"/><path d="M24,30v3s-7.1,1.368-9,2A10.166,10.166,0,0,0,8,45V60" style="fill:none;stroke:#000;stroke-linejoin:round;stroke-width:2px"/><polyline points="36 33 30 58 39 51 37 47 41 43 40 34" style="fill:none;stroke:#000;stroke-linejoin:round;stroke-width:2px"/><polyline points="24 33 30 58 21 51 23 47 19 43 20 34" style="fill:none;stroke:#000;stroke-linejoin:round;stroke-width:2px"/><path d="M25,37a12.133,12.133,0,0,0,5,1,12.133,12.133,0,0,0,5-1" style="fill:none;stroke:#000;stroke-linejoin:round;stroke-width:2px"/><path d="M35,2a10.343,10.343,0,0,1,4-1c2,0,4,2,4,2s5,1,6,6a9.356,9.356,0,0,1-2,8,7.2,7.2,0,0,1,0,7c-2,4-9,4-9,4" style="fill:none;stroke:#000;stroke-linejoin:round;stroke-width:2px"/><path d="M24.2,2a10.343,10.343,0,0,0-4-1c-2,0-4,2-4,2s-5,1-6,6a9.356,9.356,0,0,0,2,8,7.2,7.2,0,0,0,0,7c2,4,9,4,9,4" style="fill:none;stroke:#000;stroke-linejoin:round;stroke-width:2px"/><circle cx="25" cy="18" r="3" style="fill:none;stroke:#000;stroke-linejoin:round;stroke-width:2px"/><circle cx="35" cy="18" r="3" style="fill:none;stroke:#000;stroke-linejoin:round;stroke-width:2px"/><line x1="28" y1="18" x2="32" y2="18" style="fill:none;stroke:#000;stroke-linejoin:round;stroke-width:2px"/><line x1="28" y1="25" x2="32" y2="25" style="fill:none;stroke:#000;stroke-linejoin:round;stroke-width:2px"/></g></svg>